G04 #@! TF.GenerationSoftware,KiCad,Pcbnew,9.0.7*
G04 #@! TF.CreationDate,2026-03-13T14:34:27-04:00*
G04 #@! TF.ProjectId,ArduinoBoard,41726475-696e-46f4-926f-6172642e6b69,1*
G04 #@! TF.SameCoordinates,Original*
G04 #@! TF.FileFunction,Copper,L1,Top*
G04 #@! TF.FilePolarity,Positive*
%FSLAX46Y46*%
G04 Gerber Fmt 4.6, Leading zero omitted, Abs format (unit mm)*
G04 Created by KiCad (PCBNEW 9.0.7) date 2026-03-13 14:34:27*
%MOMM*%
%LPD*%
G01*
G04 APERTURE LIST*
G04 #@! TA.AperFunction,ComponentPad*
%ADD10C,3.000000*%
G04 #@! TD*
G04 #@! TA.AperFunction,ComponentPad*
%ADD11R,3.000000X3.000000*%
G04 #@! TD*
G04 #@! TA.AperFunction,ComponentPad*
%ADD12O,1.600000X3.000000*%
G04 #@! TD*
G04 #@! TA.AperFunction,ComponentPad*
%ADD13R,1.600000X3.000000*%
G04 #@! TD*
G04 #@! TA.AperFunction,ComponentPad*
%ADD14R,2.500000X1.700000*%
G04 #@! TD*
G04 #@! TA.AperFunction,ComponentPad*
%ADD15O,2.500000X1.700000*%
G04 #@! TD*
G04 #@! TA.AperFunction,ComponentPad*
%ADD16O,1.700000X2.500000*%
G04 #@! TD*
G04 #@! TA.AperFunction,ComponentPad*
%ADD17O,3.000000X1.600000*%
G04 #@! TD*
G04 APERTURE END LIST*
D10*
X150985000Y-99132000D03*
D11*
X156065000Y-99132000D03*
D12*
X186125000Y-119387500D03*
X188665000Y-119387500D03*
D13*
X191205000Y-119387500D03*
D12*
X193745000Y-119387500D03*
D14*
X144764792Y-134705000D03*
D15*
X141724792Y-134705000D03*
X144764792Y-132165000D03*
X141724792Y-132165000D03*
X144764792Y-129625000D03*
X141724792Y-129625000D03*
D16*
X144514792Y-126835000D03*
D15*
X141724792Y-127085000D03*
D10*
X171305000Y-99142000D03*
X176385000Y-99142000D03*
X140805000Y-99135000D03*
X145885000Y-99135000D03*
D13*
X202325000Y-106955000D03*
D17*
X201725000Y-109995000D03*
X201725000Y-112535000D03*
X201725000Y-115075000D03*
X201725000Y-117615000D03*
D12*
X202325000Y-120655000D03*
D11*
X161145000Y-99142000D03*
X166225000Y-99142000D03*
D10*
X165904688Y-126811000D03*
X165904688Y-131891000D03*
D11*
X165904688Y-136971000D03*
D12*
X179735000Y-105435000D03*
X177195000Y-105435000D03*
X174655000Y-105435000D03*
D13*
X172115000Y-105435000D03*
D12*
X169575000Y-105435000D03*
X167035000Y-105435000D03*
X164495000Y-105435000D03*
X161955000Y-105435000D03*
X159415000Y-105435000D03*
X156875000Y-105435000D03*
X154335000Y-105435000D03*
X151795000Y-105435000D03*
X149255000Y-105435000D03*
X146715000Y-105435000D03*
X144175000Y-105435000D03*
X144175000Y-119675000D03*
X146715000Y-119675000D03*
X149255000Y-119675000D03*
X151795000Y-119675000D03*
X154335000Y-119675000D03*
X156875000Y-119675000D03*
X159415000Y-119675000D03*
X161955000Y-119675000D03*
X164495000Y-119675000D03*
X167035000Y-119675000D03*
X169575000Y-119675000D03*
X172115000Y-119675000D03*
X174655000Y-119675000D03*
D13*
X177195000Y-119675000D03*
D12*
X179735000Y-119675000D03*
M02*
