G04 #@! TF.GenerationSoftware,KiCad,Pcbnew,9.0.7*
G04 #@! TF.CreationDate,2026-03-13T14:34:27-04:00*
G04 #@! TF.ProjectId,ArduinoBoard,41726475-696e-46f4-926f-6172642e6b69,1*
G04 #@! TF.SameCoordinates,Original*
G04 #@! TF.FileFunction,Legend,Bot*
G04 #@! TF.FilePolarity,Positive*
%FSLAX46Y46*%
G04 Gerber Fmt 4.6, Leading zero omitted, Abs format (unit mm)*
G04 Created by KiCad (PCBNEW 9.0.7) date 2026-03-13 14:34:27*
%MOMM*%
%LPD*%
G01*
G04 APERTURE LIST*
%ADD10C,0.100000*%
%ADD11C,0.200000*%
%ADD12C,0.150000*%
%ADD13C,0.175000*%
G04 APERTURE END LIST*
D10*
X155392500Y-128156250D02*
X156917500Y-128153750D01*
X173040000Y-91085000D02*
X173040000Y-88045000D01*
X139117500Y-88005000D02*
X148390000Y-88005000D01*
X148390000Y-91125000D01*
X139117500Y-91125000D01*
X139117500Y-88005000D01*
X183725000Y-121585000D02*
X183725000Y-103185000D01*
X148386042Y-131395000D02*
X152763542Y-131395000D01*
X148115000Y-115535000D02*
X148115000Y-108615000D01*
X148415000Y-88035000D02*
X148415000Y-91125000D01*
X156960000Y-123855000D02*
X156960000Y-137240000D01*
X148390000Y-88005000D02*
X158747500Y-88010000D01*
X184355000Y-99885000D02*
X193155000Y-99885000D01*
X158747500Y-88010000D02*
X168590000Y-88010000D01*
X168590000Y-91125000D01*
X158747500Y-91125000D01*
X158747500Y-88010000D01*
X148390000Y-88035000D02*
X148390000Y-91125000D01*
X140265000Y-103275105D02*
X144925000Y-103275000D01*
X152766042Y-125595000D02*
X152766042Y-136460000D01*
X143753750Y-91125000D02*
X143753750Y-89565000D01*
X150566042Y-125595000D02*
X150566042Y-136460000D01*
X151175456Y-103150407D02*
X168465000Y-103150338D01*
X139117500Y-89565000D02*
X148390000Y-89565000D01*
X155402500Y-132716250D02*
X156927500Y-132713750D01*
X184355000Y-121585000D02*
X184355000Y-99885000D01*
X155355000Y-123855000D02*
X158565000Y-123855000D01*
X158565000Y-137240000D01*
X155355000Y-137240000D01*
X155355000Y-123855000D01*
X153593750Y-91125000D02*
X153593750Y-88022500D01*
X148390000Y-91125000D02*
X158747500Y-91125000D01*
X139885000Y-108615000D02*
X148115000Y-108615000D01*
X148386042Y-125615000D02*
X154133542Y-125615000D01*
X154133542Y-136460000D01*
X148386042Y-136460000D01*
X148386042Y-125615000D01*
X148386042Y-128595000D02*
X152763542Y-128595000D01*
X174241438Y-103215000D02*
X179005000Y-103215000D01*
X140265000Y-108635000D02*
X140265000Y-103275105D01*
X148386042Y-133795000D02*
X152763542Y-133795000D01*
X146035000Y-122015000D02*
X155325000Y-122015000D01*
X168590000Y-88015000D02*
X178975000Y-88015000D01*
X178975000Y-91125000D01*
X168590000Y-91125000D01*
X168590000Y-88015000D01*
X163668750Y-91125000D02*
X163668750Y-88035000D01*
D11*
X155782790Y-134235476D02*
X155744695Y-134159286D01*
X155744695Y-134159286D02*
X155744695Y-134045000D01*
X155744695Y-134045000D02*
X155782790Y-133930714D01*
X155782790Y-133930714D02*
X155858980Y-133854524D01*
X155858980Y-133854524D02*
X155935171Y-133816429D01*
X155935171Y-133816429D02*
X156087552Y-133778333D01*
X156087552Y-133778333D02*
X156201838Y-133778333D01*
X156201838Y-133778333D02*
X156354219Y-133816429D01*
X156354219Y-133816429D02*
X156430409Y-133854524D01*
X156430409Y-133854524D02*
X156506600Y-133930714D01*
X156506600Y-133930714D02*
X156544695Y-134045000D01*
X156544695Y-134045000D02*
X156544695Y-134121191D01*
X156544695Y-134121191D02*
X156506600Y-134235476D01*
X156506600Y-134235476D02*
X156468504Y-134273572D01*
X156468504Y-134273572D02*
X156201838Y-134273572D01*
X156201838Y-134273572D02*
X156201838Y-134121191D01*
X156544695Y-134616429D02*
X155744695Y-134616429D01*
X155744695Y-134616429D02*
X156544695Y-135073572D01*
X156544695Y-135073572D02*
X155744695Y-135073572D01*
X156544695Y-135454524D02*
X155744695Y-135454524D01*
X155744695Y-135454524D02*
X155744695Y-135645000D01*
X155744695Y-135645000D02*
X155782790Y-135759286D01*
X155782790Y-135759286D02*
X155858980Y-135835476D01*
X155858980Y-135835476D02*
X155935171Y-135873571D01*
X155935171Y-135873571D02*
X156087552Y-135911667D01*
X156087552Y-135911667D02*
X156201838Y-135911667D01*
X156201838Y-135911667D02*
X156354219Y-135873571D01*
X156354219Y-135873571D02*
X156430409Y-135835476D01*
X156430409Y-135835476D02*
X156506600Y-135759286D01*
X156506600Y-135759286D02*
X156544695Y-135645000D01*
X156544695Y-135645000D02*
X156544695Y-135454524D01*
X156554695Y-125665952D02*
X156173742Y-125399285D01*
X156554695Y-125208809D02*
X155754695Y-125208809D01*
X155754695Y-125208809D02*
X155754695Y-125513571D01*
X155754695Y-125513571D02*
X155792790Y-125589761D01*
X155792790Y-125589761D02*
X155830885Y-125627856D01*
X155830885Y-125627856D02*
X155907076Y-125665952D01*
X155907076Y-125665952D02*
X156021361Y-125665952D01*
X156021361Y-125665952D02*
X156097552Y-125627856D01*
X156097552Y-125627856D02*
X156135647Y-125589761D01*
X156135647Y-125589761D02*
X156173742Y-125513571D01*
X156173742Y-125513571D02*
X156173742Y-125208809D01*
X156135647Y-126008809D02*
X156135647Y-126275475D01*
X156554695Y-126389761D02*
X156554695Y-126008809D01*
X156554695Y-126008809D02*
X155754695Y-126008809D01*
X155754695Y-126008809D02*
X155754695Y-126389761D01*
X155754695Y-126618333D02*
X155754695Y-127075476D01*
X156554695Y-126846904D02*
X155754695Y-126846904D01*
D12*
X149884813Y-129366429D02*
X149599099Y-129166429D01*
X149884813Y-129023572D02*
X149284813Y-129023572D01*
X149284813Y-129023572D02*
X149284813Y-129252143D01*
X149284813Y-129252143D02*
X149313384Y-129309286D01*
X149313384Y-129309286D02*
X149341956Y-129337857D01*
X149341956Y-129337857D02*
X149399099Y-129366429D01*
X149399099Y-129366429D02*
X149484813Y-129366429D01*
X149484813Y-129366429D02*
X149541956Y-129337857D01*
X149541956Y-129337857D02*
X149570527Y-129309286D01*
X149570527Y-129309286D02*
X149599099Y-129252143D01*
X149599099Y-129252143D02*
X149599099Y-129023572D01*
X149941956Y-129480715D02*
X149941956Y-129937857D01*
X149570527Y-130080715D02*
X149570527Y-130280715D01*
X149884813Y-130366429D02*
X149884813Y-130080715D01*
X149884813Y-130080715D02*
X149284813Y-130080715D01*
X149284813Y-130080715D02*
X149284813Y-130366429D01*
X149884813Y-130623572D02*
X149284813Y-130623572D01*
X149284813Y-130623572D02*
X149884813Y-130966429D01*
X149884813Y-130966429D02*
X149284813Y-130966429D01*
D11*
X186678437Y-102518006D02*
X186726056Y-102660863D01*
X186726056Y-102660863D02*
X186773675Y-102708482D01*
X186773675Y-102708482D02*
X186868913Y-102756101D01*
X186868913Y-102756101D02*
X187011770Y-102756101D01*
X187011770Y-102756101D02*
X187107008Y-102708482D01*
X187107008Y-102708482D02*
X187154628Y-102660863D01*
X187154628Y-102660863D02*
X187202247Y-102565625D01*
X187202247Y-102565625D02*
X187202247Y-102184673D01*
X187202247Y-102184673D02*
X186202247Y-102184673D01*
X186202247Y-102184673D02*
X186202247Y-102518006D01*
X186202247Y-102518006D02*
X186249866Y-102613244D01*
X186249866Y-102613244D02*
X186297485Y-102660863D01*
X186297485Y-102660863D02*
X186392723Y-102708482D01*
X186392723Y-102708482D02*
X186487961Y-102708482D01*
X186487961Y-102708482D02*
X186583199Y-102660863D01*
X186583199Y-102660863D02*
X186630818Y-102613244D01*
X186630818Y-102613244D02*
X186678437Y-102518006D01*
X186678437Y-102518006D02*
X186678437Y-102184673D01*
X186535580Y-103613244D02*
X187202247Y-103613244D01*
X186535580Y-103184673D02*
X187059389Y-103184673D01*
X187059389Y-103184673D02*
X187154628Y-103232292D01*
X187154628Y-103232292D02*
X187202247Y-103327530D01*
X187202247Y-103327530D02*
X187202247Y-103470387D01*
X187202247Y-103470387D02*
X187154628Y-103565625D01*
X187154628Y-103565625D02*
X187107008Y-103613244D01*
X187154628Y-104518006D02*
X187202247Y-104422768D01*
X187202247Y-104422768D02*
X187202247Y-104232292D01*
X187202247Y-104232292D02*
X187154628Y-104137054D01*
X187154628Y-104137054D02*
X187107008Y-104089435D01*
X187107008Y-104089435D02*
X187011770Y-104041816D01*
X187011770Y-104041816D02*
X186726056Y-104041816D01*
X186726056Y-104041816D02*
X186630818Y-104089435D01*
X186630818Y-104089435D02*
X186583199Y-104137054D01*
X186583199Y-104137054D02*
X186535580Y-104232292D01*
X186535580Y-104232292D02*
X186535580Y-104422768D01*
X186535580Y-104422768D02*
X186583199Y-104518006D01*
X187202247Y-104946578D02*
X186202247Y-104946578D01*
X186821294Y-105041816D02*
X187202247Y-105327530D01*
X186535580Y-105327530D02*
X186916532Y-104946578D01*
X187107008Y-107089435D02*
X187154628Y-107041816D01*
X187154628Y-107041816D02*
X187202247Y-106898959D01*
X187202247Y-106898959D02*
X187202247Y-106803721D01*
X187202247Y-106803721D02*
X187154628Y-106660864D01*
X187154628Y-106660864D02*
X187059389Y-106565626D01*
X187059389Y-106565626D02*
X186964151Y-106518007D01*
X186964151Y-106518007D02*
X186773675Y-106470388D01*
X186773675Y-106470388D02*
X186630818Y-106470388D01*
X186630818Y-106470388D02*
X186440342Y-106518007D01*
X186440342Y-106518007D02*
X186345104Y-106565626D01*
X186345104Y-106565626D02*
X186249866Y-106660864D01*
X186249866Y-106660864D02*
X186202247Y-106803721D01*
X186202247Y-106803721D02*
X186202247Y-106898959D01*
X186202247Y-106898959D02*
X186249866Y-107041816D01*
X186249866Y-107041816D02*
X186297485Y-107089435D01*
X187202247Y-107660864D02*
X187154628Y-107565626D01*
X187154628Y-107565626D02*
X187107008Y-107518007D01*
X187107008Y-107518007D02*
X187011770Y-107470388D01*
X187011770Y-107470388D02*
X186726056Y-107470388D01*
X186726056Y-107470388D02*
X186630818Y-107518007D01*
X186630818Y-107518007D02*
X186583199Y-107565626D01*
X186583199Y-107565626D02*
X186535580Y-107660864D01*
X186535580Y-107660864D02*
X186535580Y-107803721D01*
X186535580Y-107803721D02*
X186583199Y-107898959D01*
X186583199Y-107898959D02*
X186630818Y-107946578D01*
X186630818Y-107946578D02*
X186726056Y-107994197D01*
X186726056Y-107994197D02*
X187011770Y-107994197D01*
X187011770Y-107994197D02*
X187107008Y-107946578D01*
X187107008Y-107946578D02*
X187154628Y-107898959D01*
X187154628Y-107898959D02*
X187202247Y-107803721D01*
X187202247Y-107803721D02*
X187202247Y-107660864D01*
X186535580Y-108422769D02*
X187202247Y-108422769D01*
X186630818Y-108422769D02*
X186583199Y-108470388D01*
X186583199Y-108470388D02*
X186535580Y-108565626D01*
X186535580Y-108565626D02*
X186535580Y-108708483D01*
X186535580Y-108708483D02*
X186583199Y-108803721D01*
X186583199Y-108803721D02*
X186678437Y-108851340D01*
X186678437Y-108851340D02*
X187202247Y-108851340D01*
X186535580Y-109232293D02*
X187202247Y-109470388D01*
X187202247Y-109470388D02*
X186535580Y-109708483D01*
X187154628Y-110470388D02*
X187202247Y-110375150D01*
X187202247Y-110375150D02*
X187202247Y-110184674D01*
X187202247Y-110184674D02*
X187154628Y-110089436D01*
X187154628Y-110089436D02*
X187059389Y-110041817D01*
X187059389Y-110041817D02*
X186678437Y-110041817D01*
X186678437Y-110041817D02*
X186583199Y-110089436D01*
X186583199Y-110089436D02*
X186535580Y-110184674D01*
X186535580Y-110184674D02*
X186535580Y-110375150D01*
X186535580Y-110375150D02*
X186583199Y-110470388D01*
X186583199Y-110470388D02*
X186678437Y-110518007D01*
X186678437Y-110518007D02*
X186773675Y-110518007D01*
X186773675Y-110518007D02*
X186868913Y-110041817D01*
X187202247Y-110946579D02*
X186535580Y-110946579D01*
X186726056Y-110946579D02*
X186630818Y-110994198D01*
X186630818Y-110994198D02*
X186583199Y-111041817D01*
X186583199Y-111041817D02*
X186535580Y-111137055D01*
X186535580Y-111137055D02*
X186535580Y-111232293D01*
X186535580Y-111422770D02*
X186535580Y-111803722D01*
X186202247Y-111565627D02*
X187059389Y-111565627D01*
X187059389Y-111565627D02*
X187154628Y-111613246D01*
X187154628Y-111613246D02*
X187202247Y-111708484D01*
X187202247Y-111708484D02*
X187202247Y-111803722D01*
X187154628Y-112518008D02*
X187202247Y-112422770D01*
X187202247Y-112422770D02*
X187202247Y-112232294D01*
X187202247Y-112232294D02*
X187154628Y-112137056D01*
X187154628Y-112137056D02*
X187059389Y-112089437D01*
X187059389Y-112089437D02*
X186678437Y-112089437D01*
X186678437Y-112089437D02*
X186583199Y-112137056D01*
X186583199Y-112137056D02*
X186535580Y-112232294D01*
X186535580Y-112232294D02*
X186535580Y-112422770D01*
X186535580Y-112422770D02*
X186583199Y-112518008D01*
X186583199Y-112518008D02*
X186678437Y-112565627D01*
X186678437Y-112565627D02*
X186773675Y-112565627D01*
X186773675Y-112565627D02*
X186868913Y-112089437D01*
X187202247Y-112994199D02*
X186535580Y-112994199D01*
X186726056Y-112994199D02*
X186630818Y-113041818D01*
X186630818Y-113041818D02*
X186583199Y-113089437D01*
X186583199Y-113089437D02*
X186535580Y-113184675D01*
X186535580Y-113184675D02*
X186535580Y-113279913D01*
X188812191Y-102232292D02*
X188812191Y-102422768D01*
X188812191Y-102422768D02*
X188764572Y-102518006D01*
X188764572Y-102518006D02*
X188716952Y-102565625D01*
X188716952Y-102565625D02*
X188574095Y-102660863D01*
X188574095Y-102660863D02*
X188383619Y-102708482D01*
X188383619Y-102708482D02*
X188002667Y-102708482D01*
X188002667Y-102708482D02*
X187907429Y-102660863D01*
X187907429Y-102660863D02*
X187859810Y-102613244D01*
X187859810Y-102613244D02*
X187812191Y-102518006D01*
X187812191Y-102518006D02*
X187812191Y-102327530D01*
X187812191Y-102327530D02*
X187859810Y-102232292D01*
X187859810Y-102232292D02*
X187907429Y-102184673D01*
X187907429Y-102184673D02*
X188002667Y-102137054D01*
X188002667Y-102137054D02*
X188240762Y-102137054D01*
X188240762Y-102137054D02*
X188336000Y-102184673D01*
X188336000Y-102184673D02*
X188383619Y-102232292D01*
X188383619Y-102232292D02*
X188431238Y-102327530D01*
X188431238Y-102327530D02*
X188431238Y-102518006D01*
X188431238Y-102518006D02*
X188383619Y-102613244D01*
X188383619Y-102613244D02*
X188336000Y-102660863D01*
X188336000Y-102660863D02*
X188240762Y-102708482D01*
X187812191Y-102994197D02*
X188812191Y-103327530D01*
X188812191Y-103327530D02*
X187812191Y-103660863D01*
X187812191Y-104946578D02*
X187812191Y-105137054D01*
X187812191Y-105137054D02*
X187859810Y-105232292D01*
X187859810Y-105232292D02*
X187955048Y-105327530D01*
X187955048Y-105327530D02*
X188145524Y-105375149D01*
X188145524Y-105375149D02*
X188478857Y-105375149D01*
X188478857Y-105375149D02*
X188669333Y-105327530D01*
X188669333Y-105327530D02*
X188764572Y-105232292D01*
X188764572Y-105232292D02*
X188812191Y-105137054D01*
X188812191Y-105137054D02*
X188812191Y-104946578D01*
X188812191Y-104946578D02*
X188764572Y-104851340D01*
X188764572Y-104851340D02*
X188669333Y-104756102D01*
X188669333Y-104756102D02*
X188478857Y-104708483D01*
X188478857Y-104708483D02*
X188145524Y-104708483D01*
X188145524Y-104708483D02*
X187955048Y-104756102D01*
X187955048Y-104756102D02*
X187859810Y-104851340D01*
X187859810Y-104851340D02*
X187812191Y-104946578D01*
X188145524Y-106232292D02*
X188812191Y-106232292D01*
X188145524Y-105803721D02*
X188669333Y-105803721D01*
X188669333Y-105803721D02*
X188764572Y-105851340D01*
X188764572Y-105851340D02*
X188812191Y-105946578D01*
X188812191Y-105946578D02*
X188812191Y-106089435D01*
X188812191Y-106089435D02*
X188764572Y-106184673D01*
X188764572Y-106184673D02*
X188716952Y-106232292D01*
X188145524Y-106565626D02*
X188145524Y-106946578D01*
X187812191Y-106708483D02*
X188669333Y-106708483D01*
X188669333Y-106708483D02*
X188764572Y-106756102D01*
X188764572Y-106756102D02*
X188812191Y-106851340D01*
X188812191Y-106851340D02*
X188812191Y-106946578D01*
D12*
X149456242Y-134223571D02*
X149456242Y-134680714D01*
X149684813Y-134452142D02*
X149227670Y-134452142D01*
X149084813Y-135252142D02*
X149084813Y-134966428D01*
X149084813Y-134966428D02*
X149370527Y-134937856D01*
X149370527Y-134937856D02*
X149341956Y-134966428D01*
X149341956Y-134966428D02*
X149313384Y-135023571D01*
X149313384Y-135023571D02*
X149313384Y-135166428D01*
X149313384Y-135166428D02*
X149341956Y-135223571D01*
X149341956Y-135223571D02*
X149370527Y-135252142D01*
X149370527Y-135252142D02*
X149427670Y-135280713D01*
X149427670Y-135280713D02*
X149570527Y-135280713D01*
X149570527Y-135280713D02*
X149627670Y-135252142D01*
X149627670Y-135252142D02*
X149656242Y-135223571D01*
X149656242Y-135223571D02*
X149684813Y-135166428D01*
X149684813Y-135166428D02*
X149684813Y-135023571D01*
X149684813Y-135023571D02*
X149656242Y-134966428D01*
X149656242Y-134966428D02*
X149627670Y-134937856D01*
X149084813Y-135452142D02*
X149684813Y-135652142D01*
X149684813Y-135652142D02*
X149084813Y-135852142D01*
X151513384Y-134737857D02*
X151484813Y-134680715D01*
X151484813Y-134680715D02*
X151484813Y-134595000D01*
X151484813Y-134595000D02*
X151513384Y-134509286D01*
X151513384Y-134509286D02*
X151570527Y-134452143D01*
X151570527Y-134452143D02*
X151627670Y-134423572D01*
X151627670Y-134423572D02*
X151741956Y-134395000D01*
X151741956Y-134395000D02*
X151827670Y-134395000D01*
X151827670Y-134395000D02*
X151941956Y-134423572D01*
X151941956Y-134423572D02*
X151999099Y-134452143D01*
X151999099Y-134452143D02*
X152056242Y-134509286D01*
X152056242Y-134509286D02*
X152084813Y-134595000D01*
X152084813Y-134595000D02*
X152084813Y-134652143D01*
X152084813Y-134652143D02*
X152056242Y-134737857D01*
X152056242Y-134737857D02*
X152027670Y-134766429D01*
X152027670Y-134766429D02*
X151827670Y-134766429D01*
X151827670Y-134766429D02*
X151827670Y-134652143D01*
X152084813Y-135023572D02*
X151484813Y-135023572D01*
X151484813Y-135023572D02*
X152084813Y-135366429D01*
X152084813Y-135366429D02*
X151484813Y-135366429D01*
X152084813Y-135652143D02*
X151484813Y-135652143D01*
X151484813Y-135652143D02*
X151484813Y-135795000D01*
X151484813Y-135795000D02*
X151513384Y-135880714D01*
X151513384Y-135880714D02*
X151570527Y-135937857D01*
X151570527Y-135937857D02*
X151627670Y-135966428D01*
X151627670Y-135966428D02*
X151741956Y-135995000D01*
X151741956Y-135995000D02*
X151827670Y-135995000D01*
X151827670Y-135995000D02*
X151941956Y-135966428D01*
X151941956Y-135966428D02*
X151999099Y-135937857D01*
X151999099Y-135937857D02*
X152056242Y-135880714D01*
X152056242Y-135880714D02*
X152084813Y-135795000D01*
X152084813Y-135795000D02*
X152084813Y-135652143D01*
D11*
X157537054Y-111603495D02*
X158013244Y-111603495D01*
X157441816Y-111317780D02*
X157775149Y-112317780D01*
X157775149Y-112317780D02*
X158108482Y-111317780D01*
X158441816Y-111317780D02*
X158441816Y-111984447D01*
X158441816Y-111793971D02*
X158489435Y-111889209D01*
X158489435Y-111889209D02*
X158537054Y-111936828D01*
X158537054Y-111936828D02*
X158632292Y-111984447D01*
X158632292Y-111984447D02*
X158727530Y-111984447D01*
X159489435Y-111317780D02*
X159489435Y-112317780D01*
X159489435Y-111365400D02*
X159394197Y-111317780D01*
X159394197Y-111317780D02*
X159203721Y-111317780D01*
X159203721Y-111317780D02*
X159108483Y-111365400D01*
X159108483Y-111365400D02*
X159060864Y-111413019D01*
X159060864Y-111413019D02*
X159013245Y-111508257D01*
X159013245Y-111508257D02*
X159013245Y-111793971D01*
X159013245Y-111793971D02*
X159060864Y-111889209D01*
X159060864Y-111889209D02*
X159108483Y-111936828D01*
X159108483Y-111936828D02*
X159203721Y-111984447D01*
X159203721Y-111984447D02*
X159394197Y-111984447D01*
X159394197Y-111984447D02*
X159489435Y-111936828D01*
X160394197Y-111984447D02*
X160394197Y-111317780D01*
X159965626Y-111984447D02*
X159965626Y-111460638D01*
X159965626Y-111460638D02*
X160013245Y-111365400D01*
X160013245Y-111365400D02*
X160108483Y-111317780D01*
X160108483Y-111317780D02*
X160251340Y-111317780D01*
X160251340Y-111317780D02*
X160346578Y-111365400D01*
X160346578Y-111365400D02*
X160394197Y-111413019D01*
X160870388Y-111317780D02*
X160870388Y-111984447D01*
X160870388Y-112317780D02*
X160822769Y-112270161D01*
X160822769Y-112270161D02*
X160870388Y-112222542D01*
X160870388Y-112222542D02*
X160918007Y-112270161D01*
X160918007Y-112270161D02*
X160870388Y-112317780D01*
X160870388Y-112317780D02*
X160870388Y-112222542D01*
X161346578Y-111984447D02*
X161346578Y-111317780D01*
X161346578Y-111889209D02*
X161394197Y-111936828D01*
X161394197Y-111936828D02*
X161489435Y-111984447D01*
X161489435Y-111984447D02*
X161632292Y-111984447D01*
X161632292Y-111984447D02*
X161727530Y-111936828D01*
X161727530Y-111936828D02*
X161775149Y-111841590D01*
X161775149Y-111841590D02*
X161775149Y-111317780D01*
X162394197Y-111317780D02*
X162298959Y-111365400D01*
X162298959Y-111365400D02*
X162251340Y-111413019D01*
X162251340Y-111413019D02*
X162203721Y-111508257D01*
X162203721Y-111508257D02*
X162203721Y-111793971D01*
X162203721Y-111793971D02*
X162251340Y-111889209D01*
X162251340Y-111889209D02*
X162298959Y-111936828D01*
X162298959Y-111936828D02*
X162394197Y-111984447D01*
X162394197Y-111984447D02*
X162537054Y-111984447D01*
X162537054Y-111984447D02*
X162632292Y-111936828D01*
X162632292Y-111936828D02*
X162679911Y-111889209D01*
X162679911Y-111889209D02*
X162727530Y-111793971D01*
X162727530Y-111793971D02*
X162727530Y-111508257D01*
X162727530Y-111508257D02*
X162679911Y-111413019D01*
X162679911Y-111413019D02*
X162632292Y-111365400D01*
X162632292Y-111365400D02*
X162537054Y-111317780D01*
X162537054Y-111317780D02*
X162394197Y-111317780D01*
X163918007Y-111317780D02*
X163918007Y-112317780D01*
X163918007Y-112317780D02*
X164489435Y-111317780D01*
X164489435Y-111317780D02*
X164489435Y-112317780D01*
X165394197Y-111317780D02*
X165394197Y-111841590D01*
X165394197Y-111841590D02*
X165346578Y-111936828D01*
X165346578Y-111936828D02*
X165251340Y-111984447D01*
X165251340Y-111984447D02*
X165060864Y-111984447D01*
X165060864Y-111984447D02*
X164965626Y-111936828D01*
X165394197Y-111365400D02*
X165298959Y-111317780D01*
X165298959Y-111317780D02*
X165060864Y-111317780D01*
X165060864Y-111317780D02*
X164965626Y-111365400D01*
X164965626Y-111365400D02*
X164918007Y-111460638D01*
X164918007Y-111460638D02*
X164918007Y-111555876D01*
X164918007Y-111555876D02*
X164965626Y-111651114D01*
X164965626Y-111651114D02*
X165060864Y-111698733D01*
X165060864Y-111698733D02*
X165298959Y-111698733D01*
X165298959Y-111698733D02*
X165394197Y-111746352D01*
X165870388Y-111984447D02*
X165870388Y-111317780D01*
X165870388Y-111889209D02*
X165918007Y-111936828D01*
X165918007Y-111936828D02*
X166013245Y-111984447D01*
X166013245Y-111984447D02*
X166156102Y-111984447D01*
X166156102Y-111984447D02*
X166251340Y-111936828D01*
X166251340Y-111936828D02*
X166298959Y-111841590D01*
X166298959Y-111841590D02*
X166298959Y-111317780D01*
X166918007Y-111317780D02*
X166822769Y-111365400D01*
X166822769Y-111365400D02*
X166775150Y-111413019D01*
X166775150Y-111413019D02*
X166727531Y-111508257D01*
X166727531Y-111508257D02*
X166727531Y-111793971D01*
X166727531Y-111793971D02*
X166775150Y-111889209D01*
X166775150Y-111889209D02*
X166822769Y-111936828D01*
X166822769Y-111936828D02*
X166918007Y-111984447D01*
X166918007Y-111984447D02*
X167060864Y-111984447D01*
X167060864Y-111984447D02*
X167156102Y-111936828D01*
X167156102Y-111936828D02*
X167203721Y-111889209D01*
X167203721Y-111889209D02*
X167251340Y-111793971D01*
X167251340Y-111793971D02*
X167251340Y-111508257D01*
X167251340Y-111508257D02*
X167203721Y-111413019D01*
X167203721Y-111413019D02*
X167156102Y-111365400D01*
X167156102Y-111365400D02*
X167060864Y-111317780D01*
X167060864Y-111317780D02*
X166918007Y-111317780D01*
D13*
X153778275Y-127705000D02*
X153078275Y-127705000D01*
X153078275Y-127705000D02*
X153578275Y-127938334D01*
X153578275Y-127938334D02*
X153078275Y-128171667D01*
X153078275Y-128171667D02*
X153778275Y-128171667D01*
X153078275Y-128638334D02*
X153078275Y-128771667D01*
X153078275Y-128771667D02*
X153111608Y-128838334D01*
X153111608Y-128838334D02*
X153178275Y-128905000D01*
X153178275Y-128905000D02*
X153311608Y-128938334D01*
X153311608Y-128938334D02*
X153544942Y-128938334D01*
X153544942Y-128938334D02*
X153678275Y-128905000D01*
X153678275Y-128905000D02*
X153744942Y-128838334D01*
X153744942Y-128838334D02*
X153778275Y-128771667D01*
X153778275Y-128771667D02*
X153778275Y-128638334D01*
X153778275Y-128638334D02*
X153744942Y-128571667D01*
X153744942Y-128571667D02*
X153678275Y-128505000D01*
X153678275Y-128505000D02*
X153544942Y-128471667D01*
X153544942Y-128471667D02*
X153311608Y-128471667D01*
X153311608Y-128471667D02*
X153178275Y-128505000D01*
X153178275Y-128505000D02*
X153111608Y-128571667D01*
X153111608Y-128571667D02*
X153078275Y-128638334D01*
X153078275Y-129138333D02*
X153078275Y-129538333D01*
X153778275Y-129338333D02*
X153078275Y-129338333D01*
X153078275Y-129905000D02*
X153078275Y-130038333D01*
X153078275Y-130038333D02*
X153111608Y-130105000D01*
X153111608Y-130105000D02*
X153178275Y-130171666D01*
X153178275Y-130171666D02*
X153311608Y-130205000D01*
X153311608Y-130205000D02*
X153544942Y-130205000D01*
X153544942Y-130205000D02*
X153678275Y-130171666D01*
X153678275Y-130171666D02*
X153744942Y-130105000D01*
X153744942Y-130105000D02*
X153778275Y-130038333D01*
X153778275Y-130038333D02*
X153778275Y-129905000D01*
X153778275Y-129905000D02*
X153744942Y-129838333D01*
X153744942Y-129838333D02*
X153678275Y-129771666D01*
X153678275Y-129771666D02*
X153544942Y-129738333D01*
X153544942Y-129738333D02*
X153311608Y-129738333D01*
X153311608Y-129738333D02*
X153178275Y-129771666D01*
X153178275Y-129771666D02*
X153111608Y-129838333D01*
X153111608Y-129838333D02*
X153078275Y-129905000D01*
X153778275Y-130904999D02*
X153444942Y-130671666D01*
X153778275Y-130504999D02*
X153078275Y-130504999D01*
X153078275Y-130504999D02*
X153078275Y-130771666D01*
X153078275Y-130771666D02*
X153111608Y-130838333D01*
X153111608Y-130838333D02*
X153144942Y-130871666D01*
X153144942Y-130871666D02*
X153211608Y-130904999D01*
X153211608Y-130904999D02*
X153311608Y-130904999D01*
X153311608Y-130904999D02*
X153378275Y-130871666D01*
X153378275Y-130871666D02*
X153411608Y-130838333D01*
X153411608Y-130838333D02*
X153444942Y-130771666D01*
X153444942Y-130771666D02*
X153444942Y-130504999D01*
X153711608Y-132138332D02*
X153744942Y-132104999D01*
X153744942Y-132104999D02*
X153778275Y-132004999D01*
X153778275Y-132004999D02*
X153778275Y-131938332D01*
X153778275Y-131938332D02*
X153744942Y-131838332D01*
X153744942Y-131838332D02*
X153678275Y-131771666D01*
X153678275Y-131771666D02*
X153611608Y-131738332D01*
X153611608Y-131738332D02*
X153478275Y-131704999D01*
X153478275Y-131704999D02*
X153378275Y-131704999D01*
X153378275Y-131704999D02*
X153244942Y-131738332D01*
X153244942Y-131738332D02*
X153178275Y-131771666D01*
X153178275Y-131771666D02*
X153111608Y-131838332D01*
X153111608Y-131838332D02*
X153078275Y-131938332D01*
X153078275Y-131938332D02*
X153078275Y-132004999D01*
X153078275Y-132004999D02*
X153111608Y-132104999D01*
X153111608Y-132104999D02*
X153144942Y-132138332D01*
X153078275Y-132338332D02*
X153078275Y-132738332D01*
X153778275Y-132538332D02*
X153078275Y-132538332D01*
X153778275Y-133304999D02*
X153778275Y-132971665D01*
X153778275Y-132971665D02*
X153078275Y-132971665D01*
X153778275Y-133938332D02*
X153444942Y-133704999D01*
X153778275Y-133538332D02*
X153078275Y-133538332D01*
X153078275Y-133538332D02*
X153078275Y-133804999D01*
X153078275Y-133804999D02*
X153111608Y-133871666D01*
X153111608Y-133871666D02*
X153144942Y-133904999D01*
X153144942Y-133904999D02*
X153211608Y-133938332D01*
X153211608Y-133938332D02*
X153311608Y-133938332D01*
X153311608Y-133938332D02*
X153378275Y-133904999D01*
X153378275Y-133904999D02*
X153411608Y-133871666D01*
X153411608Y-133871666D02*
X153444942Y-133804999D01*
X153444942Y-133804999D02*
X153444942Y-133538332D01*
D12*
X152084813Y-126295000D02*
X152084813Y-126009286D01*
X152084813Y-126009286D02*
X151484813Y-126009286D01*
X152084813Y-126495000D02*
X151484813Y-126495000D01*
X151484813Y-126495000D02*
X151484813Y-126723571D01*
X151484813Y-126723571D02*
X151513384Y-126780714D01*
X151513384Y-126780714D02*
X151541956Y-126809285D01*
X151541956Y-126809285D02*
X151599099Y-126837857D01*
X151599099Y-126837857D02*
X151684813Y-126837857D01*
X151684813Y-126837857D02*
X151741956Y-126809285D01*
X151741956Y-126809285D02*
X151770527Y-126780714D01*
X151770527Y-126780714D02*
X151799099Y-126723571D01*
X151799099Y-126723571D02*
X151799099Y-126495000D01*
X151484813Y-127037857D02*
X152084813Y-127180714D01*
X152084813Y-127180714D02*
X151656242Y-127295000D01*
X151656242Y-127295000D02*
X152084813Y-127409285D01*
X152084813Y-127409285D02*
X151484813Y-127552143D01*
X152084813Y-127780714D02*
X151484813Y-127780714D01*
X151484813Y-127780714D02*
X151913384Y-127980714D01*
X151913384Y-127980714D02*
X151484813Y-128180714D01*
X151484813Y-128180714D02*
X152084813Y-128180714D01*
D11*
X156155647Y-129487857D02*
X156155647Y-129754523D01*
X156574695Y-129868809D02*
X156574695Y-129487857D01*
X156574695Y-129487857D02*
X155774695Y-129487857D01*
X155774695Y-129487857D02*
X155774695Y-129868809D01*
X155774695Y-130135476D02*
X156574695Y-130668810D01*
X155774695Y-130668810D02*
X156574695Y-130135476D01*
X155774695Y-130859286D02*
X155774695Y-131316429D01*
X156574695Y-131087857D02*
X155774695Y-131087857D01*
X155731101Y-89905209D02*
X155654911Y-89943304D01*
X155654911Y-89943304D02*
X155540625Y-89943304D01*
X155540625Y-89943304D02*
X155426339Y-89905209D01*
X155426339Y-89905209D02*
X155350149Y-89829019D01*
X155350149Y-89829019D02*
X155312054Y-89752828D01*
X155312054Y-89752828D02*
X155273958Y-89600447D01*
X155273958Y-89600447D02*
X155273958Y-89486161D01*
X155273958Y-89486161D02*
X155312054Y-89333780D01*
X155312054Y-89333780D02*
X155350149Y-89257590D01*
X155350149Y-89257590D02*
X155426339Y-89181400D01*
X155426339Y-89181400D02*
X155540625Y-89143304D01*
X155540625Y-89143304D02*
X155616816Y-89143304D01*
X155616816Y-89143304D02*
X155731101Y-89181400D01*
X155731101Y-89181400D02*
X155769197Y-89219495D01*
X155769197Y-89219495D02*
X155769197Y-89486161D01*
X155769197Y-89486161D02*
X155616816Y-89486161D01*
X156112054Y-89143304D02*
X156112054Y-89943304D01*
X156112054Y-89943304D02*
X156569197Y-89143304D01*
X156569197Y-89143304D02*
X156569197Y-89943304D01*
X156950149Y-89143304D02*
X156950149Y-89943304D01*
X156950149Y-89943304D02*
X157140625Y-89943304D01*
X157140625Y-89943304D02*
X157254911Y-89905209D01*
X157254911Y-89905209D02*
X157331101Y-89829019D01*
X157331101Y-89829019D02*
X157369196Y-89752828D01*
X157369196Y-89752828D02*
X157407292Y-89600447D01*
X157407292Y-89600447D02*
X157407292Y-89486161D01*
X157407292Y-89486161D02*
X157369196Y-89333780D01*
X157369196Y-89333780D02*
X157331101Y-89257590D01*
X157331101Y-89257590D02*
X157254911Y-89181400D01*
X157254911Y-89181400D02*
X157140625Y-89143304D01*
X157140625Y-89143304D02*
X156950149Y-89143304D01*
X169530476Y-90074043D02*
X170140000Y-90074043D01*
X169835238Y-89769281D02*
X169835238Y-90378805D01*
X170939999Y-89769281D02*
X170482856Y-89769281D01*
X170711428Y-89769281D02*
X170711428Y-90569281D01*
X170711428Y-90569281D02*
X170635237Y-90454996D01*
X170635237Y-90454996D02*
X170559047Y-90378805D01*
X170559047Y-90378805D02*
X170482856Y-90340710D01*
X171244761Y-90493091D02*
X171282857Y-90531186D01*
X171282857Y-90531186D02*
X171359047Y-90569281D01*
X171359047Y-90569281D02*
X171549523Y-90569281D01*
X171549523Y-90569281D02*
X171625714Y-90531186D01*
X171625714Y-90531186D02*
X171663809Y-90493091D01*
X171663809Y-90493091D02*
X171701904Y-90416900D01*
X171701904Y-90416900D02*
X171701904Y-90340710D01*
X171701904Y-90340710D02*
X171663809Y-90226424D01*
X171663809Y-90226424D02*
X171206666Y-89769281D01*
X171206666Y-89769281D02*
X171701904Y-89769281D01*
X171930476Y-90569281D02*
X172197143Y-89769281D01*
X172197143Y-89769281D02*
X172463809Y-90569281D01*
X169397143Y-88481326D02*
X169397143Y-89281326D01*
X169778095Y-88481326D02*
X169778095Y-89281326D01*
X169778095Y-89281326D02*
X170235238Y-88481326D01*
X170235238Y-88481326D02*
X170235238Y-89281326D01*
X170616190Y-88481326D02*
X170616190Y-89281326D01*
X170616190Y-89281326D02*
X170920952Y-89281326D01*
X170920952Y-89281326D02*
X170997142Y-89243231D01*
X170997142Y-89243231D02*
X171035237Y-89205136D01*
X171035237Y-89205136D02*
X171073333Y-89128945D01*
X171073333Y-89128945D02*
X171073333Y-89014660D01*
X171073333Y-89014660D02*
X171035237Y-88938469D01*
X171035237Y-88938469D02*
X170997142Y-88900374D01*
X170997142Y-88900374D02*
X170920952Y-88862279D01*
X170920952Y-88862279D02*
X170616190Y-88862279D01*
X171416190Y-89281326D02*
X171416190Y-88633707D01*
X171416190Y-88633707D02*
X171454285Y-88557517D01*
X171454285Y-88557517D02*
X171492380Y-88519422D01*
X171492380Y-88519422D02*
X171568571Y-88481326D01*
X171568571Y-88481326D02*
X171720952Y-88481326D01*
X171720952Y-88481326D02*
X171797142Y-88519422D01*
X171797142Y-88519422D02*
X171835237Y-88557517D01*
X171835237Y-88557517D02*
X171873333Y-88633707D01*
X171873333Y-88633707D02*
X171873333Y-89281326D01*
X172139999Y-89281326D02*
X172597142Y-89281326D01*
X172368570Y-88481326D02*
X172368570Y-89281326D01*
X140747142Y-90362352D02*
X141013808Y-90362352D01*
X141128094Y-89943304D02*
X140747142Y-89943304D01*
X140747142Y-89943304D02*
X140747142Y-90743304D01*
X140747142Y-90743304D02*
X141128094Y-90743304D01*
X141394761Y-90743304D02*
X141928095Y-89943304D01*
X141928095Y-90743304D02*
X141394761Y-89943304D01*
X142118571Y-90743304D02*
X142575714Y-90743304D01*
X142347142Y-89943304D02*
X142347142Y-90743304D01*
X145737620Y-89943304D02*
X145470953Y-90324257D01*
X145280477Y-89943304D02*
X145280477Y-90743304D01*
X145280477Y-90743304D02*
X145585239Y-90743304D01*
X145585239Y-90743304D02*
X145661429Y-90705209D01*
X145661429Y-90705209D02*
X145699524Y-90667114D01*
X145699524Y-90667114D02*
X145737620Y-90590923D01*
X145737620Y-90590923D02*
X145737620Y-90476638D01*
X145737620Y-90476638D02*
X145699524Y-90400447D01*
X145699524Y-90400447D02*
X145661429Y-90362352D01*
X145661429Y-90362352D02*
X145585239Y-90324257D01*
X145585239Y-90324257D02*
X145280477Y-90324257D01*
X146080477Y-90362352D02*
X146347143Y-90362352D01*
X146461429Y-89943304D02*
X146080477Y-89943304D01*
X146080477Y-89943304D02*
X146080477Y-90743304D01*
X146080477Y-90743304D02*
X146461429Y-90743304D01*
X146690001Y-90743304D02*
X147147144Y-90743304D01*
X146918572Y-89943304D02*
X146918572Y-90743304D01*
X149911429Y-89944043D02*
X150520953Y-89944043D01*
X150216191Y-89639281D02*
X150216191Y-90248805D01*
X151282857Y-90439281D02*
X150901905Y-90439281D01*
X150901905Y-90439281D02*
X150863809Y-90058329D01*
X150863809Y-90058329D02*
X150901905Y-90096424D01*
X150901905Y-90096424D02*
X150978095Y-90134519D01*
X150978095Y-90134519D02*
X151168571Y-90134519D01*
X151168571Y-90134519D02*
X151244762Y-90096424D01*
X151244762Y-90096424D02*
X151282857Y-90058329D01*
X151282857Y-90058329D02*
X151320952Y-89982138D01*
X151320952Y-89982138D02*
X151320952Y-89791662D01*
X151320952Y-89791662D02*
X151282857Y-89715472D01*
X151282857Y-89715472D02*
X151244762Y-89677377D01*
X151244762Y-89677377D02*
X151168571Y-89639281D01*
X151168571Y-89639281D02*
X150978095Y-89639281D01*
X150978095Y-89639281D02*
X150901905Y-89677377D01*
X150901905Y-89677377D02*
X150863809Y-89715472D01*
X151549524Y-90439281D02*
X151816191Y-89639281D01*
X151816191Y-89639281D02*
X152082857Y-90439281D01*
X150140000Y-89151326D02*
X150292381Y-89151326D01*
X150292381Y-89151326D02*
X150368571Y-89113231D01*
X150368571Y-89113231D02*
X150444762Y-89037041D01*
X150444762Y-89037041D02*
X150482857Y-88884660D01*
X150482857Y-88884660D02*
X150482857Y-88617993D01*
X150482857Y-88617993D02*
X150444762Y-88465612D01*
X150444762Y-88465612D02*
X150368571Y-88389422D01*
X150368571Y-88389422D02*
X150292381Y-88351326D01*
X150292381Y-88351326D02*
X150140000Y-88351326D01*
X150140000Y-88351326D02*
X150063809Y-88389422D01*
X150063809Y-88389422D02*
X149987619Y-88465612D01*
X149987619Y-88465612D02*
X149949523Y-88617993D01*
X149949523Y-88617993D02*
X149949523Y-88884660D01*
X149949523Y-88884660D02*
X149987619Y-89037041D01*
X149987619Y-89037041D02*
X150063809Y-89113231D01*
X150063809Y-89113231D02*
X150140000Y-89151326D01*
X150825714Y-89151326D02*
X150825714Y-88503707D01*
X150825714Y-88503707D02*
X150863809Y-88427517D01*
X150863809Y-88427517D02*
X150901904Y-88389422D01*
X150901904Y-88389422D02*
X150978095Y-88351326D01*
X150978095Y-88351326D02*
X151130476Y-88351326D01*
X151130476Y-88351326D02*
X151206666Y-88389422D01*
X151206666Y-88389422D02*
X151244761Y-88427517D01*
X151244761Y-88427517D02*
X151282857Y-88503707D01*
X151282857Y-88503707D02*
X151282857Y-89151326D01*
X151549523Y-89151326D02*
X152006666Y-89151326D01*
X151778094Y-88351326D02*
X151778094Y-89151326D01*
X160581101Y-89905209D02*
X160504911Y-89943304D01*
X160504911Y-89943304D02*
X160390625Y-89943304D01*
X160390625Y-89943304D02*
X160276339Y-89905209D01*
X160276339Y-89905209D02*
X160200149Y-89829019D01*
X160200149Y-89829019D02*
X160162054Y-89752828D01*
X160162054Y-89752828D02*
X160123958Y-89600447D01*
X160123958Y-89600447D02*
X160123958Y-89486161D01*
X160123958Y-89486161D02*
X160162054Y-89333780D01*
X160162054Y-89333780D02*
X160200149Y-89257590D01*
X160200149Y-89257590D02*
X160276339Y-89181400D01*
X160276339Y-89181400D02*
X160390625Y-89143304D01*
X160390625Y-89143304D02*
X160466816Y-89143304D01*
X160466816Y-89143304D02*
X160581101Y-89181400D01*
X160581101Y-89181400D02*
X160619197Y-89219495D01*
X160619197Y-89219495D02*
X160619197Y-89486161D01*
X160619197Y-89486161D02*
X160466816Y-89486161D01*
X160962054Y-89143304D02*
X160962054Y-89943304D01*
X160962054Y-89943304D02*
X161419197Y-89143304D01*
X161419197Y-89143304D02*
X161419197Y-89943304D01*
X161800149Y-89143304D02*
X161800149Y-89943304D01*
X161800149Y-89943304D02*
X161990625Y-89943304D01*
X161990625Y-89943304D02*
X162104911Y-89905209D01*
X162104911Y-89905209D02*
X162181101Y-89829019D01*
X162181101Y-89829019D02*
X162219196Y-89752828D01*
X162219196Y-89752828D02*
X162257292Y-89600447D01*
X162257292Y-89600447D02*
X162257292Y-89486161D01*
X162257292Y-89486161D02*
X162219196Y-89333780D01*
X162219196Y-89333780D02*
X162181101Y-89257590D01*
X162181101Y-89257590D02*
X162104911Y-89181400D01*
X162104911Y-89181400D02*
X161990625Y-89143304D01*
X161990625Y-89143304D02*
X161800149Y-89143304D01*
D12*
X149884813Y-132123571D02*
X149599099Y-131923571D01*
X149884813Y-131780714D02*
X149284813Y-131780714D01*
X149284813Y-131780714D02*
X149284813Y-132009285D01*
X149284813Y-132009285D02*
X149313384Y-132066428D01*
X149313384Y-132066428D02*
X149341956Y-132094999D01*
X149341956Y-132094999D02*
X149399099Y-132123571D01*
X149399099Y-132123571D02*
X149484813Y-132123571D01*
X149484813Y-132123571D02*
X149541956Y-132094999D01*
X149541956Y-132094999D02*
X149570527Y-132066428D01*
X149570527Y-132066428D02*
X149599099Y-132009285D01*
X149599099Y-132009285D02*
X149599099Y-131780714D01*
X149941956Y-132237857D02*
X149941956Y-132694999D01*
X149884813Y-132837857D02*
X149284813Y-132837857D01*
X149856242Y-133094999D02*
X149884813Y-133180714D01*
X149884813Y-133180714D02*
X149884813Y-133323571D01*
X149884813Y-133323571D02*
X149856242Y-133380714D01*
X149856242Y-133380714D02*
X149827670Y-133409285D01*
X149827670Y-133409285D02*
X149770527Y-133437856D01*
X149770527Y-133437856D02*
X149713384Y-133437856D01*
X149713384Y-133437856D02*
X149656242Y-133409285D01*
X149656242Y-133409285D02*
X149627670Y-133380714D01*
X149627670Y-133380714D02*
X149599099Y-133323571D01*
X149599099Y-133323571D02*
X149570527Y-133209285D01*
X149570527Y-133209285D02*
X149541956Y-133152142D01*
X149541956Y-133152142D02*
X149513384Y-133123571D01*
X149513384Y-133123571D02*
X149456242Y-133094999D01*
X149456242Y-133094999D02*
X149399099Y-133094999D01*
X149399099Y-133094999D02*
X149341956Y-133123571D01*
X149341956Y-133123571D02*
X149313384Y-133152142D01*
X149313384Y-133152142D02*
X149284813Y-133209285D01*
X149284813Y-133209285D02*
X149284813Y-133352142D01*
X149284813Y-133352142D02*
X149313384Y-133437856D01*
D11*
X158118100Y-124755001D02*
X158160957Y-124883573D01*
X158160957Y-124883573D02*
X158160957Y-125097858D01*
X158160957Y-125097858D02*
X158118100Y-125183573D01*
X158118100Y-125183573D02*
X158075242Y-125226430D01*
X158075242Y-125226430D02*
X157989528Y-125269287D01*
X157989528Y-125269287D02*
X157903814Y-125269287D01*
X157903814Y-125269287D02*
X157818100Y-125226430D01*
X157818100Y-125226430D02*
X157775242Y-125183573D01*
X157775242Y-125183573D02*
X157732385Y-125097858D01*
X157732385Y-125097858D02*
X157689528Y-124926430D01*
X157689528Y-124926430D02*
X157646671Y-124840715D01*
X157646671Y-124840715D02*
X157603814Y-124797858D01*
X157603814Y-124797858D02*
X157518100Y-124755001D01*
X157518100Y-124755001D02*
X157432385Y-124755001D01*
X157432385Y-124755001D02*
X157346671Y-124797858D01*
X157346671Y-124797858D02*
X157303814Y-124840715D01*
X157303814Y-124840715D02*
X157260957Y-124926430D01*
X157260957Y-124926430D02*
X157260957Y-125140715D01*
X157260957Y-125140715D02*
X157303814Y-125269287D01*
X157260957Y-125569287D02*
X158160957Y-125783573D01*
X158160957Y-125783573D02*
X157518100Y-125955001D01*
X157518100Y-125955001D02*
X158160957Y-126126430D01*
X158160957Y-126126430D02*
X157260957Y-126340716D01*
X158160957Y-126683572D02*
X157260957Y-126683572D01*
X157260957Y-126983572D02*
X157260957Y-127497858D01*
X158160957Y-127240715D02*
X157260957Y-127240715D01*
X158075242Y-128312143D02*
X158118100Y-128269286D01*
X158118100Y-128269286D02*
X158160957Y-128140714D01*
X158160957Y-128140714D02*
X158160957Y-128055000D01*
X158160957Y-128055000D02*
X158118100Y-127926429D01*
X158118100Y-127926429D02*
X158032385Y-127840714D01*
X158032385Y-127840714D02*
X157946671Y-127797857D01*
X157946671Y-127797857D02*
X157775242Y-127755000D01*
X157775242Y-127755000D02*
X157646671Y-127755000D01*
X157646671Y-127755000D02*
X157475242Y-127797857D01*
X157475242Y-127797857D02*
X157389528Y-127840714D01*
X157389528Y-127840714D02*
X157303814Y-127926429D01*
X157303814Y-127926429D02*
X157260957Y-128055000D01*
X157260957Y-128055000D02*
X157260957Y-128140714D01*
X157260957Y-128140714D02*
X157303814Y-128269286D01*
X157303814Y-128269286D02*
X157346671Y-128312143D01*
X158160957Y-128697857D02*
X157260957Y-128697857D01*
X157689528Y-128697857D02*
X157689528Y-129212143D01*
X158160957Y-129212143D02*
X157260957Y-129212143D01*
X157218100Y-130283571D02*
X158375242Y-129512143D01*
X157689528Y-130883571D02*
X157732385Y-131012143D01*
X157732385Y-131012143D02*
X157775242Y-131055000D01*
X157775242Y-131055000D02*
X157860957Y-131097857D01*
X157860957Y-131097857D02*
X157989528Y-131097857D01*
X157989528Y-131097857D02*
X158075242Y-131055000D01*
X158075242Y-131055000D02*
X158118100Y-131012143D01*
X158118100Y-131012143D02*
X158160957Y-130926428D01*
X158160957Y-130926428D02*
X158160957Y-130583571D01*
X158160957Y-130583571D02*
X157260957Y-130583571D01*
X157260957Y-130583571D02*
X157260957Y-130883571D01*
X157260957Y-130883571D02*
X157303814Y-130969286D01*
X157303814Y-130969286D02*
X157346671Y-131012143D01*
X157346671Y-131012143D02*
X157432385Y-131055000D01*
X157432385Y-131055000D02*
X157518100Y-131055000D01*
X157518100Y-131055000D02*
X157603814Y-131012143D01*
X157603814Y-131012143D02*
X157646671Y-130969286D01*
X157646671Y-130969286D02*
X157689528Y-130883571D01*
X157689528Y-130883571D02*
X157689528Y-130583571D01*
X157260957Y-131483571D02*
X157989528Y-131483571D01*
X157989528Y-131483571D02*
X158075242Y-131526428D01*
X158075242Y-131526428D02*
X158118100Y-131569286D01*
X158118100Y-131569286D02*
X158160957Y-131655000D01*
X158160957Y-131655000D02*
X158160957Y-131826428D01*
X158160957Y-131826428D02*
X158118100Y-131912143D01*
X158118100Y-131912143D02*
X158075242Y-131955000D01*
X158075242Y-131955000D02*
X157989528Y-131997857D01*
X157989528Y-131997857D02*
X157260957Y-131997857D01*
X157260957Y-132297857D02*
X157260957Y-132812143D01*
X158160957Y-132555000D02*
X157260957Y-132555000D01*
X157260957Y-132983571D02*
X157260957Y-133497857D01*
X158160957Y-133240714D02*
X157260957Y-133240714D01*
X157260957Y-133969285D02*
X157260957Y-134140713D01*
X157260957Y-134140713D02*
X157303814Y-134226428D01*
X157303814Y-134226428D02*
X157389528Y-134312142D01*
X157389528Y-134312142D02*
X157560957Y-134354999D01*
X157560957Y-134354999D02*
X157860957Y-134354999D01*
X157860957Y-134354999D02*
X158032385Y-134312142D01*
X158032385Y-134312142D02*
X158118100Y-134226428D01*
X158118100Y-134226428D02*
X158160957Y-134140713D01*
X158160957Y-134140713D02*
X158160957Y-133969285D01*
X158160957Y-133969285D02*
X158118100Y-133883571D01*
X158118100Y-133883571D02*
X158032385Y-133797856D01*
X158032385Y-133797856D02*
X157860957Y-133754999D01*
X157860957Y-133754999D02*
X157560957Y-133754999D01*
X157560957Y-133754999D02*
X157389528Y-133797856D01*
X157389528Y-133797856D02*
X157303814Y-133883571D01*
X157303814Y-133883571D02*
X157260957Y-133969285D01*
X158160957Y-134740713D02*
X157260957Y-134740713D01*
X157260957Y-134740713D02*
X158160957Y-135254999D01*
X158160957Y-135254999D02*
X157260957Y-135254999D01*
X158118100Y-135640713D02*
X158160957Y-135769285D01*
X158160957Y-135769285D02*
X158160957Y-135983570D01*
X158160957Y-135983570D02*
X158118100Y-136069285D01*
X158118100Y-136069285D02*
X158075242Y-136112142D01*
X158075242Y-136112142D02*
X157989528Y-136154999D01*
X157989528Y-136154999D02*
X157903814Y-136154999D01*
X157903814Y-136154999D02*
X157818100Y-136112142D01*
X157818100Y-136112142D02*
X157775242Y-136069285D01*
X157775242Y-136069285D02*
X157732385Y-135983570D01*
X157732385Y-135983570D02*
X157689528Y-135812142D01*
X157689528Y-135812142D02*
X157646671Y-135726427D01*
X157646671Y-135726427D02*
X157603814Y-135683570D01*
X157603814Y-135683570D02*
X157518100Y-135640713D01*
X157518100Y-135640713D02*
X157432385Y-135640713D01*
X157432385Y-135640713D02*
X157346671Y-135683570D01*
X157346671Y-135683570D02*
X157303814Y-135726427D01*
X157303814Y-135726427D02*
X157260957Y-135812142D01*
X157260957Y-135812142D02*
X157260957Y-136026427D01*
X157260957Y-136026427D02*
X157303814Y-136154999D01*
X165531101Y-89905209D02*
X165454911Y-89943304D01*
X165454911Y-89943304D02*
X165340625Y-89943304D01*
X165340625Y-89943304D02*
X165226339Y-89905209D01*
X165226339Y-89905209D02*
X165150149Y-89829019D01*
X165150149Y-89829019D02*
X165112054Y-89752828D01*
X165112054Y-89752828D02*
X165073958Y-89600447D01*
X165073958Y-89600447D02*
X165073958Y-89486161D01*
X165073958Y-89486161D02*
X165112054Y-89333780D01*
X165112054Y-89333780D02*
X165150149Y-89257590D01*
X165150149Y-89257590D02*
X165226339Y-89181400D01*
X165226339Y-89181400D02*
X165340625Y-89143304D01*
X165340625Y-89143304D02*
X165416816Y-89143304D01*
X165416816Y-89143304D02*
X165531101Y-89181400D01*
X165531101Y-89181400D02*
X165569197Y-89219495D01*
X165569197Y-89219495D02*
X165569197Y-89486161D01*
X165569197Y-89486161D02*
X165416816Y-89486161D01*
X165912054Y-89143304D02*
X165912054Y-89943304D01*
X165912054Y-89943304D02*
X166369197Y-89143304D01*
X166369197Y-89143304D02*
X166369197Y-89943304D01*
X166750149Y-89143304D02*
X166750149Y-89943304D01*
X166750149Y-89943304D02*
X166940625Y-89943304D01*
X166940625Y-89943304D02*
X167054911Y-89905209D01*
X167054911Y-89905209D02*
X167131101Y-89829019D01*
X167131101Y-89829019D02*
X167169196Y-89752828D01*
X167169196Y-89752828D02*
X167207292Y-89600447D01*
X167207292Y-89600447D02*
X167207292Y-89486161D01*
X167207292Y-89486161D02*
X167169196Y-89333780D01*
X167169196Y-89333780D02*
X167131101Y-89257590D01*
X167131101Y-89257590D02*
X167054911Y-89181400D01*
X167054911Y-89181400D02*
X166940625Y-89143304D01*
X166940625Y-89143304D02*
X166750149Y-89143304D01*
D12*
X152084813Y-129366429D02*
X152084813Y-129080715D01*
X152084813Y-129080715D02*
X151484813Y-129080715D01*
X152141956Y-129423572D02*
X152141956Y-129880714D01*
X151770527Y-130023572D02*
X151770527Y-130223572D01*
X152084813Y-130309286D02*
X152084813Y-130023572D01*
X152084813Y-130023572D02*
X151484813Y-130023572D01*
X151484813Y-130023572D02*
X151484813Y-130309286D01*
X152084813Y-130566429D02*
X151484813Y-130566429D01*
X151484813Y-130566429D02*
X152084813Y-130909286D01*
X152084813Y-130909286D02*
X151484813Y-130909286D01*
X149884813Y-126395000D02*
X149599099Y-126195000D01*
X149884813Y-126052143D02*
X149284813Y-126052143D01*
X149284813Y-126052143D02*
X149284813Y-126280714D01*
X149284813Y-126280714D02*
X149313384Y-126337857D01*
X149313384Y-126337857D02*
X149341956Y-126366428D01*
X149341956Y-126366428D02*
X149399099Y-126395000D01*
X149399099Y-126395000D02*
X149484813Y-126395000D01*
X149484813Y-126395000D02*
X149541956Y-126366428D01*
X149541956Y-126366428D02*
X149570527Y-126337857D01*
X149570527Y-126337857D02*
X149599099Y-126280714D01*
X149599099Y-126280714D02*
X149599099Y-126052143D01*
X149884813Y-126652143D02*
X149284813Y-126652143D01*
X149284813Y-126652143D02*
X149284813Y-126880714D01*
X149284813Y-126880714D02*
X149313384Y-126937857D01*
X149313384Y-126937857D02*
X149341956Y-126966428D01*
X149341956Y-126966428D02*
X149399099Y-126995000D01*
X149399099Y-126995000D02*
X149484813Y-126995000D01*
X149484813Y-126995000D02*
X149541956Y-126966428D01*
X149541956Y-126966428D02*
X149570527Y-126937857D01*
X149570527Y-126937857D02*
X149599099Y-126880714D01*
X149599099Y-126880714D02*
X149599099Y-126652143D01*
X149284813Y-127195000D02*
X149884813Y-127337857D01*
X149884813Y-127337857D02*
X149456242Y-127452143D01*
X149456242Y-127452143D02*
X149884813Y-127566428D01*
X149884813Y-127566428D02*
X149284813Y-127709286D01*
X149884813Y-127937857D02*
X149284813Y-127937857D01*
X149284813Y-127937857D02*
X149713384Y-128137857D01*
X149713384Y-128137857D02*
X149284813Y-128337857D01*
X149284813Y-128337857D02*
X149884813Y-128337857D01*
D11*
X143422219Y-111474673D02*
X144231742Y-111474673D01*
X144231742Y-111474673D02*
X144326980Y-111522292D01*
X144326980Y-111522292D02*
X144374600Y-111569911D01*
X144374600Y-111569911D02*
X144422219Y-111665149D01*
X144422219Y-111665149D02*
X144422219Y-111855625D01*
X144422219Y-111855625D02*
X144374600Y-111950863D01*
X144374600Y-111950863D02*
X144326980Y-111998482D01*
X144326980Y-111998482D02*
X144231742Y-112046101D01*
X144231742Y-112046101D02*
X143422219Y-112046101D01*
X144374600Y-112474673D02*
X144422219Y-112617530D01*
X144422219Y-112617530D02*
X144422219Y-112855625D01*
X144422219Y-112855625D02*
X144374600Y-112950863D01*
X144374600Y-112950863D02*
X144326980Y-112998482D01*
X144326980Y-112998482D02*
X144231742Y-113046101D01*
X144231742Y-113046101D02*
X144136504Y-113046101D01*
X144136504Y-113046101D02*
X144041266Y-112998482D01*
X144041266Y-112998482D02*
X143993647Y-112950863D01*
X143993647Y-112950863D02*
X143946028Y-112855625D01*
X143946028Y-112855625D02*
X143898409Y-112665149D01*
X143898409Y-112665149D02*
X143850790Y-112569911D01*
X143850790Y-112569911D02*
X143803171Y-112522292D01*
X143803171Y-112522292D02*
X143707933Y-112474673D01*
X143707933Y-112474673D02*
X143612695Y-112474673D01*
X143612695Y-112474673D02*
X143517457Y-112522292D01*
X143517457Y-112522292D02*
X143469838Y-112569911D01*
X143469838Y-112569911D02*
X143422219Y-112665149D01*
X143422219Y-112665149D02*
X143422219Y-112903244D01*
X143422219Y-112903244D02*
X143469838Y-113046101D01*
X143898409Y-113808006D02*
X143946028Y-113950863D01*
X143946028Y-113950863D02*
X143993647Y-113998482D01*
X143993647Y-113998482D02*
X144088885Y-114046101D01*
X144088885Y-114046101D02*
X144231742Y-114046101D01*
X144231742Y-114046101D02*
X144326980Y-113998482D01*
X144326980Y-113998482D02*
X144374600Y-113950863D01*
X144374600Y-113950863D02*
X144422219Y-113855625D01*
X144422219Y-113855625D02*
X144422219Y-113474673D01*
X144422219Y-113474673D02*
X143422219Y-113474673D01*
X143422219Y-113474673D02*
X143422219Y-113808006D01*
X143422219Y-113808006D02*
X143469838Y-113903244D01*
X143469838Y-113903244D02*
X143517457Y-113950863D01*
X143517457Y-113950863D02*
X143612695Y-113998482D01*
X143612695Y-113998482D02*
X143707933Y-113998482D01*
X143707933Y-113998482D02*
X143803171Y-113950863D01*
X143803171Y-113950863D02*
X143850790Y-113903244D01*
X143850790Y-113903244D02*
X143898409Y-113808006D01*
X143898409Y-113808006D02*
X143898409Y-113474673D01*
X142385238Y-88282780D02*
X142385238Y-89282780D01*
X142385238Y-89282780D02*
X142766190Y-89282780D01*
X142766190Y-89282780D02*
X142861428Y-89235161D01*
X142861428Y-89235161D02*
X142909047Y-89187542D01*
X142909047Y-89187542D02*
X142956666Y-89092304D01*
X142956666Y-89092304D02*
X142956666Y-88949447D01*
X142956666Y-88949447D02*
X142909047Y-88854209D01*
X142909047Y-88854209D02*
X142861428Y-88806590D01*
X142861428Y-88806590D02*
X142766190Y-88758971D01*
X142766190Y-88758971D02*
X142385238Y-88758971D01*
X143290000Y-89282780D02*
X143528095Y-88282780D01*
X143528095Y-88282780D02*
X143718571Y-88997066D01*
X143718571Y-88997066D02*
X143909047Y-88282780D01*
X143909047Y-88282780D02*
X144147143Y-89282780D01*
X144528095Y-88282780D02*
X144528095Y-89282780D01*
X144528095Y-89282780D02*
X144861428Y-88568495D01*
X144861428Y-88568495D02*
X145194761Y-89282780D01*
X145194761Y-89282780D02*
X145194761Y-88282780D01*
D12*
X152084813Y-132123571D02*
X152084813Y-131837857D01*
X152084813Y-131837857D02*
X151484813Y-131837857D01*
X152141956Y-132180714D02*
X152141956Y-132637856D01*
X152084813Y-132780714D02*
X151484813Y-132780714D01*
X152056242Y-133037856D02*
X152084813Y-133123571D01*
X152084813Y-133123571D02*
X152084813Y-133266428D01*
X152084813Y-133266428D02*
X152056242Y-133323571D01*
X152056242Y-133323571D02*
X152027670Y-133352142D01*
X152027670Y-133352142D02*
X151970527Y-133380713D01*
X151970527Y-133380713D02*
X151913384Y-133380713D01*
X151913384Y-133380713D02*
X151856242Y-133352142D01*
X151856242Y-133352142D02*
X151827670Y-133323571D01*
X151827670Y-133323571D02*
X151799099Y-133266428D01*
X151799099Y-133266428D02*
X151770527Y-133152142D01*
X151770527Y-133152142D02*
X151741956Y-133094999D01*
X151741956Y-133094999D02*
X151713384Y-133066428D01*
X151713384Y-133066428D02*
X151656242Y-133037856D01*
X151656242Y-133037856D02*
X151599099Y-133037856D01*
X151599099Y-133037856D02*
X151541956Y-133066428D01*
X151541956Y-133066428D02*
X151513384Y-133094999D01*
X151513384Y-133094999D02*
X151484813Y-133152142D01*
X151484813Y-133152142D02*
X151484813Y-133294999D01*
X151484813Y-133294999D02*
X151513384Y-133380713D01*
D11*
X173456667Y-89799281D02*
X173456667Y-90599281D01*
X173456667Y-90599281D02*
X173761429Y-90599281D01*
X173761429Y-90599281D02*
X173837619Y-90561186D01*
X173837619Y-90561186D02*
X173875714Y-90523091D01*
X173875714Y-90523091D02*
X173913810Y-90446900D01*
X173913810Y-90446900D02*
X173913810Y-90332615D01*
X173913810Y-90332615D02*
X173875714Y-90256424D01*
X173875714Y-90256424D02*
X173837619Y-90218329D01*
X173837619Y-90218329D02*
X173761429Y-90180234D01*
X173761429Y-90180234D02*
X173456667Y-90180234D01*
X174409048Y-90599281D02*
X174561429Y-90599281D01*
X174561429Y-90599281D02*
X174637619Y-90561186D01*
X174637619Y-90561186D02*
X174713810Y-90484996D01*
X174713810Y-90484996D02*
X174751905Y-90332615D01*
X174751905Y-90332615D02*
X174751905Y-90065948D01*
X174751905Y-90065948D02*
X174713810Y-89913567D01*
X174713810Y-89913567D02*
X174637619Y-89837377D01*
X174637619Y-89837377D02*
X174561429Y-89799281D01*
X174561429Y-89799281D02*
X174409048Y-89799281D01*
X174409048Y-89799281D02*
X174332857Y-89837377D01*
X174332857Y-89837377D02*
X174256667Y-89913567D01*
X174256667Y-89913567D02*
X174218571Y-90065948D01*
X174218571Y-90065948D02*
X174218571Y-90332615D01*
X174218571Y-90332615D02*
X174256667Y-90484996D01*
X174256667Y-90484996D02*
X174332857Y-90561186D01*
X174332857Y-90561186D02*
X174409048Y-90599281D01*
X175056666Y-89837377D02*
X175170952Y-89799281D01*
X175170952Y-89799281D02*
X175361428Y-89799281D01*
X175361428Y-89799281D02*
X175437619Y-89837377D01*
X175437619Y-89837377D02*
X175475714Y-89875472D01*
X175475714Y-89875472D02*
X175513809Y-89951662D01*
X175513809Y-89951662D02*
X175513809Y-90027853D01*
X175513809Y-90027853D02*
X175475714Y-90104043D01*
X175475714Y-90104043D02*
X175437619Y-90142138D01*
X175437619Y-90142138D02*
X175361428Y-90180234D01*
X175361428Y-90180234D02*
X175209047Y-90218329D01*
X175209047Y-90218329D02*
X175132857Y-90256424D01*
X175132857Y-90256424D02*
X175094762Y-90294519D01*
X175094762Y-90294519D02*
X175056666Y-90370710D01*
X175056666Y-90370710D02*
X175056666Y-90446900D01*
X175056666Y-90446900D02*
X175094762Y-90523091D01*
X175094762Y-90523091D02*
X175132857Y-90561186D01*
X175132857Y-90561186D02*
X175209047Y-90599281D01*
X175209047Y-90599281D02*
X175399524Y-90599281D01*
X175399524Y-90599281D02*
X175513809Y-90561186D01*
X175856667Y-89799281D02*
X175856667Y-90599281D01*
X176123333Y-90599281D02*
X176580476Y-90599281D01*
X176351904Y-89799281D02*
X176351904Y-90599281D01*
X176847143Y-89799281D02*
X176847143Y-90599281D01*
X177380476Y-90599281D02*
X177532857Y-90599281D01*
X177532857Y-90599281D02*
X177609047Y-90561186D01*
X177609047Y-90561186D02*
X177685238Y-90484996D01*
X177685238Y-90484996D02*
X177723333Y-90332615D01*
X177723333Y-90332615D02*
X177723333Y-90065948D01*
X177723333Y-90065948D02*
X177685238Y-89913567D01*
X177685238Y-89913567D02*
X177609047Y-89837377D01*
X177609047Y-89837377D02*
X177532857Y-89799281D01*
X177532857Y-89799281D02*
X177380476Y-89799281D01*
X177380476Y-89799281D02*
X177304285Y-89837377D01*
X177304285Y-89837377D02*
X177228095Y-89913567D01*
X177228095Y-89913567D02*
X177189999Y-90065948D01*
X177189999Y-90065948D02*
X177189999Y-90332615D01*
X177189999Y-90332615D02*
X177228095Y-90484996D01*
X177228095Y-90484996D02*
X177304285Y-90561186D01*
X177304285Y-90561186D02*
X177380476Y-90599281D01*
X178066190Y-89799281D02*
X178066190Y-90599281D01*
X178066190Y-90599281D02*
X178523333Y-89799281D01*
X178523333Y-89799281D02*
X178523333Y-90599281D01*
X173780475Y-88549422D02*
X173894761Y-88511326D01*
X173894761Y-88511326D02*
X174085237Y-88511326D01*
X174085237Y-88511326D02*
X174161428Y-88549422D01*
X174161428Y-88549422D02*
X174199523Y-88587517D01*
X174199523Y-88587517D02*
X174237618Y-88663707D01*
X174237618Y-88663707D02*
X174237618Y-88739898D01*
X174237618Y-88739898D02*
X174199523Y-88816088D01*
X174199523Y-88816088D02*
X174161428Y-88854183D01*
X174161428Y-88854183D02*
X174085237Y-88892279D01*
X174085237Y-88892279D02*
X173932856Y-88930374D01*
X173932856Y-88930374D02*
X173856666Y-88968469D01*
X173856666Y-88968469D02*
X173818571Y-89006564D01*
X173818571Y-89006564D02*
X173780475Y-89082755D01*
X173780475Y-89082755D02*
X173780475Y-89158945D01*
X173780475Y-89158945D02*
X173818571Y-89235136D01*
X173818571Y-89235136D02*
X173856666Y-89273231D01*
X173856666Y-89273231D02*
X173932856Y-89311326D01*
X173932856Y-89311326D02*
X174123333Y-89311326D01*
X174123333Y-89311326D02*
X174237618Y-89273231D01*
X174580476Y-88930374D02*
X174847142Y-88930374D01*
X174961428Y-88511326D02*
X174580476Y-88511326D01*
X174580476Y-88511326D02*
X174580476Y-89311326D01*
X174580476Y-89311326D02*
X174961428Y-89311326D01*
X175304286Y-88511326D02*
X175304286Y-89311326D01*
X175304286Y-89311326D02*
X175761429Y-88511326D01*
X175761429Y-88511326D02*
X175761429Y-89311326D01*
X176104285Y-88549422D02*
X176218571Y-88511326D01*
X176218571Y-88511326D02*
X176409047Y-88511326D01*
X176409047Y-88511326D02*
X176485238Y-88549422D01*
X176485238Y-88549422D02*
X176523333Y-88587517D01*
X176523333Y-88587517D02*
X176561428Y-88663707D01*
X176561428Y-88663707D02*
X176561428Y-88739898D01*
X176561428Y-88739898D02*
X176523333Y-88816088D01*
X176523333Y-88816088D02*
X176485238Y-88854183D01*
X176485238Y-88854183D02*
X176409047Y-88892279D01*
X176409047Y-88892279D02*
X176256666Y-88930374D01*
X176256666Y-88930374D02*
X176180476Y-88968469D01*
X176180476Y-88968469D02*
X176142381Y-89006564D01*
X176142381Y-89006564D02*
X176104285Y-89082755D01*
X176104285Y-89082755D02*
X176104285Y-89158945D01*
X176104285Y-89158945D02*
X176142381Y-89235136D01*
X176142381Y-89235136D02*
X176180476Y-89273231D01*
X176180476Y-89273231D02*
X176256666Y-89311326D01*
X176256666Y-89311326D02*
X176447143Y-89311326D01*
X176447143Y-89311326D02*
X176561428Y-89273231D01*
X177056667Y-89311326D02*
X177209048Y-89311326D01*
X177209048Y-89311326D02*
X177285238Y-89273231D01*
X177285238Y-89273231D02*
X177361429Y-89197041D01*
X177361429Y-89197041D02*
X177399524Y-89044660D01*
X177399524Y-89044660D02*
X177399524Y-88777993D01*
X177399524Y-88777993D02*
X177361429Y-88625612D01*
X177361429Y-88625612D02*
X177285238Y-88549422D01*
X177285238Y-88549422D02*
X177209048Y-88511326D01*
X177209048Y-88511326D02*
X177056667Y-88511326D01*
X177056667Y-88511326D02*
X176980476Y-88549422D01*
X176980476Y-88549422D02*
X176904286Y-88625612D01*
X176904286Y-88625612D02*
X176866190Y-88777993D01*
X176866190Y-88777993D02*
X176866190Y-89044660D01*
X176866190Y-89044660D02*
X176904286Y-89197041D01*
X176904286Y-89197041D02*
X176980476Y-89273231D01*
X176980476Y-89273231D02*
X177056667Y-89311326D01*
X178199524Y-88511326D02*
X177932857Y-88892279D01*
X177742381Y-88511326D02*
X177742381Y-89311326D01*
X177742381Y-89311326D02*
X178047143Y-89311326D01*
X178047143Y-89311326D02*
X178123333Y-89273231D01*
X178123333Y-89273231D02*
X178161428Y-89235136D01*
X178161428Y-89235136D02*
X178199524Y-89158945D01*
X178199524Y-89158945D02*
X178199524Y-89044660D01*
X178199524Y-89044660D02*
X178161428Y-88968469D01*
X178161428Y-88968469D02*
X178123333Y-88930374D01*
X178123333Y-88930374D02*
X178047143Y-88892279D01*
X178047143Y-88892279D02*
X177742381Y-88892279D01*
M02*
