G04 #@! TF.GenerationSoftware,KiCad,Pcbnew,9.0.7*
G04 #@! TF.CreationDate,2026-03-13T14:34:27-04:00*
G04 #@! TF.ProjectId,ArduinoBoard,41726475-696e-46f4-926f-6172642e6b69,1*
G04 #@! TF.SameCoordinates,Original*
G04 #@! TF.FileFunction,Copper,L2,Bot*
G04 #@! TF.FilePolarity,Positive*
%FSLAX46Y46*%
G04 Gerber Fmt 4.6, Leading zero omitted, Abs format (unit mm)*
G04 Created by KiCad (PCBNEW 9.0.7) date 2026-03-13 14:34:27*
%MOMM*%
%LPD*%
G01*
G04 APERTURE LIST*
G04 #@! TA.AperFunction,ComponentPad*
%ADD10C,3.000000*%
G04 #@! TD*
G04 #@! TA.AperFunction,ComponentPad*
%ADD11R,3.000000X3.000000*%
G04 #@! TD*
G04 #@! TA.AperFunction,ComponentPad*
%ADD12O,1.600000X3.000000*%
G04 #@! TD*
G04 #@! TA.AperFunction,ComponentPad*
%ADD13R,1.600000X3.000000*%
G04 #@! TD*
G04 #@! TA.AperFunction,ComponentPad*
%ADD14R,2.500000X1.700000*%
G04 #@! TD*
G04 #@! TA.AperFunction,ComponentPad*
%ADD15O,2.500000X1.700000*%
G04 #@! TD*
G04 #@! TA.AperFunction,ComponentPad*
%ADD16O,1.700000X2.500000*%
G04 #@! TD*
G04 #@! TA.AperFunction,ComponentPad*
%ADD17O,3.000000X1.600000*%
G04 #@! TD*
G04 #@! TA.AperFunction,Conductor*
%ADD18C,0.700000*%
G04 #@! TD*
G04 #@! TA.AperFunction,Conductor*
%ADD19C,0.800000*%
G04 #@! TD*
G04 #@! TA.AperFunction,Conductor*
%ADD20C,1.000000*%
G04 #@! TD*
G04 APERTURE END LIST*
D10*
X150985000Y-99132000D03*
D11*
X156065000Y-99132000D03*
D12*
X186125000Y-119387500D03*
X188665000Y-119387500D03*
D13*
X191205000Y-119387500D03*
D12*
X193745000Y-119387500D03*
D14*
X144764792Y-134705000D03*
D15*
X141724792Y-134705000D03*
X144764792Y-132165000D03*
X141724792Y-132165000D03*
X144764792Y-129625000D03*
X141724792Y-129625000D03*
D16*
X144514792Y-126835000D03*
D15*
X141724792Y-127085000D03*
D10*
X171305000Y-99142000D03*
X176385000Y-99142000D03*
X140805000Y-99135000D03*
X145885000Y-99135000D03*
D13*
X202325000Y-106955000D03*
D17*
X201725000Y-109995000D03*
X201725000Y-112535000D03*
X201725000Y-115075000D03*
X201725000Y-117615000D03*
D12*
X202325000Y-120655000D03*
D11*
X161145000Y-99142000D03*
X166225000Y-99142000D03*
D10*
X165904688Y-126811000D03*
X165904688Y-131891000D03*
D11*
X165904688Y-136971000D03*
D12*
X179735000Y-105435000D03*
X177195000Y-105435000D03*
X174655000Y-105435000D03*
D13*
X172115000Y-105435000D03*
D12*
X169575000Y-105435000D03*
X167035000Y-105435000D03*
X164495000Y-105435000D03*
X161955000Y-105435000D03*
X159415000Y-105435000D03*
X156875000Y-105435000D03*
X154335000Y-105435000D03*
X151795000Y-105435000D03*
X149255000Y-105435000D03*
X146715000Y-105435000D03*
X144175000Y-105435000D03*
X144175000Y-119675000D03*
X146715000Y-119675000D03*
X149255000Y-119675000D03*
X151795000Y-119675000D03*
X154335000Y-119675000D03*
X156875000Y-119675000D03*
X159415000Y-119675000D03*
X161955000Y-119675000D03*
X164495000Y-119675000D03*
X167035000Y-119675000D03*
X169575000Y-119675000D03*
X172115000Y-119675000D03*
X174655000Y-119675000D03*
D13*
X177195000Y-119675000D03*
D12*
X179735000Y-119675000D03*
D18*
X143395000Y-124315000D02*
X144514792Y-125434792D01*
X145077500Y-101697500D02*
X143277500Y-101697500D01*
X146755000Y-104895000D02*
X146755000Y-103375000D01*
X141695000Y-124315000D02*
X143395000Y-124315000D01*
X143277500Y-101697500D02*
X143275000Y-101700000D01*
X140715000Y-98598000D02*
X140735000Y-98618000D01*
X139875000Y-101700000D02*
X139035000Y-102540000D01*
X144515000Y-127084792D02*
X144514792Y-127085000D01*
X139035000Y-121655000D02*
X141695000Y-124315000D01*
X140735000Y-98618000D02*
X140735000Y-100840000D01*
X143275000Y-101700000D02*
X141595000Y-101700000D01*
X140735000Y-100840000D02*
X139875000Y-101700000D01*
X139035000Y-102540000D02*
X139035000Y-121655000D01*
X139890000Y-101685000D02*
X139875000Y-101700000D01*
X144514792Y-125434792D02*
X144514792Y-127085000D01*
X141595000Y-101700000D02*
X140735000Y-100840000D01*
X146755000Y-103375000D02*
X145077500Y-101697500D01*
D19*
X145795000Y-99420000D02*
X149295000Y-102920000D01*
D18*
X141485000Y-127085000D02*
X142260000Y-127085000D01*
D19*
X149295000Y-102920000D02*
X149295000Y-104820000D01*
D18*
X145795000Y-99045000D02*
X145795000Y-97388000D01*
D19*
X145795000Y-99225000D02*
X145795000Y-99420000D01*
D18*
X138915000Y-96235000D02*
X137815000Y-97335000D01*
X137815000Y-97335000D02*
X137815000Y-123415000D01*
D19*
X145885000Y-99135000D02*
X145795000Y-99225000D01*
X145885000Y-98648000D02*
X145815000Y-98578000D01*
D18*
X144642000Y-96235000D02*
X138915000Y-96235000D01*
X137815000Y-123415000D02*
X141485000Y-127085000D01*
D19*
X145815000Y-98578000D02*
X145815000Y-97979000D01*
X145885000Y-99135000D02*
X145885000Y-98648000D01*
D18*
X145885000Y-99135000D02*
X145795000Y-99045000D01*
X145795000Y-97388000D02*
X144642000Y-96235000D01*
D19*
X150985000Y-98525000D02*
X154375000Y-95135000D01*
D18*
X147085000Y-94785000D02*
X138415000Y-94785000D01*
D19*
X172155000Y-120215000D02*
X172155000Y-123025000D01*
D18*
X150895000Y-98595000D02*
X147085000Y-94785000D01*
D19*
X194665000Y-124695000D02*
X195625000Y-123735000D01*
X150895000Y-99042000D02*
X150985000Y-99132000D01*
D18*
X142230000Y-129595000D02*
X138765000Y-129595000D01*
D19*
X195625000Y-113585000D02*
X198895000Y-110315000D01*
D18*
X138765000Y-133035000D02*
X140435000Y-134705000D01*
D19*
X166815000Y-95135000D02*
X168315000Y-93635000D01*
X195625000Y-123735000D02*
X195625000Y-113585000D01*
X150895000Y-98595000D02*
X150895000Y-99042000D01*
D18*
X136565000Y-124035000D02*
X138765000Y-126235000D01*
X140435000Y-134705000D02*
X141974792Y-134705000D01*
D19*
X199425000Y-109785000D02*
X198895000Y-110315000D01*
X195625000Y-114465000D02*
X195625000Y-113585000D01*
X199215000Y-109995000D02*
X202315000Y-109995000D01*
X198895000Y-110315000D02*
X199215000Y-109995000D01*
D18*
X138765000Y-126235000D02*
X138765000Y-133035000D01*
X141974792Y-129625000D02*
X144800000Y-129625000D01*
D19*
X154375000Y-95135000D02*
X166815000Y-95135000D01*
X197265000Y-95405000D02*
X199425000Y-97565000D01*
X192497240Y-126860000D02*
X194662240Y-124695000D01*
X172155000Y-123025000D02*
X175990000Y-126860000D01*
X175990000Y-126860000D02*
X192497240Y-126860000D01*
X199425000Y-97565000D02*
X199425000Y-109785000D01*
X184995000Y-95405000D02*
X197265000Y-95405000D01*
D18*
X138415000Y-94785000D02*
X136565000Y-96635000D01*
D19*
X150985000Y-99132000D02*
X150985000Y-98525000D01*
X168315000Y-93635000D02*
X183225000Y-93635000D01*
X183225000Y-93635000D02*
X184995000Y-95405000D01*
X194662240Y-124695000D02*
X194665000Y-124695000D01*
D18*
X136565000Y-96635000D02*
X136565000Y-124035000D01*
D19*
X173560000Y-129830000D02*
X193687240Y-129830000D01*
X161995000Y-120655000D02*
X165085000Y-123745000D01*
X165085000Y-123745000D02*
X167475000Y-123745000D01*
X167475000Y-123745000D02*
X173560000Y-129830000D01*
X198625000Y-124892240D02*
X198625000Y-116285000D01*
X199977500Y-114932500D02*
X201887500Y-114932500D01*
X198625000Y-116285000D02*
X199977500Y-114932500D01*
X161995000Y-120215000D02*
X161995000Y-120655000D01*
X193687240Y-129830000D02*
X198625000Y-124892240D01*
X166314792Y-122335000D02*
X168865000Y-122335000D01*
X168865000Y-122335000D02*
X174860000Y-128330000D01*
X199287500Y-112392500D02*
X201887500Y-112392500D01*
X197215000Y-114465000D02*
X199287500Y-112392500D01*
X193087238Y-128330000D02*
X195721238Y-125696000D01*
X195721238Y-125696000D02*
X197185000Y-124232238D01*
X197185000Y-114495000D02*
X197215000Y-114465000D01*
X164495000Y-120175000D02*
X164495000Y-120515208D01*
X164495000Y-120515208D02*
X166314792Y-122335000D01*
X197215000Y-114465000D02*
X197215000Y-115165000D01*
X174860000Y-128330000D02*
X193087238Y-128330000D01*
X197185000Y-124232238D02*
X197185000Y-114495000D01*
X166821000Y-131891000D02*
X165904688Y-131891000D01*
X156875000Y-120785000D02*
X156875000Y-120175000D01*
X202325000Y-120155000D02*
X201365000Y-121115000D01*
X165904688Y-131824688D02*
X160185000Y-126105000D01*
X194552240Y-133065000D02*
X167995000Y-133065000D01*
X165904688Y-131891000D02*
X165904688Y-131824688D01*
X160185000Y-124095000D02*
X156875000Y-120785000D01*
X167995000Y-133065000D02*
X166821000Y-131891000D01*
X160185000Y-126105000D02*
X160185000Y-124095000D01*
X201365000Y-121115000D02*
X201365000Y-126252240D01*
X201365000Y-126252240D02*
X194552240Y-133065000D01*
D20*
X168975000Y-95035000D02*
X182495000Y-95035000D01*
X201165000Y-96875000D02*
X198105000Y-93815000D01*
X144514792Y-135535208D02*
X142855000Y-137195000D01*
X141965000Y-118435000D02*
X141965000Y-121435000D01*
X172115000Y-104135000D02*
X172115000Y-104935000D01*
X166225000Y-99142000D02*
X166225000Y-97785000D01*
X181365000Y-116785000D02*
X178265000Y-116785000D01*
X143165000Y-122635000D02*
X144595000Y-122635000D01*
X177205000Y-117845000D02*
X177205000Y-120165000D01*
X147155000Y-125195000D02*
X147155000Y-133645000D01*
X189815000Y-123485000D02*
X183805000Y-123485000D01*
X196205000Y-96955000D02*
X197625000Y-98375000D01*
X195695000Y-93815000D02*
X197485000Y-93815000D01*
D18*
X144785000Y-134705000D02*
X148235000Y-138155000D01*
D20*
X198105000Y-93815000D02*
X195695000Y-93815000D01*
X197625000Y-98375000D02*
X197625000Y-108875000D01*
X184002049Y-92235000D02*
X185582049Y-93815000D01*
X147155000Y-133645000D02*
X146095000Y-134705000D01*
X137815000Y-93285000D02*
X166465000Y-93285000D01*
X144514792Y-134705000D02*
X144514792Y-135535208D01*
D18*
X148235000Y-138155000D02*
X163894792Y-138155000D01*
D20*
X156075000Y-99142000D02*
X156065000Y-99132000D01*
X201165000Y-106305000D02*
X201165000Y-96875000D01*
X142855000Y-137195000D02*
X140525000Y-137195000D01*
X182605000Y-122285000D02*
X182605000Y-118025000D01*
X183805000Y-123485000D02*
X182605000Y-122285000D01*
X144595000Y-122635000D02*
X147155000Y-125195000D01*
X165598000Y-99142000D02*
X156075000Y-99142000D01*
X166465000Y-93285000D02*
X167515000Y-92235000D01*
X167515000Y-92235000D02*
X184002049Y-92235000D01*
X146095000Y-134705000D02*
X144800000Y-134705000D01*
X184415000Y-96955000D02*
X196205000Y-96955000D01*
X191205000Y-115295000D02*
X191205000Y-119887500D01*
X191205000Y-122095000D02*
X189815000Y-123485000D01*
X141965000Y-121435000D02*
X143165000Y-122635000D01*
X172115000Y-104935000D02*
X172115000Y-112935000D01*
X202315000Y-107455000D02*
X201165000Y-106305000D01*
X170615000Y-114435000D02*
X154515000Y-114435000D01*
X172115000Y-112935000D02*
X170615000Y-114435000D01*
X182605000Y-118025000D02*
X181365000Y-116785000D01*
X197625000Y-108875000D02*
X191205000Y-115295000D01*
X178265000Y-116785000D02*
X177205000Y-117845000D01*
X151865000Y-117085000D02*
X143315000Y-117085000D01*
X166225000Y-99142000D02*
X167122000Y-99142000D01*
D18*
X144514792Y-134705000D02*
X144785000Y-134705000D01*
D20*
X182495000Y-95035000D02*
X184415000Y-96955000D01*
X135215000Y-95885000D02*
X137815000Y-93285000D01*
X185582049Y-93815000D02*
X197465000Y-93815000D01*
X143315000Y-117085000D02*
X141965000Y-118435000D01*
X191205000Y-119887500D02*
X191205000Y-122095000D01*
X137083667Y-133753667D02*
X137083667Y-126703667D01*
X137083667Y-126703667D02*
X135215000Y-124835000D01*
X166225000Y-97785000D02*
X168975000Y-95035000D01*
D18*
X163894792Y-138155000D02*
X165874792Y-136175000D01*
D20*
X135215000Y-124835000D02*
X135215000Y-95885000D01*
X167122000Y-99142000D02*
X172115000Y-104135000D01*
X140525000Y-137195000D02*
X137083667Y-133753667D01*
X154515000Y-114435000D02*
X151865000Y-117085000D01*
X155985000Y-98155000D02*
X155975000Y-98145000D01*
D19*
X180620000Y-125355000D02*
X191495000Y-125355000D01*
X193805000Y-123045000D02*
X193805000Y-119947500D01*
X179675000Y-124410000D02*
X180620000Y-125355000D01*
X191495000Y-125355000D02*
X193805000Y-123045000D01*
X179675000Y-120235000D02*
X179675000Y-124410000D01*
X193805000Y-119947500D02*
X193745000Y-119887500D01*
D20*
X195565000Y-99165000D02*
X195565000Y-107935000D01*
X195565000Y-107935000D02*
X188665000Y-114835000D01*
X181545000Y-96485000D02*
X183635000Y-98575000D01*
X173565000Y-96485000D02*
X181545000Y-96485000D01*
X171305000Y-98745000D02*
X173565000Y-96485000D01*
X194975000Y-98575000D02*
X195565000Y-99165000D01*
X171277953Y-99114953D02*
X171305000Y-99142000D01*
X183635000Y-98575000D02*
X194975000Y-98575000D01*
X171277953Y-98667953D02*
X171277953Y-99114953D01*
X188665000Y-114835000D02*
X188665000Y-119887500D01*
X171305000Y-99142000D02*
X171305000Y-98745000D01*
D19*
X154335000Y-117885000D02*
X154335000Y-120175000D01*
X175515000Y-116035000D02*
X156185000Y-116035000D01*
X182215000Y-109335000D02*
X175515000Y-116035000D01*
X182215000Y-103779294D02*
X182215000Y-109335000D01*
X177040706Y-98605000D02*
X182215000Y-103779294D01*
X156185000Y-116035000D02*
X154335000Y-117885000D01*
X176295000Y-98605000D02*
X177040706Y-98605000D01*
X193952240Y-131515000D02*
X170745000Y-131515000D01*
X200015000Y-125452240D02*
X193952240Y-131515000D01*
X202325000Y-117615000D02*
X200965000Y-117615000D01*
X165874792Y-126015000D02*
X164394792Y-126015000D01*
X200015000Y-118565000D02*
X200015000Y-125452240D01*
X200965000Y-117615000D02*
X200015000Y-118565000D01*
X159415000Y-121035208D02*
X159415000Y-120175000D01*
X170745000Y-131515000D02*
X165405000Y-126175000D01*
X164394792Y-126015000D02*
X159415000Y-121035208D01*
G04 #@! TA.AperFunction,Conductor*
G36*
X146847735Y-102981138D02*
G01*
X146850298Y-102984998D01*
X147487329Y-104549067D01*
X147487276Y-104558021D01*
X147481601Y-104564006D01*
X146720650Y-104933307D01*
X146711711Y-104933836D01*
X146710703Y-104933433D01*
X146238935Y-104719108D01*
X145940326Y-104583450D01*
X145934212Y-104576909D01*
X145934211Y-104568692D01*
X146347788Y-103466019D01*
X146350467Y-103461860D01*
X146831190Y-102981137D01*
X146839462Y-102977711D01*
X146847735Y-102981138D01*
G37*
G04 #@! TD.AperFunction*
G04 #@! TA.AperFunction,Conductor*
G36*
X140810945Y-99144825D02*
G01*
X140811515Y-99145831D01*
X141472065Y-100457935D01*
X141472725Y-100466865D01*
X141470355Y-100470975D01*
X140437656Y-101631299D01*
X140429596Y-101635200D01*
X140421137Y-101632260D01*
X140420643Y-101631793D01*
X139936449Y-101147599D01*
X139933574Y-101142876D01*
X139550698Y-99940675D01*
X139551452Y-99931753D01*
X139555579Y-99927245D01*
X140794799Y-99141211D01*
X140803620Y-99139674D01*
X140810945Y-99144825D01*
G37*
G04 #@! TD.AperFunction*
G04 #@! TA.AperFunction,Conductor*
G36*
X144285840Y-124713733D02*
G01*
X144287046Y-124715148D01*
X145102216Y-125841884D01*
X145104289Y-125850595D01*
X145103297Y-125853780D01*
X144521710Y-127072688D01*
X144515054Y-127078679D01*
X144506112Y-127078210D01*
X144504042Y-127076943D01*
X143669953Y-126438948D01*
X143665463Y-126431200D01*
X143665415Y-126428540D01*
X143783623Y-125203178D01*
X143786995Y-125196032D01*
X144269295Y-124713732D01*
X144277567Y-124710306D01*
X144285840Y-124713733D01*
G37*
G04 #@! TD.AperFunction*
G04 #@! TA.AperFunction,Conductor*
G36*
X145897084Y-99136358D02*
G01*
X147353378Y-99371517D01*
X147360998Y-99376217D01*
X147362840Y-99380139D01*
X147724217Y-100778732D01*
X147722969Y-100787599D01*
X147721162Y-100789932D01*
X147166345Y-101344749D01*
X147158072Y-101348176D01*
X147152549Y-101346791D01*
X147148735Y-101344749D01*
X146112531Y-100789932D01*
X145805788Y-100625692D01*
X145800112Y-100618765D01*
X145799630Y-100614711D01*
X145883552Y-99147240D01*
X145887446Y-99139178D01*
X145895901Y-99136229D01*
X145897084Y-99136358D01*
G37*
G04 #@! TD.AperFunction*
G04 #@! TA.AperFunction,Conductor*
G36*
X149694060Y-103153799D02*
G01*
X149697161Y-103159328D01*
X150037362Y-104569536D01*
X150035971Y-104578382D01*
X150030834Y-104582929D01*
X149259846Y-104933794D01*
X149250897Y-104934102D01*
X149250154Y-104933794D01*
X148479643Y-104583147D01*
X148473532Y-104576601D01*
X148473274Y-104569164D01*
X148892513Y-103158738D01*
X148898155Y-103151785D01*
X148903728Y-103150372D01*
X149685787Y-103150372D01*
X149694060Y-103153799D01*
G37*
G04 #@! TD.AperFunction*
G04 #@! TA.AperFunction,Conductor*
G36*
X145526817Y-96625975D02*
G01*
X145527342Y-96626535D01*
X146557709Y-97803205D01*
X146560581Y-97811687D01*
X146559328Y-97816233D01*
X145891580Y-99124202D01*
X145884766Y-99130012D01*
X145875839Y-99129303D01*
X145874842Y-99128729D01*
X144639698Y-98335563D01*
X144634589Y-98328210D01*
X144634882Y-98322138D01*
X145023271Y-97114798D01*
X145026133Y-97110113D01*
X145510272Y-96625974D01*
X145518544Y-96622548D01*
X145526817Y-96625975D01*
G37*
G04 #@! TD.AperFunction*
G04 #@! TA.AperFunction,Conductor*
G36*
X140468912Y-125569542D02*
G01*
X142258244Y-126245161D01*
X142264772Y-126251289D01*
X142265150Y-126259979D01*
X141978290Y-127077749D01*
X141972318Y-127084421D01*
X141967067Y-127085575D01*
X140498078Y-127062600D01*
X140489859Y-127059044D01*
X140487897Y-127056331D01*
X139970868Y-126069470D01*
X139970064Y-126060551D01*
X139972957Y-126055769D01*
X140456511Y-125572215D01*
X140464783Y-125568789D01*
X140468912Y-125569542D01*
G37*
G04 #@! TD.AperFunction*
G04 #@! TA.AperFunction,Conductor*
G36*
X152119688Y-96837757D02*
G01*
X152674519Y-97392588D01*
X152677946Y-97400861D01*
X152677775Y-97402853D01*
X152437424Y-98793916D01*
X152432639Y-98801485D01*
X152428497Y-98803331D01*
X150996953Y-99129819D01*
X150988125Y-99128318D01*
X150982944Y-99121014D01*
X150982735Y-99119815D01*
X150944285Y-98801598D01*
X150805410Y-97652233D01*
X150807820Y-97643610D01*
X150810844Y-97640898D01*
X152105239Y-96836093D01*
X152114072Y-96834636D01*
X152119688Y-96837757D01*
G37*
G04 #@! TD.AperFunction*
G04 #@! TA.AperFunction,Conductor*
G36*
X172119837Y-120176201D02*
G01*
X172863153Y-120514473D01*
X172890834Y-120527070D01*
X172896945Y-120533616D01*
X172897362Y-120540463D01*
X172557161Y-121950672D01*
X172551889Y-121957911D01*
X172545787Y-121959628D01*
X171763728Y-121959628D01*
X171755455Y-121956201D01*
X171752513Y-121951262D01*
X171333274Y-120540835D01*
X171334202Y-120531928D01*
X171339641Y-120526853D01*
X172110154Y-120176204D01*
X172119103Y-120175897D01*
X172119837Y-120176201D01*
G37*
G04 #@! TD.AperFunction*
G04 #@! TA.AperFunction,Conductor*
G36*
X149727694Y-96929078D02*
G01*
X151093584Y-97641261D01*
X151099336Y-97648124D01*
X151099840Y-97652534D01*
X150986703Y-99119778D01*
X150982651Y-99127764D01*
X150974139Y-99130544D01*
X150972949Y-99130391D01*
X149524427Y-98867528D01*
X149516899Y-98862679D01*
X149515047Y-98858328D01*
X149271081Y-97648124D01*
X149226350Y-97426233D01*
X149228074Y-97417448D01*
X149229541Y-97415655D01*
X149714017Y-96931179D01*
X149722289Y-96927753D01*
X149727694Y-96929078D01*
G37*
G04 #@! TD.AperFunction*
G04 #@! TA.AperFunction,Conductor*
G36*
X141161107Y-128794269D02*
G01*
X141163907Y-128796377D01*
X141967769Y-129616812D01*
X141971111Y-129625119D01*
X141967769Y-129633188D01*
X141164110Y-130453415D01*
X141155872Y-130456926D01*
X141152002Y-130456310D01*
X139649074Y-129947690D01*
X139642336Y-129941792D01*
X139641125Y-129936607D01*
X139641125Y-129253714D01*
X139644552Y-129245441D01*
X139649472Y-129242505D01*
X141152199Y-128793355D01*
X141161107Y-128794269D01*
G37*
G04 #@! TD.AperFunction*
G04 #@! TA.AperFunction,Conductor*
G36*
X141327149Y-133858348D02*
G01*
X141328456Y-133859791D01*
X141966229Y-134693588D01*
X141968534Y-134702241D01*
X141964044Y-134709989D01*
X141961390Y-134711515D01*
X140686329Y-135236488D01*
X140677375Y-135236469D01*
X140674540Y-135234784D01*
X139636313Y-134399304D01*
X139632016Y-134391448D01*
X139634533Y-134382854D01*
X139635366Y-134381925D01*
X140117871Y-133899420D01*
X140125742Y-133896001D01*
X141318763Y-133855206D01*
X141327149Y-133858348D01*
G37*
G04 #@! TD.AperFunction*
G04 #@! TA.AperFunction,Conductor*
G36*
X200873025Y-109212578D02*
G01*
X202306870Y-109984699D01*
X202312530Y-109991638D01*
X202311624Y-110000547D01*
X202306870Y-110005301D01*
X200873025Y-110777421D01*
X200864436Y-110778418D01*
X199449030Y-110397331D01*
X199441932Y-110391871D01*
X199440372Y-110386033D01*
X199440372Y-109603966D01*
X199443799Y-109595693D01*
X199449027Y-109592669D01*
X200864437Y-109211581D01*
X200873025Y-109212578D01*
G37*
G04 #@! TD.AperFunction*
G04 #@! TA.AperFunction,Conductor*
G36*
X143800312Y-129272403D02*
G01*
X143807153Y-129278180D01*
X143808459Y-129283551D01*
X143808459Y-129966448D01*
X143805032Y-129974721D01*
X143800311Y-129977596D01*
X142301172Y-130455304D01*
X142292249Y-130454550D01*
X142286684Y-130448313D01*
X141975371Y-129629154D01*
X141975371Y-129620844D01*
X142103556Y-129283551D01*
X142286684Y-128801685D01*
X142292826Y-128795170D01*
X142301169Y-128794695D01*
X143800312Y-129272403D01*
G37*
G04 #@! TD.AperFunction*
G04 #@! TA.AperFunction,Conductor*
G36*
X144197334Y-128795449D02*
G01*
X144202900Y-128801687D01*
X144514212Y-129620844D01*
X144514212Y-129629156D01*
X144202900Y-130448312D01*
X144196757Y-130454829D01*
X144188411Y-130455304D01*
X144186920Y-130454829D01*
X143931071Y-130373301D01*
X142689273Y-129977596D01*
X142682431Y-129971819D01*
X142681125Y-129966448D01*
X142681125Y-129283551D01*
X142684552Y-129275278D01*
X142689270Y-129272404D01*
X144188413Y-128794695D01*
X144197334Y-128795449D01*
G37*
G04 #@! TD.AperFunction*
G04 #@! TA.AperFunction,Conductor*
G36*
X162753046Y-119929150D02*
G01*
X162758679Y-119935728D01*
X163073903Y-120858818D01*
X163151704Y-121086646D01*
X163231995Y-121321765D01*
X163231426Y-121330702D01*
X163229196Y-121333819D01*
X162675923Y-121887092D01*
X162667650Y-121890519D01*
X162660524Y-121888099D01*
X161616843Y-121086646D01*
X161612369Y-121078889D01*
X161613031Y-121073213D01*
X161952272Y-120179615D01*
X161958411Y-120173099D01*
X161959716Y-120172604D01*
X162744129Y-119928338D01*
X162753046Y-119929150D01*
G37*
G04 #@! TD.AperFunction*
G04 #@! TA.AperFunction,Conductor*
G36*
X200570183Y-114426537D02*
G01*
X202301386Y-115065319D01*
X202307961Y-115071397D01*
X202308312Y-115080345D01*
X202302887Y-115086594D01*
X200873016Y-115857424D01*
X200864440Y-115858427D01*
X199883567Y-115595960D01*
X199878318Y-115592931D01*
X199326492Y-115041105D01*
X199323065Y-115032832D01*
X199326492Y-115024559D01*
X199329671Y-115022299D01*
X200561065Y-114426988D01*
X200570005Y-114426474D01*
X200570183Y-114426537D01*
G37*
G04 #@! TD.AperFunction*
G04 #@! TA.AperFunction,Conductor*
G36*
X200872465Y-111752276D02*
G01*
X202305087Y-112523738D01*
X202310747Y-112530677D01*
X202309841Y-112539586D01*
X202304326Y-112544715D01*
X200720835Y-113254552D01*
X200712051Y-113254872D01*
X199448074Y-112795300D01*
X199441470Y-112789252D01*
X199440372Y-112784304D01*
X199440372Y-112002383D01*
X199443799Y-111994110D01*
X199450116Y-111990848D01*
X200864966Y-111751043D01*
X200872465Y-111752276D01*
G37*
G04 #@! TD.AperFunction*
G04 #@! TA.AperFunction,Conductor*
G36*
X165293350Y-119911170D02*
G01*
X165299031Y-119917409D01*
X165825484Y-121275652D01*
X165825279Y-121284604D01*
X165822848Y-121288153D01*
X165269492Y-121841509D01*
X165261219Y-121844936D01*
X165254513Y-121842823D01*
X164196337Y-121102600D01*
X164191522Y-121095050D01*
X164191933Y-121089345D01*
X164492453Y-120179860D01*
X164498301Y-120173082D01*
X164499843Y-120172440D01*
X165284418Y-119910539D01*
X165293350Y-119911170D01*
G37*
G04 #@! TD.AperFunction*
G04 #@! TA.AperFunction,Conductor*
G36*
X164469238Y-129819351D02*
G01*
X165853926Y-130400919D01*
X165860225Y-130407281D01*
X165861089Y-130411355D01*
X165905008Y-131878789D01*
X165901830Y-131887161D01*
X165893663Y-131890834D01*
X165892502Y-131890811D01*
X164425056Y-131788832D01*
X164417040Y-131784840D01*
X164414896Y-131781226D01*
X164357812Y-131627205D01*
X163898915Y-130389025D01*
X163899253Y-130380080D01*
X163901610Y-130376692D01*
X164456437Y-129821865D01*
X164464709Y-129818439D01*
X164469238Y-129819351D01*
G37*
G04 #@! TD.AperFunction*
G04 #@! TA.AperFunction,Conductor*
G36*
X157672392Y-119961408D02*
G01*
X157677865Y-119968496D01*
X157677916Y-119968692D01*
X158032515Y-121372015D01*
X158031220Y-121380875D01*
X158029445Y-121383154D01*
X157476247Y-121936352D01*
X157467974Y-121939779D01*
X157460213Y-121936835D01*
X156471023Y-121060024D01*
X156467105Y-121051971D01*
X156468178Y-121046329D01*
X156871997Y-120179221D01*
X156878596Y-120173169D01*
X156879523Y-120172874D01*
X157663512Y-119960266D01*
X157672392Y-119961408D01*
G37*
G04 #@! TD.AperFunction*
G04 #@! TA.AperFunction,Conductor*
G36*
X167353157Y-131552092D02*
G01*
X167357011Y-131555977D01*
X168028235Y-132662203D01*
X168029932Y-132668272D01*
X168029932Y-133452072D01*
X168026505Y-133460345D01*
X168018232Y-133463772D01*
X168017069Y-133463714D01*
X166395957Y-133301737D01*
X166388065Y-133297505D01*
X166386056Y-133293899D01*
X165907889Y-131903218D01*
X165908439Y-131894282D01*
X165915149Y-131888352D01*
X165916258Y-131888030D01*
X167344320Y-131550659D01*
X167353157Y-131552092D01*
G37*
G04 #@! TD.AperFunction*
G04 #@! TA.AperFunction,Conductor*
G36*
X144521916Y-134714193D02*
G01*
X144522773Y-134715335D01*
X145071031Y-135547594D01*
X145072720Y-135556388D01*
X145070097Y-135561698D01*
X144255743Y-136500109D01*
X144247732Y-136504112D01*
X144239238Y-136501278D01*
X144238633Y-136500714D01*
X143543343Y-135805424D01*
X143539978Y-135798355D01*
X143515426Y-135561127D01*
X143517983Y-135552545D01*
X143519482Y-135551012D01*
X144505425Y-134712856D01*
X144513947Y-134710109D01*
X144521916Y-134714193D01*
G37*
G04 #@! TD.AperFunction*
G04 #@! TA.AperFunction,Conductor*
G36*
X177192189Y-117168238D02*
G01*
X177194983Y-117170303D01*
X177888954Y-117864274D01*
X177891768Y-117868809D01*
X177993623Y-118170916D01*
X177993398Y-118179001D01*
X177207227Y-120143387D01*
X177200972Y-120149795D01*
X177192018Y-120149902D01*
X177185610Y-120143647D01*
X177185085Y-120142144D01*
X176646636Y-118179472D01*
X176647580Y-118170901D01*
X177176373Y-117173095D01*
X177183274Y-117167392D01*
X177192189Y-117168238D01*
G37*
G04 #@! TD.AperFunction*
G04 #@! TA.AperFunction,Conductor*
G36*
X146008055Y-134857047D02*
G01*
X146015937Y-134861297D01*
X146017550Y-134863920D01*
X146480249Y-135901204D01*
X146480490Y-135910155D01*
X146477837Y-135914243D01*
X145994393Y-136397687D01*
X145986120Y-136401114D01*
X145981095Y-136399980D01*
X144214034Y-135559569D01*
X144208034Y-135552921D01*
X144208064Y-135545002D01*
X144510968Y-134712855D01*
X144517017Y-134706255D01*
X144523151Y-134705220D01*
X146008055Y-134857047D01*
G37*
G04 #@! TD.AperFunction*
G04 #@! TA.AperFunction,Conductor*
G36*
X164730648Y-98145763D02*
G01*
X166211384Y-99132263D01*
X166216369Y-99139702D01*
X166214634Y-99148487D01*
X166211384Y-99151737D01*
X164730648Y-100138236D01*
X164721863Y-100139971D01*
X164718929Y-100138964D01*
X163731468Y-99645234D01*
X163725600Y-99638469D01*
X163725000Y-99634769D01*
X163725000Y-98649231D01*
X163728427Y-98640958D01*
X163731468Y-98638766D01*
X164718930Y-98145034D01*
X164727861Y-98144400D01*
X164730648Y-98145763D01*
G37*
G04 #@! TD.AperFunction*
G04 #@! TA.AperFunction,Conductor*
G36*
X157571062Y-98141048D02*
G01*
X158558566Y-98638757D01*
X158564411Y-98645541D01*
X158565000Y-98649205D01*
X158565000Y-99634743D01*
X158561573Y-99643016D01*
X158558499Y-99645224D01*
X157571077Y-100134994D01*
X157562143Y-100135601D01*
X157559366Y-100134233D01*
X156078588Y-99141777D01*
X156073624Y-99134324D01*
X156075383Y-99125544D01*
X156078640Y-99122304D01*
X157559339Y-98141741D01*
X157568128Y-98140031D01*
X157571062Y-98141048D01*
G37*
G04 #@! TD.AperFunction*
G04 #@! TA.AperFunction,Conductor*
G36*
X146289108Y-133810464D02*
G01*
X146289322Y-133810673D01*
X146983013Y-134504364D01*
X146986440Y-134512637D01*
X146983013Y-134520910D01*
X146981446Y-134522225D01*
X146019586Y-135194994D01*
X146010842Y-135196927D01*
X146009231Y-135196522D01*
X144521143Y-134708024D01*
X144514351Y-134702188D01*
X144513179Y-134698334D01*
X144491546Y-134522225D01*
X144411156Y-133867791D01*
X144413549Y-133859164D01*
X144421343Y-133854754D01*
X144422467Y-133854671D01*
X146280751Y-133807250D01*
X146289108Y-133810464D01*
G37*
G04 #@! TD.AperFunction*
G04 #@! TA.AperFunction,Conductor*
G36*
X191705165Y-117090927D02*
G01*
X191707847Y-117095092D01*
X192003408Y-117883256D01*
X192003317Y-117891707D01*
X191215864Y-119861326D01*
X191209611Y-119867736D01*
X191200657Y-119867847D01*
X191194247Y-119861594D01*
X191194136Y-119861326D01*
X190406682Y-117891707D01*
X190406591Y-117883257D01*
X190702153Y-117095092D01*
X190708267Y-117088549D01*
X190713108Y-117087500D01*
X191696892Y-117087500D01*
X191705165Y-117090927D01*
G37*
G04 #@! TD.AperFunction*
G04 #@! TA.AperFunction,Conductor*
G36*
X172125753Y-104960905D02*
G01*
X172125864Y-104961173D01*
X172913317Y-106930792D01*
X172913408Y-106939243D01*
X172617847Y-107727408D01*
X172611734Y-107733951D01*
X172606892Y-107735000D01*
X171623108Y-107735000D01*
X171614835Y-107731573D01*
X171612153Y-107727408D01*
X171316591Y-106939243D01*
X171316682Y-106930792D01*
X172104136Y-104961173D01*
X172110389Y-104954763D01*
X172119343Y-104954652D01*
X172125753Y-104960905D01*
G37*
G04 #@! TD.AperFunction*
G04 #@! TA.AperFunction,Conductor*
G36*
X191212304Y-119896100D02*
G01*
X191214140Y-119897936D01*
X192000851Y-120882309D01*
X192003339Y-120890911D01*
X192002666Y-120893721D01*
X191707847Y-121679908D01*
X191701734Y-121686451D01*
X191696892Y-121687500D01*
X190713108Y-121687500D01*
X190704835Y-121684073D01*
X190702153Y-121679908D01*
X190407333Y-120893721D01*
X190407637Y-120884772D01*
X190409145Y-120882312D01*
X191195860Y-119897935D01*
X191203702Y-119893612D01*
X191212304Y-119896100D01*
G37*
G04 #@! TD.AperFunction*
G04 #@! TA.AperFunction,Conductor*
G36*
X166729826Y-96589622D02*
G01*
X166730113Y-96589900D01*
X167428292Y-97288079D01*
X167428986Y-97288836D01*
X167718116Y-97633788D01*
X167720804Y-97642330D01*
X167717422Y-97649577D01*
X166237741Y-99129258D01*
X166229468Y-99132685D01*
X166221195Y-99129258D01*
X166218353Y-99124639D01*
X165733091Y-97648576D01*
X165733763Y-97639648D01*
X165735649Y-97636945D01*
X166713291Y-96590186D01*
X166721441Y-96586480D01*
X166729826Y-96589622D01*
G37*
G04 #@! TD.AperFunction*
G04 #@! TA.AperFunction,Conductor*
G36*
X164412578Y-136623195D02*
G01*
X165696640Y-136922304D01*
X165891452Y-136967684D01*
X165898732Y-136972898D01*
X165900193Y-136981733D01*
X165899336Y-136984163D01*
X165185071Y-138464542D01*
X165178389Y-138470504D01*
X165174787Y-138471155D01*
X163627848Y-138504740D01*
X163619502Y-138501494D01*
X163615897Y-138493297D01*
X163615894Y-138493043D01*
X163615894Y-137808540D01*
X163617857Y-137802053D01*
X164400193Y-136628101D01*
X164407631Y-136623119D01*
X164412578Y-136623195D01*
G37*
G04 #@! TD.AperFunction*
G04 #@! TA.AperFunction,Conductor*
G36*
X167727173Y-98872403D02*
G01*
X167729366Y-98874376D01*
X168778558Y-100090323D01*
X168781368Y-100098825D01*
X168777973Y-100106239D01*
X168082610Y-100801602D01*
X168074337Y-100805029D01*
X168072859Y-100804935D01*
X166800117Y-100642887D01*
X166792343Y-100638443D01*
X166790655Y-100635428D01*
X166584029Y-100090323D01*
X166229277Y-99154441D01*
X166229549Y-99145492D01*
X166236070Y-99139356D01*
X166238119Y-99138787D01*
X167718424Y-98870507D01*
X167727173Y-98872403D01*
G37*
G04 #@! TD.AperFunction*
G04 #@! TA.AperFunction,Conductor*
G36*
X171710622Y-103024553D02*
G01*
X171711105Y-103025066D01*
X172328901Y-103722868D01*
X172511925Y-103929594D01*
X172514843Y-103938060D01*
X172514025Y-103941702D01*
X172117984Y-104930024D01*
X172111726Y-104936429D01*
X172109741Y-104937076D01*
X171326413Y-105116860D01*
X171317583Y-105115370D01*
X171312392Y-105108074D01*
X170997203Y-103729172D01*
X170998700Y-103720344D01*
X171000332Y-103718297D01*
X171694077Y-103024552D01*
X171702349Y-103021126D01*
X171710622Y-103024553D01*
G37*
G04 #@! TD.AperFunction*
G04 #@! TA.AperFunction,Conductor*
G36*
X193749837Y-119888701D02*
G01*
X194151110Y-120071314D01*
X194520952Y-120239624D01*
X194527063Y-120246170D01*
X194527515Y-120252866D01*
X194207069Y-121663021D01*
X194201894Y-121670329D01*
X194195660Y-121672128D01*
X193413612Y-121672128D01*
X193405339Y-121668701D01*
X193402441Y-121663905D01*
X192963438Y-120253424D01*
X192964251Y-120244506D01*
X192969762Y-120239298D01*
X193740154Y-119888704D01*
X193749103Y-119888397D01*
X193749837Y-119888701D01*
G37*
G04 #@! TD.AperFunction*
G04 #@! TA.AperFunction,Conductor*
G36*
X179739837Y-120176201D02*
G01*
X180270634Y-120417758D01*
X180510236Y-120526798D01*
X180516347Y-120533344D01*
X180516561Y-120540924D01*
X180077559Y-121951405D01*
X180071829Y-121958286D01*
X180066388Y-121959628D01*
X179284340Y-121959628D01*
X179276067Y-121956201D01*
X179272931Y-121950521D01*
X178952484Y-120540366D01*
X178953992Y-120531539D01*
X178959047Y-120527124D01*
X179730154Y-120176204D01*
X179739103Y-120175897D01*
X179739837Y-120176201D01*
G37*
G04 #@! TD.AperFunction*
G04 #@! TA.AperFunction,Conductor*
G36*
X172502143Y-96853942D02*
G01*
X173197629Y-97549428D01*
X173201056Y-97557701D01*
X173200512Y-97561228D01*
X172780795Y-98888887D01*
X172775034Y-98895742D01*
X172771572Y-98896899D01*
X171317083Y-99140564D01*
X171308357Y-99138551D01*
X171303611Y-99130958D01*
X171303474Y-99129779D01*
X171210562Y-97661775D01*
X171213460Y-97653304D01*
X171216011Y-97651133D01*
X172487648Y-96852307D01*
X172496475Y-96850809D01*
X172502143Y-96853942D01*
G37*
G04 #@! TD.AperFunction*
G04 #@! TA.AperFunction,Conductor*
G36*
X189163675Y-117106299D02*
G01*
X189166876Y-117112286D01*
X189448766Y-118527102D01*
X189447421Y-118535244D01*
X188675129Y-119870981D01*
X188668021Y-119876428D01*
X188659144Y-119875254D01*
X188654871Y-119870981D01*
X187882578Y-118535244D01*
X187881233Y-118527104D01*
X188163124Y-117112285D01*
X188168101Y-117104842D01*
X188174598Y-117102872D01*
X189155402Y-117102872D01*
X189163675Y-117106299D01*
G37*
G04 #@! TD.AperFunction*
G04 #@! TA.AperFunction,Conductor*
G36*
X154410301Y-117261479D02*
G01*
X154413004Y-117263495D01*
X154964880Y-117815371D01*
X154968174Y-117821887D01*
X155119010Y-118814865D01*
X155117569Y-118822483D01*
X154347308Y-120153220D01*
X154340198Y-120158664D01*
X154331321Y-120157485D01*
X154326083Y-120151057D01*
X153758839Y-118447939D01*
X153759475Y-118439008D01*
X153759650Y-118438673D01*
X154394444Y-117266196D01*
X154401395Y-117260554D01*
X154410301Y-117261479D01*
G37*
G04 #@! TD.AperFunction*
G04 #@! TA.AperFunction,Conductor*
G36*
X177803629Y-98687110D02*
G01*
X177806995Y-98689700D01*
X178209499Y-99137310D01*
X178833845Y-99831622D01*
X178836829Y-99840065D01*
X178833418Y-99847718D01*
X178278616Y-100402520D01*
X178271298Y-100405908D01*
X176996411Y-100510345D01*
X176987886Y-100507605D01*
X176984750Y-100503403D01*
X176389526Y-99153164D01*
X176389325Y-99144212D01*
X176395513Y-99137739D01*
X176396634Y-99137312D01*
X177794705Y-98686388D01*
X177803629Y-98687110D01*
G37*
G04 #@! TD.AperFunction*
G04 #@! TA.AperFunction,Conductor*
G36*
X164154546Y-125204102D02*
G01*
X165518537Y-125371765D01*
X165526330Y-125376175D01*
X165528422Y-125380396D01*
X165743510Y-126197055D01*
X165902095Y-126799178D01*
X165900888Y-126808051D01*
X165893761Y-126813472D01*
X165892596Y-126813716D01*
X164434852Y-127042606D01*
X164426147Y-127040504D01*
X164423282Y-127037509D01*
X164265433Y-126799178D01*
X163588477Y-125777063D01*
X163586767Y-125768275D01*
X163589958Y-125762333D01*
X164144849Y-125207442D01*
X164153121Y-125204016D01*
X164154546Y-125204102D01*
G37*
G04 #@! TD.AperFunction*
G04 #@! TA.AperFunction,Conductor*
G36*
X202323824Y-117617516D02*
G01*
X202327457Y-117623371D01*
X202529060Y-118392066D01*
X202527844Y-118400938D01*
X202520711Y-118406351D01*
X202519700Y-118406569D01*
X200415972Y-118763534D01*
X200414015Y-118763699D01*
X199636052Y-118763699D01*
X199627779Y-118760272D01*
X199624352Y-118751999D01*
X199626116Y-118745821D01*
X199837056Y-118406569D01*
X200237213Y-117763002D01*
X200244491Y-117757787D01*
X200246331Y-117757510D01*
X202315334Y-117614667D01*
X202323824Y-117617516D01*
G37*
G04 #@! TD.AperFunction*
G04 #@! TA.AperFunction,Conductor*
G36*
X167384346Y-126824624D02*
G01*
X167392586Y-126828130D01*
X167394916Y-126831552D01*
X168011096Y-128211342D01*
X168011341Y-128220294D01*
X168008686Y-128224386D01*
X167453867Y-128779205D01*
X167445594Y-128782632D01*
X167441778Y-128781992D01*
X166046617Y-128300633D01*
X166039914Y-128294695D01*
X166038781Y-128290634D01*
X165905605Y-126828130D01*
X165905154Y-126823177D01*
X165907817Y-126814628D01*
X165915745Y-126810465D01*
X165916913Y-126810418D01*
X167384346Y-126824624D01*
G37*
G04 #@! TD.AperFunction*
G04 #@! TA.AperFunction,Conductor*
G36*
X160211302Y-120010057D02*
G01*
X160216359Y-120017447D01*
X160216526Y-120018459D01*
X160387268Y-121436821D01*
X160384855Y-121445444D01*
X160383925Y-121446492D01*
X159831033Y-121999384D01*
X159822760Y-122002811D01*
X159814487Y-121999384D01*
X159814018Y-121998887D01*
X159314094Y-121436821D01*
X158892994Y-120963376D01*
X158890057Y-120954919D01*
X158892034Y-120949064D01*
X159411642Y-120178224D01*
X159418933Y-120173316D01*
X160202501Y-120008408D01*
X160211302Y-120010057D01*
G37*
G04 #@! TD.AperFunction*
M02*
