G04 #@! TF.GenerationSoftware,KiCad,Pcbnew,9.0.4*
G04 #@! TF.CreationDate,2025-10-29T14:56:39-04:00*
G04 #@! TF.ProjectId,ArduinoBoard,41726475-696e-46f4-926f-6172642e6b69,1*
G04 #@! TF.SameCoordinates,Original*
G04 #@! TF.FileFunction,Copper,L2,Bot*
G04 #@! TF.FilePolarity,Positive*
%FSLAX46Y46*%
G04 Gerber Fmt 4.6, Leading zero omitted, Abs format (unit mm)*
G04 Created by KiCad (PCBNEW 9.0.4) date 2025-10-29 14:56:39*
%MOMM*%
%LPD*%
G01*
G04 APERTURE LIST*
G04 #@! TA.AperFunction,NonConductor*
%ADD10C,0.200000*%
G04 #@! TD*
%ADD11C,0.200000*%
G04 #@! TA.AperFunction,ComponentPad*
%ADD12O,1.600000X3.000000*%
G04 #@! TD*
G04 #@! TA.AperFunction,ComponentPad*
%ADD13R,1.600000X3.000000*%
G04 #@! TD*
G04 #@! TA.AperFunction,ComponentPad*
%ADD14C,3.000000*%
G04 #@! TD*
G04 #@! TA.AperFunction,ComponentPad*
%ADD15R,3.000000X3.000000*%
G04 #@! TD*
G04 #@! TA.AperFunction,ComponentPad*
%ADD16R,2.500000X1.700000*%
G04 #@! TD*
G04 #@! TA.AperFunction,ComponentPad*
%ADD17O,2.500000X1.700000*%
G04 #@! TD*
G04 #@! TA.AperFunction,ComponentPad*
%ADD18O,1.700000X2.500000*%
G04 #@! TD*
G04 #@! TA.AperFunction,ComponentPad*
%ADD19R,3.000000X1.600000*%
G04 #@! TD*
G04 #@! TA.AperFunction,ComponentPad*
%ADD20O,3.000000X1.600000*%
G04 #@! TD*
G04 #@! TA.AperFunction,Conductor*
%ADD21C,0.700000*%
G04 #@! TD*
G04 #@! TA.AperFunction,Conductor*
%ADD22C,0.800000*%
G04 #@! TD*
G04 #@! TA.AperFunction,Conductor*
%ADD23C,1.000000*%
G04 #@! TD*
G04 APERTURE END LIST*
D10*
X39350000Y-92800000D02*
X54400000Y-92800000D01*
X54400000Y-136800000D01*
X39350000Y-136800000D01*
X39350000Y-92800000D01*
G04 #@! TA.AperFunction,NonConductor*
G36*
X39350000Y-92800000D02*
G01*
X54400000Y-92800000D01*
X54400000Y-136800000D01*
X39350000Y-136800000D01*
X39350000Y-92800000D01*
G37*
G04 #@! TD.AperFunction*
X54550000Y-130130000D02*
X109250000Y-130130000D01*
X109250000Y-136800000D01*
X54550000Y-136800000D01*
X54550000Y-130130000D01*
G04 #@! TA.AperFunction,NonConductor*
G36*
X54550000Y-130130000D02*
G01*
X109250000Y-130130000D01*
X109250000Y-136800000D01*
X54550000Y-136800000D01*
X54550000Y-130130000D01*
G37*
G04 #@! TD.AperFunction*
D11*
G36*
X70287607Y-115093064D02*
G01*
X70252707Y-115075614D01*
X70230552Y-115031304D01*
X70230552Y-114888043D01*
X70252707Y-114843733D01*
X70297016Y-114821579D01*
X70341905Y-114821579D01*
X70287607Y-115093064D01*
G37*
G36*
X70287607Y-114235921D02*
G01*
X70252707Y-114218471D01*
X70230552Y-114174161D01*
X70230552Y-114030900D01*
X70252707Y-113986590D01*
X70297016Y-113964436D01*
X70341905Y-113964436D01*
X70287607Y-114235921D01*
G37*
G36*
X70697219Y-109943446D02*
G01*
X70662197Y-110048511D01*
X70595127Y-110115581D01*
X70524218Y-110151035D01*
X70356337Y-110193006D01*
X70238099Y-110193006D01*
X70070218Y-110151035D01*
X69999313Y-110115583D01*
X69932240Y-110048510D01*
X69897219Y-109943446D01*
X69897219Y-109821578D01*
X70697219Y-109821578D01*
X70697219Y-109943446D01*
G37*
G36*
X70603236Y-107049969D02*
G01*
X70667414Y-107114146D01*
X70697219Y-107173756D01*
X70697219Y-107317018D01*
X70667414Y-107376627D01*
X70603236Y-107440804D01*
X70451575Y-107478720D01*
X70142861Y-107478720D01*
X69991202Y-107440805D01*
X69927023Y-107376626D01*
X69897219Y-107317017D01*
X69897219Y-107173756D01*
X69927023Y-107114147D01*
X69991202Y-107049968D01*
X70142861Y-107012054D01*
X70451575Y-107012054D01*
X70603236Y-107049969D01*
G37*
G36*
X71008330Y-116266023D02*
G01*
X69586108Y-116266023D01*
X69586108Y-115769198D01*
X70030552Y-115769198D01*
X70030552Y-115912055D01*
X70032473Y-115931564D01*
X70033848Y-115934884D01*
X70034103Y-115938468D01*
X70041109Y-115956776D01*
X70088728Y-116052014D01*
X70090781Y-116055277D01*
X70091295Y-116056816D01*
X70092957Y-116058732D01*
X70099171Y-116068604D01*
X70108641Y-116076817D01*
X70116859Y-116086293D01*
X70126732Y-116092507D01*
X70128648Y-116094169D01*
X70130186Y-116094681D01*
X70133450Y-116096736D01*
X70228687Y-116144355D01*
X70246996Y-116151361D01*
X70250579Y-116151615D01*
X70253900Y-116152991D01*
X70273409Y-116154912D01*
X70797219Y-116154912D01*
X70816728Y-116152991D01*
X70852776Y-116138059D01*
X70880366Y-116110469D01*
X70895298Y-116074421D01*
X70895298Y-116035403D01*
X70880366Y-115999355D01*
X70852776Y-115971765D01*
X70816728Y-115956833D01*
X70797219Y-115954912D01*
X70297016Y-115954912D01*
X70252707Y-115932757D01*
X70230552Y-115888447D01*
X70230552Y-115792805D01*
X70260357Y-115733195D01*
X70267212Y-115726341D01*
X70797219Y-115726341D01*
X70816728Y-115724420D01*
X70852776Y-115709488D01*
X70880366Y-115681898D01*
X70895298Y-115645850D01*
X70895298Y-115606832D01*
X70880366Y-115570784D01*
X70852776Y-115543194D01*
X70816728Y-115528262D01*
X70797219Y-115526341D01*
X70130552Y-115526341D01*
X70111043Y-115528262D01*
X70074995Y-115543194D01*
X70047405Y-115570784D01*
X70032473Y-115606832D01*
X70032473Y-115645850D01*
X70047405Y-115681898D01*
X70057400Y-115691893D01*
X70041109Y-115724477D01*
X70034103Y-115742785D01*
X70033848Y-115746368D01*
X70032473Y-115749689D01*
X70030552Y-115769198D01*
X69586108Y-115769198D01*
X69586108Y-114864436D01*
X70030552Y-114864436D01*
X70030552Y-115054912D01*
X70032473Y-115074421D01*
X70033848Y-115077741D01*
X70034103Y-115081325D01*
X70041109Y-115099633D01*
X70088728Y-115194871D01*
X70090781Y-115198134D01*
X70091295Y-115199673D01*
X70092957Y-115201589D01*
X70099171Y-115211461D01*
X70108641Y-115219674D01*
X70116859Y-115229150D01*
X70126732Y-115235364D01*
X70128648Y-115237026D01*
X70130186Y-115237538D01*
X70133450Y-115239593D01*
X70228687Y-115287212D01*
X70246996Y-115294218D01*
X70250579Y-115294472D01*
X70253900Y-115295848D01*
X70273409Y-115297769D01*
X70368542Y-115297769D01*
X70368647Y-115297769D01*
X70388156Y-115295848D01*
X70397208Y-115292098D01*
X70406819Y-115290197D01*
X70415057Y-115284704D01*
X70424204Y-115280916D01*
X70431130Y-115273989D01*
X70439284Y-115268554D01*
X70444794Y-115260325D01*
X70451794Y-115253326D01*
X70455543Y-115244274D01*
X70460995Y-115236134D01*
X70466705Y-115217381D01*
X70545865Y-114821579D01*
X70630754Y-114821579D01*
X70675064Y-114843733D01*
X70697219Y-114888043D01*
X70697219Y-115031305D01*
X70660157Y-115105429D01*
X70653151Y-115123737D01*
X70650385Y-115162657D01*
X70662724Y-115199673D01*
X70688288Y-115229150D01*
X70723187Y-115246599D01*
X70762107Y-115249365D01*
X70799123Y-115237026D01*
X70828600Y-115211462D01*
X70839043Y-115194871D01*
X70886662Y-115099634D01*
X70893668Y-115081325D01*
X70893922Y-115077741D01*
X70895298Y-115074421D01*
X70897219Y-115054912D01*
X70897219Y-114864436D01*
X70895298Y-114844927D01*
X70893922Y-114841606D01*
X70893668Y-114838023D01*
X70886662Y-114819714D01*
X70839043Y-114724477D01*
X70836989Y-114721214D01*
X70836476Y-114719674D01*
X70834812Y-114717756D01*
X70828600Y-114707886D01*
X70819125Y-114699669D01*
X70810911Y-114690198D01*
X70801039Y-114683984D01*
X70799123Y-114682322D01*
X70797584Y-114681808D01*
X70794321Y-114679755D01*
X70699082Y-114632136D01*
X70680773Y-114625130D01*
X70677190Y-114624875D01*
X70673870Y-114623500D01*
X70654361Y-114621579D01*
X70273409Y-114621579D01*
X70253900Y-114623500D01*
X70250579Y-114624875D01*
X70246996Y-114625130D01*
X70228687Y-114632136D01*
X70133450Y-114679755D01*
X70130186Y-114681809D01*
X70128648Y-114682322D01*
X70126732Y-114683983D01*
X70116859Y-114690198D01*
X70108641Y-114699673D01*
X70099171Y-114707887D01*
X70092957Y-114717758D01*
X70091295Y-114719675D01*
X70090781Y-114721213D01*
X70088728Y-114724477D01*
X70041109Y-114819715D01*
X70034103Y-114838023D01*
X70033848Y-114841606D01*
X70032473Y-114844927D01*
X70030552Y-114864436D01*
X69586108Y-114864436D01*
X69586108Y-114007293D01*
X70030552Y-114007293D01*
X70030552Y-114197769D01*
X70032473Y-114217278D01*
X70033848Y-114220598D01*
X70034103Y-114224182D01*
X70041109Y-114242490D01*
X70088728Y-114337728D01*
X70090781Y-114340991D01*
X70091295Y-114342530D01*
X70092957Y-114344446D01*
X70099171Y-114354318D01*
X70108641Y-114362531D01*
X70116859Y-114372007D01*
X70126732Y-114378221D01*
X70128648Y-114379883D01*
X70130186Y-114380395D01*
X70133450Y-114382450D01*
X70228687Y-114430069D01*
X70246996Y-114437075D01*
X70250579Y-114437329D01*
X70253900Y-114438705D01*
X70273409Y-114440626D01*
X70368542Y-114440626D01*
X70368647Y-114440626D01*
X70388156Y-114438705D01*
X70397208Y-114434955D01*
X70406819Y-114433054D01*
X70415057Y-114427561D01*
X70424204Y-114423773D01*
X70431130Y-114416846D01*
X70439284Y-114411411D01*
X70444794Y-114403182D01*
X70451794Y-114396183D01*
X70455543Y-114387131D01*
X70460995Y-114378991D01*
X70466705Y-114360238D01*
X70545865Y-113964436D01*
X70630754Y-113964436D01*
X70675064Y-113986590D01*
X70697219Y-114030900D01*
X70697219Y-114174162D01*
X70660157Y-114248286D01*
X70653151Y-114266594D01*
X70650385Y-114305514D01*
X70662724Y-114342530D01*
X70688288Y-114372007D01*
X70723187Y-114389456D01*
X70762107Y-114392222D01*
X70799123Y-114379883D01*
X70828600Y-114354319D01*
X70839043Y-114337728D01*
X70886662Y-114242491D01*
X70893668Y-114224182D01*
X70893922Y-114220598D01*
X70895298Y-114217278D01*
X70897219Y-114197769D01*
X70897219Y-114007293D01*
X70895298Y-113987784D01*
X70893922Y-113984463D01*
X70893668Y-113980880D01*
X70886662Y-113962571D01*
X70839043Y-113867334D01*
X70836989Y-113864071D01*
X70836476Y-113862531D01*
X70834812Y-113860613D01*
X70828600Y-113850743D01*
X70819125Y-113842526D01*
X70810911Y-113833055D01*
X70801039Y-113826841D01*
X70799123Y-113825179D01*
X70797584Y-113824665D01*
X70794321Y-113822612D01*
X70699082Y-113774993D01*
X70680773Y-113767987D01*
X70677190Y-113767732D01*
X70673870Y-113766357D01*
X70654361Y-113764436D01*
X70273409Y-113764436D01*
X70253900Y-113766357D01*
X70250579Y-113767732D01*
X70246996Y-113767987D01*
X70228687Y-113774993D01*
X70133450Y-113822612D01*
X70130186Y-113824666D01*
X70128648Y-113825179D01*
X70126732Y-113826840D01*
X70116859Y-113833055D01*
X70108641Y-113842530D01*
X70099171Y-113850744D01*
X70092957Y-113860615D01*
X70091295Y-113862532D01*
X70090781Y-113864070D01*
X70088728Y-113867334D01*
X70041109Y-113962572D01*
X70034103Y-113980880D01*
X70033848Y-113984463D01*
X70032473Y-113987784D01*
X70030552Y-114007293D01*
X69586108Y-114007293D01*
X69586108Y-113483483D01*
X70030552Y-113483483D01*
X70030552Y-113578721D01*
X70032473Y-113598230D01*
X70047405Y-113634278D01*
X70074995Y-113661868D01*
X70111043Y-113676800D01*
X70150061Y-113676800D01*
X70186109Y-113661868D01*
X70213699Y-113634278D01*
X70228631Y-113598230D01*
X70230552Y-113578721D01*
X70230552Y-113507090D01*
X70260357Y-113447480D01*
X70285025Y-113422811D01*
X70344635Y-113393007D01*
X70797219Y-113393007D01*
X70816728Y-113391086D01*
X70852776Y-113376154D01*
X70880366Y-113348564D01*
X70895298Y-113312516D01*
X70895298Y-113273498D01*
X70880366Y-113237450D01*
X70852776Y-113209860D01*
X70816728Y-113194928D01*
X70797219Y-113193007D01*
X70130552Y-113193007D01*
X70111043Y-113194928D01*
X70074995Y-113209860D01*
X70047405Y-113237450D01*
X70032473Y-113273498D01*
X70032473Y-113312516D01*
X70047405Y-113348564D01*
X70073273Y-113374432D01*
X70041109Y-113438762D01*
X70034103Y-113457070D01*
X70033848Y-113460653D01*
X70032473Y-113463974D01*
X70030552Y-113483483D01*
X69586108Y-113483483D01*
X69586108Y-112578721D01*
X70030552Y-112578721D01*
X70030552Y-112769197D01*
X70032473Y-112788706D01*
X70033848Y-112792026D01*
X70034103Y-112795610D01*
X70041109Y-112813918D01*
X70088728Y-112909156D01*
X70099171Y-112925746D01*
X70128648Y-112951311D01*
X70165664Y-112963649D01*
X70204584Y-112960884D01*
X70239482Y-112943435D01*
X70265047Y-112913958D01*
X70277386Y-112876942D01*
X70274620Y-112838022D01*
X70267614Y-112819713D01*
X70230552Y-112745589D01*
X70230552Y-112602328D01*
X70260357Y-112542718D01*
X70285025Y-112518049D01*
X70344635Y-112488245D01*
X70583135Y-112488245D01*
X70642746Y-112518051D01*
X70667414Y-112542718D01*
X70697219Y-112602328D01*
X70697219Y-112745590D01*
X70660157Y-112819714D01*
X70653151Y-112838022D01*
X70650385Y-112876942D01*
X70662724Y-112913958D01*
X70688288Y-112943435D01*
X70723187Y-112960884D01*
X70762107Y-112963650D01*
X70799123Y-112951311D01*
X70828600Y-112925747D01*
X70839043Y-112909156D01*
X70886662Y-112813919D01*
X70893668Y-112795610D01*
X70893922Y-112792026D01*
X70895298Y-112788706D01*
X70897219Y-112769197D01*
X70897219Y-112578721D01*
X70895298Y-112559212D01*
X70893922Y-112555891D01*
X70893668Y-112552308D01*
X70886662Y-112533999D01*
X70839043Y-112438762D01*
X70833757Y-112430365D01*
X70832747Y-112427925D01*
X70830493Y-112425179D01*
X70828600Y-112422171D01*
X70826603Y-112420439D01*
X70820310Y-112412771D01*
X70772690Y-112365153D01*
X70765020Y-112358858D01*
X70763291Y-112356864D01*
X70760286Y-112354972D01*
X70757537Y-112352716D01*
X70755093Y-112351704D01*
X70746701Y-112346421D01*
X70651463Y-112298802D01*
X70633155Y-112291796D01*
X70629571Y-112291541D01*
X70626251Y-112290166D01*
X70606742Y-112288245D01*
X70321028Y-112288245D01*
X70301519Y-112290166D01*
X70298198Y-112291541D01*
X70294615Y-112291796D01*
X70276306Y-112298802D01*
X70181069Y-112346421D01*
X70172672Y-112351706D01*
X70170232Y-112352717D01*
X70167486Y-112354970D01*
X70164478Y-112356864D01*
X70162745Y-112358861D01*
X70155079Y-112365154D01*
X70107460Y-112412772D01*
X70101165Y-112420442D01*
X70099171Y-112422172D01*
X70097277Y-112425179D01*
X70095024Y-112427926D01*
X70094013Y-112430365D01*
X70088728Y-112438762D01*
X70041109Y-112534000D01*
X70034103Y-112552308D01*
X70033848Y-112555891D01*
X70032473Y-112559212D01*
X70030552Y-112578721D01*
X69586108Y-112578721D01*
X69586108Y-111626340D01*
X69697219Y-111626340D01*
X69697219Y-111864435D01*
X69698191Y-111874308D01*
X69698004Y-111876942D01*
X69698791Y-111880405D01*
X69699140Y-111883944D01*
X69700151Y-111886386D01*
X69702351Y-111896058D01*
X69749970Y-112038914D01*
X69757961Y-112056815D01*
X69783526Y-112086291D01*
X69818425Y-112103740D01*
X69857345Y-112106507D01*
X69894361Y-112094168D01*
X69923837Y-112068603D01*
X69941287Y-112033704D01*
X69944053Y-111994784D01*
X69939706Y-111975669D01*
X69897219Y-111848208D01*
X69897219Y-111649947D01*
X69927024Y-111590337D01*
X69951692Y-111565668D01*
X70011302Y-111535864D01*
X70059326Y-111535864D01*
X70118935Y-111565669D01*
X70143604Y-111590337D01*
X70179057Y-111661244D01*
X70224014Y-111841069D01*
X70224527Y-111842506D01*
X70224579Y-111843229D01*
X70227687Y-111851353D01*
X70230609Y-111859530D01*
X70231039Y-111860110D01*
X70231585Y-111861537D01*
X70279204Y-111956775D01*
X70284489Y-111965171D01*
X70285500Y-111967611D01*
X70287753Y-111970357D01*
X70289647Y-111973365D01*
X70291641Y-111975094D01*
X70297936Y-111982765D01*
X70345555Y-112030383D01*
X70353221Y-112036675D01*
X70354954Y-112038673D01*
X70357962Y-112040566D01*
X70360708Y-112042820D01*
X70363148Y-112043830D01*
X70371545Y-112049116D01*
X70466782Y-112096735D01*
X70485091Y-112103741D01*
X70488674Y-112103995D01*
X70491995Y-112105371D01*
X70511504Y-112107292D01*
X70606742Y-112107292D01*
X70626251Y-112105371D01*
X70629571Y-112103995D01*
X70633155Y-112103741D01*
X70651463Y-112096735D01*
X70746701Y-112049116D01*
X70755093Y-112043832D01*
X70757537Y-112042821D01*
X70760286Y-112040564D01*
X70763291Y-112038673D01*
X70765020Y-112036678D01*
X70772690Y-112030384D01*
X70820310Y-111982766D01*
X70826603Y-111975097D01*
X70828600Y-111973366D01*
X70830493Y-111970357D01*
X70832747Y-111967612D01*
X70833757Y-111965171D01*
X70839043Y-111956775D01*
X70886662Y-111861538D01*
X70893668Y-111843229D01*
X70893922Y-111839645D01*
X70895298Y-111836325D01*
X70897219Y-111816816D01*
X70897219Y-111578721D01*
X70896246Y-111568847D01*
X70896434Y-111566213D01*
X70895646Y-111562749D01*
X70895298Y-111559212D01*
X70894286Y-111556770D01*
X70892087Y-111547098D01*
X70844468Y-111404241D01*
X70836477Y-111386341D01*
X70810912Y-111356865D01*
X70776013Y-111339415D01*
X70737093Y-111336649D01*
X70700077Y-111348987D01*
X70670601Y-111374552D01*
X70653151Y-111409451D01*
X70650385Y-111448371D01*
X70654732Y-111467487D01*
X70697219Y-111594947D01*
X70697219Y-111793209D01*
X70667414Y-111852818D01*
X70642746Y-111877485D01*
X70583135Y-111907292D01*
X70535111Y-111907292D01*
X70475501Y-111877487D01*
X70450833Y-111852818D01*
X70415379Y-111781911D01*
X70370423Y-111602086D01*
X70369909Y-111600647D01*
X70369858Y-111599927D01*
X70366749Y-111591802D01*
X70363828Y-111583626D01*
X70363398Y-111583046D01*
X70362852Y-111581618D01*
X70315233Y-111486381D01*
X70309947Y-111477984D01*
X70308937Y-111475544D01*
X70306683Y-111472798D01*
X70304790Y-111469790D01*
X70302792Y-111468057D01*
X70296500Y-111460391D01*
X70248882Y-111412772D01*
X70241211Y-111406477D01*
X70239482Y-111404483D01*
X70236474Y-111402589D01*
X70233728Y-111400336D01*
X70231288Y-111399325D01*
X70222892Y-111394040D01*
X70127654Y-111346421D01*
X70109346Y-111339415D01*
X70105762Y-111339160D01*
X70102442Y-111337785D01*
X70082933Y-111335864D01*
X69987695Y-111335864D01*
X69968186Y-111337785D01*
X69964865Y-111339160D01*
X69961282Y-111339415D01*
X69942973Y-111346421D01*
X69847736Y-111394040D01*
X69839339Y-111399325D01*
X69836899Y-111400336D01*
X69834153Y-111402589D01*
X69831145Y-111404483D01*
X69829412Y-111406480D01*
X69821746Y-111412773D01*
X69774127Y-111460391D01*
X69767832Y-111468061D01*
X69765838Y-111469791D01*
X69763944Y-111472798D01*
X69761691Y-111475545D01*
X69760680Y-111477984D01*
X69755395Y-111486381D01*
X69707776Y-111581619D01*
X69700770Y-111599927D01*
X69700515Y-111603510D01*
X69699140Y-111606831D01*
X69697219Y-111626340D01*
X69586108Y-111626340D01*
X69586108Y-109721578D01*
X69697219Y-109721578D01*
X69697219Y-109959673D01*
X69698191Y-109969546D01*
X69698004Y-109972180D01*
X69698791Y-109975643D01*
X69699140Y-109979182D01*
X69700151Y-109981624D01*
X69702351Y-109991296D01*
X69749970Y-110134152D01*
X69757961Y-110152053D01*
X69760316Y-110154768D01*
X69761691Y-110158087D01*
X69774127Y-110173241D01*
X69869365Y-110268479D01*
X69877031Y-110274770D01*
X69878764Y-110276768D01*
X69881775Y-110278663D01*
X69884519Y-110280915D01*
X69886956Y-110281924D01*
X69895355Y-110287211D01*
X69990592Y-110334830D01*
X69992020Y-110335376D01*
X69992600Y-110335806D01*
X70000776Y-110338727D01*
X70008901Y-110341836D01*
X70009621Y-110341887D01*
X70011060Y-110342401D01*
X70201536Y-110390020D01*
X70204917Y-110390520D01*
X70206281Y-110391085D01*
X70213631Y-110391808D01*
X70220929Y-110392888D01*
X70222387Y-110392670D01*
X70225790Y-110393006D01*
X70368647Y-110393006D01*
X70372049Y-110392670D01*
X70373508Y-110392888D01*
X70380805Y-110391808D01*
X70388156Y-110391085D01*
X70389519Y-110390520D01*
X70392901Y-110390020D01*
X70583376Y-110342401D01*
X70584813Y-110341887D01*
X70585536Y-110341836D01*
X70593660Y-110338727D01*
X70601837Y-110335806D01*
X70602417Y-110335375D01*
X70603844Y-110334830D01*
X70699082Y-110287211D01*
X70707474Y-110281928D01*
X70709918Y-110280916D01*
X70712667Y-110278659D01*
X70715672Y-110276768D01*
X70717401Y-110274773D01*
X70725071Y-110268479D01*
X70820311Y-110173241D01*
X70832747Y-110158088D01*
X70834122Y-110154768D01*
X70836477Y-110152053D01*
X70844468Y-110134153D01*
X70892087Y-109991296D01*
X70894286Y-109981623D01*
X70895298Y-109979182D01*
X70895646Y-109975644D01*
X70896434Y-109972181D01*
X70896246Y-109969546D01*
X70897219Y-109959673D01*
X70897219Y-109721578D01*
X70895298Y-109702069D01*
X70880366Y-109666021D01*
X70852776Y-109638431D01*
X70816728Y-109623499D01*
X70797219Y-109621578D01*
X69797219Y-109621578D01*
X69777710Y-109623499D01*
X69741662Y-109638431D01*
X69714072Y-109666021D01*
X69699140Y-109702069D01*
X69697219Y-109721578D01*
X69586108Y-109721578D01*
X69586108Y-108816816D01*
X69697219Y-108816816D01*
X69697219Y-109293006D01*
X69699140Y-109312515D01*
X69714072Y-109348563D01*
X69741662Y-109376153D01*
X69777710Y-109391085D01*
X69816728Y-109391085D01*
X69852776Y-109376153D01*
X69880366Y-109348563D01*
X69895298Y-109312515D01*
X69897219Y-109293006D01*
X69897219Y-108916816D01*
X70173409Y-108916816D01*
X70173409Y-109150149D01*
X70175330Y-109169658D01*
X70190262Y-109205706D01*
X70217852Y-109233296D01*
X70253900Y-109248228D01*
X70292918Y-109248228D01*
X70328966Y-109233296D01*
X70356556Y-109205706D01*
X70371488Y-109169658D01*
X70373409Y-109150149D01*
X70373409Y-108916816D01*
X70697219Y-108916816D01*
X70697219Y-109293006D01*
X70699140Y-109312515D01*
X70714072Y-109348563D01*
X70741662Y-109376153D01*
X70777710Y-109391085D01*
X70816728Y-109391085D01*
X70852776Y-109376153D01*
X70880366Y-109348563D01*
X70895298Y-109312515D01*
X70897219Y-109293006D01*
X70897219Y-108816816D01*
X70895298Y-108797307D01*
X70880366Y-108761259D01*
X70852776Y-108733669D01*
X70816728Y-108718737D01*
X70797219Y-108716816D01*
X69797219Y-108716816D01*
X69777710Y-108718737D01*
X69741662Y-108733669D01*
X69714072Y-108761259D01*
X69699140Y-108797307D01*
X69697219Y-108816816D01*
X69586108Y-108816816D01*
X69586108Y-107987783D01*
X69699140Y-107987783D01*
X69699140Y-108026801D01*
X69714072Y-108062849D01*
X69741662Y-108090439D01*
X69777710Y-108105371D01*
X69797219Y-108107292D01*
X70697219Y-108107292D01*
X70697219Y-108483482D01*
X70699140Y-108502991D01*
X70714072Y-108539039D01*
X70741662Y-108566629D01*
X70777710Y-108581561D01*
X70816728Y-108581561D01*
X70852776Y-108566629D01*
X70880366Y-108539039D01*
X70895298Y-108502991D01*
X70897219Y-108483482D01*
X70897219Y-108007292D01*
X70895298Y-107987783D01*
X70880366Y-107951735D01*
X70852776Y-107924145D01*
X70816728Y-107909213D01*
X70797219Y-107907292D01*
X69797219Y-107907292D01*
X69777710Y-107909213D01*
X69741662Y-107924145D01*
X69714072Y-107951735D01*
X69699140Y-107987783D01*
X69586108Y-107987783D01*
X69586108Y-107150149D01*
X69697219Y-107150149D01*
X69697219Y-107340625D01*
X69699140Y-107360134D01*
X69700515Y-107363454D01*
X69700770Y-107367038D01*
X69707776Y-107385346D01*
X69755395Y-107480584D01*
X69760680Y-107488980D01*
X69761691Y-107491420D01*
X69763944Y-107494166D01*
X69765838Y-107497174D01*
X69767832Y-107498903D01*
X69774127Y-107506574D01*
X69869365Y-107601812D01*
X69884519Y-107614248D01*
X69891387Y-107617093D01*
X69897362Y-107621520D01*
X69915822Y-107628115D01*
X70106298Y-107675734D01*
X70109679Y-107676234D01*
X70111043Y-107676799D01*
X70118393Y-107677522D01*
X70125691Y-107678602D01*
X70127149Y-107678384D01*
X70130552Y-107678720D01*
X70463885Y-107678720D01*
X70467287Y-107678384D01*
X70468746Y-107678602D01*
X70476043Y-107677522D01*
X70483394Y-107676799D01*
X70484757Y-107676234D01*
X70488139Y-107675734D01*
X70678614Y-107628115D01*
X70697075Y-107621520D01*
X70703047Y-107617094D01*
X70709918Y-107614249D01*
X70725071Y-107601812D01*
X70820311Y-107506574D01*
X70826604Y-107498905D01*
X70828600Y-107497175D01*
X70830493Y-107494167D01*
X70832747Y-107491421D01*
X70833757Y-107488980D01*
X70839043Y-107480584D01*
X70886662Y-107385347D01*
X70893668Y-107367038D01*
X70893922Y-107363454D01*
X70895298Y-107360134D01*
X70897219Y-107340625D01*
X70897219Y-107150149D01*
X70895298Y-107130640D01*
X70893922Y-107127319D01*
X70893668Y-107123736D01*
X70886662Y-107105427D01*
X70839043Y-107010190D01*
X70833757Y-107001793D01*
X70832747Y-106999353D01*
X70830493Y-106996606D01*
X70828600Y-106993599D01*
X70826604Y-106991868D01*
X70820311Y-106984200D01*
X70725071Y-106888962D01*
X70709918Y-106876525D01*
X70703047Y-106873679D01*
X70697075Y-106869254D01*
X70678614Y-106862659D01*
X70488139Y-106815040D01*
X70484757Y-106814539D01*
X70483394Y-106813975D01*
X70476043Y-106813251D01*
X70468746Y-106812172D01*
X70467287Y-106812389D01*
X70463885Y-106812054D01*
X70130552Y-106812054D01*
X70127149Y-106812389D01*
X70125691Y-106812172D01*
X70118393Y-106813251D01*
X70111043Y-106813975D01*
X70109679Y-106814539D01*
X70106298Y-106815040D01*
X69915822Y-106862659D01*
X69897362Y-106869254D01*
X69891387Y-106873680D01*
X69884519Y-106876526D01*
X69869365Y-106888962D01*
X69774127Y-106984200D01*
X69767832Y-106991870D01*
X69765838Y-106993600D01*
X69763944Y-106996607D01*
X69761691Y-106999354D01*
X69760680Y-107001793D01*
X69755395Y-107010190D01*
X69707776Y-107105428D01*
X69700770Y-107123736D01*
X69700515Y-107127319D01*
X69699140Y-107130640D01*
X69697219Y-107150149D01*
X69586108Y-107150149D01*
X69586108Y-106700943D01*
X71008330Y-106700943D01*
X71008330Y-116266023D01*
G37*
D12*
X87490000Y-94820000D03*
X84950000Y-94820000D03*
X82410000Y-94820000D03*
X79870000Y-94820000D03*
X77330000Y-94820000D03*
D13*
X74790000Y-94820000D03*
D14*
X56570000Y-51297000D03*
D15*
X61650000Y-51297000D03*
D12*
X91710000Y-71552500D03*
X94250000Y-71552500D03*
D13*
X96790000Y-71552500D03*
D12*
X99330000Y-71552500D03*
D16*
X50349792Y-86870000D03*
D17*
X47309792Y-86870000D03*
X50349792Y-84330000D03*
X47309792Y-84330000D03*
X50349792Y-81790000D03*
X47309792Y-81790000D03*
D18*
X50099792Y-79000000D03*
D17*
X47309792Y-79250000D03*
D14*
X76890000Y-51307000D03*
X81970000Y-51307000D03*
D19*
X83990000Y-107710000D03*
D20*
X83990000Y-110250000D03*
X83990000Y-112790000D03*
X83990000Y-115330000D03*
D14*
X46390000Y-51300000D03*
X51470000Y-51300000D03*
D13*
X107910000Y-59120000D03*
D20*
X107410000Y-62160000D03*
X107410000Y-64700000D03*
X107410000Y-67240000D03*
X107410000Y-69780000D03*
D12*
X107910000Y-72820000D03*
D15*
X66730000Y-51307000D03*
X71810000Y-51307000D03*
D14*
X71489688Y-78976000D03*
X71489688Y-84056000D03*
D15*
X71489688Y-89136000D03*
D12*
X85320000Y-57600000D03*
X82780000Y-57600000D03*
X80240000Y-57600000D03*
D13*
X77700000Y-57600000D03*
D12*
X75160000Y-57600000D03*
X72620000Y-57600000D03*
X70080000Y-57600000D03*
X67540000Y-57600000D03*
X65000000Y-57600000D03*
X62460000Y-57600000D03*
X59920000Y-57600000D03*
X57380000Y-57600000D03*
X54840000Y-57600000D03*
X52300000Y-57600000D03*
X49760000Y-57600000D03*
X49760000Y-71840000D03*
X52300000Y-71840000D03*
X54840000Y-71840000D03*
X57380000Y-71840000D03*
X59920000Y-71840000D03*
X62460000Y-71840000D03*
X65000000Y-71840000D03*
X67540000Y-71840000D03*
X70080000Y-71840000D03*
X72620000Y-71840000D03*
X75160000Y-71840000D03*
X77700000Y-71840000D03*
X80240000Y-71840000D03*
D13*
X82780000Y-71840000D03*
D12*
X85320000Y-71840000D03*
D21*
X48980000Y-76480000D02*
X50099792Y-77599792D01*
X50662500Y-53862500D02*
X48862500Y-53862500D01*
X52340000Y-57060000D02*
X52340000Y-55540000D01*
X47280000Y-76480000D02*
X48980000Y-76480000D01*
X48862500Y-53862500D02*
X48860000Y-53865000D01*
X46300000Y-50763000D02*
X46320000Y-50783000D01*
X45460000Y-53865000D02*
X44620000Y-54705000D01*
X50100000Y-79249792D02*
X50099792Y-79250000D01*
X44620000Y-73820000D02*
X47280000Y-76480000D01*
X46320000Y-50783000D02*
X46320000Y-53005000D01*
X48860000Y-53865000D02*
X47180000Y-53865000D01*
X46320000Y-53005000D02*
X45460000Y-53865000D01*
X44620000Y-54705000D02*
X44620000Y-73820000D01*
X45475000Y-53850000D02*
X45460000Y-53865000D01*
X50099792Y-77599792D02*
X50099792Y-79250000D01*
X47180000Y-53865000D02*
X46320000Y-53005000D01*
X52340000Y-55540000D02*
X50662500Y-53862500D01*
D22*
X51380000Y-51585000D02*
X54880000Y-55085000D01*
D21*
X47070000Y-79250000D02*
X47845000Y-79250000D01*
D22*
X54880000Y-55085000D02*
X54880000Y-56985000D01*
D21*
X51380000Y-51210000D02*
X51380000Y-49553000D01*
D22*
X51380000Y-51390000D02*
X51380000Y-51585000D01*
D21*
X44500000Y-48400000D02*
X43400000Y-49500000D01*
X43400000Y-49500000D02*
X43400000Y-75580000D01*
D22*
X51470000Y-51300000D02*
X51380000Y-51390000D01*
X51470000Y-50813000D02*
X51400000Y-50743000D01*
D21*
X50227000Y-48400000D02*
X44500000Y-48400000D01*
X43400000Y-75580000D02*
X47070000Y-79250000D01*
D22*
X51400000Y-50743000D02*
X51400000Y-50144000D01*
X51470000Y-51300000D02*
X51470000Y-50813000D01*
D21*
X51470000Y-51300000D02*
X51380000Y-51210000D01*
X51380000Y-49553000D02*
X50227000Y-48400000D01*
D22*
X56570000Y-50690000D02*
X59960000Y-47300000D01*
D21*
X52670000Y-46950000D02*
X44000000Y-46950000D01*
D22*
X77740000Y-72380000D02*
X77740000Y-75190000D01*
D21*
X56480000Y-50760000D02*
X52670000Y-46950000D01*
D22*
X100250000Y-76860000D02*
X101210000Y-75900000D01*
X56480000Y-51207000D02*
X56570000Y-51297000D01*
D21*
X47815000Y-81760000D02*
X44350000Y-81760000D01*
D22*
X101210000Y-65750000D02*
X104480000Y-62480000D01*
D21*
X44350000Y-85200000D02*
X46020000Y-86870000D01*
D22*
X72400000Y-47300000D02*
X73900000Y-45800000D01*
X101210000Y-75900000D02*
X101210000Y-65750000D01*
X56480000Y-50760000D02*
X56480000Y-51207000D01*
D21*
X42150000Y-76200000D02*
X44350000Y-78400000D01*
X46020000Y-86870000D02*
X47559792Y-86870000D01*
D22*
X105010000Y-61950000D02*
X104480000Y-62480000D01*
X101210000Y-66630000D02*
X101210000Y-65750000D01*
X104800000Y-62160000D02*
X107900000Y-62160000D01*
X104480000Y-62480000D02*
X104800000Y-62160000D01*
D21*
X44350000Y-78400000D02*
X44350000Y-85200000D01*
X47559792Y-81790000D02*
X50385000Y-81790000D01*
D22*
X59960000Y-47300000D02*
X72400000Y-47300000D01*
X102850000Y-47570000D02*
X105010000Y-49730000D01*
X98082240Y-79025000D02*
X100247240Y-76860000D01*
X77740000Y-75190000D02*
X81575000Y-79025000D01*
X81575000Y-79025000D02*
X98082240Y-79025000D01*
X105010000Y-49730000D02*
X105010000Y-61950000D01*
X90580000Y-47570000D02*
X102850000Y-47570000D01*
D21*
X44000000Y-46950000D02*
X42150000Y-48800000D01*
D22*
X56570000Y-51297000D02*
X56570000Y-50690000D01*
X73900000Y-45800000D02*
X88810000Y-45800000D01*
X88810000Y-45800000D02*
X90580000Y-47570000D01*
X100247240Y-76860000D02*
X100250000Y-76860000D01*
D21*
X42150000Y-48800000D02*
X42150000Y-76200000D01*
D22*
X79145000Y-81995000D02*
X99272240Y-81995000D01*
X67580000Y-72820000D02*
X70670000Y-75910000D01*
X70670000Y-75910000D02*
X73060000Y-75910000D01*
X73060000Y-75910000D02*
X79145000Y-81995000D01*
X104210000Y-77057240D02*
X104210000Y-68450000D01*
X105562500Y-67097500D02*
X107472500Y-67097500D01*
X104210000Y-68450000D02*
X105562500Y-67097500D01*
X67580000Y-72380000D02*
X67580000Y-72820000D01*
X99272240Y-81995000D02*
X104210000Y-77057240D01*
X71899792Y-74500000D02*
X74450000Y-74500000D01*
X74450000Y-74500000D02*
X80445000Y-80495000D01*
X104872500Y-64557500D02*
X107472500Y-64557500D01*
X102800000Y-66630000D02*
X104872500Y-64557500D01*
X98672238Y-80495000D02*
X101306238Y-77861000D01*
X101306238Y-77861000D02*
X102770000Y-76397238D01*
X102770000Y-66660000D02*
X102800000Y-66630000D01*
X70080000Y-72340000D02*
X70080000Y-72680208D01*
X70080000Y-72680208D02*
X71899792Y-74500000D01*
X102800000Y-66630000D02*
X102800000Y-67330000D01*
X80445000Y-80495000D02*
X98672238Y-80495000D01*
X102770000Y-76397238D02*
X102770000Y-66660000D01*
X72406000Y-84056000D02*
X71489688Y-84056000D01*
X62460000Y-72950000D02*
X62460000Y-72340000D01*
X107910000Y-72320000D02*
X106950000Y-73280000D01*
X71489688Y-83989688D02*
X65770000Y-78270000D01*
X100137240Y-85230000D02*
X73580000Y-85230000D01*
X71489688Y-84056000D02*
X71489688Y-83989688D01*
X65770000Y-76260000D02*
X62460000Y-72950000D01*
X73580000Y-85230000D02*
X72406000Y-84056000D01*
X65770000Y-78270000D02*
X65770000Y-76260000D01*
X106950000Y-73280000D02*
X106950000Y-78417240D01*
X106950000Y-78417240D02*
X100137240Y-85230000D01*
D23*
X74560000Y-47200000D02*
X88080000Y-47200000D01*
X106750000Y-49040000D02*
X103690000Y-45980000D01*
X50099792Y-87700208D02*
X48440000Y-89360000D01*
X47550000Y-70600000D02*
X47550000Y-73600000D01*
X77700000Y-56300000D02*
X77700000Y-57100000D01*
X71810000Y-51307000D02*
X71810000Y-49950000D01*
X86950000Y-68950000D02*
X83850000Y-68950000D01*
X48750000Y-74800000D02*
X50180000Y-74800000D01*
X82790000Y-70010000D02*
X82790000Y-72330000D01*
X52740000Y-77360000D02*
X52740000Y-85810000D01*
X95400000Y-75650000D02*
X89390000Y-75650000D01*
X101790000Y-49120000D02*
X103210000Y-50540000D01*
X101280000Y-45980000D02*
X103070000Y-45980000D01*
D21*
X50370000Y-86870000D02*
X53820000Y-90320000D01*
D23*
X103690000Y-45980000D02*
X101280000Y-45980000D01*
X103210000Y-50540000D02*
X103210000Y-61040000D01*
X89587049Y-44400000D02*
X91167049Y-45980000D01*
X52740000Y-85810000D02*
X51680000Y-86870000D01*
X43400000Y-45450000D02*
X72050000Y-45450000D01*
X50099792Y-86870000D02*
X50099792Y-87700208D01*
D21*
X53820000Y-90320000D02*
X69479792Y-90320000D01*
D23*
X61660000Y-51307000D02*
X61650000Y-51297000D01*
X106750000Y-58470000D02*
X106750000Y-49040000D01*
X48440000Y-89360000D02*
X46110000Y-89360000D01*
X88190000Y-74450000D02*
X88190000Y-70190000D01*
X89390000Y-75650000D02*
X88190000Y-74450000D01*
X50180000Y-74800000D02*
X52740000Y-77360000D01*
X71183000Y-51307000D02*
X61660000Y-51307000D01*
X72050000Y-45450000D02*
X73100000Y-44400000D01*
X73100000Y-44400000D02*
X89587049Y-44400000D01*
X51680000Y-86870000D02*
X50385000Y-86870000D01*
X90000000Y-49120000D02*
X101790000Y-49120000D01*
X96790000Y-67460000D02*
X96790000Y-72052500D01*
X96790000Y-74260000D02*
X95400000Y-75650000D01*
X47550000Y-73600000D02*
X48750000Y-74800000D01*
X77700000Y-57100000D02*
X77700000Y-65100000D01*
X107900000Y-59620000D02*
X106750000Y-58470000D01*
X76200000Y-66600000D02*
X60100000Y-66600000D01*
X77700000Y-65100000D02*
X76200000Y-66600000D01*
X88190000Y-70190000D02*
X86950000Y-68950000D01*
X103210000Y-61040000D02*
X96790000Y-67460000D01*
X83850000Y-68950000D02*
X82790000Y-70010000D01*
X57450000Y-69250000D02*
X48900000Y-69250000D01*
X71810000Y-51307000D02*
X72707000Y-51307000D01*
D21*
X50099792Y-86870000D02*
X50370000Y-86870000D01*
D23*
X88080000Y-47200000D02*
X90000000Y-49120000D01*
X40800000Y-48050000D02*
X43400000Y-45450000D01*
X91167049Y-45980000D02*
X103050000Y-45980000D01*
X48900000Y-69250000D02*
X47550000Y-70600000D01*
X96790000Y-72052500D02*
X96790000Y-74260000D01*
X42668667Y-85918667D02*
X42668667Y-78868667D01*
X42668667Y-78868667D02*
X40800000Y-77000000D01*
X71810000Y-49950000D02*
X74560000Y-47200000D01*
D21*
X69479792Y-90320000D02*
X71459792Y-88340000D01*
D23*
X40800000Y-77000000D02*
X40800000Y-48050000D01*
X72707000Y-51307000D02*
X77700000Y-56300000D01*
X46110000Y-89360000D02*
X42668667Y-85918667D01*
X60100000Y-66600000D02*
X57450000Y-69250000D01*
X61570000Y-50320000D02*
X61560000Y-50310000D01*
D22*
X86205000Y-77520000D02*
X97080000Y-77520000D01*
X99390000Y-75210000D02*
X99390000Y-72112500D01*
X85260000Y-76575000D02*
X86205000Y-77520000D01*
X97080000Y-77520000D02*
X99390000Y-75210000D01*
X85260000Y-72400000D02*
X85260000Y-76575000D01*
X99390000Y-72112500D02*
X99330000Y-72052500D01*
D23*
X101150000Y-51330000D02*
X101150000Y-60100000D01*
X101150000Y-60100000D02*
X94250000Y-67000000D01*
X87130000Y-48650000D02*
X89220000Y-50740000D01*
X79150000Y-48650000D02*
X87130000Y-48650000D01*
X76890000Y-50910000D02*
X79150000Y-48650000D01*
X100560000Y-50740000D02*
X101150000Y-51330000D01*
X76862953Y-51279953D02*
X76890000Y-51307000D01*
X89220000Y-50740000D02*
X100560000Y-50740000D01*
X76862953Y-50832953D02*
X76862953Y-51279953D01*
X94250000Y-67000000D02*
X94250000Y-72052500D01*
X76890000Y-51307000D02*
X76890000Y-50910000D01*
D22*
X88040000Y-110190000D02*
X85440000Y-112790000D01*
X85440000Y-112790000D02*
X84490000Y-112790000D01*
X88040000Y-104710000D02*
X88040000Y-110190000D01*
X79870000Y-96540000D02*
X88040000Y-104710000D01*
X79870000Y-94320000D02*
X79870000Y-96540000D01*
X77330000Y-96740000D02*
X86680000Y-106090000D01*
X85650000Y-110250000D02*
X84490000Y-110250000D01*
X77330000Y-94320000D02*
X77330000Y-96740000D01*
X86680000Y-106090000D02*
X86680000Y-109220000D01*
X86680000Y-109220000D02*
X85650000Y-110250000D01*
X89590000Y-104000000D02*
X89590000Y-110830000D01*
X89590000Y-110830000D02*
X85090000Y-115330000D01*
X82410000Y-96820000D02*
X89590000Y-104000000D01*
X82410000Y-94320000D02*
X82410000Y-96820000D01*
X85090000Y-115330000D02*
X84490000Y-115330000D01*
X74790000Y-94320000D02*
X74790000Y-98010000D01*
X74790000Y-98010000D02*
X84490000Y-107710000D01*
X59920000Y-70050000D02*
X59920000Y-72340000D01*
X81100000Y-68200000D02*
X61770000Y-68200000D01*
X87800000Y-61500000D02*
X81100000Y-68200000D01*
X87800000Y-55944294D02*
X87800000Y-61500000D01*
X82625706Y-50770000D02*
X87800000Y-55944294D01*
X61770000Y-68200000D02*
X59920000Y-70050000D01*
X81880000Y-50770000D02*
X82625706Y-50770000D01*
X99537240Y-83680000D02*
X76330000Y-83680000D01*
X105600000Y-77617240D02*
X99537240Y-83680000D01*
X107910000Y-69780000D02*
X106550000Y-69780000D01*
X71459792Y-78180000D02*
X69979792Y-78180000D01*
X105600000Y-70730000D02*
X105600000Y-77617240D01*
X106550000Y-69780000D02*
X105600000Y-70730000D01*
X65000000Y-73200208D02*
X65000000Y-72340000D01*
X76330000Y-83680000D02*
X70990000Y-78340000D01*
X69979792Y-78180000D02*
X65000000Y-73200208D01*
G04 #@! TA.AperFunction,Conductor*
G36*
X52432735Y-55146138D02*
G01*
X52435298Y-55149998D01*
X53072329Y-56714067D01*
X53072276Y-56723021D01*
X53066601Y-56729006D01*
X52305650Y-57098307D01*
X52296711Y-57098836D01*
X52295703Y-57098433D01*
X51823935Y-56884108D01*
X51525326Y-56748450D01*
X51519212Y-56741909D01*
X51519211Y-56733692D01*
X51932788Y-55631019D01*
X51935467Y-55626860D01*
X52416190Y-55146137D01*
X52424462Y-55142711D01*
X52432735Y-55146138D01*
G37*
G04 #@! TD.AperFunction*
G04 #@! TA.AperFunction,Conductor*
G36*
X46395945Y-51309825D02*
G01*
X46396515Y-51310831D01*
X47057065Y-52622935D01*
X47057725Y-52631865D01*
X47055355Y-52635975D01*
X46022656Y-53796299D01*
X46014596Y-53800200D01*
X46006137Y-53797260D01*
X46005643Y-53796793D01*
X45521449Y-53312599D01*
X45518574Y-53307876D01*
X45135698Y-52105675D01*
X45136452Y-52096753D01*
X45140579Y-52092245D01*
X46379799Y-51306211D01*
X46388620Y-51304674D01*
X46395945Y-51309825D01*
G37*
G04 #@! TD.AperFunction*
G04 #@! TA.AperFunction,Conductor*
G36*
X49870840Y-76878733D02*
G01*
X49872046Y-76880148D01*
X50687216Y-78006884D01*
X50689289Y-78015595D01*
X50688297Y-78018780D01*
X50106710Y-79237688D01*
X50100054Y-79243679D01*
X50091112Y-79243210D01*
X50089042Y-79241943D01*
X49254953Y-78603948D01*
X49250463Y-78596200D01*
X49250415Y-78593540D01*
X49368623Y-77368178D01*
X49371995Y-77361032D01*
X49854295Y-76878732D01*
X49862567Y-76875306D01*
X49870840Y-76878733D01*
G37*
G04 #@! TD.AperFunction*
G04 #@! TA.AperFunction,Conductor*
G36*
X51482084Y-51301358D02*
G01*
X52938378Y-51536517D01*
X52945998Y-51541217D01*
X52947840Y-51545139D01*
X53309217Y-52943732D01*
X53307969Y-52952599D01*
X53306162Y-52954932D01*
X52751345Y-53509749D01*
X52743072Y-53513176D01*
X52737549Y-53511791D01*
X52733735Y-53509749D01*
X51697531Y-52954932D01*
X51390788Y-52790692D01*
X51385112Y-52783765D01*
X51384630Y-52779711D01*
X51468552Y-51312240D01*
X51472446Y-51304178D01*
X51480901Y-51301229D01*
X51482084Y-51301358D01*
G37*
G04 #@! TD.AperFunction*
G04 #@! TA.AperFunction,Conductor*
G36*
X55279060Y-55318799D02*
G01*
X55282161Y-55324328D01*
X55622362Y-56734536D01*
X55620971Y-56743382D01*
X55615834Y-56747929D01*
X54844846Y-57098794D01*
X54835897Y-57099102D01*
X54835154Y-57098794D01*
X54064643Y-56748147D01*
X54058532Y-56741601D01*
X54058274Y-56734164D01*
X54477513Y-55323738D01*
X54483155Y-55316785D01*
X54488728Y-55315372D01*
X55270787Y-55315372D01*
X55279060Y-55318799D01*
G37*
G04 #@! TD.AperFunction*
G04 #@! TA.AperFunction,Conductor*
G36*
X51111817Y-48790975D02*
G01*
X51112342Y-48791535D01*
X52142709Y-49968205D01*
X52145581Y-49976687D01*
X52144328Y-49981233D01*
X51476580Y-51289202D01*
X51469766Y-51295012D01*
X51460839Y-51294303D01*
X51459842Y-51293729D01*
X50224698Y-50500563D01*
X50219589Y-50493210D01*
X50219882Y-50487138D01*
X50608271Y-49279798D01*
X50611133Y-49275113D01*
X51095272Y-48790974D01*
X51103544Y-48787548D01*
X51111817Y-48790975D01*
G37*
G04 #@! TD.AperFunction*
G04 #@! TA.AperFunction,Conductor*
G36*
X46053912Y-77734542D02*
G01*
X47843244Y-78410161D01*
X47849772Y-78416289D01*
X47850150Y-78424979D01*
X47563290Y-79242749D01*
X47557318Y-79249421D01*
X47552067Y-79250575D01*
X46083078Y-79227600D01*
X46074859Y-79224044D01*
X46072897Y-79221331D01*
X45555868Y-78234470D01*
X45555064Y-78225551D01*
X45557957Y-78220769D01*
X46041511Y-77737215D01*
X46049783Y-77733789D01*
X46053912Y-77734542D01*
G37*
G04 #@! TD.AperFunction*
G04 #@! TA.AperFunction,Conductor*
G36*
X57704688Y-49002757D02*
G01*
X58259519Y-49557588D01*
X58262946Y-49565861D01*
X58262775Y-49567853D01*
X58022424Y-50958916D01*
X58017639Y-50966485D01*
X58013497Y-50968331D01*
X56581953Y-51294819D01*
X56573125Y-51293318D01*
X56567944Y-51286014D01*
X56567735Y-51284815D01*
X56529285Y-50966598D01*
X56390410Y-49817233D01*
X56392820Y-49808610D01*
X56395844Y-49805898D01*
X57690239Y-49001093D01*
X57699072Y-48999636D01*
X57704688Y-49002757D01*
G37*
G04 #@! TD.AperFunction*
G04 #@! TA.AperFunction,Conductor*
G36*
X77704837Y-72341201D02*
G01*
X78448153Y-72679473D01*
X78475834Y-72692070D01*
X78481945Y-72698616D01*
X78482362Y-72705463D01*
X78142161Y-74115672D01*
X78136889Y-74122911D01*
X78130787Y-74124628D01*
X77348728Y-74124628D01*
X77340455Y-74121201D01*
X77337513Y-74116262D01*
X76918274Y-72705835D01*
X76919202Y-72696928D01*
X76924641Y-72691853D01*
X77695154Y-72341204D01*
X77704103Y-72340897D01*
X77704837Y-72341201D01*
G37*
G04 #@! TD.AperFunction*
G04 #@! TA.AperFunction,Conductor*
G36*
X55312694Y-49094078D02*
G01*
X56678584Y-49806261D01*
X56684336Y-49813124D01*
X56684840Y-49817534D01*
X56571703Y-51284778D01*
X56567651Y-51292764D01*
X56559139Y-51295544D01*
X56557949Y-51295391D01*
X55109427Y-51032528D01*
X55101899Y-51027679D01*
X55100047Y-51023328D01*
X54856081Y-49813124D01*
X54811350Y-49591233D01*
X54813074Y-49582448D01*
X54814541Y-49580655D01*
X55299017Y-49096179D01*
X55307289Y-49092753D01*
X55312694Y-49094078D01*
G37*
G04 #@! TD.AperFunction*
G04 #@! TA.AperFunction,Conductor*
G36*
X46746107Y-80959269D02*
G01*
X46748907Y-80961377D01*
X47552769Y-81781812D01*
X47556111Y-81790119D01*
X47552769Y-81798188D01*
X46749110Y-82618415D01*
X46740872Y-82621926D01*
X46737002Y-82621310D01*
X45234074Y-82112690D01*
X45227336Y-82106792D01*
X45226125Y-82101607D01*
X45226125Y-81418714D01*
X45229552Y-81410441D01*
X45234472Y-81407505D01*
X46737199Y-80958355D01*
X46746107Y-80959269D01*
G37*
G04 #@! TD.AperFunction*
G04 #@! TA.AperFunction,Conductor*
G36*
X46912149Y-86023348D02*
G01*
X46913456Y-86024791D01*
X47551229Y-86858588D01*
X47553534Y-86867241D01*
X47549044Y-86874989D01*
X47546390Y-86876515D01*
X46271329Y-87401488D01*
X46262375Y-87401469D01*
X46259540Y-87399784D01*
X45221313Y-86564304D01*
X45217016Y-86556448D01*
X45219533Y-86547854D01*
X45220366Y-86546925D01*
X45702871Y-86064420D01*
X45710742Y-86061001D01*
X46903763Y-86020206D01*
X46912149Y-86023348D01*
G37*
G04 #@! TD.AperFunction*
G04 #@! TA.AperFunction,Conductor*
G36*
X106558115Y-61377792D02*
G01*
X106558128Y-61377800D01*
X106558134Y-61377804D01*
X107893481Y-62149871D01*
X107898928Y-62156979D01*
X107897754Y-62165856D01*
X107893481Y-62170129D01*
X106558134Y-62942195D01*
X106549257Y-62943369D01*
X106549236Y-62943364D01*
X105134030Y-62562331D01*
X105126932Y-62556871D01*
X105125372Y-62551033D01*
X105125372Y-61768966D01*
X105128799Y-61760693D01*
X105134027Y-61757669D01*
X106549236Y-61376635D01*
X106558115Y-61377792D01*
G37*
G04 #@! TD.AperFunction*
G04 #@! TA.AperFunction,Conductor*
G36*
X49385312Y-81437403D02*
G01*
X49392153Y-81443180D01*
X49393459Y-81448551D01*
X49393459Y-82131448D01*
X49390032Y-82139721D01*
X49385311Y-82142596D01*
X47886172Y-82620304D01*
X47877249Y-82619550D01*
X47871684Y-82613313D01*
X47560371Y-81794154D01*
X47560371Y-81785844D01*
X47688556Y-81448551D01*
X47871684Y-80966685D01*
X47877826Y-80960170D01*
X47886169Y-80959695D01*
X49385312Y-81437403D01*
G37*
G04 #@! TD.AperFunction*
G04 #@! TA.AperFunction,Conductor*
G36*
X49782334Y-80960449D02*
G01*
X49787900Y-80966687D01*
X50099212Y-81785844D01*
X50099212Y-81794156D01*
X49787900Y-82613312D01*
X49781757Y-82619829D01*
X49773411Y-82620304D01*
X49771920Y-82619829D01*
X49516071Y-82538301D01*
X48274273Y-82142596D01*
X48267431Y-82136819D01*
X48266125Y-82131448D01*
X48266125Y-81448551D01*
X48269552Y-81440278D01*
X48274270Y-81437404D01*
X49773413Y-80959695D01*
X49782334Y-80960449D01*
G37*
G04 #@! TD.AperFunction*
G04 #@! TA.AperFunction,Conductor*
G36*
X68338046Y-72094150D02*
G01*
X68343679Y-72100728D01*
X68658903Y-73023818D01*
X68736704Y-73251646D01*
X68816995Y-73486765D01*
X68816426Y-73495702D01*
X68814196Y-73498819D01*
X68260923Y-74052092D01*
X68252650Y-74055519D01*
X68245524Y-74053099D01*
X67201843Y-73251646D01*
X67197369Y-73243889D01*
X67198031Y-73238213D01*
X67537272Y-72344615D01*
X67543411Y-72338099D01*
X67544716Y-72337604D01*
X68329129Y-72093338D01*
X68338046Y-72094150D01*
G37*
G04 #@! TD.AperFunction*
G04 #@! TA.AperFunction,Conductor*
G36*
X107634539Y-67127751D02*
G01*
X107888491Y-67230320D01*
X107894878Y-67236596D01*
X107894958Y-67245551D01*
X107889970Y-67251295D01*
X106558467Y-68022000D01*
X106549590Y-68023179D01*
X106548946Y-68022987D01*
X105538890Y-67690308D01*
X105534277Y-67687468D01*
X104982833Y-67136024D01*
X104979406Y-67127751D01*
X104982833Y-67119478D01*
X104986535Y-67116981D01*
X106261085Y-66576713D01*
X106270033Y-66576637D01*
X107634539Y-67127751D01*
G37*
G04 #@! TD.AperFunction*
G04 #@! TA.AperFunction,Conductor*
G36*
X106557579Y-63917483D02*
G01*
X107891853Y-64688930D01*
X107897300Y-64696038D01*
X107896126Y-64704915D01*
X107891075Y-64709599D01*
X106412378Y-65422013D01*
X106403438Y-65422517D01*
X106403300Y-65422468D01*
X105133072Y-64960301D01*
X105126469Y-64954252D01*
X105125372Y-64949306D01*
X105125372Y-64167383D01*
X105128799Y-64159110D01*
X105135116Y-64155848D01*
X106549768Y-63916077D01*
X106557579Y-63917483D01*
G37*
G04 #@! TD.AperFunction*
G04 #@! TA.AperFunction,Conductor*
G36*
X70878350Y-72076170D02*
G01*
X70884031Y-72082409D01*
X71410484Y-73440652D01*
X71410279Y-73449604D01*
X71407848Y-73453153D01*
X70854492Y-74006509D01*
X70846219Y-74009936D01*
X70839513Y-74007823D01*
X69781337Y-73267600D01*
X69776522Y-73260050D01*
X69776933Y-73254345D01*
X70077453Y-72344860D01*
X70083301Y-72338082D01*
X70084843Y-72337440D01*
X70869418Y-72075539D01*
X70878350Y-72076170D01*
G37*
G04 #@! TD.AperFunction*
G04 #@! TA.AperFunction,Conductor*
G36*
X70054238Y-81984351D02*
G01*
X71438926Y-82565919D01*
X71445225Y-82572281D01*
X71446089Y-82576355D01*
X71490008Y-84043789D01*
X71486830Y-84052161D01*
X71478663Y-84055834D01*
X71477502Y-84055811D01*
X70010056Y-83953832D01*
X70002040Y-83949840D01*
X69999896Y-83946226D01*
X69942812Y-83792205D01*
X69483915Y-82554025D01*
X69484253Y-82545080D01*
X69486610Y-82541692D01*
X70041437Y-81986865D01*
X70049709Y-81983439D01*
X70054238Y-81984351D01*
G37*
G04 #@! TD.AperFunction*
G04 #@! TA.AperFunction,Conductor*
G36*
X63257392Y-72126408D02*
G01*
X63262865Y-72133496D01*
X63262916Y-72133692D01*
X63617515Y-73537015D01*
X63616220Y-73545875D01*
X63614445Y-73548154D01*
X63061247Y-74101352D01*
X63052974Y-74104779D01*
X63045213Y-74101835D01*
X62056023Y-73225024D01*
X62052105Y-73216971D01*
X62053178Y-73211329D01*
X62456997Y-72344221D01*
X62463596Y-72338169D01*
X62464523Y-72337874D01*
X63248512Y-72125266D01*
X63257392Y-72126408D01*
G37*
G04 #@! TD.AperFunction*
G04 #@! TA.AperFunction,Conductor*
G36*
X72938157Y-83717092D02*
G01*
X72942011Y-83720977D01*
X73613235Y-84827203D01*
X73614932Y-84833272D01*
X73614932Y-85617072D01*
X73611505Y-85625345D01*
X73603232Y-85628772D01*
X73602069Y-85628714D01*
X71980957Y-85466737D01*
X71973065Y-85462505D01*
X71971056Y-85458899D01*
X71492889Y-84068218D01*
X71493439Y-84059282D01*
X71500149Y-84053352D01*
X71501258Y-84053030D01*
X72929320Y-83715659D01*
X72938157Y-83717092D01*
G37*
G04 #@! TD.AperFunction*
G04 #@! TA.AperFunction,Conductor*
G36*
X50106916Y-86879193D02*
G01*
X50107773Y-86880335D01*
X50656031Y-87712594D01*
X50657720Y-87721388D01*
X50655097Y-87726698D01*
X49840743Y-88665109D01*
X49832732Y-88669112D01*
X49824238Y-88666278D01*
X49823633Y-88665714D01*
X49128343Y-87970424D01*
X49124978Y-87963355D01*
X49100426Y-87726127D01*
X49102983Y-87717545D01*
X49104482Y-87716012D01*
X50090425Y-86877856D01*
X50098947Y-86875109D01*
X50106916Y-86879193D01*
G37*
G04 #@! TD.AperFunction*
G04 #@! TA.AperFunction,Conductor*
G36*
X82777189Y-69333238D02*
G01*
X82779983Y-69335303D01*
X83473954Y-70029274D01*
X83476768Y-70033809D01*
X83578623Y-70335916D01*
X83578398Y-70344001D01*
X82792227Y-72308387D01*
X82785972Y-72314795D01*
X82777018Y-72314902D01*
X82770610Y-72308647D01*
X82770085Y-72307144D01*
X82231636Y-70344472D01*
X82232580Y-70335901D01*
X82761373Y-69338095D01*
X82768274Y-69332392D01*
X82777189Y-69333238D01*
G37*
G04 #@! TD.AperFunction*
G04 #@! TA.AperFunction,Conductor*
G36*
X51593055Y-87022047D02*
G01*
X51600937Y-87026297D01*
X51602550Y-87028920D01*
X52065249Y-88066204D01*
X52065490Y-88075155D01*
X52062837Y-88079243D01*
X51579393Y-88562687D01*
X51571120Y-88566114D01*
X51566095Y-88564980D01*
X49799034Y-87724569D01*
X49793034Y-87717921D01*
X49793064Y-87710002D01*
X50095968Y-86877855D01*
X50102017Y-86871255D01*
X50108151Y-86870220D01*
X51593055Y-87022047D01*
G37*
G04 #@! TD.AperFunction*
G04 #@! TA.AperFunction,Conductor*
G36*
X63156062Y-50306048D02*
G01*
X64143566Y-50803757D01*
X64149411Y-50810541D01*
X64150000Y-50814205D01*
X64150000Y-51799743D01*
X64146573Y-51808016D01*
X64143499Y-51810224D01*
X63156077Y-52299994D01*
X63147143Y-52300601D01*
X63144366Y-52299233D01*
X61663588Y-51306777D01*
X61658624Y-51299324D01*
X61660383Y-51290544D01*
X61663640Y-51287304D01*
X63144339Y-50306741D01*
X63153128Y-50305031D01*
X63156062Y-50306048D01*
G37*
G04 #@! TD.AperFunction*
G04 #@! TA.AperFunction,Conductor*
G36*
X70315648Y-50310763D02*
G01*
X71796384Y-51297263D01*
X71801369Y-51304702D01*
X71799634Y-51313487D01*
X71796384Y-51316737D01*
X70315648Y-52303236D01*
X70306863Y-52304971D01*
X70303929Y-52303964D01*
X69316468Y-51810234D01*
X69310600Y-51803469D01*
X69310000Y-51799769D01*
X69310000Y-50814231D01*
X69313427Y-50805958D01*
X69316468Y-50803766D01*
X70303930Y-50310034D01*
X70312861Y-50309400D01*
X70315648Y-50310763D01*
G37*
G04 #@! TD.AperFunction*
G04 #@! TA.AperFunction,Conductor*
G36*
X51874108Y-85975464D02*
G01*
X51874322Y-85975673D01*
X52568013Y-86669364D01*
X52571440Y-86677637D01*
X52568013Y-86685910D01*
X52566446Y-86687225D01*
X51604586Y-87359994D01*
X51595842Y-87361927D01*
X51594231Y-87361522D01*
X50106143Y-86873024D01*
X50099351Y-86867188D01*
X50098179Y-86863334D01*
X50076546Y-86687225D01*
X49996156Y-86032791D01*
X49998549Y-86024164D01*
X50006343Y-86019754D01*
X50007467Y-86019671D01*
X51865751Y-85972250D01*
X51874108Y-85975464D01*
G37*
G04 #@! TD.AperFunction*
G04 #@! TA.AperFunction,Conductor*
G36*
X97290165Y-69255927D02*
G01*
X97292847Y-69260092D01*
X97588408Y-70048256D01*
X97588317Y-70056707D01*
X96800864Y-72026326D01*
X96794611Y-72032736D01*
X96785657Y-72032847D01*
X96779247Y-72026594D01*
X96779136Y-72026326D01*
X95991682Y-70056707D01*
X95991591Y-70048257D01*
X96287153Y-69260092D01*
X96293267Y-69253549D01*
X96298108Y-69252500D01*
X97281892Y-69252500D01*
X97290165Y-69255927D01*
G37*
G04 #@! TD.AperFunction*
G04 #@! TA.AperFunction,Conductor*
G36*
X77710753Y-57125905D02*
G01*
X77710864Y-57126173D01*
X78498317Y-59095792D01*
X78498408Y-59104243D01*
X78202847Y-59892408D01*
X78196734Y-59898951D01*
X78191892Y-59900000D01*
X77208108Y-59900000D01*
X77199835Y-59896573D01*
X77197153Y-59892408D01*
X76901591Y-59104243D01*
X76901682Y-59095792D01*
X77689136Y-57126173D01*
X77695389Y-57119763D01*
X77704343Y-57119652D01*
X77710753Y-57125905D01*
G37*
G04 #@! TD.AperFunction*
G04 #@! TA.AperFunction,Conductor*
G36*
X96797304Y-72061100D02*
G01*
X96799140Y-72062936D01*
X97585851Y-73047309D01*
X97588339Y-73055911D01*
X97587666Y-73058721D01*
X97292847Y-73844908D01*
X97286734Y-73851451D01*
X97281892Y-73852500D01*
X96298108Y-73852500D01*
X96289835Y-73849073D01*
X96287153Y-73844908D01*
X95992333Y-73058721D01*
X95992637Y-73049772D01*
X95994145Y-73047312D01*
X96780860Y-72062935D01*
X96788702Y-72058612D01*
X96797304Y-72061100D01*
G37*
G04 #@! TD.AperFunction*
G04 #@! TA.AperFunction,Conductor*
G36*
X72314826Y-48754622D02*
G01*
X72315113Y-48754900D01*
X73013292Y-49453079D01*
X73013986Y-49453836D01*
X73303116Y-49798788D01*
X73305804Y-49807330D01*
X73302422Y-49814577D01*
X71822741Y-51294258D01*
X71814468Y-51297685D01*
X71806195Y-51294258D01*
X71803353Y-51289639D01*
X71318091Y-49813576D01*
X71318763Y-49804648D01*
X71320649Y-49801945D01*
X72298291Y-48755186D01*
X72306441Y-48751480D01*
X72314826Y-48754622D01*
G37*
G04 #@! TD.AperFunction*
G04 #@! TA.AperFunction,Conductor*
G36*
X69997578Y-88788195D02*
G01*
X71281640Y-89087304D01*
X71476452Y-89132684D01*
X71483732Y-89137898D01*
X71485193Y-89146733D01*
X71484336Y-89149163D01*
X70770071Y-90629542D01*
X70763389Y-90635504D01*
X70759787Y-90636155D01*
X69212848Y-90669740D01*
X69204502Y-90666494D01*
X69200897Y-90658297D01*
X69200894Y-90658043D01*
X69200894Y-89973540D01*
X69202857Y-89967053D01*
X69985193Y-88793101D01*
X69992631Y-88788119D01*
X69997578Y-88788195D01*
G37*
G04 #@! TD.AperFunction*
G04 #@! TA.AperFunction,Conductor*
G36*
X73312173Y-51037403D02*
G01*
X73314366Y-51039376D01*
X74363558Y-52255323D01*
X74366368Y-52263825D01*
X74362973Y-52271239D01*
X73667610Y-52966602D01*
X73659337Y-52970029D01*
X73657859Y-52969935D01*
X72385117Y-52807887D01*
X72377343Y-52803443D01*
X72375655Y-52800428D01*
X72169029Y-52255323D01*
X71814277Y-51319441D01*
X71814549Y-51310492D01*
X71821070Y-51304356D01*
X71823119Y-51303787D01*
X73303424Y-51035507D01*
X73312173Y-51037403D01*
G37*
G04 #@! TD.AperFunction*
G04 #@! TA.AperFunction,Conductor*
G36*
X77295622Y-55189553D02*
G01*
X77296105Y-55190066D01*
X77913901Y-55887868D01*
X78096925Y-56094594D01*
X78099843Y-56103060D01*
X78099025Y-56106702D01*
X77702984Y-57095024D01*
X77696726Y-57101429D01*
X77694741Y-57102076D01*
X76911413Y-57281860D01*
X76902583Y-57280370D01*
X76897392Y-57273074D01*
X76582203Y-55894172D01*
X76583700Y-55885344D01*
X76585332Y-55883297D01*
X77279077Y-55189552D01*
X77287349Y-55186126D01*
X77295622Y-55189553D01*
G37*
G04 #@! TD.AperFunction*
G04 #@! TA.AperFunction,Conductor*
G36*
X99334837Y-72053701D02*
G01*
X99736110Y-72236314D01*
X100105952Y-72404624D01*
X100112063Y-72411170D01*
X100112515Y-72417866D01*
X99792069Y-73828021D01*
X99786894Y-73835329D01*
X99780660Y-73837128D01*
X98998612Y-73837128D01*
X98990339Y-73833701D01*
X98987441Y-73828905D01*
X98548438Y-72418424D01*
X98549251Y-72409506D01*
X98554762Y-72404298D01*
X99325154Y-72053704D01*
X99334103Y-72053397D01*
X99334837Y-72053701D01*
G37*
G04 #@! TD.AperFunction*
G04 #@! TA.AperFunction,Conductor*
G36*
X85324837Y-72341201D02*
G01*
X85855634Y-72582758D01*
X86095236Y-72691798D01*
X86101347Y-72698344D01*
X86101561Y-72705924D01*
X85662559Y-74116405D01*
X85656829Y-74123286D01*
X85651388Y-74124628D01*
X84869340Y-74124628D01*
X84861067Y-74121201D01*
X84857931Y-74115521D01*
X84537484Y-72705366D01*
X84538992Y-72696539D01*
X84544047Y-72692124D01*
X85315154Y-72341204D01*
X85324103Y-72340897D01*
X85324837Y-72341201D01*
G37*
G04 #@! TD.AperFunction*
G04 #@! TA.AperFunction,Conductor*
G36*
X78087143Y-49018942D02*
G01*
X78782629Y-49714428D01*
X78786056Y-49722701D01*
X78785512Y-49726228D01*
X78365795Y-51053887D01*
X78360034Y-51060742D01*
X78356572Y-51061899D01*
X76902083Y-51305564D01*
X76893357Y-51303551D01*
X76888611Y-51295958D01*
X76888474Y-51294779D01*
X76795562Y-49826775D01*
X76798460Y-49818304D01*
X76801011Y-49816133D01*
X78072648Y-49017307D01*
X78081475Y-49015809D01*
X78087143Y-49018942D01*
G37*
G04 #@! TD.AperFunction*
G04 #@! TA.AperFunction,Conductor*
G36*
X94748675Y-69271299D02*
G01*
X94751876Y-69277286D01*
X95033766Y-70692102D01*
X95032421Y-70700244D01*
X94260129Y-72035981D01*
X94253021Y-72041428D01*
X94244144Y-72040254D01*
X94239871Y-72035981D01*
X93467578Y-70700244D01*
X93466233Y-70692104D01*
X93748124Y-69277285D01*
X93753101Y-69269842D01*
X93759598Y-69267872D01*
X94740402Y-69267872D01*
X94748675Y-69271299D01*
G37*
G04 #@! TD.AperFunction*
G04 #@! TA.AperFunction,Conductor*
G36*
X85760685Y-111910087D02*
G01*
X85761184Y-111910558D01*
X86313980Y-112463354D01*
X86317407Y-112471627D01*
X86313980Y-112479900D01*
X86313083Y-112480709D01*
X85233923Y-113357063D01*
X85225340Y-113359619D01*
X85219374Y-113357225D01*
X84492816Y-112793441D01*
X84488483Y-112786320D01*
X84430579Y-112472530D01*
X84343940Y-112003024D01*
X84345809Y-111994269D01*
X84353323Y-111989397D01*
X84354753Y-111989223D01*
X85752227Y-111907151D01*
X85760685Y-111910087D01*
G37*
G04 #@! TD.AperFunction*
G04 #@! TA.AperFunction,Conductor*
G36*
X79882775Y-94342585D02*
G01*
X80652721Y-95672777D01*
X80654232Y-95679855D01*
X80552526Y-96652285D01*
X80549162Y-96659341D01*
X79997172Y-97211331D01*
X79988899Y-97214758D01*
X79980626Y-97211331D01*
X79978776Y-97208924D01*
X79332884Y-96094367D01*
X79331701Y-96085491D01*
X79331814Y-96085094D01*
X79861456Y-94345039D01*
X79867143Y-94338122D01*
X79876056Y-94337253D01*
X79882775Y-94342585D01*
G37*
G04 #@! TD.AperFunction*
G04 #@! TA.AperFunction,Conductor*
G36*
X85804455Y-109525183D02*
G01*
X85811939Y-109528583D01*
X86364379Y-110081023D01*
X86367806Y-110089296D01*
X86364379Y-110097569D01*
X86362549Y-110099062D01*
X85159810Y-110892498D01*
X85151017Y-110894194D01*
X85145193Y-110891103D01*
X84494102Y-110255402D01*
X84490577Y-110247171D01*
X84490926Y-110244190D01*
X84687622Y-109459485D01*
X84692958Y-109452295D01*
X84699757Y-109450658D01*
X85804455Y-109525183D01*
G37*
G04 #@! TD.AperFunction*
G04 #@! TA.AperFunction,Conductor*
G36*
X77341538Y-94340449D02*
G01*
X78112302Y-95672054D01*
X78113566Y-95680590D01*
X77871434Y-96711746D01*
X77868317Y-96717344D01*
X77316687Y-97268974D01*
X77308414Y-97272401D01*
X77300141Y-97268974D01*
X77297857Y-97265745D01*
X76688630Y-95990638D01*
X76688156Y-95981696D01*
X76688258Y-95981418D01*
X77320497Y-94342098D01*
X77326670Y-94335614D01*
X77335622Y-94335394D01*
X77341538Y-94340449D01*
G37*
G04 #@! TD.AperFunction*
G04 #@! TA.AperFunction,Conductor*
G36*
X85692924Y-114166706D02*
G01*
X85695252Y-114168510D01*
X86248456Y-114721714D01*
X86251883Y-114729987D01*
X86248971Y-114737711D01*
X85376537Y-115730236D01*
X85368501Y-115734188D01*
X85362854Y-115733139D01*
X84494244Y-115332987D01*
X84488163Y-115326413D01*
X84487854Y-115325447D01*
X84273387Y-114541449D01*
X84274509Y-114532567D01*
X84281585Y-114527079D01*
X84281642Y-114527063D01*
X85684058Y-114165454D01*
X85692924Y-114166706D01*
G37*
G04 #@! TD.AperFunction*
G04 #@! TA.AperFunction,Conductor*
G36*
X82421295Y-94340029D02*
G01*
X83192148Y-95671788D01*
X83193327Y-95680665D01*
X83193280Y-95680834D01*
X82894934Y-96735487D01*
X82891949Y-96740575D01*
X82340561Y-97291963D01*
X82332288Y-97295390D01*
X82324015Y-97291963D01*
X82321562Y-97288363D01*
X82081988Y-96738420D01*
X81746784Y-95968957D01*
X81746622Y-95960004D01*
X82400320Y-94341507D01*
X82406596Y-94335121D01*
X82415551Y-94335041D01*
X82421295Y-94340029D01*
G37*
G04 #@! TD.AperFunction*
G04 #@! TA.AperFunction,Conductor*
G36*
X74800753Y-94345905D02*
G01*
X74800864Y-94346173D01*
X75588050Y-96315122D01*
X75587939Y-96324076D01*
X75587651Y-96324697D01*
X75193234Y-97113532D01*
X75186469Y-97119400D01*
X75182769Y-97120000D01*
X74397231Y-97120000D01*
X74388958Y-97116573D01*
X74386766Y-97113532D01*
X73992348Y-96324697D01*
X73991713Y-96315765D01*
X73991935Y-96315159D01*
X74779136Y-94346172D01*
X74785389Y-94339763D01*
X74794343Y-94339652D01*
X74800753Y-94345905D01*
G37*
G04 #@! TD.AperFunction*
G04 #@! TA.AperFunction,Conductor*
G36*
X83414988Y-106066170D02*
G01*
X84812729Y-106904815D01*
X84818060Y-106912010D01*
X84817523Y-106919314D01*
X84495178Y-107699879D01*
X84488853Y-107706218D01*
X84479898Y-107706227D01*
X84479885Y-107706222D01*
X82574803Y-106916702D01*
X82568472Y-106910368D01*
X82568473Y-106901414D01*
X82571006Y-106897623D01*
X82841472Y-106627158D01*
X83400699Y-106067930D01*
X83408971Y-106064504D01*
X83414988Y-106066170D01*
G37*
G04 #@! TD.AperFunction*
G04 #@! TA.AperFunction,Conductor*
G36*
X59995301Y-69426479D02*
G01*
X59998004Y-69428495D01*
X60549880Y-69980371D01*
X60553174Y-69986887D01*
X60704010Y-70979865D01*
X60702569Y-70987483D01*
X59932308Y-72318220D01*
X59925198Y-72323664D01*
X59916321Y-72322485D01*
X59911083Y-72316057D01*
X59343839Y-70612939D01*
X59344475Y-70604008D01*
X59344650Y-70603673D01*
X59979444Y-69431196D01*
X59986395Y-69425554D01*
X59995301Y-69426479D01*
G37*
G04 #@! TD.AperFunction*
G04 #@! TA.AperFunction,Conductor*
G36*
X83388629Y-50852110D02*
G01*
X83391995Y-50854700D01*
X83794499Y-51302310D01*
X84418845Y-51996622D01*
X84421829Y-52005065D01*
X84418418Y-52012718D01*
X83863616Y-52567520D01*
X83856298Y-52570908D01*
X82581411Y-52675345D01*
X82572886Y-52672605D01*
X82569750Y-52668403D01*
X81974526Y-51318164D01*
X81974325Y-51309212D01*
X81980513Y-51302739D01*
X81981634Y-51302312D01*
X83379705Y-50851388D01*
X83388629Y-50852110D01*
G37*
G04 #@! TD.AperFunction*
G04 #@! TA.AperFunction,Conductor*
G36*
X69739546Y-77369102D02*
G01*
X71103537Y-77536765D01*
X71111330Y-77541175D01*
X71113422Y-77545396D01*
X71328510Y-78362055D01*
X71487095Y-78964178D01*
X71485888Y-78973051D01*
X71478761Y-78978472D01*
X71477596Y-78978716D01*
X70019852Y-79207606D01*
X70011147Y-79205504D01*
X70008282Y-79202509D01*
X69850433Y-78964178D01*
X69173477Y-77942063D01*
X69171767Y-77933275D01*
X69174958Y-77927333D01*
X69729849Y-77372442D01*
X69738121Y-77369016D01*
X69739546Y-77369102D01*
G37*
G04 #@! TD.AperFunction*
G04 #@! TA.AperFunction,Conductor*
G36*
X107901466Y-69778779D02*
G01*
X107909536Y-69782660D01*
X107912334Y-69788403D01*
X108051653Y-70568109D01*
X108049734Y-70576856D01*
X108042193Y-70581685D01*
X108041825Y-70581744D01*
X106024426Y-70876220D01*
X106015745Y-70874024D01*
X106014463Y-70872916D01*
X105460037Y-70318490D01*
X105456610Y-70310217D01*
X105458882Y-70303289D01*
X105921621Y-69673971D01*
X105929281Y-69669338D01*
X105931688Y-69669222D01*
X107901466Y-69778779D01*
G37*
G04 #@! TD.AperFunction*
G04 #@! TA.AperFunction,Conductor*
G36*
X72969346Y-78989624D02*
G01*
X72977586Y-78993130D01*
X72979916Y-78996552D01*
X73596096Y-80376342D01*
X73596341Y-80385294D01*
X73593686Y-80389386D01*
X73038867Y-80944205D01*
X73030594Y-80947632D01*
X73026778Y-80946992D01*
X71631617Y-80465633D01*
X71624914Y-80459695D01*
X71623781Y-80455634D01*
X71490605Y-78993130D01*
X71490154Y-78988177D01*
X71492817Y-78979628D01*
X71500745Y-78975465D01*
X71501913Y-78975418D01*
X72969346Y-78989624D01*
G37*
G04 #@! TD.AperFunction*
G04 #@! TA.AperFunction,Conductor*
G36*
X65796302Y-72175057D02*
G01*
X65801359Y-72182447D01*
X65801526Y-72183459D01*
X65972268Y-73601821D01*
X65969855Y-73610444D01*
X65968925Y-73611492D01*
X65416033Y-74164384D01*
X65407760Y-74167811D01*
X65399487Y-74164384D01*
X65399018Y-74163887D01*
X64899094Y-73601821D01*
X64477994Y-73128376D01*
X64475057Y-73119919D01*
X64477034Y-73114064D01*
X64996642Y-72343224D01*
X65003933Y-72338316D01*
X65787501Y-72173408D01*
X65796302Y-72175057D01*
G37*
G04 #@! TD.AperFunction*
G04 #@! TA.AperFunction,NonConductor*
G36*
X71753039Y-93430186D02*
G01*
X71798794Y-93482990D01*
X71810000Y-93534501D01*
X71810000Y-98387716D01*
X80604727Y-107395973D01*
X80637474Y-107457692D01*
X80640000Y-107482595D01*
X80640000Y-117880367D01*
X86050491Y-117938063D01*
X91507498Y-112643623D01*
X91497290Y-112005623D01*
X91444318Y-108694849D01*
X92881118Y-108694849D01*
X92881118Y-109205150D01*
X92900529Y-109451785D01*
X92921155Y-109713863D01*
X93000982Y-110217871D01*
X93053411Y-110436253D01*
X93108883Y-110667313D01*
X93120107Y-110714062D01*
X93277796Y-111199376D01*
X93277800Y-111199388D01*
X93300416Y-111253987D01*
X93473076Y-111670824D01*
X93704743Y-112125497D01*
X93704750Y-112125510D01*
X93704753Y-112125515D01*
X93821536Y-112316086D01*
X93971369Y-112560591D01*
X94271310Y-112973425D01*
X94602717Y-113361453D01*
X94963547Y-113722283D01*
X95351575Y-114053690D01*
X95764409Y-114353631D01*
X95957913Y-114472210D01*
X96199484Y-114620246D01*
X96199489Y-114620249D01*
X96199494Y-114620251D01*
X96199503Y-114620257D01*
X96654176Y-114851924D01*
X97125623Y-115047204D01*
X97610938Y-115204893D01*
X98107129Y-115324018D01*
X98611137Y-115403845D01*
X99119855Y-115443882D01*
X99119863Y-115443882D01*
X99630137Y-115443882D01*
X99630145Y-115443882D01*
X100138863Y-115403845D01*
X100642871Y-115324018D01*
X101139062Y-115204893D01*
X101624377Y-115047204D01*
X102095824Y-114851924D01*
X102550497Y-114620257D01*
X102985591Y-114353631D01*
X103398425Y-114053690D01*
X103786453Y-113722283D01*
X104147283Y-113361453D01*
X104478690Y-112973425D01*
X104778631Y-112560591D01*
X105045257Y-112125497D01*
X105276924Y-111670824D01*
X105472204Y-111199377D01*
X105629893Y-110714062D01*
X105749018Y-110217871D01*
X105828845Y-109713863D01*
X105868882Y-109205145D01*
X105868882Y-108694855D01*
X105828845Y-108186137D01*
X105749018Y-107682129D01*
X105629893Y-107185938D01*
X105472204Y-106700623D01*
X105276924Y-106229176D01*
X105045257Y-105774503D01*
X105045251Y-105774494D01*
X105045249Y-105774489D01*
X105045246Y-105774484D01*
X104897210Y-105532913D01*
X104778631Y-105339409D01*
X104478690Y-104926575D01*
X104147283Y-104538547D01*
X103786453Y-104177717D01*
X103536090Y-103963887D01*
X103398431Y-103846315D01*
X103398417Y-103846304D01*
X103145031Y-103662209D01*
X102985591Y-103546369D01*
X102902078Y-103495192D01*
X102550515Y-103279753D01*
X102550510Y-103279750D01*
X102550500Y-103279745D01*
X102550497Y-103279743D01*
X102095824Y-103048076D01*
X101952654Y-102988773D01*
X101624388Y-102852800D01*
X101624381Y-102852797D01*
X101624377Y-102852796D01*
X101139062Y-102695107D01*
X100642871Y-102575982D01*
X100138863Y-102496155D01*
X99630150Y-102456118D01*
X99630145Y-102456118D01*
X99119855Y-102456118D01*
X99119849Y-102456118D01*
X98611136Y-102496155D01*
X98611135Y-102496155D01*
X98107134Y-102575981D01*
X98107131Y-102575981D01*
X98107129Y-102575982D01*
X97929425Y-102618644D01*
X97610949Y-102695104D01*
X97610944Y-102695105D01*
X97610938Y-102695107D01*
X97125623Y-102852796D01*
X97125611Y-102852800D01*
X96654178Y-103048075D01*
X96199489Y-103279750D01*
X96199484Y-103279753D01*
X95764418Y-103546363D01*
X95764407Y-103546370D01*
X95351582Y-103846304D01*
X95351568Y-103846315D01*
X94963553Y-104177711D01*
X94963539Y-104177724D01*
X94602724Y-104538539D01*
X94602711Y-104538553D01*
X94271315Y-104926568D01*
X94271304Y-104926582D01*
X93971370Y-105339407D01*
X93971363Y-105339418D01*
X93704753Y-105774484D01*
X93704750Y-105774489D01*
X93473075Y-106229178D01*
X93277800Y-106700611D01*
X93277796Y-106700623D01*
X93120107Y-107185938D01*
X93120105Y-107185944D01*
X93120104Y-107185949D01*
X93000981Y-107682134D01*
X92921155Y-108186135D01*
X92921155Y-108186136D01*
X92881118Y-108694849D01*
X91444318Y-108694849D01*
X91444311Y-108694404D01*
X91264336Y-97445984D01*
X91282945Y-97378638D01*
X91335011Y-97332044D01*
X91388320Y-97320000D01*
X103603946Y-97320000D01*
X103670985Y-97339685D01*
X103688553Y-97353349D01*
X106570607Y-100043234D01*
X106606186Y-100103365D01*
X106610000Y-100133884D01*
X106610000Y-121620700D01*
X106590315Y-121687739D01*
X106576150Y-121705841D01*
X99903839Y-128770641D01*
X99843497Y-128805864D01*
X99813689Y-128809500D01*
X88436284Y-128809500D01*
X88435624Y-128809498D01*
X62259846Y-128670265D01*
X62192913Y-128650224D01*
X62174208Y-128635309D01*
X55747699Y-122406539D01*
X55713260Y-122345747D01*
X55710000Y-122317499D01*
X55710000Y-116161057D01*
X69691074Y-116161057D01*
X70903364Y-116161057D01*
X70903364Y-106805269D01*
X69691074Y-106805269D01*
X69691074Y-116161057D01*
X55710000Y-116161057D01*
X55710000Y-99921361D01*
X55729685Y-99854322D01*
X55746314Y-99833685D01*
X62133181Y-93446818D01*
X62194502Y-93413335D01*
X62220852Y-93410501D01*
X71686000Y-93410501D01*
X71753039Y-93430186D01*
G37*
G04 #@! TD.AperFunction*
G04 #@! TA.AperFunction,NonConductor*
G36*
X99595503Y-103461734D02*
G01*
X100015776Y-103494810D01*
X100025431Y-103495954D01*
X100441791Y-103561899D01*
X100451338Y-103563797D01*
X100861270Y-103662213D01*
X100870608Y-103664847D01*
X101268655Y-103794181D01*
X101271545Y-103795120D01*
X101280680Y-103798490D01*
X101670153Y-103959814D01*
X101678980Y-103963884D01*
X102054616Y-104155279D01*
X102063085Y-104160023D01*
X102207850Y-104248735D01*
X102422528Y-104380291D01*
X102430623Y-104385700D01*
X102771664Y-104633480D01*
X102779311Y-104639508D01*
X103099871Y-104913292D01*
X103107020Y-104919901D01*
X103405098Y-105217979D01*
X103411707Y-105225128D01*
X103685491Y-105545688D01*
X103691519Y-105553335D01*
X103939299Y-105894376D01*
X103944708Y-105902471D01*
X104164969Y-106261901D01*
X104169727Y-106270396D01*
X104361112Y-106646012D01*
X104365188Y-106654854D01*
X104526509Y-107044319D01*
X104529879Y-107053454D01*
X104660147Y-107454375D01*
X104662790Y-107463746D01*
X104761201Y-107873659D01*
X104763100Y-107883208D01*
X104829044Y-108299561D01*
X104830189Y-108309230D01*
X104863265Y-108729496D01*
X104863647Y-108739225D01*
X104863647Y-109160774D01*
X104863265Y-109170503D01*
X104830189Y-109590769D01*
X104829044Y-109600438D01*
X104763100Y-110016791D01*
X104761201Y-110026340D01*
X104662790Y-110436253D01*
X104660147Y-110445624D01*
X104529879Y-110846545D01*
X104526509Y-110855680D01*
X104365188Y-111245145D01*
X104361112Y-111253987D01*
X104169727Y-111629603D01*
X104164969Y-111638098D01*
X103944708Y-111997528D01*
X103939299Y-112005623D01*
X103691519Y-112346664D01*
X103685491Y-112354311D01*
X103411707Y-112674871D01*
X103405098Y-112682020D01*
X103107020Y-112980098D01*
X103099871Y-112986707D01*
X102779311Y-113260491D01*
X102771664Y-113266519D01*
X102430623Y-113514299D01*
X102422528Y-113519708D01*
X102063098Y-113739969D01*
X102054603Y-113744727D01*
X101678987Y-113936112D01*
X101670145Y-113940188D01*
X101280680Y-114101509D01*
X101271545Y-114104879D01*
X100870624Y-114235147D01*
X100861253Y-114237790D01*
X100451340Y-114336201D01*
X100441791Y-114338100D01*
X100025438Y-114404044D01*
X100015769Y-114405189D01*
X99595504Y-114438265D01*
X99585775Y-114438647D01*
X99164225Y-114438647D01*
X99154496Y-114438265D01*
X98734230Y-114405189D01*
X98724561Y-114404044D01*
X98308208Y-114338100D01*
X98298659Y-114336201D01*
X97888746Y-114237790D01*
X97879375Y-114235147D01*
X97478454Y-114104879D01*
X97469319Y-114101509D01*
X97079854Y-113940188D01*
X97071012Y-113936112D01*
X96785231Y-113790500D01*
X96695391Y-113744724D01*
X96686901Y-113739969D01*
X96658048Y-113722288D01*
X96583545Y-113676632D01*
X96327471Y-113519708D01*
X96319376Y-113514299D01*
X95978335Y-113266519D01*
X95970688Y-113260491D01*
X95650128Y-112986707D01*
X95642979Y-112980098D01*
X95344901Y-112682020D01*
X95338292Y-112674871D01*
X95064508Y-112354311D01*
X95058480Y-112346664D01*
X94810700Y-112005623D01*
X94805291Y-111997528D01*
X94674486Y-111784076D01*
X94585023Y-111638085D01*
X94580279Y-111629616D01*
X94388884Y-111253980D01*
X94384811Y-111245145D01*
X94365853Y-111199377D01*
X94236787Y-110887782D01*
X94223490Y-110855680D01*
X94220120Y-110846545D01*
X94177077Y-110714072D01*
X94089847Y-110445608D01*
X94087213Y-110436270D01*
X93988797Y-110026338D01*
X93986899Y-110016791D01*
X93936807Y-109700521D01*
X93920954Y-109600431D01*
X93919810Y-109590769D01*
X93919648Y-109588716D01*
X93886735Y-109170503D01*
X93886353Y-109160774D01*
X93886353Y-108894108D01*
X97364708Y-108894108D01*
X97364708Y-109025891D01*
X97398816Y-109153187D01*
X97431762Y-109210250D01*
X97464708Y-109267314D01*
X97557894Y-109360500D01*
X97672022Y-109426392D01*
X97799316Y-109460500D01*
X98735708Y-109460500D01*
X98802747Y-109480185D01*
X98848502Y-109532989D01*
X98859708Y-109584500D01*
X98859708Y-110425892D01*
X98864995Y-110445624D01*
X98893816Y-110553187D01*
X98910027Y-110581265D01*
X98959708Y-110667314D01*
X99052894Y-110760500D01*
X99167022Y-110826392D01*
X99294316Y-110860500D01*
X99294318Y-110860500D01*
X99426098Y-110860500D01*
X99426100Y-110860500D01*
X99553394Y-110826392D01*
X99667522Y-110760500D01*
X99760708Y-110667314D01*
X99826600Y-110553186D01*
X99860708Y-110425892D01*
X99860708Y-109584500D01*
X99880393Y-109517461D01*
X99933197Y-109471706D01*
X99984708Y-109460500D01*
X100921098Y-109460500D01*
X100921100Y-109460500D01*
X101048394Y-109426392D01*
X101162522Y-109360500D01*
X101255708Y-109267314D01*
X101321600Y-109153186D01*
X101355708Y-109025892D01*
X101355708Y-108894108D01*
X101321600Y-108766814D01*
X101255708Y-108652686D01*
X101162522Y-108559500D01*
X101105458Y-108526554D01*
X101048395Y-108493608D01*
X100984747Y-108476554D01*
X100921100Y-108459500D01*
X100921099Y-108459500D01*
X99984708Y-108459500D01*
X99917669Y-108439815D01*
X99871914Y-108387011D01*
X99860708Y-108335500D01*
X99860708Y-107494110D01*
X99860708Y-107494108D01*
X99826600Y-107366814D01*
X99760708Y-107252686D01*
X99667522Y-107159500D01*
X99610458Y-107126554D01*
X99553395Y-107093608D01*
X99489747Y-107076554D01*
X99426100Y-107059500D01*
X99294316Y-107059500D01*
X99167020Y-107093608D01*
X99052894Y-107159500D01*
X99052891Y-107159502D01*
X98959710Y-107252683D01*
X98959708Y-107252686D01*
X98893816Y-107366812D01*
X98859708Y-107494108D01*
X98859708Y-108335500D01*
X98840023Y-108402539D01*
X98787219Y-108448294D01*
X98735708Y-108459500D01*
X97799316Y-108459500D01*
X97672020Y-108493608D01*
X97557894Y-108559500D01*
X97557891Y-108559502D01*
X97464710Y-108652683D01*
X97464708Y-108652686D01*
X97398816Y-108766812D01*
X97364708Y-108894108D01*
X93886353Y-108894108D01*
X93886353Y-108739225D01*
X93886735Y-108729496D01*
X93902455Y-108529748D01*
X93919811Y-108309220D01*
X93920955Y-108299561D01*
X93986899Y-107883208D01*
X93988798Y-107873659D01*
X94087215Y-107463722D01*
X94089845Y-107454398D01*
X94220122Y-107053446D01*
X94223490Y-107044319D01*
X94384818Y-106654836D01*
X94388879Y-106646028D01*
X94580285Y-106270372D01*
X94585016Y-106261924D01*
X94805291Y-105902470D01*
X94810700Y-105894376D01*
X94814745Y-105888808D01*
X95058490Y-105553322D01*
X95064498Y-105545700D01*
X95338303Y-105225115D01*
X95344888Y-105217992D01*
X95642992Y-104919888D01*
X95650115Y-104913303D01*
X95970700Y-104639498D01*
X95978322Y-104633490D01*
X96319376Y-104385699D01*
X96327471Y-104380291D01*
X96391124Y-104341284D01*
X96686924Y-104160016D01*
X96695372Y-104155285D01*
X97071028Y-103963879D01*
X97079836Y-103959818D01*
X97469327Y-103798486D01*
X97478446Y-103795122D01*
X97879398Y-103664845D01*
X97888722Y-103662215D01*
X98298666Y-103563796D01*
X98308202Y-103561900D01*
X98724571Y-103495953D01*
X98734220Y-103494811D01*
X99154496Y-103461734D01*
X99164225Y-103461353D01*
X99585775Y-103461353D01*
X99595503Y-103461734D01*
G37*
G04 #@! TD.AperFunction*
M02*
