M48
; DRILL file {KiCad 9.0.4} date 2025-10-29T14:56:42-0400
; FORMAT={-:-/ absolute / metric / decimal}
; #@! TF.CreationDate,2025-10-29T14:56:42-04:00
; #@! TF.GenerationSoftware,Kicad,Pcbnew,9.0.4
; #@! TF.FileFunction,Plated,1,2,PTH
FMAT,2
METRIC
; #@! TA.AperFunction,Plated,PTH,ComponentDrill
T1C0.500
; #@! TA.AperFunction,Plated,PTH,ComponentDrill
T2C1.000
%
G90
G05
T1
X47.56Y-79.25
X47.56Y-81.79
X47.56Y-84.33
X47.56Y-86.87
X49.76Y-57.1
X49.76Y-72.34
X50.1Y-79.25
X50.1Y-81.79
X50.1Y-84.33
X50.1Y-86.87
X52.3Y-57.1
X52.3Y-72.34
X54.84Y-57.1
X54.84Y-72.34
X57.38Y-57.1
X57.38Y-72.34
X59.92Y-57.1
X59.92Y-72.34
X62.46Y-57.1
X62.46Y-72.34
X65.0Y-57.1
X65.0Y-72.34
X67.54Y-57.1
X67.54Y-72.34
X70.08Y-57.1
X70.08Y-72.34
X72.62Y-57.1
X72.62Y-72.34
X74.79Y-94.32
X75.16Y-57.1
X75.16Y-72.34
X77.33Y-94.32
X77.7Y-57.1
X77.7Y-72.34
X79.87Y-94.32
X80.24Y-57.1
X80.24Y-72.34
X82.41Y-94.32
X82.78Y-57.1
X82.78Y-72.34
X84.49Y-107.71
X84.49Y-110.25
X84.49Y-112.79
X84.49Y-115.33
X84.95Y-94.32
X85.32Y-57.1
X85.32Y-72.34
X87.49Y-94.32
X91.71Y-72.052
X94.25Y-72.052
X96.79Y-72.052
X99.33Y-72.052
X107.91Y-59.62
X107.91Y-62.16
X107.91Y-64.7
X107.91Y-67.24
X107.91Y-69.78
X107.91Y-72.32
T2
X46.39Y-51.3
X51.47Y-51.3
X56.57Y-51.297
X61.65Y-51.297
X66.73Y-51.307
X71.49Y-78.976
X71.49Y-84.056
X71.49Y-89.136
X71.81Y-51.307
X76.89Y-51.307
X81.97Y-51.307
M30
