G04 #@! TF.GenerationSoftware,KiCad,Pcbnew,9.0.7*
G04 #@! TF.CreationDate,2026-03-13T14:34:27-04:00*
G04 #@! TF.ProjectId,ArduinoBoard,41726475-696e-46f4-926f-6172642e6b69,1*
G04 #@! TF.SameCoordinates,Original*
G04 #@! TF.FileFunction,Legend,Top*
G04 #@! TF.FilePolarity,Positive*
%FSLAX46Y46*%
G04 Gerber Fmt 4.6, Leading zero omitted, Abs format (unit mm)*
G04 Created by KiCad (PCBNEW 9.0.7) date 2026-03-13 14:34:27*
%MOMM*%
%LPD*%
G01*
G04 APERTURE LIST*
%ADD10C,0.100000*%
%ADD11C,0.200000*%
%ADD12C,0.150000*%
%ADD13C,0.120000*%
G04 APERTURE END LIST*
D10*
X173065000Y-91085000D02*
X173065000Y-88045000D01*
X139142500Y-88005000D02*
X148415000Y-88005000D01*
X148415000Y-91125000D01*
X139142500Y-91125000D01*
X139142500Y-88005000D01*
X139142500Y-89565000D02*
X148415000Y-89565000D01*
X163693750Y-91125000D02*
X163693750Y-88035000D01*
X158772500Y-88015000D02*
X168615000Y-88015000D01*
X168615000Y-91125000D01*
X158772500Y-91125000D01*
X158772500Y-88015000D01*
X184265000Y-99835000D02*
X195615000Y-99835000D01*
X195615000Y-121635000D01*
X184265000Y-121635000D01*
X184265000Y-99835000D01*
X153618750Y-91125000D02*
X153618750Y-88022500D01*
X148415000Y-88005000D02*
X158772500Y-88015000D01*
X143778750Y-91125000D02*
X143778750Y-89565000D01*
X168615000Y-88015000D02*
X179000000Y-88015000D01*
X179000000Y-91125000D01*
X168615000Y-91125000D01*
X168615000Y-88015000D01*
X148415000Y-91125000D02*
X158772500Y-91125000D01*
D11*
X166648898Y-89905209D02*
X166725088Y-89943304D01*
X166725088Y-89943304D02*
X166839374Y-89943304D01*
X166839374Y-89943304D02*
X166953660Y-89905209D01*
X166953660Y-89905209D02*
X167029850Y-89829019D01*
X167029850Y-89829019D02*
X167067945Y-89752828D01*
X167067945Y-89752828D02*
X167106041Y-89600447D01*
X167106041Y-89600447D02*
X167106041Y-89486161D01*
X167106041Y-89486161D02*
X167067945Y-89333780D01*
X167067945Y-89333780D02*
X167029850Y-89257590D01*
X167029850Y-89257590D02*
X166953660Y-89181400D01*
X166953660Y-89181400D02*
X166839374Y-89143304D01*
X166839374Y-89143304D02*
X166763183Y-89143304D01*
X166763183Y-89143304D02*
X166648898Y-89181400D01*
X166648898Y-89181400D02*
X166610802Y-89219495D01*
X166610802Y-89219495D02*
X166610802Y-89486161D01*
X166610802Y-89486161D02*
X166763183Y-89486161D01*
X166267945Y-89143304D02*
X166267945Y-89943304D01*
X166267945Y-89943304D02*
X165810802Y-89143304D01*
X165810802Y-89143304D02*
X165810802Y-89943304D01*
X165429850Y-89143304D02*
X165429850Y-89943304D01*
X165429850Y-89943304D02*
X165239374Y-89943304D01*
X165239374Y-89943304D02*
X165125088Y-89905209D01*
X165125088Y-89905209D02*
X165048898Y-89829019D01*
X165048898Y-89829019D02*
X165010803Y-89752828D01*
X165010803Y-89752828D02*
X164972707Y-89600447D01*
X164972707Y-89600447D02*
X164972707Y-89486161D01*
X164972707Y-89486161D02*
X165010803Y-89333780D01*
X165010803Y-89333780D02*
X165048898Y-89257590D01*
X165048898Y-89257590D02*
X165125088Y-89181400D01*
X165125088Y-89181400D02*
X165239374Y-89143304D01*
X165239374Y-89143304D02*
X165429850Y-89143304D01*
X156848898Y-89905209D02*
X156925088Y-89943304D01*
X156925088Y-89943304D02*
X157039374Y-89943304D01*
X157039374Y-89943304D02*
X157153660Y-89905209D01*
X157153660Y-89905209D02*
X157229850Y-89829019D01*
X157229850Y-89829019D02*
X157267945Y-89752828D01*
X157267945Y-89752828D02*
X157306041Y-89600447D01*
X157306041Y-89600447D02*
X157306041Y-89486161D01*
X157306041Y-89486161D02*
X157267945Y-89333780D01*
X157267945Y-89333780D02*
X157229850Y-89257590D01*
X157229850Y-89257590D02*
X157153660Y-89181400D01*
X157153660Y-89181400D02*
X157039374Y-89143304D01*
X157039374Y-89143304D02*
X156963183Y-89143304D01*
X156963183Y-89143304D02*
X156848898Y-89181400D01*
X156848898Y-89181400D02*
X156810802Y-89219495D01*
X156810802Y-89219495D02*
X156810802Y-89486161D01*
X156810802Y-89486161D02*
X156963183Y-89486161D01*
X156467945Y-89143304D02*
X156467945Y-89943304D01*
X156467945Y-89943304D02*
X156010802Y-89143304D01*
X156010802Y-89143304D02*
X156010802Y-89943304D01*
X155629850Y-89143304D02*
X155629850Y-89943304D01*
X155629850Y-89943304D02*
X155439374Y-89943304D01*
X155439374Y-89943304D02*
X155325088Y-89905209D01*
X155325088Y-89905209D02*
X155248898Y-89829019D01*
X155248898Y-89829019D02*
X155210803Y-89752828D01*
X155210803Y-89752828D02*
X155172707Y-89600447D01*
X155172707Y-89600447D02*
X155172707Y-89486161D01*
X155172707Y-89486161D02*
X155210803Y-89333780D01*
X155210803Y-89333780D02*
X155248898Y-89257590D01*
X155248898Y-89257590D02*
X155325088Y-89181400D01*
X155325088Y-89181400D02*
X155439374Y-89143304D01*
X155439374Y-89143304D02*
X155629850Y-89143304D01*
X146684047Y-89943304D02*
X146950714Y-90324257D01*
X147141190Y-89943304D02*
X147141190Y-90743304D01*
X147141190Y-90743304D02*
X146836428Y-90743304D01*
X146836428Y-90743304D02*
X146760238Y-90705209D01*
X146760238Y-90705209D02*
X146722143Y-90667114D01*
X146722143Y-90667114D02*
X146684047Y-90590923D01*
X146684047Y-90590923D02*
X146684047Y-90476638D01*
X146684047Y-90476638D02*
X146722143Y-90400447D01*
X146722143Y-90400447D02*
X146760238Y-90362352D01*
X146760238Y-90362352D02*
X146836428Y-90324257D01*
X146836428Y-90324257D02*
X147141190Y-90324257D01*
X146341190Y-90362352D02*
X146074524Y-90362352D01*
X145960238Y-89943304D02*
X146341190Y-89943304D01*
X146341190Y-89943304D02*
X146341190Y-90743304D01*
X146341190Y-90743304D02*
X145960238Y-90743304D01*
X145731666Y-90743304D02*
X145274523Y-90743304D01*
X145503095Y-89943304D02*
X145503095Y-90743304D01*
X161698898Y-89905209D02*
X161775088Y-89943304D01*
X161775088Y-89943304D02*
X161889374Y-89943304D01*
X161889374Y-89943304D02*
X162003660Y-89905209D01*
X162003660Y-89905209D02*
X162079850Y-89829019D01*
X162079850Y-89829019D02*
X162117945Y-89752828D01*
X162117945Y-89752828D02*
X162156041Y-89600447D01*
X162156041Y-89600447D02*
X162156041Y-89486161D01*
X162156041Y-89486161D02*
X162117945Y-89333780D01*
X162117945Y-89333780D02*
X162079850Y-89257590D01*
X162079850Y-89257590D02*
X162003660Y-89181400D01*
X162003660Y-89181400D02*
X161889374Y-89143304D01*
X161889374Y-89143304D02*
X161813183Y-89143304D01*
X161813183Y-89143304D02*
X161698898Y-89181400D01*
X161698898Y-89181400D02*
X161660802Y-89219495D01*
X161660802Y-89219495D02*
X161660802Y-89486161D01*
X161660802Y-89486161D02*
X161813183Y-89486161D01*
X161317945Y-89143304D02*
X161317945Y-89943304D01*
X161317945Y-89943304D02*
X160860802Y-89143304D01*
X160860802Y-89143304D02*
X160860802Y-89943304D01*
X160479850Y-89143304D02*
X160479850Y-89943304D01*
X160479850Y-89943304D02*
X160289374Y-89943304D01*
X160289374Y-89943304D02*
X160175088Y-89905209D01*
X160175088Y-89905209D02*
X160098898Y-89829019D01*
X160098898Y-89829019D02*
X160060803Y-89752828D01*
X160060803Y-89752828D02*
X160022707Y-89600447D01*
X160022707Y-89600447D02*
X160022707Y-89486161D01*
X160022707Y-89486161D02*
X160060803Y-89333780D01*
X160060803Y-89333780D02*
X160098898Y-89257590D01*
X160098898Y-89257590D02*
X160175088Y-89181400D01*
X160175088Y-89181400D02*
X160289374Y-89143304D01*
X160289374Y-89143304D02*
X160479850Y-89143304D01*
X142547142Y-90387352D02*
X142280476Y-90387352D01*
X142166190Y-89968304D02*
X142547142Y-89968304D01*
X142547142Y-89968304D02*
X142547142Y-90768304D01*
X142547142Y-90768304D02*
X142166190Y-90768304D01*
X141899523Y-90768304D02*
X141366189Y-89968304D01*
X141366189Y-90768304D02*
X141899523Y-89968304D01*
X141175713Y-90768304D02*
X140718570Y-90768304D01*
X140947142Y-89968304D02*
X140947142Y-90768304D01*
D10*
X186623533Y-112971934D02*
X186671152Y-112829077D01*
X186671152Y-112829077D02*
X186718771Y-112781458D01*
X186718771Y-112781458D02*
X186814009Y-112733839D01*
X186814009Y-112733839D02*
X186956866Y-112733839D01*
X186956866Y-112733839D02*
X187052104Y-112781458D01*
X187052104Y-112781458D02*
X187099724Y-112829077D01*
X187099724Y-112829077D02*
X187147343Y-112924315D01*
X187147343Y-112924315D02*
X187147343Y-113305267D01*
X187147343Y-113305267D02*
X186147343Y-113305267D01*
X186147343Y-113305267D02*
X186147343Y-112971934D01*
X186147343Y-112971934D02*
X186194962Y-112876696D01*
X186194962Y-112876696D02*
X186242581Y-112829077D01*
X186242581Y-112829077D02*
X186337819Y-112781458D01*
X186337819Y-112781458D02*
X186433057Y-112781458D01*
X186433057Y-112781458D02*
X186528295Y-112829077D01*
X186528295Y-112829077D02*
X186575914Y-112876696D01*
X186575914Y-112876696D02*
X186623533Y-112971934D01*
X186623533Y-112971934D02*
X186623533Y-113305267D01*
X186480676Y-111876696D02*
X187147343Y-111876696D01*
X186480676Y-112305267D02*
X187004485Y-112305267D01*
X187004485Y-112305267D02*
X187099724Y-112257648D01*
X187099724Y-112257648D02*
X187147343Y-112162410D01*
X187147343Y-112162410D02*
X187147343Y-112019553D01*
X187147343Y-112019553D02*
X187099724Y-111924315D01*
X187099724Y-111924315D02*
X187052104Y-111876696D01*
X187099724Y-110971934D02*
X187147343Y-111067172D01*
X187147343Y-111067172D02*
X187147343Y-111257648D01*
X187147343Y-111257648D02*
X187099724Y-111352886D01*
X187099724Y-111352886D02*
X187052104Y-111400505D01*
X187052104Y-111400505D02*
X186956866Y-111448124D01*
X186956866Y-111448124D02*
X186671152Y-111448124D01*
X186671152Y-111448124D02*
X186575914Y-111400505D01*
X186575914Y-111400505D02*
X186528295Y-111352886D01*
X186528295Y-111352886D02*
X186480676Y-111257648D01*
X186480676Y-111257648D02*
X186480676Y-111067172D01*
X186480676Y-111067172D02*
X186528295Y-110971934D01*
X187147343Y-110543362D02*
X186147343Y-110543362D01*
X186766390Y-110448124D02*
X187147343Y-110162410D01*
X186480676Y-110162410D02*
X186861628Y-110543362D01*
X187052104Y-108400505D02*
X187099724Y-108448124D01*
X187099724Y-108448124D02*
X187147343Y-108590981D01*
X187147343Y-108590981D02*
X187147343Y-108686219D01*
X187147343Y-108686219D02*
X187099724Y-108829076D01*
X187099724Y-108829076D02*
X187004485Y-108924314D01*
X187004485Y-108924314D02*
X186909247Y-108971933D01*
X186909247Y-108971933D02*
X186718771Y-109019552D01*
X186718771Y-109019552D02*
X186575914Y-109019552D01*
X186575914Y-109019552D02*
X186385438Y-108971933D01*
X186385438Y-108971933D02*
X186290200Y-108924314D01*
X186290200Y-108924314D02*
X186194962Y-108829076D01*
X186194962Y-108829076D02*
X186147343Y-108686219D01*
X186147343Y-108686219D02*
X186147343Y-108590981D01*
X186147343Y-108590981D02*
X186194962Y-108448124D01*
X186194962Y-108448124D02*
X186242581Y-108400505D01*
X187147343Y-107829076D02*
X187099724Y-107924314D01*
X187099724Y-107924314D02*
X187052104Y-107971933D01*
X187052104Y-107971933D02*
X186956866Y-108019552D01*
X186956866Y-108019552D02*
X186671152Y-108019552D01*
X186671152Y-108019552D02*
X186575914Y-107971933D01*
X186575914Y-107971933D02*
X186528295Y-107924314D01*
X186528295Y-107924314D02*
X186480676Y-107829076D01*
X186480676Y-107829076D02*
X186480676Y-107686219D01*
X186480676Y-107686219D02*
X186528295Y-107590981D01*
X186528295Y-107590981D02*
X186575914Y-107543362D01*
X186575914Y-107543362D02*
X186671152Y-107495743D01*
X186671152Y-107495743D02*
X186956866Y-107495743D01*
X186956866Y-107495743D02*
X187052104Y-107543362D01*
X187052104Y-107543362D02*
X187099724Y-107590981D01*
X187099724Y-107590981D02*
X187147343Y-107686219D01*
X187147343Y-107686219D02*
X187147343Y-107829076D01*
X186480676Y-107067171D02*
X187147343Y-107067171D01*
X186575914Y-107067171D02*
X186528295Y-107019552D01*
X186528295Y-107019552D02*
X186480676Y-106924314D01*
X186480676Y-106924314D02*
X186480676Y-106781457D01*
X186480676Y-106781457D02*
X186528295Y-106686219D01*
X186528295Y-106686219D02*
X186623533Y-106638600D01*
X186623533Y-106638600D02*
X187147343Y-106638600D01*
X186480676Y-106257647D02*
X187147343Y-106019552D01*
X187147343Y-106019552D02*
X186480676Y-105781457D01*
X187099724Y-105019552D02*
X187147343Y-105114790D01*
X187147343Y-105114790D02*
X187147343Y-105305266D01*
X187147343Y-105305266D02*
X187099724Y-105400504D01*
X187099724Y-105400504D02*
X187004485Y-105448123D01*
X187004485Y-105448123D02*
X186623533Y-105448123D01*
X186623533Y-105448123D02*
X186528295Y-105400504D01*
X186528295Y-105400504D02*
X186480676Y-105305266D01*
X186480676Y-105305266D02*
X186480676Y-105114790D01*
X186480676Y-105114790D02*
X186528295Y-105019552D01*
X186528295Y-105019552D02*
X186623533Y-104971933D01*
X186623533Y-104971933D02*
X186718771Y-104971933D01*
X186718771Y-104971933D02*
X186814009Y-105448123D01*
X187147343Y-104543361D02*
X186480676Y-104543361D01*
X186671152Y-104543361D02*
X186575914Y-104495742D01*
X186575914Y-104495742D02*
X186528295Y-104448123D01*
X186528295Y-104448123D02*
X186480676Y-104352885D01*
X186480676Y-104352885D02*
X186480676Y-104257647D01*
X186480676Y-104067170D02*
X186480676Y-103686218D01*
X186147343Y-103924313D02*
X187004485Y-103924313D01*
X187004485Y-103924313D02*
X187099724Y-103876694D01*
X187099724Y-103876694D02*
X187147343Y-103781456D01*
X187147343Y-103781456D02*
X187147343Y-103686218D01*
X187099724Y-102971932D02*
X187147343Y-103067170D01*
X187147343Y-103067170D02*
X187147343Y-103257646D01*
X187147343Y-103257646D02*
X187099724Y-103352884D01*
X187099724Y-103352884D02*
X187004485Y-103400503D01*
X187004485Y-103400503D02*
X186623533Y-103400503D01*
X186623533Y-103400503D02*
X186528295Y-103352884D01*
X186528295Y-103352884D02*
X186480676Y-103257646D01*
X186480676Y-103257646D02*
X186480676Y-103067170D01*
X186480676Y-103067170D02*
X186528295Y-102971932D01*
X186528295Y-102971932D02*
X186623533Y-102924313D01*
X186623533Y-102924313D02*
X186718771Y-102924313D01*
X186718771Y-102924313D02*
X186814009Y-103400503D01*
X187147343Y-102495741D02*
X186480676Y-102495741D01*
X186671152Y-102495741D02*
X186575914Y-102448122D01*
X186575914Y-102448122D02*
X186528295Y-102400503D01*
X186528295Y-102400503D02*
X186480676Y-102305265D01*
X186480676Y-102305265D02*
X186480676Y-102210027D01*
X188757287Y-106924313D02*
X188757287Y-106733837D01*
X188757287Y-106733837D02*
X188709668Y-106638599D01*
X188709668Y-106638599D02*
X188662048Y-106590980D01*
X188662048Y-106590980D02*
X188519191Y-106495742D01*
X188519191Y-106495742D02*
X188328715Y-106448123D01*
X188328715Y-106448123D02*
X187947763Y-106448123D01*
X187947763Y-106448123D02*
X187852525Y-106495742D01*
X187852525Y-106495742D02*
X187804906Y-106543361D01*
X187804906Y-106543361D02*
X187757287Y-106638599D01*
X187757287Y-106638599D02*
X187757287Y-106829075D01*
X187757287Y-106829075D02*
X187804906Y-106924313D01*
X187804906Y-106924313D02*
X187852525Y-106971932D01*
X187852525Y-106971932D02*
X187947763Y-107019551D01*
X187947763Y-107019551D02*
X188185858Y-107019551D01*
X188185858Y-107019551D02*
X188281096Y-106971932D01*
X188281096Y-106971932D02*
X188328715Y-106924313D01*
X188328715Y-106924313D02*
X188376334Y-106829075D01*
X188376334Y-106829075D02*
X188376334Y-106638599D01*
X188376334Y-106638599D02*
X188328715Y-106543361D01*
X188328715Y-106543361D02*
X188281096Y-106495742D01*
X188281096Y-106495742D02*
X188185858Y-106448123D01*
X187757287Y-106162408D02*
X188757287Y-105829075D01*
X188757287Y-105829075D02*
X187757287Y-105495742D01*
X187757287Y-104210027D02*
X187757287Y-104019551D01*
X187757287Y-104019551D02*
X187804906Y-103924313D01*
X187804906Y-103924313D02*
X187900144Y-103829075D01*
X187900144Y-103829075D02*
X188090620Y-103781456D01*
X188090620Y-103781456D02*
X188423953Y-103781456D01*
X188423953Y-103781456D02*
X188614429Y-103829075D01*
X188614429Y-103829075D02*
X188709668Y-103924313D01*
X188709668Y-103924313D02*
X188757287Y-104019551D01*
X188757287Y-104019551D02*
X188757287Y-104210027D01*
X188757287Y-104210027D02*
X188709668Y-104305265D01*
X188709668Y-104305265D02*
X188614429Y-104400503D01*
X188614429Y-104400503D02*
X188423953Y-104448122D01*
X188423953Y-104448122D02*
X188090620Y-104448122D01*
X188090620Y-104448122D02*
X187900144Y-104400503D01*
X187900144Y-104400503D02*
X187804906Y-104305265D01*
X187804906Y-104305265D02*
X187757287Y-104210027D01*
X188090620Y-102924313D02*
X188757287Y-102924313D01*
X188090620Y-103352884D02*
X188614429Y-103352884D01*
X188614429Y-103352884D02*
X188709668Y-103305265D01*
X188709668Y-103305265D02*
X188757287Y-103210027D01*
X188757287Y-103210027D02*
X188757287Y-103067170D01*
X188757287Y-103067170D02*
X188709668Y-102971932D01*
X188709668Y-102971932D02*
X188662048Y-102924313D01*
X188090620Y-102590979D02*
X188090620Y-102210027D01*
X187757287Y-102448122D02*
X188614429Y-102448122D01*
X188614429Y-102448122D02*
X188709668Y-102400503D01*
X188709668Y-102400503D02*
X188757287Y-102305265D01*
X188757287Y-102305265D02*
X188757287Y-102210027D01*
D11*
X178548332Y-89799281D02*
X178548332Y-90599281D01*
X178548332Y-90599281D02*
X178243570Y-90599281D01*
X178243570Y-90599281D02*
X178167380Y-90561186D01*
X178167380Y-90561186D02*
X178129285Y-90523091D01*
X178129285Y-90523091D02*
X178091189Y-90446900D01*
X178091189Y-90446900D02*
X178091189Y-90332615D01*
X178091189Y-90332615D02*
X178129285Y-90256424D01*
X178129285Y-90256424D02*
X178167380Y-90218329D01*
X178167380Y-90218329D02*
X178243570Y-90180234D01*
X178243570Y-90180234D02*
X178548332Y-90180234D01*
X177595951Y-90599281D02*
X177443570Y-90599281D01*
X177443570Y-90599281D02*
X177367380Y-90561186D01*
X177367380Y-90561186D02*
X177291189Y-90484996D01*
X177291189Y-90484996D02*
X177253094Y-90332615D01*
X177253094Y-90332615D02*
X177253094Y-90065948D01*
X177253094Y-90065948D02*
X177291189Y-89913567D01*
X177291189Y-89913567D02*
X177367380Y-89837377D01*
X177367380Y-89837377D02*
X177443570Y-89799281D01*
X177443570Y-89799281D02*
X177595951Y-89799281D01*
X177595951Y-89799281D02*
X177672142Y-89837377D01*
X177672142Y-89837377D02*
X177748332Y-89913567D01*
X177748332Y-89913567D02*
X177786428Y-90065948D01*
X177786428Y-90065948D02*
X177786428Y-90332615D01*
X177786428Y-90332615D02*
X177748332Y-90484996D01*
X177748332Y-90484996D02*
X177672142Y-90561186D01*
X177672142Y-90561186D02*
X177595951Y-90599281D01*
X176948333Y-89837377D02*
X176834047Y-89799281D01*
X176834047Y-89799281D02*
X176643571Y-89799281D01*
X176643571Y-89799281D02*
X176567380Y-89837377D01*
X176567380Y-89837377D02*
X176529285Y-89875472D01*
X176529285Y-89875472D02*
X176491190Y-89951662D01*
X176491190Y-89951662D02*
X176491190Y-90027853D01*
X176491190Y-90027853D02*
X176529285Y-90104043D01*
X176529285Y-90104043D02*
X176567380Y-90142138D01*
X176567380Y-90142138D02*
X176643571Y-90180234D01*
X176643571Y-90180234D02*
X176795952Y-90218329D01*
X176795952Y-90218329D02*
X176872142Y-90256424D01*
X176872142Y-90256424D02*
X176910237Y-90294519D01*
X176910237Y-90294519D02*
X176948333Y-90370710D01*
X176948333Y-90370710D02*
X176948333Y-90446900D01*
X176948333Y-90446900D02*
X176910237Y-90523091D01*
X176910237Y-90523091D02*
X176872142Y-90561186D01*
X176872142Y-90561186D02*
X176795952Y-90599281D01*
X176795952Y-90599281D02*
X176605475Y-90599281D01*
X176605475Y-90599281D02*
X176491190Y-90561186D01*
X176148332Y-89799281D02*
X176148332Y-90599281D01*
X175881666Y-90599281D02*
X175424523Y-90599281D01*
X175653095Y-89799281D02*
X175653095Y-90599281D01*
X175157856Y-89799281D02*
X175157856Y-90599281D01*
X174624523Y-90599281D02*
X174472142Y-90599281D01*
X174472142Y-90599281D02*
X174395952Y-90561186D01*
X174395952Y-90561186D02*
X174319761Y-90484996D01*
X174319761Y-90484996D02*
X174281666Y-90332615D01*
X174281666Y-90332615D02*
X174281666Y-90065948D01*
X174281666Y-90065948D02*
X174319761Y-89913567D01*
X174319761Y-89913567D02*
X174395952Y-89837377D01*
X174395952Y-89837377D02*
X174472142Y-89799281D01*
X174472142Y-89799281D02*
X174624523Y-89799281D01*
X174624523Y-89799281D02*
X174700714Y-89837377D01*
X174700714Y-89837377D02*
X174776904Y-89913567D01*
X174776904Y-89913567D02*
X174815000Y-90065948D01*
X174815000Y-90065948D02*
X174815000Y-90332615D01*
X174815000Y-90332615D02*
X174776904Y-90484996D01*
X174776904Y-90484996D02*
X174700714Y-90561186D01*
X174700714Y-90561186D02*
X174624523Y-90599281D01*
X173938809Y-89799281D02*
X173938809Y-90599281D01*
X173938809Y-90599281D02*
X173481666Y-89799281D01*
X173481666Y-89799281D02*
X173481666Y-90599281D01*
X178224524Y-88549422D02*
X178110238Y-88511326D01*
X178110238Y-88511326D02*
X177919762Y-88511326D01*
X177919762Y-88511326D02*
X177843571Y-88549422D01*
X177843571Y-88549422D02*
X177805476Y-88587517D01*
X177805476Y-88587517D02*
X177767381Y-88663707D01*
X177767381Y-88663707D02*
X177767381Y-88739898D01*
X177767381Y-88739898D02*
X177805476Y-88816088D01*
X177805476Y-88816088D02*
X177843571Y-88854183D01*
X177843571Y-88854183D02*
X177919762Y-88892279D01*
X177919762Y-88892279D02*
X178072143Y-88930374D01*
X178072143Y-88930374D02*
X178148333Y-88968469D01*
X178148333Y-88968469D02*
X178186428Y-89006564D01*
X178186428Y-89006564D02*
X178224524Y-89082755D01*
X178224524Y-89082755D02*
X178224524Y-89158945D01*
X178224524Y-89158945D02*
X178186428Y-89235136D01*
X178186428Y-89235136D02*
X178148333Y-89273231D01*
X178148333Y-89273231D02*
X178072143Y-89311326D01*
X178072143Y-89311326D02*
X177881666Y-89311326D01*
X177881666Y-89311326D02*
X177767381Y-89273231D01*
X177424523Y-88930374D02*
X177157857Y-88930374D01*
X177043571Y-88511326D02*
X177424523Y-88511326D01*
X177424523Y-88511326D02*
X177424523Y-89311326D01*
X177424523Y-89311326D02*
X177043571Y-89311326D01*
X176700713Y-88511326D02*
X176700713Y-89311326D01*
X176700713Y-89311326D02*
X176243570Y-88511326D01*
X176243570Y-88511326D02*
X176243570Y-89311326D01*
X175900714Y-88549422D02*
X175786428Y-88511326D01*
X175786428Y-88511326D02*
X175595952Y-88511326D01*
X175595952Y-88511326D02*
X175519761Y-88549422D01*
X175519761Y-88549422D02*
X175481666Y-88587517D01*
X175481666Y-88587517D02*
X175443571Y-88663707D01*
X175443571Y-88663707D02*
X175443571Y-88739898D01*
X175443571Y-88739898D02*
X175481666Y-88816088D01*
X175481666Y-88816088D02*
X175519761Y-88854183D01*
X175519761Y-88854183D02*
X175595952Y-88892279D01*
X175595952Y-88892279D02*
X175748333Y-88930374D01*
X175748333Y-88930374D02*
X175824523Y-88968469D01*
X175824523Y-88968469D02*
X175862618Y-89006564D01*
X175862618Y-89006564D02*
X175900714Y-89082755D01*
X175900714Y-89082755D02*
X175900714Y-89158945D01*
X175900714Y-89158945D02*
X175862618Y-89235136D01*
X175862618Y-89235136D02*
X175824523Y-89273231D01*
X175824523Y-89273231D02*
X175748333Y-89311326D01*
X175748333Y-89311326D02*
X175557856Y-89311326D01*
X175557856Y-89311326D02*
X175443571Y-89273231D01*
X174948332Y-89311326D02*
X174795951Y-89311326D01*
X174795951Y-89311326D02*
X174719761Y-89273231D01*
X174719761Y-89273231D02*
X174643570Y-89197041D01*
X174643570Y-89197041D02*
X174605475Y-89044660D01*
X174605475Y-89044660D02*
X174605475Y-88777993D01*
X174605475Y-88777993D02*
X174643570Y-88625612D01*
X174643570Y-88625612D02*
X174719761Y-88549422D01*
X174719761Y-88549422D02*
X174795951Y-88511326D01*
X174795951Y-88511326D02*
X174948332Y-88511326D01*
X174948332Y-88511326D02*
X175024523Y-88549422D01*
X175024523Y-88549422D02*
X175100713Y-88625612D01*
X175100713Y-88625612D02*
X175138809Y-88777993D01*
X175138809Y-88777993D02*
X175138809Y-89044660D01*
X175138809Y-89044660D02*
X175100713Y-89197041D01*
X175100713Y-89197041D02*
X175024523Y-89273231D01*
X175024523Y-89273231D02*
X174948332Y-89311326D01*
X173805475Y-88511326D02*
X174072142Y-88892279D01*
X174262618Y-88511326D02*
X174262618Y-89311326D01*
X174262618Y-89311326D02*
X173957856Y-89311326D01*
X173957856Y-89311326D02*
X173881666Y-89273231D01*
X173881666Y-89273231D02*
X173843571Y-89235136D01*
X173843571Y-89235136D02*
X173805475Y-89158945D01*
X173805475Y-89158945D02*
X173805475Y-89044660D01*
X173805475Y-89044660D02*
X173843571Y-88968469D01*
X173843571Y-88968469D02*
X173881666Y-88930374D01*
X173881666Y-88930374D02*
X173957856Y-88892279D01*
X173957856Y-88892279D02*
X174262618Y-88892279D01*
X145219761Y-88282780D02*
X145219761Y-89282780D01*
X145219761Y-89282780D02*
X144838809Y-89282780D01*
X144838809Y-89282780D02*
X144743571Y-89235161D01*
X144743571Y-89235161D02*
X144695952Y-89187542D01*
X144695952Y-89187542D02*
X144648333Y-89092304D01*
X144648333Y-89092304D02*
X144648333Y-88949447D01*
X144648333Y-88949447D02*
X144695952Y-88854209D01*
X144695952Y-88854209D02*
X144743571Y-88806590D01*
X144743571Y-88806590D02*
X144838809Y-88758971D01*
X144838809Y-88758971D02*
X145219761Y-88758971D01*
X144314999Y-89282780D02*
X144076904Y-88282780D01*
X144076904Y-88282780D02*
X143886428Y-88997066D01*
X143886428Y-88997066D02*
X143695952Y-88282780D01*
X143695952Y-88282780D02*
X143457857Y-89282780D01*
X143076904Y-88282780D02*
X143076904Y-89282780D01*
X143076904Y-89282780D02*
X142743571Y-88568495D01*
X142743571Y-88568495D02*
X142410238Y-89282780D01*
X142410238Y-89282780D02*
X142410238Y-88282780D01*
X151993570Y-89944043D02*
X151384047Y-89944043D01*
X151688808Y-89639281D02*
X151688808Y-90248805D01*
X150622142Y-90439281D02*
X151003094Y-90439281D01*
X151003094Y-90439281D02*
X151041190Y-90058329D01*
X151041190Y-90058329D02*
X151003094Y-90096424D01*
X151003094Y-90096424D02*
X150926904Y-90134519D01*
X150926904Y-90134519D02*
X150736428Y-90134519D01*
X150736428Y-90134519D02*
X150660237Y-90096424D01*
X150660237Y-90096424D02*
X150622142Y-90058329D01*
X150622142Y-90058329D02*
X150584047Y-89982138D01*
X150584047Y-89982138D02*
X150584047Y-89791662D01*
X150584047Y-89791662D02*
X150622142Y-89715472D01*
X150622142Y-89715472D02*
X150660237Y-89677377D01*
X150660237Y-89677377D02*
X150736428Y-89639281D01*
X150736428Y-89639281D02*
X150926904Y-89639281D01*
X150926904Y-89639281D02*
X151003094Y-89677377D01*
X151003094Y-89677377D02*
X151041190Y-89715472D01*
X150355475Y-90439281D02*
X150088808Y-89639281D01*
X150088808Y-89639281D02*
X149822142Y-90439281D01*
X151764999Y-89151326D02*
X151612618Y-89151326D01*
X151612618Y-89151326D02*
X151536428Y-89113231D01*
X151536428Y-89113231D02*
X151460237Y-89037041D01*
X151460237Y-89037041D02*
X151422142Y-88884660D01*
X151422142Y-88884660D02*
X151422142Y-88617993D01*
X151422142Y-88617993D02*
X151460237Y-88465612D01*
X151460237Y-88465612D02*
X151536428Y-88389422D01*
X151536428Y-88389422D02*
X151612618Y-88351326D01*
X151612618Y-88351326D02*
X151764999Y-88351326D01*
X151764999Y-88351326D02*
X151841190Y-88389422D01*
X151841190Y-88389422D02*
X151917380Y-88465612D01*
X151917380Y-88465612D02*
X151955476Y-88617993D01*
X151955476Y-88617993D02*
X151955476Y-88884660D01*
X151955476Y-88884660D02*
X151917380Y-89037041D01*
X151917380Y-89037041D02*
X151841190Y-89113231D01*
X151841190Y-89113231D02*
X151764999Y-89151326D01*
X151079285Y-89151326D02*
X151079285Y-88503707D01*
X151079285Y-88503707D02*
X151041190Y-88427517D01*
X151041190Y-88427517D02*
X151003095Y-88389422D01*
X151003095Y-88389422D02*
X150926904Y-88351326D01*
X150926904Y-88351326D02*
X150774523Y-88351326D01*
X150774523Y-88351326D02*
X150698333Y-88389422D01*
X150698333Y-88389422D02*
X150660238Y-88427517D01*
X150660238Y-88427517D02*
X150622142Y-88503707D01*
X150622142Y-88503707D02*
X150622142Y-89151326D01*
X150355476Y-89151326D02*
X149898333Y-89151326D01*
X150126905Y-88351326D02*
X150126905Y-89151326D01*
X172374523Y-90074043D02*
X171765000Y-90074043D01*
X172069761Y-89769281D02*
X172069761Y-90378805D01*
X170965000Y-89769281D02*
X171422143Y-89769281D01*
X171193571Y-89769281D02*
X171193571Y-90569281D01*
X171193571Y-90569281D02*
X171269762Y-90454996D01*
X171269762Y-90454996D02*
X171345952Y-90378805D01*
X171345952Y-90378805D02*
X171422143Y-90340710D01*
X170660238Y-90493091D02*
X170622142Y-90531186D01*
X170622142Y-90531186D02*
X170545952Y-90569281D01*
X170545952Y-90569281D02*
X170355476Y-90569281D01*
X170355476Y-90569281D02*
X170279285Y-90531186D01*
X170279285Y-90531186D02*
X170241190Y-90493091D01*
X170241190Y-90493091D02*
X170203095Y-90416900D01*
X170203095Y-90416900D02*
X170203095Y-90340710D01*
X170203095Y-90340710D02*
X170241190Y-90226424D01*
X170241190Y-90226424D02*
X170698333Y-89769281D01*
X170698333Y-89769281D02*
X170203095Y-89769281D01*
X169974523Y-90569281D02*
X169707856Y-89769281D01*
X169707856Y-89769281D02*
X169441190Y-90569281D01*
X172507856Y-88481326D02*
X172507856Y-89281326D01*
X172126904Y-88481326D02*
X172126904Y-89281326D01*
X172126904Y-89281326D02*
X171669761Y-88481326D01*
X171669761Y-88481326D02*
X171669761Y-89281326D01*
X171288809Y-88481326D02*
X171288809Y-89281326D01*
X171288809Y-89281326D02*
X170984047Y-89281326D01*
X170984047Y-89281326D02*
X170907857Y-89243231D01*
X170907857Y-89243231D02*
X170869762Y-89205136D01*
X170869762Y-89205136D02*
X170831666Y-89128945D01*
X170831666Y-89128945D02*
X170831666Y-89014660D01*
X170831666Y-89014660D02*
X170869762Y-88938469D01*
X170869762Y-88938469D02*
X170907857Y-88900374D01*
X170907857Y-88900374D02*
X170984047Y-88862279D01*
X170984047Y-88862279D02*
X171288809Y-88862279D01*
X170488809Y-89281326D02*
X170488809Y-88633707D01*
X170488809Y-88633707D02*
X170450714Y-88557517D01*
X170450714Y-88557517D02*
X170412619Y-88519422D01*
X170412619Y-88519422D02*
X170336428Y-88481326D01*
X170336428Y-88481326D02*
X170184047Y-88481326D01*
X170184047Y-88481326D02*
X170107857Y-88519422D01*
X170107857Y-88519422D02*
X170069762Y-88557517D01*
X170069762Y-88557517D02*
X170031666Y-88633707D01*
X170031666Y-88633707D02*
X170031666Y-89281326D01*
X169765000Y-89281326D02*
X169307857Y-89281326D01*
X169536429Y-88481326D02*
X169536429Y-89281326D01*
D12*
X153191666Y-93506819D02*
X153191666Y-94221104D01*
X153191666Y-94221104D02*
X153144047Y-94363961D01*
X153144047Y-94363961D02*
X153048809Y-94459200D01*
X153048809Y-94459200D02*
X152905952Y-94506819D01*
X152905952Y-94506819D02*
X152810714Y-94506819D01*
X154191666Y-94506819D02*
X153620238Y-94506819D01*
X153905952Y-94506819D02*
X153905952Y-93506819D01*
X153905952Y-93506819D02*
X153810714Y-93649676D01*
X153810714Y-93649676D02*
X153715476Y-93744914D01*
X153715476Y-93744914D02*
X153620238Y-93792533D01*
X183199819Y-120220833D02*
X183914104Y-120220833D01*
X183914104Y-120220833D02*
X184056961Y-120268452D01*
X184056961Y-120268452D02*
X184152200Y-120363690D01*
X184152200Y-120363690D02*
X184199819Y-120506547D01*
X184199819Y-120506547D02*
X184199819Y-120601785D01*
X183199819Y-119268452D02*
X183199819Y-119744642D01*
X183199819Y-119744642D02*
X183676009Y-119792261D01*
X183676009Y-119792261D02*
X183628390Y-119744642D01*
X183628390Y-119744642D02*
X183580771Y-119649404D01*
X183580771Y-119649404D02*
X183580771Y-119411309D01*
X183580771Y-119411309D02*
X183628390Y-119316071D01*
X183628390Y-119316071D02*
X183676009Y-119268452D01*
X183676009Y-119268452D02*
X183771247Y-119220833D01*
X183771247Y-119220833D02*
X184009342Y-119220833D01*
X184009342Y-119220833D02*
X184104580Y-119268452D01*
X184104580Y-119268452D02*
X184152200Y-119316071D01*
X184152200Y-119316071D02*
X184199819Y-119411309D01*
X184199819Y-119411309D02*
X184199819Y-119649404D01*
X184199819Y-119649404D02*
X184152200Y-119744642D01*
X184152200Y-119744642D02*
X184104580Y-119792261D01*
X142435268Y-136539819D02*
X142435268Y-137254104D01*
X142435268Y-137254104D02*
X142387649Y-137396961D01*
X142387649Y-137396961D02*
X142292411Y-137492200D01*
X142292411Y-137492200D02*
X142149554Y-137539819D01*
X142149554Y-137539819D02*
X142054316Y-137539819D01*
X143435268Y-137539819D02*
X142863840Y-137539819D01*
X143149554Y-137539819D02*
X143149554Y-136539819D01*
X143149554Y-136539819D02*
X143054316Y-136682676D01*
X143054316Y-136682676D02*
X142959078Y-136777914D01*
X142959078Y-136777914D02*
X142863840Y-136825533D01*
X144387649Y-137539819D02*
X143816221Y-137539819D01*
X144101935Y-137539819D02*
X144101935Y-136539819D01*
X144101935Y-136539819D02*
X144006697Y-136682676D01*
X144006697Y-136682676D02*
X143911459Y-136777914D01*
X143911459Y-136777914D02*
X143816221Y-136825533D01*
X173511666Y-93419819D02*
X173511666Y-94134104D01*
X173511666Y-94134104D02*
X173464047Y-94276961D01*
X173464047Y-94276961D02*
X173368809Y-94372200D01*
X173368809Y-94372200D02*
X173225952Y-94419819D01*
X173225952Y-94419819D02*
X173130714Y-94419819D01*
X174416428Y-93753152D02*
X174416428Y-94419819D01*
X174178333Y-93372200D02*
X173940238Y-94086485D01*
X173940238Y-94086485D02*
X174559285Y-94086485D01*
X143011666Y-93509819D02*
X143011666Y-94224104D01*
X143011666Y-94224104D02*
X142964047Y-94366961D01*
X142964047Y-94366961D02*
X142868809Y-94462200D01*
X142868809Y-94462200D02*
X142725952Y-94509819D01*
X142725952Y-94509819D02*
X142630714Y-94509819D01*
X143392619Y-93509819D02*
X144011666Y-93509819D01*
X144011666Y-93509819D02*
X143678333Y-93890771D01*
X143678333Y-93890771D02*
X143821190Y-93890771D01*
X143821190Y-93890771D02*
X143916428Y-93938390D01*
X143916428Y-93938390D02*
X143964047Y-93986009D01*
X143964047Y-93986009D02*
X144011666Y-94081247D01*
X144011666Y-94081247D02*
X144011666Y-94319342D01*
X144011666Y-94319342D02*
X143964047Y-94414580D01*
X143964047Y-94414580D02*
X143916428Y-94462200D01*
X143916428Y-94462200D02*
X143821190Y-94509819D01*
X143821190Y-94509819D02*
X143535476Y-94509819D01*
X143535476Y-94509819D02*
X143440238Y-94462200D01*
X143440238Y-94462200D02*
X143392619Y-94414580D01*
X201991666Y-104529819D02*
X201991666Y-105244104D01*
X201991666Y-105244104D02*
X201944047Y-105386961D01*
X201944047Y-105386961D02*
X201848809Y-105482200D01*
X201848809Y-105482200D02*
X201705952Y-105529819D01*
X201705952Y-105529819D02*
X201610714Y-105529819D01*
X202372619Y-104529819D02*
X203039285Y-104529819D01*
X203039285Y-104529819D02*
X202610714Y-105529819D01*
X163351666Y-93516819D02*
X163351666Y-94231104D01*
X163351666Y-94231104D02*
X163304047Y-94373961D01*
X163304047Y-94373961D02*
X163208809Y-94469200D01*
X163208809Y-94469200D02*
X163065952Y-94516819D01*
X163065952Y-94516819D02*
X162970714Y-94516819D01*
X163780238Y-93612057D02*
X163827857Y-93564438D01*
X163827857Y-93564438D02*
X163923095Y-93516819D01*
X163923095Y-93516819D02*
X164161190Y-93516819D01*
X164161190Y-93516819D02*
X164256428Y-93564438D01*
X164256428Y-93564438D02*
X164304047Y-93612057D01*
X164304047Y-93612057D02*
X164351666Y-93707295D01*
X164351666Y-93707295D02*
X164351666Y-93802533D01*
X164351666Y-93802533D02*
X164304047Y-93945390D01*
X164304047Y-93945390D02*
X163732619Y-94516819D01*
X163732619Y-94516819D02*
X164351666Y-94516819D01*
X170009507Y-132670523D02*
X170723792Y-132670523D01*
X170723792Y-132670523D02*
X170866649Y-132718142D01*
X170866649Y-132718142D02*
X170961888Y-132813380D01*
X170961888Y-132813380D02*
X171009507Y-132956237D01*
X171009507Y-132956237D02*
X171009507Y-133051475D01*
X171009507Y-131670523D02*
X171009507Y-132241951D01*
X171009507Y-131956237D02*
X170009507Y-131956237D01*
X170009507Y-131956237D02*
X170152364Y-132051475D01*
X170152364Y-132051475D02*
X170247602Y-132146713D01*
X170247602Y-132146713D02*
X170295221Y-132241951D01*
X170342840Y-130813380D02*
X171009507Y-130813380D01*
X169961888Y-131051475D02*
X170676173Y-131289570D01*
X170676173Y-131289570D02*
X170676173Y-130670523D01*
X153946904Y-113994104D02*
X154423094Y-113994104D01*
X153851666Y-114279819D02*
X154184999Y-113279819D01*
X154184999Y-113279819D02*
X154518332Y-114279819D01*
X154851666Y-114279819D02*
X154851666Y-113613152D01*
X154851666Y-113803628D02*
X154899285Y-113708390D01*
X154899285Y-113708390D02*
X154946904Y-113660771D01*
X154946904Y-113660771D02*
X155042142Y-113613152D01*
X155042142Y-113613152D02*
X155137380Y-113613152D01*
X155899285Y-114279819D02*
X155899285Y-113279819D01*
X155899285Y-114232200D02*
X155804047Y-114279819D01*
X155804047Y-114279819D02*
X155613571Y-114279819D01*
X155613571Y-114279819D02*
X155518333Y-114232200D01*
X155518333Y-114232200D02*
X155470714Y-114184580D01*
X155470714Y-114184580D02*
X155423095Y-114089342D01*
X155423095Y-114089342D02*
X155423095Y-113803628D01*
X155423095Y-113803628D02*
X155470714Y-113708390D01*
X155470714Y-113708390D02*
X155518333Y-113660771D01*
X155518333Y-113660771D02*
X155613571Y-113613152D01*
X155613571Y-113613152D02*
X155804047Y-113613152D01*
X155804047Y-113613152D02*
X155899285Y-113660771D01*
X156804047Y-113613152D02*
X156804047Y-114279819D01*
X156375476Y-113613152D02*
X156375476Y-114136961D01*
X156375476Y-114136961D02*
X156423095Y-114232200D01*
X156423095Y-114232200D02*
X156518333Y-114279819D01*
X156518333Y-114279819D02*
X156661190Y-114279819D01*
X156661190Y-114279819D02*
X156756428Y-114232200D01*
X156756428Y-114232200D02*
X156804047Y-114184580D01*
X157280238Y-114279819D02*
X157280238Y-113613152D01*
X157280238Y-113279819D02*
X157232619Y-113327438D01*
X157232619Y-113327438D02*
X157280238Y-113375057D01*
X157280238Y-113375057D02*
X157327857Y-113327438D01*
X157327857Y-113327438D02*
X157280238Y-113279819D01*
X157280238Y-113279819D02*
X157280238Y-113375057D01*
X157756428Y-113613152D02*
X157756428Y-114279819D01*
X157756428Y-113708390D02*
X157804047Y-113660771D01*
X157804047Y-113660771D02*
X157899285Y-113613152D01*
X157899285Y-113613152D02*
X158042142Y-113613152D01*
X158042142Y-113613152D02*
X158137380Y-113660771D01*
X158137380Y-113660771D02*
X158184999Y-113756009D01*
X158184999Y-113756009D02*
X158184999Y-114279819D01*
X158804047Y-114279819D02*
X158708809Y-114232200D01*
X158708809Y-114232200D02*
X158661190Y-114184580D01*
X158661190Y-114184580D02*
X158613571Y-114089342D01*
X158613571Y-114089342D02*
X158613571Y-113803628D01*
X158613571Y-113803628D02*
X158661190Y-113708390D01*
X158661190Y-113708390D02*
X158708809Y-113660771D01*
X158708809Y-113660771D02*
X158804047Y-113613152D01*
X158804047Y-113613152D02*
X158946904Y-113613152D01*
X158946904Y-113613152D02*
X159042142Y-113660771D01*
X159042142Y-113660771D02*
X159089761Y-113708390D01*
X159089761Y-113708390D02*
X159137380Y-113803628D01*
X159137380Y-113803628D02*
X159137380Y-114089342D01*
X159137380Y-114089342D02*
X159089761Y-114184580D01*
X159089761Y-114184580D02*
X159042142Y-114232200D01*
X159042142Y-114232200D02*
X158946904Y-114279819D01*
X158946904Y-114279819D02*
X158804047Y-114279819D01*
X159327857Y-114375057D02*
X160089761Y-114375057D01*
X160327857Y-114279819D02*
X160327857Y-113279819D01*
X160327857Y-113279819D02*
X160899285Y-114279819D01*
X160899285Y-114279819D02*
X160899285Y-113279819D01*
X161804047Y-114279819D02*
X161804047Y-113756009D01*
X161804047Y-113756009D02*
X161756428Y-113660771D01*
X161756428Y-113660771D02*
X161661190Y-113613152D01*
X161661190Y-113613152D02*
X161470714Y-113613152D01*
X161470714Y-113613152D02*
X161375476Y-113660771D01*
X161804047Y-114232200D02*
X161708809Y-114279819D01*
X161708809Y-114279819D02*
X161470714Y-114279819D01*
X161470714Y-114279819D02*
X161375476Y-114232200D01*
X161375476Y-114232200D02*
X161327857Y-114136961D01*
X161327857Y-114136961D02*
X161327857Y-114041723D01*
X161327857Y-114041723D02*
X161375476Y-113946485D01*
X161375476Y-113946485D02*
X161470714Y-113898866D01*
X161470714Y-113898866D02*
X161708809Y-113898866D01*
X161708809Y-113898866D02*
X161804047Y-113851247D01*
X162280238Y-113613152D02*
X162280238Y-114279819D01*
X162280238Y-113708390D02*
X162327857Y-113660771D01*
X162327857Y-113660771D02*
X162423095Y-113613152D01*
X162423095Y-113613152D02*
X162565952Y-113613152D01*
X162565952Y-113613152D02*
X162661190Y-113660771D01*
X162661190Y-113660771D02*
X162708809Y-113756009D01*
X162708809Y-113756009D02*
X162708809Y-114279819D01*
X163327857Y-114279819D02*
X163232619Y-114232200D01*
X163232619Y-114232200D02*
X163185000Y-114184580D01*
X163185000Y-114184580D02*
X163137381Y-114089342D01*
X163137381Y-114089342D02*
X163137381Y-113803628D01*
X163137381Y-113803628D02*
X163185000Y-113708390D01*
X163185000Y-113708390D02*
X163232619Y-113660771D01*
X163232619Y-113660771D02*
X163327857Y-113613152D01*
X163327857Y-113613152D02*
X163470714Y-113613152D01*
X163470714Y-113613152D02*
X163565952Y-113660771D01*
X163565952Y-113660771D02*
X163613571Y-113708390D01*
X163613571Y-113708390D02*
X163661190Y-113803628D01*
X163661190Y-113803628D02*
X163661190Y-114089342D01*
X163661190Y-114089342D02*
X163613571Y-114184580D01*
X163613571Y-114184580D02*
X163565952Y-114232200D01*
X163565952Y-114232200D02*
X163470714Y-114279819D01*
X163470714Y-114279819D02*
X163327857Y-114279819D01*
X163851667Y-114375057D02*
X164613571Y-114375057D01*
X164756429Y-113613152D02*
X164994524Y-114279819D01*
X164994524Y-114279819D02*
X165232619Y-113613152D01*
X165518334Y-113279819D02*
X166137381Y-113279819D01*
X166137381Y-113279819D02*
X165804048Y-113660771D01*
X165804048Y-113660771D02*
X165946905Y-113660771D01*
X165946905Y-113660771D02*
X166042143Y-113708390D01*
X166042143Y-113708390D02*
X166089762Y-113756009D01*
X166089762Y-113756009D02*
X166137381Y-113851247D01*
X166137381Y-113851247D02*
X166137381Y-114089342D01*
X166137381Y-114089342D02*
X166089762Y-114184580D01*
X166089762Y-114184580D02*
X166042143Y-114232200D01*
X166042143Y-114232200D02*
X165946905Y-114279819D01*
X165946905Y-114279819D02*
X165661191Y-114279819D01*
X165661191Y-114279819D02*
X165565953Y-114232200D01*
X165565953Y-114232200D02*
X165518334Y-114184580D01*
X166565953Y-114184580D02*
X166613572Y-114232200D01*
X166613572Y-114232200D02*
X166565953Y-114279819D01*
X166565953Y-114279819D02*
X166518334Y-114232200D01*
X166518334Y-114232200D02*
X166565953Y-114184580D01*
X166565953Y-114184580D02*
X166565953Y-114279819D01*
X166946905Y-114279819D02*
X167470714Y-113613152D01*
X166946905Y-113613152D02*
X167470714Y-114279819D01*
X159970714Y-111454104D02*
X160446904Y-111454104D01*
X159875476Y-111739819D02*
X160208809Y-110739819D01*
X160208809Y-110739819D02*
X160542142Y-111739819D01*
X161399285Y-111739819D02*
X160827857Y-111739819D01*
X161113571Y-111739819D02*
X161113571Y-110739819D01*
X161113571Y-110739819D02*
X161018333Y-110882676D01*
X161018333Y-110882676D02*
X160923095Y-110977914D01*
X160923095Y-110977914D02*
X160827857Y-111025533D01*
X143419819Y-113996904D02*
X144229342Y-113996904D01*
X144229342Y-113996904D02*
X144324580Y-113949285D01*
X144324580Y-113949285D02*
X144372200Y-113901666D01*
X144372200Y-113901666D02*
X144419819Y-113806428D01*
X144419819Y-113806428D02*
X144419819Y-113615952D01*
X144419819Y-113615952D02*
X144372200Y-113520714D01*
X144372200Y-113520714D02*
X144324580Y-113473095D01*
X144324580Y-113473095D02*
X144229342Y-113425476D01*
X144229342Y-113425476D02*
X143419819Y-113425476D01*
X144372200Y-112996904D02*
X144419819Y-112854047D01*
X144419819Y-112854047D02*
X144419819Y-112615952D01*
X144419819Y-112615952D02*
X144372200Y-112520714D01*
X144372200Y-112520714D02*
X144324580Y-112473095D01*
X144324580Y-112473095D02*
X144229342Y-112425476D01*
X144229342Y-112425476D02*
X144134104Y-112425476D01*
X144134104Y-112425476D02*
X144038866Y-112473095D01*
X144038866Y-112473095D02*
X143991247Y-112520714D01*
X143991247Y-112520714D02*
X143943628Y-112615952D01*
X143943628Y-112615952D02*
X143896009Y-112806428D01*
X143896009Y-112806428D02*
X143848390Y-112901666D01*
X143848390Y-112901666D02*
X143800771Y-112949285D01*
X143800771Y-112949285D02*
X143705533Y-112996904D01*
X143705533Y-112996904D02*
X143610295Y-112996904D01*
X143610295Y-112996904D02*
X143515057Y-112949285D01*
X143515057Y-112949285D02*
X143467438Y-112901666D01*
X143467438Y-112901666D02*
X143419819Y-112806428D01*
X143419819Y-112806428D02*
X143419819Y-112568333D01*
X143419819Y-112568333D02*
X143467438Y-112425476D01*
X143896009Y-111663571D02*
X143943628Y-111520714D01*
X143943628Y-111520714D02*
X143991247Y-111473095D01*
X143991247Y-111473095D02*
X144086485Y-111425476D01*
X144086485Y-111425476D02*
X144229342Y-111425476D01*
X144229342Y-111425476D02*
X144324580Y-111473095D01*
X144324580Y-111473095D02*
X144372200Y-111520714D01*
X144372200Y-111520714D02*
X144419819Y-111615952D01*
X144419819Y-111615952D02*
X144419819Y-111996904D01*
X144419819Y-111996904D02*
X143419819Y-111996904D01*
X143419819Y-111996904D02*
X143419819Y-111663571D01*
X143419819Y-111663571D02*
X143467438Y-111568333D01*
X143467438Y-111568333D02*
X143515057Y-111520714D01*
X143515057Y-111520714D02*
X143610295Y-111473095D01*
X143610295Y-111473095D02*
X143705533Y-111473095D01*
X143705533Y-111473095D02*
X143800771Y-111520714D01*
X143800771Y-111520714D02*
X143848390Y-111568333D01*
X143848390Y-111568333D02*
X143896009Y-111663571D01*
X143896009Y-111663571D02*
X143896009Y-111996904D01*
D13*
X148445000Y-95322000D02*
X148445000Y-102942000D01*
X148445000Y-102942000D02*
X158605000Y-102942000D01*
X158605000Y-95322000D02*
X148445000Y-95322000D01*
X158605000Y-101672000D02*
X148445000Y-101672000D01*
X158605000Y-102942000D02*
X158605000Y-95322000D01*
X184745000Y-121267500D02*
X184745000Y-119887500D01*
X186125000Y-121267500D02*
X184745000Y-121267500D01*
X187395000Y-118507500D02*
X195125000Y-118507500D01*
X187395000Y-121267500D02*
X187395000Y-118507500D01*
X187395000Y-121267500D02*
X195125000Y-121267500D01*
X195125000Y-121267500D02*
X195125000Y-118507500D01*
X140594792Y-136085000D02*
X140594792Y-125705000D01*
X143244792Y-133435000D02*
X143244792Y-136085000D01*
X143244792Y-136085000D02*
X140594792Y-136085000D01*
X145894792Y-125705000D02*
X140594792Y-125705000D01*
X145894792Y-133435000D02*
X143244792Y-133435000D01*
X145894792Y-133435000D02*
X145894792Y-125705000D01*
X145894792Y-134705000D02*
X145894792Y-136085000D01*
X145894792Y-136085000D02*
X144514792Y-136085000D01*
X168765000Y-95332000D02*
X168765000Y-102952000D01*
X168765000Y-102952000D02*
X178925000Y-102952000D01*
X178925000Y-95332000D02*
X168765000Y-95332000D01*
X178925000Y-101682000D02*
X168765000Y-101682000D01*
X178925000Y-102952000D02*
X178925000Y-95332000D01*
X138265000Y-95325000D02*
X138265000Y-102945000D01*
X138265000Y-102945000D02*
X148425000Y-102945000D01*
X148425000Y-95325000D02*
X138265000Y-95325000D01*
X148425000Y-101675000D02*
X138265000Y-101675000D01*
X148425000Y-102945000D02*
X148425000Y-95325000D01*
X200945000Y-106075000D02*
X202325000Y-106075000D01*
X200945000Y-107455000D02*
X200945000Y-106075000D01*
X200945000Y-108725000D02*
X200945000Y-121535000D01*
X200945000Y-108725000D02*
X203705000Y-108725000D01*
X200945000Y-121535000D02*
X203705000Y-121535000D01*
X203705000Y-108725000D02*
X203705000Y-121535000D01*
X158605000Y-95332000D02*
X158605000Y-102952000D01*
X158605000Y-102952000D02*
X168765000Y-102952000D01*
X168765000Y-95332000D02*
X158605000Y-95332000D01*
X168765000Y-101682000D02*
X158605000Y-101682000D01*
X168765000Y-102952000D02*
X168765000Y-95332000D01*
X162094688Y-124271000D02*
X162094688Y-139511000D01*
X162094688Y-124271000D02*
X169714688Y-124271000D01*
X162094688Y-139511000D02*
X169714688Y-139511000D01*
X163364688Y-124271000D02*
X163364688Y-139511000D01*
X169714688Y-124271000D02*
X169714688Y-139511000D01*
X137695000Y-108615000D02*
X148115000Y-108615000D01*
X137695000Y-116495000D02*
X137695000Y-108615000D01*
X140235000Y-103535000D02*
X140235000Y-108615000D01*
X140235000Y-121575000D02*
X140235000Y-116495000D01*
X140235000Y-121575000D02*
X183675000Y-121575000D01*
X142905000Y-106205000D02*
X142905000Y-103535000D01*
X142905000Y-118905000D02*
X142905000Y-121575000D01*
X148115000Y-108615000D02*
X148115000Y-116495000D01*
X148115000Y-116495000D02*
X137695000Y-116495000D01*
X178465000Y-103535000D02*
X140235000Y-103535000D01*
X178465000Y-106205000D02*
X142905000Y-106205000D01*
X178465000Y-106205000D02*
X178465000Y-103535000D01*
X178465000Y-106205000D02*
X181005000Y-106205000D01*
X181005000Y-106205000D02*
X181005000Y-103535000D01*
X181005000Y-118905000D02*
X142905000Y-118905000D01*
X181005000Y-118905000D02*
X181005000Y-121575000D01*
X183675000Y-103535000D02*
X181005000Y-103535000D01*
X183675000Y-121575000D02*
X183675000Y-103535000D01*
M02*
