G04 #@! TF.GenerationSoftware,KiCad,Pcbnew,9.0.4*
G04 #@! TF.CreationDate,2025-10-29T14:56:39-04:00*
G04 #@! TF.ProjectId,ArduinoBoard,41726475-696e-46f4-926f-6172642e6b69,1*
G04 #@! TF.SameCoordinates,Original*
G04 #@! TF.FileFunction,Profile,NP*
%FSLAX46Y46*%
G04 Gerber Fmt 4.6, Leading zero omitted, Abs format (unit mm)*
G04 Created by KiCad (PCBNEW 9.0.4) date 2025-10-29 14:56:39*
%MOMM*%
%LPD*%
G01*
G04 APERTURE LIST*
G04 #@! TA.AperFunction,Profile*
%ADD10C,0.200000*%
G04 #@! TD*
G04 #@! TA.AperFunction,Profile*
%ADD11C,0.050000*%
G04 #@! TD*
G04 APERTURE END LIST*
D10*
X99360208Y-110360000D02*
X99360208Y-107560000D01*
X97865208Y-108960000D02*
X100855208Y-108960000D01*
D11*
X105368382Y-108950000D02*
G75*
G02*
X93381618Y-108950000I-5993382J0D01*
G01*
X93381618Y-108950000D02*
G75*
G02*
X105368382Y-108950000I5993382J0D01*
G01*
X58610000Y-94910000D02*
G75*
G02*
X55610000Y-94910000I-1500000J0D01*
G01*
X55610000Y-94910000D02*
G75*
G02*
X58610000Y-94910000I1500000J0D01*
G01*
X58610000Y-127310000D02*
G75*
G02*
X55610000Y-127310000I-1500000J0D01*
G01*
X55610000Y-127310000D02*
G75*
G02*
X58610000Y-127310000I1500000J0D01*
G01*
X106640000Y-127310000D02*
G75*
G02*
X103640000Y-127310000I-1500000J0D01*
G01*
X103640000Y-127310000D02*
G75*
G02*
X106640000Y-127310000I1500000J0D01*
G01*
X106640000Y-94910000D02*
G75*
G02*
X103640000Y-94910000I-1500000J0D01*
G01*
X103640000Y-94910000D02*
G75*
G02*
X106640000Y-94910000I1500000J0D01*
G01*
X100810000Y-41960000D02*
G75*
G02*
X97810000Y-41960000I-1500000J0D01*
G01*
X97810000Y-41960000D02*
G75*
G02*
X100810000Y-41960000I1500000J0D01*
G01*
X100810000Y-89970000D02*
G75*
G02*
X97810000Y-89970000I-1500000J0D01*
G01*
X97810000Y-89970000D02*
G75*
G02*
X100810000Y-89970000I1500000J0D01*
G01*
X42810000Y-89960000D02*
G75*
G02*
X39810000Y-89960000I-1500000J0D01*
G01*
X39810000Y-89960000D02*
G75*
G02*
X42810000Y-89960000I1500000J0D01*
G01*
X42810000Y-41960000D02*
G75*
G02*
X39810000Y-41960000I-1500000J0D01*
G01*
X39810000Y-41960000D02*
G75*
G02*
X42810000Y-41960000I1500000J0D01*
G01*
X55109996Y-92910003D02*
X107110000Y-92910000D01*
X39310000Y-39960000D02*
X109310000Y-39960000D01*
X109310000Y-91960000D01*
X39310000Y-91960000D01*
X39310000Y-39960000D01*
X55110000Y-129310000D02*
X107110000Y-129310000D01*
X55110000Y-129310000D02*
X55109996Y-92910003D01*
X107140104Y-92894000D02*
X107140104Y-129294000D01*
M02*
