G04 #@! TF.GenerationSoftware,KiCad,Pcbnew,9.0.4*
G04 #@! TF.CreationDate,2025-10-29T14:56:39-04:00*
G04 #@! TF.ProjectId,ArduinoBoard,41726475-696e-46f4-926f-6172642e6b69,1*
G04 #@! TF.SameCoordinates,Original*
G04 #@! TF.FileFunction,Other,User*
%FSLAX46Y46*%
G04 Gerber Fmt 4.6, Leading zero omitted, Abs format (unit mm)*
G04 Created by KiCad (PCBNEW 9.0.4) date 2025-10-29 14:56:39*
%MOMM*%
%LPD*%
G01*
G04 APERTURE LIST*
%ADD10C,0.050000*%
G04 APERTURE END LIST*
D10*
X89260000Y-96090000D02*
X89260000Y-92550000D01*
X89260000Y-92550000D02*
X73020000Y-92550000D01*
X73020000Y-96090000D02*
X89260000Y-96090000D01*
X73020000Y-92550000D02*
X73020000Y-96090000D01*
X53860000Y-47297000D02*
X53860000Y-55297000D01*
X53860000Y-47297000D02*
X64360000Y-47297000D01*
X64360000Y-55297000D02*
X53860000Y-55297000D01*
X64360000Y-55297000D02*
X64360000Y-47297000D01*
X89940000Y-70282500D02*
X89940000Y-73822500D01*
X89940000Y-73822500D02*
X101100000Y-73822500D01*
X101100000Y-70282500D02*
X89940000Y-70282500D01*
X101100000Y-73822500D02*
X101100000Y-70282500D01*
X45779792Y-77480000D02*
X45779792Y-88640000D01*
X45779792Y-88640000D02*
X51869792Y-88640000D01*
X51869792Y-77480000D02*
X45779792Y-77480000D01*
X51869792Y-88640000D02*
X51869792Y-77480000D01*
X74180000Y-47307000D02*
X74180000Y-55307000D01*
X74180000Y-47307000D02*
X84680000Y-47307000D01*
X84680000Y-55307000D02*
X74180000Y-55307000D01*
X84680000Y-55307000D02*
X84680000Y-47307000D01*
X82720000Y-105940000D02*
X82720000Y-117100000D01*
X82720000Y-117100000D02*
X86260000Y-117100000D01*
X86260000Y-105940000D02*
X82720000Y-105940000D01*
X86260000Y-117100000D02*
X86260000Y-105940000D01*
X43680000Y-47300000D02*
X43680000Y-55300000D01*
X43680000Y-47300000D02*
X54180000Y-47300000D01*
X54180000Y-55300000D02*
X43680000Y-55300000D01*
X54180000Y-55300000D02*
X54180000Y-47300000D01*
X106140000Y-57850000D02*
X106140000Y-74090000D01*
X106140000Y-74090000D02*
X109680000Y-74090000D01*
X109680000Y-57850000D02*
X106140000Y-57850000D01*
X109680000Y-74090000D02*
X109680000Y-57850000D01*
X64020000Y-47307000D02*
X64020000Y-55307000D01*
X64020000Y-47307000D02*
X74520000Y-47307000D01*
X74520000Y-55307000D02*
X64020000Y-55307000D01*
X74520000Y-55307000D02*
X74520000Y-47307000D01*
X67489688Y-91856000D02*
X67489688Y-76256000D01*
X67489688Y-91856000D02*
X75489688Y-91856000D01*
X75489688Y-76256000D02*
X67489688Y-76256000D01*
X75489688Y-76256000D02*
X75489688Y-91856000D01*
X43160000Y-73850000D02*
X43160000Y-55570000D01*
X43160000Y-73850000D02*
X89380000Y-73850000D01*
X89380000Y-55570000D02*
X43160000Y-55570000D01*
X89380000Y-55570000D02*
X89380000Y-73850000D01*
M02*
