M48
; DRILL file {KiCad 9.0.7} date 2026-03-13T14:34:24-0400
; FORMAT={-:-/ absolute / metric / decimal}
; #@! TF.CreationDate,2026-03-13T14:34:24-04:00
; #@! TF.GenerationSoftware,Kicad,Pcbnew,9.0.7
; #@! TF.FileFunction,Plated,1,2,PTH
FMAT,2
METRIC
; #@! TA.AperFunction,Plated,PTH,ComponentDrill
T1C1.000
%
G90
G05
T1
X140.805Y-99.135
X141.975Y-127.085
X141.975Y-129.625
X141.975Y-132.165
X141.975Y-134.705
X144.175Y-104.935
X144.175Y-120.175
X144.515Y-127.085
X144.515Y-129.625
X144.515Y-132.165
X144.515Y-134.705
X145.885Y-99.135
X146.715Y-104.935
X146.715Y-120.175
X149.255Y-104.935
X149.255Y-120.175
X150.985Y-99.132
X151.795Y-104.935
X151.795Y-120.175
X154.335Y-104.935
X154.335Y-120.175
X156.065Y-99.132
X156.875Y-104.935
X156.875Y-120.175
X159.415Y-104.935
X159.415Y-120.175
X161.145Y-99.142
X161.955Y-104.935
X161.955Y-120.175
X164.495Y-104.935
X164.495Y-120.175
X165.905Y-126.811
X165.905Y-131.891
X165.905Y-136.971
X166.225Y-99.142
X167.035Y-104.935
X167.035Y-120.175
X169.575Y-104.935
X169.575Y-120.175
X171.305Y-99.142
X172.115Y-104.935
X172.115Y-120.175
X174.655Y-104.935
X174.655Y-120.175
X176.385Y-99.142
X177.195Y-104.935
X177.195Y-120.175
X179.735Y-104.935
X179.735Y-120.175
X186.125Y-119.887
X188.665Y-119.887
X191.205Y-119.887
X193.745Y-119.887
X202.325Y-107.455
X202.325Y-109.995
X202.325Y-112.535
X202.325Y-115.075
X202.325Y-117.615
X202.325Y-120.155
M30
