G04 #@! TF.GenerationSoftware,KiCad,Pcbnew,9.0.4*
G04 #@! TF.CreationDate,2025-10-29T14:56:39-04:00*
G04 #@! TF.ProjectId,ArduinoBoard,41726475-696e-46f4-926f-6172642e6b69,1*
G04 #@! TF.SameCoordinates,Original*
G04 #@! TF.FileFunction,Legend,Bot*
G04 #@! TF.FilePolarity,Positive*
%FSLAX46Y46*%
G04 Gerber Fmt 4.6, Leading zero omitted, Abs format (unit mm)*
G04 Created by KiCad (PCBNEW 9.0.4) date 2025-10-29 14:56:39*
%MOMM*%
%LPD*%
G01*
G04 APERTURE LIST*
%ADD10C,0.100000*%
%ADD11C,0.200000*%
%ADD12C,0.150000*%
%ADD13C,0.175000*%
G04 APERTURE END LIST*
D10*
X60977500Y-80321250D02*
X62502500Y-80318750D01*
X89310000Y-73750000D02*
X89310000Y-55350000D01*
X53971042Y-83560000D02*
X58348542Y-83560000D01*
X53700000Y-67700000D02*
X53700000Y-60780000D01*
X54000000Y-40200000D02*
X54000000Y-43290000D01*
X62545000Y-76020000D02*
X62545000Y-89405000D01*
X89940000Y-52050000D02*
X98740000Y-52050000D01*
X45850000Y-55440105D02*
X50510000Y-55440000D01*
X58351042Y-77760000D02*
X58351042Y-88625000D01*
X56151042Y-77760000D02*
X56151042Y-88625000D01*
X56760456Y-55315407D02*
X74050000Y-55315338D01*
X60987500Y-84881250D02*
X62512500Y-84878750D01*
X89940000Y-73750000D02*
X89940000Y-52050000D01*
X60940000Y-76020000D02*
X64150000Y-76020000D01*
X64150000Y-89405000D01*
X60940000Y-89405000D01*
X60940000Y-76020000D01*
X45470000Y-60780000D02*
X53700000Y-60780000D01*
X53971042Y-77780000D02*
X59718542Y-77780000D01*
X59718542Y-88625000D01*
X53971042Y-88625000D01*
X53971042Y-77780000D01*
X53971042Y-80760000D02*
X58348542Y-80760000D01*
X79826438Y-55380000D02*
X84590000Y-55380000D01*
X45850000Y-60800000D02*
X45850000Y-55440105D01*
X53971042Y-85960000D02*
X58348542Y-85960000D01*
X51620000Y-74180000D02*
X60910000Y-74180000D01*
D11*
X61367790Y-86400476D02*
X61329695Y-86324286D01*
X61329695Y-86324286D02*
X61329695Y-86210000D01*
X61329695Y-86210000D02*
X61367790Y-86095714D01*
X61367790Y-86095714D02*
X61443980Y-86019524D01*
X61443980Y-86019524D02*
X61520171Y-85981429D01*
X61520171Y-85981429D02*
X61672552Y-85943333D01*
X61672552Y-85943333D02*
X61786838Y-85943333D01*
X61786838Y-85943333D02*
X61939219Y-85981429D01*
X61939219Y-85981429D02*
X62015409Y-86019524D01*
X62015409Y-86019524D02*
X62091600Y-86095714D01*
X62091600Y-86095714D02*
X62129695Y-86210000D01*
X62129695Y-86210000D02*
X62129695Y-86286191D01*
X62129695Y-86286191D02*
X62091600Y-86400476D01*
X62091600Y-86400476D02*
X62053504Y-86438572D01*
X62053504Y-86438572D02*
X61786838Y-86438572D01*
X61786838Y-86438572D02*
X61786838Y-86286191D01*
X62129695Y-86781429D02*
X61329695Y-86781429D01*
X61329695Y-86781429D02*
X62129695Y-87238572D01*
X62129695Y-87238572D02*
X61329695Y-87238572D01*
X62129695Y-87619524D02*
X61329695Y-87619524D01*
X61329695Y-87619524D02*
X61329695Y-87810000D01*
X61329695Y-87810000D02*
X61367790Y-87924286D01*
X61367790Y-87924286D02*
X61443980Y-88000476D01*
X61443980Y-88000476D02*
X61520171Y-88038571D01*
X61520171Y-88038571D02*
X61672552Y-88076667D01*
X61672552Y-88076667D02*
X61786838Y-88076667D01*
X61786838Y-88076667D02*
X61939219Y-88038571D01*
X61939219Y-88038571D02*
X62015409Y-88000476D01*
X62015409Y-88000476D02*
X62091600Y-87924286D01*
X62091600Y-87924286D02*
X62129695Y-87810000D01*
X62129695Y-87810000D02*
X62129695Y-87619524D01*
X62139695Y-77830952D02*
X61758742Y-77564285D01*
X62139695Y-77373809D02*
X61339695Y-77373809D01*
X61339695Y-77373809D02*
X61339695Y-77678571D01*
X61339695Y-77678571D02*
X61377790Y-77754761D01*
X61377790Y-77754761D02*
X61415885Y-77792856D01*
X61415885Y-77792856D02*
X61492076Y-77830952D01*
X61492076Y-77830952D02*
X61606361Y-77830952D01*
X61606361Y-77830952D02*
X61682552Y-77792856D01*
X61682552Y-77792856D02*
X61720647Y-77754761D01*
X61720647Y-77754761D02*
X61758742Y-77678571D01*
X61758742Y-77678571D02*
X61758742Y-77373809D01*
X61720647Y-78173809D02*
X61720647Y-78440475D01*
X62139695Y-78554761D02*
X62139695Y-78173809D01*
X62139695Y-78173809D02*
X61339695Y-78173809D01*
X61339695Y-78173809D02*
X61339695Y-78554761D01*
X61339695Y-78783333D02*
X61339695Y-79240476D01*
X62139695Y-79011904D02*
X61339695Y-79011904D01*
D12*
X55469813Y-81531429D02*
X55184099Y-81331429D01*
X55469813Y-81188572D02*
X54869813Y-81188572D01*
X54869813Y-81188572D02*
X54869813Y-81417143D01*
X54869813Y-81417143D02*
X54898384Y-81474286D01*
X54898384Y-81474286D02*
X54926956Y-81502857D01*
X54926956Y-81502857D02*
X54984099Y-81531429D01*
X54984099Y-81531429D02*
X55069813Y-81531429D01*
X55069813Y-81531429D02*
X55126956Y-81502857D01*
X55126956Y-81502857D02*
X55155527Y-81474286D01*
X55155527Y-81474286D02*
X55184099Y-81417143D01*
X55184099Y-81417143D02*
X55184099Y-81188572D01*
X55526956Y-81645715D02*
X55526956Y-82102857D01*
X55155527Y-82245715D02*
X55155527Y-82445715D01*
X55469813Y-82531429D02*
X55469813Y-82245715D01*
X55469813Y-82245715D02*
X54869813Y-82245715D01*
X54869813Y-82245715D02*
X54869813Y-82531429D01*
X55469813Y-82788572D02*
X54869813Y-82788572D01*
X54869813Y-82788572D02*
X55469813Y-83131429D01*
X55469813Y-83131429D02*
X54869813Y-83131429D01*
D11*
X92263437Y-54683006D02*
X92311056Y-54825863D01*
X92311056Y-54825863D02*
X92358675Y-54873482D01*
X92358675Y-54873482D02*
X92453913Y-54921101D01*
X92453913Y-54921101D02*
X92596770Y-54921101D01*
X92596770Y-54921101D02*
X92692008Y-54873482D01*
X92692008Y-54873482D02*
X92739628Y-54825863D01*
X92739628Y-54825863D02*
X92787247Y-54730625D01*
X92787247Y-54730625D02*
X92787247Y-54349673D01*
X92787247Y-54349673D02*
X91787247Y-54349673D01*
X91787247Y-54349673D02*
X91787247Y-54683006D01*
X91787247Y-54683006D02*
X91834866Y-54778244D01*
X91834866Y-54778244D02*
X91882485Y-54825863D01*
X91882485Y-54825863D02*
X91977723Y-54873482D01*
X91977723Y-54873482D02*
X92072961Y-54873482D01*
X92072961Y-54873482D02*
X92168199Y-54825863D01*
X92168199Y-54825863D02*
X92215818Y-54778244D01*
X92215818Y-54778244D02*
X92263437Y-54683006D01*
X92263437Y-54683006D02*
X92263437Y-54349673D01*
X92120580Y-55778244D02*
X92787247Y-55778244D01*
X92120580Y-55349673D02*
X92644389Y-55349673D01*
X92644389Y-55349673D02*
X92739628Y-55397292D01*
X92739628Y-55397292D02*
X92787247Y-55492530D01*
X92787247Y-55492530D02*
X92787247Y-55635387D01*
X92787247Y-55635387D02*
X92739628Y-55730625D01*
X92739628Y-55730625D02*
X92692008Y-55778244D01*
X92739628Y-56683006D02*
X92787247Y-56587768D01*
X92787247Y-56587768D02*
X92787247Y-56397292D01*
X92787247Y-56397292D02*
X92739628Y-56302054D01*
X92739628Y-56302054D02*
X92692008Y-56254435D01*
X92692008Y-56254435D02*
X92596770Y-56206816D01*
X92596770Y-56206816D02*
X92311056Y-56206816D01*
X92311056Y-56206816D02*
X92215818Y-56254435D01*
X92215818Y-56254435D02*
X92168199Y-56302054D01*
X92168199Y-56302054D02*
X92120580Y-56397292D01*
X92120580Y-56397292D02*
X92120580Y-56587768D01*
X92120580Y-56587768D02*
X92168199Y-56683006D01*
X92787247Y-57111578D02*
X91787247Y-57111578D01*
X92406294Y-57206816D02*
X92787247Y-57492530D01*
X92120580Y-57492530D02*
X92501532Y-57111578D01*
X92692008Y-59254435D02*
X92739628Y-59206816D01*
X92739628Y-59206816D02*
X92787247Y-59063959D01*
X92787247Y-59063959D02*
X92787247Y-58968721D01*
X92787247Y-58968721D02*
X92739628Y-58825864D01*
X92739628Y-58825864D02*
X92644389Y-58730626D01*
X92644389Y-58730626D02*
X92549151Y-58683007D01*
X92549151Y-58683007D02*
X92358675Y-58635388D01*
X92358675Y-58635388D02*
X92215818Y-58635388D01*
X92215818Y-58635388D02*
X92025342Y-58683007D01*
X92025342Y-58683007D02*
X91930104Y-58730626D01*
X91930104Y-58730626D02*
X91834866Y-58825864D01*
X91834866Y-58825864D02*
X91787247Y-58968721D01*
X91787247Y-58968721D02*
X91787247Y-59063959D01*
X91787247Y-59063959D02*
X91834866Y-59206816D01*
X91834866Y-59206816D02*
X91882485Y-59254435D01*
X92787247Y-59825864D02*
X92739628Y-59730626D01*
X92739628Y-59730626D02*
X92692008Y-59683007D01*
X92692008Y-59683007D02*
X92596770Y-59635388D01*
X92596770Y-59635388D02*
X92311056Y-59635388D01*
X92311056Y-59635388D02*
X92215818Y-59683007D01*
X92215818Y-59683007D02*
X92168199Y-59730626D01*
X92168199Y-59730626D02*
X92120580Y-59825864D01*
X92120580Y-59825864D02*
X92120580Y-59968721D01*
X92120580Y-59968721D02*
X92168199Y-60063959D01*
X92168199Y-60063959D02*
X92215818Y-60111578D01*
X92215818Y-60111578D02*
X92311056Y-60159197D01*
X92311056Y-60159197D02*
X92596770Y-60159197D01*
X92596770Y-60159197D02*
X92692008Y-60111578D01*
X92692008Y-60111578D02*
X92739628Y-60063959D01*
X92739628Y-60063959D02*
X92787247Y-59968721D01*
X92787247Y-59968721D02*
X92787247Y-59825864D01*
X92120580Y-60587769D02*
X92787247Y-60587769D01*
X92215818Y-60587769D02*
X92168199Y-60635388D01*
X92168199Y-60635388D02*
X92120580Y-60730626D01*
X92120580Y-60730626D02*
X92120580Y-60873483D01*
X92120580Y-60873483D02*
X92168199Y-60968721D01*
X92168199Y-60968721D02*
X92263437Y-61016340D01*
X92263437Y-61016340D02*
X92787247Y-61016340D01*
X92120580Y-61397293D02*
X92787247Y-61635388D01*
X92787247Y-61635388D02*
X92120580Y-61873483D01*
X92739628Y-62635388D02*
X92787247Y-62540150D01*
X92787247Y-62540150D02*
X92787247Y-62349674D01*
X92787247Y-62349674D02*
X92739628Y-62254436D01*
X92739628Y-62254436D02*
X92644389Y-62206817D01*
X92644389Y-62206817D02*
X92263437Y-62206817D01*
X92263437Y-62206817D02*
X92168199Y-62254436D01*
X92168199Y-62254436D02*
X92120580Y-62349674D01*
X92120580Y-62349674D02*
X92120580Y-62540150D01*
X92120580Y-62540150D02*
X92168199Y-62635388D01*
X92168199Y-62635388D02*
X92263437Y-62683007D01*
X92263437Y-62683007D02*
X92358675Y-62683007D01*
X92358675Y-62683007D02*
X92453913Y-62206817D01*
X92787247Y-63111579D02*
X92120580Y-63111579D01*
X92311056Y-63111579D02*
X92215818Y-63159198D01*
X92215818Y-63159198D02*
X92168199Y-63206817D01*
X92168199Y-63206817D02*
X92120580Y-63302055D01*
X92120580Y-63302055D02*
X92120580Y-63397293D01*
X92120580Y-63587770D02*
X92120580Y-63968722D01*
X91787247Y-63730627D02*
X92644389Y-63730627D01*
X92644389Y-63730627D02*
X92739628Y-63778246D01*
X92739628Y-63778246D02*
X92787247Y-63873484D01*
X92787247Y-63873484D02*
X92787247Y-63968722D01*
X92739628Y-64683008D02*
X92787247Y-64587770D01*
X92787247Y-64587770D02*
X92787247Y-64397294D01*
X92787247Y-64397294D02*
X92739628Y-64302056D01*
X92739628Y-64302056D02*
X92644389Y-64254437D01*
X92644389Y-64254437D02*
X92263437Y-64254437D01*
X92263437Y-64254437D02*
X92168199Y-64302056D01*
X92168199Y-64302056D02*
X92120580Y-64397294D01*
X92120580Y-64397294D02*
X92120580Y-64587770D01*
X92120580Y-64587770D02*
X92168199Y-64683008D01*
X92168199Y-64683008D02*
X92263437Y-64730627D01*
X92263437Y-64730627D02*
X92358675Y-64730627D01*
X92358675Y-64730627D02*
X92453913Y-64254437D01*
X92787247Y-65159199D02*
X92120580Y-65159199D01*
X92311056Y-65159199D02*
X92215818Y-65206818D01*
X92215818Y-65206818D02*
X92168199Y-65254437D01*
X92168199Y-65254437D02*
X92120580Y-65349675D01*
X92120580Y-65349675D02*
X92120580Y-65444913D01*
X94397191Y-54397292D02*
X94397191Y-54587768D01*
X94397191Y-54587768D02*
X94349572Y-54683006D01*
X94349572Y-54683006D02*
X94301952Y-54730625D01*
X94301952Y-54730625D02*
X94159095Y-54825863D01*
X94159095Y-54825863D02*
X93968619Y-54873482D01*
X93968619Y-54873482D02*
X93587667Y-54873482D01*
X93587667Y-54873482D02*
X93492429Y-54825863D01*
X93492429Y-54825863D02*
X93444810Y-54778244D01*
X93444810Y-54778244D02*
X93397191Y-54683006D01*
X93397191Y-54683006D02*
X93397191Y-54492530D01*
X93397191Y-54492530D02*
X93444810Y-54397292D01*
X93444810Y-54397292D02*
X93492429Y-54349673D01*
X93492429Y-54349673D02*
X93587667Y-54302054D01*
X93587667Y-54302054D02*
X93825762Y-54302054D01*
X93825762Y-54302054D02*
X93921000Y-54349673D01*
X93921000Y-54349673D02*
X93968619Y-54397292D01*
X93968619Y-54397292D02*
X94016238Y-54492530D01*
X94016238Y-54492530D02*
X94016238Y-54683006D01*
X94016238Y-54683006D02*
X93968619Y-54778244D01*
X93968619Y-54778244D02*
X93921000Y-54825863D01*
X93921000Y-54825863D02*
X93825762Y-54873482D01*
X93397191Y-55159197D02*
X94397191Y-55492530D01*
X94397191Y-55492530D02*
X93397191Y-55825863D01*
X93397191Y-57111578D02*
X93397191Y-57302054D01*
X93397191Y-57302054D02*
X93444810Y-57397292D01*
X93444810Y-57397292D02*
X93540048Y-57492530D01*
X93540048Y-57492530D02*
X93730524Y-57540149D01*
X93730524Y-57540149D02*
X94063857Y-57540149D01*
X94063857Y-57540149D02*
X94254333Y-57492530D01*
X94254333Y-57492530D02*
X94349572Y-57397292D01*
X94349572Y-57397292D02*
X94397191Y-57302054D01*
X94397191Y-57302054D02*
X94397191Y-57111578D01*
X94397191Y-57111578D02*
X94349572Y-57016340D01*
X94349572Y-57016340D02*
X94254333Y-56921102D01*
X94254333Y-56921102D02*
X94063857Y-56873483D01*
X94063857Y-56873483D02*
X93730524Y-56873483D01*
X93730524Y-56873483D02*
X93540048Y-56921102D01*
X93540048Y-56921102D02*
X93444810Y-57016340D01*
X93444810Y-57016340D02*
X93397191Y-57111578D01*
X93730524Y-58397292D02*
X94397191Y-58397292D01*
X93730524Y-57968721D02*
X94254333Y-57968721D01*
X94254333Y-57968721D02*
X94349572Y-58016340D01*
X94349572Y-58016340D02*
X94397191Y-58111578D01*
X94397191Y-58111578D02*
X94397191Y-58254435D01*
X94397191Y-58254435D02*
X94349572Y-58349673D01*
X94349572Y-58349673D02*
X94301952Y-58397292D01*
X93730524Y-58730626D02*
X93730524Y-59111578D01*
X93397191Y-58873483D02*
X94254333Y-58873483D01*
X94254333Y-58873483D02*
X94349572Y-58921102D01*
X94349572Y-58921102D02*
X94397191Y-59016340D01*
X94397191Y-59016340D02*
X94397191Y-59111578D01*
D12*
X55041242Y-86388571D02*
X55041242Y-86845714D01*
X55269813Y-86617142D02*
X54812670Y-86617142D01*
X54669813Y-87417142D02*
X54669813Y-87131428D01*
X54669813Y-87131428D02*
X54955527Y-87102856D01*
X54955527Y-87102856D02*
X54926956Y-87131428D01*
X54926956Y-87131428D02*
X54898384Y-87188571D01*
X54898384Y-87188571D02*
X54898384Y-87331428D01*
X54898384Y-87331428D02*
X54926956Y-87388571D01*
X54926956Y-87388571D02*
X54955527Y-87417142D01*
X54955527Y-87417142D02*
X55012670Y-87445713D01*
X55012670Y-87445713D02*
X55155527Y-87445713D01*
X55155527Y-87445713D02*
X55212670Y-87417142D01*
X55212670Y-87417142D02*
X55241242Y-87388571D01*
X55241242Y-87388571D02*
X55269813Y-87331428D01*
X55269813Y-87331428D02*
X55269813Y-87188571D01*
X55269813Y-87188571D02*
X55241242Y-87131428D01*
X55241242Y-87131428D02*
X55212670Y-87102856D01*
X54669813Y-87617142D02*
X55269813Y-87817142D01*
X55269813Y-87817142D02*
X54669813Y-88017142D01*
X57098384Y-86902857D02*
X57069813Y-86845715D01*
X57069813Y-86845715D02*
X57069813Y-86760000D01*
X57069813Y-86760000D02*
X57098384Y-86674286D01*
X57098384Y-86674286D02*
X57155527Y-86617143D01*
X57155527Y-86617143D02*
X57212670Y-86588572D01*
X57212670Y-86588572D02*
X57326956Y-86560000D01*
X57326956Y-86560000D02*
X57412670Y-86560000D01*
X57412670Y-86560000D02*
X57526956Y-86588572D01*
X57526956Y-86588572D02*
X57584099Y-86617143D01*
X57584099Y-86617143D02*
X57641242Y-86674286D01*
X57641242Y-86674286D02*
X57669813Y-86760000D01*
X57669813Y-86760000D02*
X57669813Y-86817143D01*
X57669813Y-86817143D02*
X57641242Y-86902857D01*
X57641242Y-86902857D02*
X57612670Y-86931429D01*
X57612670Y-86931429D02*
X57412670Y-86931429D01*
X57412670Y-86931429D02*
X57412670Y-86817143D01*
X57669813Y-87188572D02*
X57069813Y-87188572D01*
X57069813Y-87188572D02*
X57669813Y-87531429D01*
X57669813Y-87531429D02*
X57069813Y-87531429D01*
X57669813Y-87817143D02*
X57069813Y-87817143D01*
X57069813Y-87817143D02*
X57069813Y-87960000D01*
X57069813Y-87960000D02*
X57098384Y-88045714D01*
X57098384Y-88045714D02*
X57155527Y-88102857D01*
X57155527Y-88102857D02*
X57212670Y-88131428D01*
X57212670Y-88131428D02*
X57326956Y-88160000D01*
X57326956Y-88160000D02*
X57412670Y-88160000D01*
X57412670Y-88160000D02*
X57526956Y-88131428D01*
X57526956Y-88131428D02*
X57584099Y-88102857D01*
X57584099Y-88102857D02*
X57641242Y-88045714D01*
X57641242Y-88045714D02*
X57669813Y-87960000D01*
X57669813Y-87960000D02*
X57669813Y-87817143D01*
D11*
X63122054Y-63768495D02*
X63598244Y-63768495D01*
X63026816Y-63482780D02*
X63360149Y-64482780D01*
X63360149Y-64482780D02*
X63693482Y-63482780D01*
X64026816Y-63482780D02*
X64026816Y-64149447D01*
X64026816Y-63958971D02*
X64074435Y-64054209D01*
X64074435Y-64054209D02*
X64122054Y-64101828D01*
X64122054Y-64101828D02*
X64217292Y-64149447D01*
X64217292Y-64149447D02*
X64312530Y-64149447D01*
X65074435Y-63482780D02*
X65074435Y-64482780D01*
X65074435Y-63530400D02*
X64979197Y-63482780D01*
X64979197Y-63482780D02*
X64788721Y-63482780D01*
X64788721Y-63482780D02*
X64693483Y-63530400D01*
X64693483Y-63530400D02*
X64645864Y-63578019D01*
X64645864Y-63578019D02*
X64598245Y-63673257D01*
X64598245Y-63673257D02*
X64598245Y-63958971D01*
X64598245Y-63958971D02*
X64645864Y-64054209D01*
X64645864Y-64054209D02*
X64693483Y-64101828D01*
X64693483Y-64101828D02*
X64788721Y-64149447D01*
X64788721Y-64149447D02*
X64979197Y-64149447D01*
X64979197Y-64149447D02*
X65074435Y-64101828D01*
X65979197Y-64149447D02*
X65979197Y-63482780D01*
X65550626Y-64149447D02*
X65550626Y-63625638D01*
X65550626Y-63625638D02*
X65598245Y-63530400D01*
X65598245Y-63530400D02*
X65693483Y-63482780D01*
X65693483Y-63482780D02*
X65836340Y-63482780D01*
X65836340Y-63482780D02*
X65931578Y-63530400D01*
X65931578Y-63530400D02*
X65979197Y-63578019D01*
X66455388Y-63482780D02*
X66455388Y-64149447D01*
X66455388Y-64482780D02*
X66407769Y-64435161D01*
X66407769Y-64435161D02*
X66455388Y-64387542D01*
X66455388Y-64387542D02*
X66503007Y-64435161D01*
X66503007Y-64435161D02*
X66455388Y-64482780D01*
X66455388Y-64482780D02*
X66455388Y-64387542D01*
X66931578Y-64149447D02*
X66931578Y-63482780D01*
X66931578Y-64054209D02*
X66979197Y-64101828D01*
X66979197Y-64101828D02*
X67074435Y-64149447D01*
X67074435Y-64149447D02*
X67217292Y-64149447D01*
X67217292Y-64149447D02*
X67312530Y-64101828D01*
X67312530Y-64101828D02*
X67360149Y-64006590D01*
X67360149Y-64006590D02*
X67360149Y-63482780D01*
X67979197Y-63482780D02*
X67883959Y-63530400D01*
X67883959Y-63530400D02*
X67836340Y-63578019D01*
X67836340Y-63578019D02*
X67788721Y-63673257D01*
X67788721Y-63673257D02*
X67788721Y-63958971D01*
X67788721Y-63958971D02*
X67836340Y-64054209D01*
X67836340Y-64054209D02*
X67883959Y-64101828D01*
X67883959Y-64101828D02*
X67979197Y-64149447D01*
X67979197Y-64149447D02*
X68122054Y-64149447D01*
X68122054Y-64149447D02*
X68217292Y-64101828D01*
X68217292Y-64101828D02*
X68264911Y-64054209D01*
X68264911Y-64054209D02*
X68312530Y-63958971D01*
X68312530Y-63958971D02*
X68312530Y-63673257D01*
X68312530Y-63673257D02*
X68264911Y-63578019D01*
X68264911Y-63578019D02*
X68217292Y-63530400D01*
X68217292Y-63530400D02*
X68122054Y-63482780D01*
X68122054Y-63482780D02*
X67979197Y-63482780D01*
X69503007Y-63482780D02*
X69503007Y-64482780D01*
X69503007Y-64482780D02*
X70074435Y-63482780D01*
X70074435Y-63482780D02*
X70074435Y-64482780D01*
X70979197Y-63482780D02*
X70979197Y-64006590D01*
X70979197Y-64006590D02*
X70931578Y-64101828D01*
X70931578Y-64101828D02*
X70836340Y-64149447D01*
X70836340Y-64149447D02*
X70645864Y-64149447D01*
X70645864Y-64149447D02*
X70550626Y-64101828D01*
X70979197Y-63530400D02*
X70883959Y-63482780D01*
X70883959Y-63482780D02*
X70645864Y-63482780D01*
X70645864Y-63482780D02*
X70550626Y-63530400D01*
X70550626Y-63530400D02*
X70503007Y-63625638D01*
X70503007Y-63625638D02*
X70503007Y-63720876D01*
X70503007Y-63720876D02*
X70550626Y-63816114D01*
X70550626Y-63816114D02*
X70645864Y-63863733D01*
X70645864Y-63863733D02*
X70883959Y-63863733D01*
X70883959Y-63863733D02*
X70979197Y-63911352D01*
X71455388Y-64149447D02*
X71455388Y-63482780D01*
X71455388Y-64054209D02*
X71503007Y-64101828D01*
X71503007Y-64101828D02*
X71598245Y-64149447D01*
X71598245Y-64149447D02*
X71741102Y-64149447D01*
X71741102Y-64149447D02*
X71836340Y-64101828D01*
X71836340Y-64101828D02*
X71883959Y-64006590D01*
X71883959Y-64006590D02*
X71883959Y-63482780D01*
X72503007Y-63482780D02*
X72407769Y-63530400D01*
X72407769Y-63530400D02*
X72360150Y-63578019D01*
X72360150Y-63578019D02*
X72312531Y-63673257D01*
X72312531Y-63673257D02*
X72312531Y-63958971D01*
X72312531Y-63958971D02*
X72360150Y-64054209D01*
X72360150Y-64054209D02*
X72407769Y-64101828D01*
X72407769Y-64101828D02*
X72503007Y-64149447D01*
X72503007Y-64149447D02*
X72645864Y-64149447D01*
X72645864Y-64149447D02*
X72741102Y-64101828D01*
X72741102Y-64101828D02*
X72788721Y-64054209D01*
X72788721Y-64054209D02*
X72836340Y-63958971D01*
X72836340Y-63958971D02*
X72836340Y-63673257D01*
X72836340Y-63673257D02*
X72788721Y-63578019D01*
X72788721Y-63578019D02*
X72741102Y-63530400D01*
X72741102Y-63530400D02*
X72645864Y-63482780D01*
X72645864Y-63482780D02*
X72503007Y-63482780D01*
D13*
X59363275Y-79870000D02*
X58663275Y-79870000D01*
X58663275Y-79870000D02*
X59163275Y-80103334D01*
X59163275Y-80103334D02*
X58663275Y-80336667D01*
X58663275Y-80336667D02*
X59363275Y-80336667D01*
X58663275Y-80803334D02*
X58663275Y-80936667D01*
X58663275Y-80936667D02*
X58696608Y-81003334D01*
X58696608Y-81003334D02*
X58763275Y-81070000D01*
X58763275Y-81070000D02*
X58896608Y-81103334D01*
X58896608Y-81103334D02*
X59129942Y-81103334D01*
X59129942Y-81103334D02*
X59263275Y-81070000D01*
X59263275Y-81070000D02*
X59329942Y-81003334D01*
X59329942Y-81003334D02*
X59363275Y-80936667D01*
X59363275Y-80936667D02*
X59363275Y-80803334D01*
X59363275Y-80803334D02*
X59329942Y-80736667D01*
X59329942Y-80736667D02*
X59263275Y-80670000D01*
X59263275Y-80670000D02*
X59129942Y-80636667D01*
X59129942Y-80636667D02*
X58896608Y-80636667D01*
X58896608Y-80636667D02*
X58763275Y-80670000D01*
X58763275Y-80670000D02*
X58696608Y-80736667D01*
X58696608Y-80736667D02*
X58663275Y-80803334D01*
X58663275Y-81303333D02*
X58663275Y-81703333D01*
X59363275Y-81503333D02*
X58663275Y-81503333D01*
X58663275Y-82070000D02*
X58663275Y-82203333D01*
X58663275Y-82203333D02*
X58696608Y-82270000D01*
X58696608Y-82270000D02*
X58763275Y-82336666D01*
X58763275Y-82336666D02*
X58896608Y-82370000D01*
X58896608Y-82370000D02*
X59129942Y-82370000D01*
X59129942Y-82370000D02*
X59263275Y-82336666D01*
X59263275Y-82336666D02*
X59329942Y-82270000D01*
X59329942Y-82270000D02*
X59363275Y-82203333D01*
X59363275Y-82203333D02*
X59363275Y-82070000D01*
X59363275Y-82070000D02*
X59329942Y-82003333D01*
X59329942Y-82003333D02*
X59263275Y-81936666D01*
X59263275Y-81936666D02*
X59129942Y-81903333D01*
X59129942Y-81903333D02*
X58896608Y-81903333D01*
X58896608Y-81903333D02*
X58763275Y-81936666D01*
X58763275Y-81936666D02*
X58696608Y-82003333D01*
X58696608Y-82003333D02*
X58663275Y-82070000D01*
X59363275Y-83069999D02*
X59029942Y-82836666D01*
X59363275Y-82669999D02*
X58663275Y-82669999D01*
X58663275Y-82669999D02*
X58663275Y-82936666D01*
X58663275Y-82936666D02*
X58696608Y-83003333D01*
X58696608Y-83003333D02*
X58729942Y-83036666D01*
X58729942Y-83036666D02*
X58796608Y-83069999D01*
X58796608Y-83069999D02*
X58896608Y-83069999D01*
X58896608Y-83069999D02*
X58963275Y-83036666D01*
X58963275Y-83036666D02*
X58996608Y-83003333D01*
X58996608Y-83003333D02*
X59029942Y-82936666D01*
X59029942Y-82936666D02*
X59029942Y-82669999D01*
X59296608Y-84303332D02*
X59329942Y-84269999D01*
X59329942Y-84269999D02*
X59363275Y-84169999D01*
X59363275Y-84169999D02*
X59363275Y-84103332D01*
X59363275Y-84103332D02*
X59329942Y-84003332D01*
X59329942Y-84003332D02*
X59263275Y-83936666D01*
X59263275Y-83936666D02*
X59196608Y-83903332D01*
X59196608Y-83903332D02*
X59063275Y-83869999D01*
X59063275Y-83869999D02*
X58963275Y-83869999D01*
X58963275Y-83869999D02*
X58829942Y-83903332D01*
X58829942Y-83903332D02*
X58763275Y-83936666D01*
X58763275Y-83936666D02*
X58696608Y-84003332D01*
X58696608Y-84003332D02*
X58663275Y-84103332D01*
X58663275Y-84103332D02*
X58663275Y-84169999D01*
X58663275Y-84169999D02*
X58696608Y-84269999D01*
X58696608Y-84269999D02*
X58729942Y-84303332D01*
X58663275Y-84503332D02*
X58663275Y-84903332D01*
X59363275Y-84703332D02*
X58663275Y-84703332D01*
X59363275Y-85469999D02*
X59363275Y-85136665D01*
X59363275Y-85136665D02*
X58663275Y-85136665D01*
X59363275Y-86103332D02*
X59029942Y-85869999D01*
X59363275Y-85703332D02*
X58663275Y-85703332D01*
X58663275Y-85703332D02*
X58663275Y-85969999D01*
X58663275Y-85969999D02*
X58696608Y-86036666D01*
X58696608Y-86036666D02*
X58729942Y-86069999D01*
X58729942Y-86069999D02*
X58796608Y-86103332D01*
X58796608Y-86103332D02*
X58896608Y-86103332D01*
X58896608Y-86103332D02*
X58963275Y-86069999D01*
X58963275Y-86069999D02*
X58996608Y-86036666D01*
X58996608Y-86036666D02*
X59029942Y-85969999D01*
X59029942Y-85969999D02*
X59029942Y-85703332D01*
D12*
X57669813Y-78460000D02*
X57669813Y-78174286D01*
X57669813Y-78174286D02*
X57069813Y-78174286D01*
X57669813Y-78660000D02*
X57069813Y-78660000D01*
X57069813Y-78660000D02*
X57069813Y-78888571D01*
X57069813Y-78888571D02*
X57098384Y-78945714D01*
X57098384Y-78945714D02*
X57126956Y-78974285D01*
X57126956Y-78974285D02*
X57184099Y-79002857D01*
X57184099Y-79002857D02*
X57269813Y-79002857D01*
X57269813Y-79002857D02*
X57326956Y-78974285D01*
X57326956Y-78974285D02*
X57355527Y-78945714D01*
X57355527Y-78945714D02*
X57384099Y-78888571D01*
X57384099Y-78888571D02*
X57384099Y-78660000D01*
X57069813Y-79202857D02*
X57669813Y-79345714D01*
X57669813Y-79345714D02*
X57241242Y-79460000D01*
X57241242Y-79460000D02*
X57669813Y-79574285D01*
X57669813Y-79574285D02*
X57069813Y-79717143D01*
X57669813Y-79945714D02*
X57069813Y-79945714D01*
X57069813Y-79945714D02*
X57498384Y-80145714D01*
X57498384Y-80145714D02*
X57069813Y-80345714D01*
X57069813Y-80345714D02*
X57669813Y-80345714D01*
D11*
X61740647Y-81652857D02*
X61740647Y-81919523D01*
X62159695Y-82033809D02*
X62159695Y-81652857D01*
X62159695Y-81652857D02*
X61359695Y-81652857D01*
X61359695Y-81652857D02*
X61359695Y-82033809D01*
X61359695Y-82300476D02*
X62159695Y-82833810D01*
X61359695Y-82833810D02*
X62159695Y-82300476D01*
X61359695Y-83024286D02*
X61359695Y-83481429D01*
X62159695Y-83252857D02*
X61359695Y-83252857D01*
D12*
X55469813Y-84288571D02*
X55184099Y-84088571D01*
X55469813Y-83945714D02*
X54869813Y-83945714D01*
X54869813Y-83945714D02*
X54869813Y-84174285D01*
X54869813Y-84174285D02*
X54898384Y-84231428D01*
X54898384Y-84231428D02*
X54926956Y-84259999D01*
X54926956Y-84259999D02*
X54984099Y-84288571D01*
X54984099Y-84288571D02*
X55069813Y-84288571D01*
X55069813Y-84288571D02*
X55126956Y-84259999D01*
X55126956Y-84259999D02*
X55155527Y-84231428D01*
X55155527Y-84231428D02*
X55184099Y-84174285D01*
X55184099Y-84174285D02*
X55184099Y-83945714D01*
X55526956Y-84402857D02*
X55526956Y-84859999D01*
X55469813Y-85002857D02*
X54869813Y-85002857D01*
X55441242Y-85259999D02*
X55469813Y-85345714D01*
X55469813Y-85345714D02*
X55469813Y-85488571D01*
X55469813Y-85488571D02*
X55441242Y-85545714D01*
X55441242Y-85545714D02*
X55412670Y-85574285D01*
X55412670Y-85574285D02*
X55355527Y-85602856D01*
X55355527Y-85602856D02*
X55298384Y-85602856D01*
X55298384Y-85602856D02*
X55241242Y-85574285D01*
X55241242Y-85574285D02*
X55212670Y-85545714D01*
X55212670Y-85545714D02*
X55184099Y-85488571D01*
X55184099Y-85488571D02*
X55155527Y-85374285D01*
X55155527Y-85374285D02*
X55126956Y-85317142D01*
X55126956Y-85317142D02*
X55098384Y-85288571D01*
X55098384Y-85288571D02*
X55041242Y-85259999D01*
X55041242Y-85259999D02*
X54984099Y-85259999D01*
X54984099Y-85259999D02*
X54926956Y-85288571D01*
X54926956Y-85288571D02*
X54898384Y-85317142D01*
X54898384Y-85317142D02*
X54869813Y-85374285D01*
X54869813Y-85374285D02*
X54869813Y-85517142D01*
X54869813Y-85517142D02*
X54898384Y-85602856D01*
D11*
X63703100Y-76920001D02*
X63745957Y-77048573D01*
X63745957Y-77048573D02*
X63745957Y-77262858D01*
X63745957Y-77262858D02*
X63703100Y-77348573D01*
X63703100Y-77348573D02*
X63660242Y-77391430D01*
X63660242Y-77391430D02*
X63574528Y-77434287D01*
X63574528Y-77434287D02*
X63488814Y-77434287D01*
X63488814Y-77434287D02*
X63403100Y-77391430D01*
X63403100Y-77391430D02*
X63360242Y-77348573D01*
X63360242Y-77348573D02*
X63317385Y-77262858D01*
X63317385Y-77262858D02*
X63274528Y-77091430D01*
X63274528Y-77091430D02*
X63231671Y-77005715D01*
X63231671Y-77005715D02*
X63188814Y-76962858D01*
X63188814Y-76962858D02*
X63103100Y-76920001D01*
X63103100Y-76920001D02*
X63017385Y-76920001D01*
X63017385Y-76920001D02*
X62931671Y-76962858D01*
X62931671Y-76962858D02*
X62888814Y-77005715D01*
X62888814Y-77005715D02*
X62845957Y-77091430D01*
X62845957Y-77091430D02*
X62845957Y-77305715D01*
X62845957Y-77305715D02*
X62888814Y-77434287D01*
X62845957Y-77734287D02*
X63745957Y-77948573D01*
X63745957Y-77948573D02*
X63103100Y-78120001D01*
X63103100Y-78120001D02*
X63745957Y-78291430D01*
X63745957Y-78291430D02*
X62845957Y-78505716D01*
X63745957Y-78848572D02*
X62845957Y-78848572D01*
X62845957Y-79148572D02*
X62845957Y-79662858D01*
X63745957Y-79405715D02*
X62845957Y-79405715D01*
X63660242Y-80477143D02*
X63703100Y-80434286D01*
X63703100Y-80434286D02*
X63745957Y-80305714D01*
X63745957Y-80305714D02*
X63745957Y-80220000D01*
X63745957Y-80220000D02*
X63703100Y-80091429D01*
X63703100Y-80091429D02*
X63617385Y-80005714D01*
X63617385Y-80005714D02*
X63531671Y-79962857D01*
X63531671Y-79962857D02*
X63360242Y-79920000D01*
X63360242Y-79920000D02*
X63231671Y-79920000D01*
X63231671Y-79920000D02*
X63060242Y-79962857D01*
X63060242Y-79962857D02*
X62974528Y-80005714D01*
X62974528Y-80005714D02*
X62888814Y-80091429D01*
X62888814Y-80091429D02*
X62845957Y-80220000D01*
X62845957Y-80220000D02*
X62845957Y-80305714D01*
X62845957Y-80305714D02*
X62888814Y-80434286D01*
X62888814Y-80434286D02*
X62931671Y-80477143D01*
X63745957Y-80862857D02*
X62845957Y-80862857D01*
X63274528Y-80862857D02*
X63274528Y-81377143D01*
X63745957Y-81377143D02*
X62845957Y-81377143D01*
X62803100Y-82448571D02*
X63960242Y-81677143D01*
X63274528Y-83048571D02*
X63317385Y-83177143D01*
X63317385Y-83177143D02*
X63360242Y-83220000D01*
X63360242Y-83220000D02*
X63445957Y-83262857D01*
X63445957Y-83262857D02*
X63574528Y-83262857D01*
X63574528Y-83262857D02*
X63660242Y-83220000D01*
X63660242Y-83220000D02*
X63703100Y-83177143D01*
X63703100Y-83177143D02*
X63745957Y-83091428D01*
X63745957Y-83091428D02*
X63745957Y-82748571D01*
X63745957Y-82748571D02*
X62845957Y-82748571D01*
X62845957Y-82748571D02*
X62845957Y-83048571D01*
X62845957Y-83048571D02*
X62888814Y-83134286D01*
X62888814Y-83134286D02*
X62931671Y-83177143D01*
X62931671Y-83177143D02*
X63017385Y-83220000D01*
X63017385Y-83220000D02*
X63103100Y-83220000D01*
X63103100Y-83220000D02*
X63188814Y-83177143D01*
X63188814Y-83177143D02*
X63231671Y-83134286D01*
X63231671Y-83134286D02*
X63274528Y-83048571D01*
X63274528Y-83048571D02*
X63274528Y-82748571D01*
X62845957Y-83648571D02*
X63574528Y-83648571D01*
X63574528Y-83648571D02*
X63660242Y-83691428D01*
X63660242Y-83691428D02*
X63703100Y-83734286D01*
X63703100Y-83734286D02*
X63745957Y-83820000D01*
X63745957Y-83820000D02*
X63745957Y-83991428D01*
X63745957Y-83991428D02*
X63703100Y-84077143D01*
X63703100Y-84077143D02*
X63660242Y-84120000D01*
X63660242Y-84120000D02*
X63574528Y-84162857D01*
X63574528Y-84162857D02*
X62845957Y-84162857D01*
X62845957Y-84462857D02*
X62845957Y-84977143D01*
X63745957Y-84720000D02*
X62845957Y-84720000D01*
X62845957Y-85148571D02*
X62845957Y-85662857D01*
X63745957Y-85405714D02*
X62845957Y-85405714D01*
X62845957Y-86134285D02*
X62845957Y-86305713D01*
X62845957Y-86305713D02*
X62888814Y-86391428D01*
X62888814Y-86391428D02*
X62974528Y-86477142D01*
X62974528Y-86477142D02*
X63145957Y-86519999D01*
X63145957Y-86519999D02*
X63445957Y-86519999D01*
X63445957Y-86519999D02*
X63617385Y-86477142D01*
X63617385Y-86477142D02*
X63703100Y-86391428D01*
X63703100Y-86391428D02*
X63745957Y-86305713D01*
X63745957Y-86305713D02*
X63745957Y-86134285D01*
X63745957Y-86134285D02*
X63703100Y-86048571D01*
X63703100Y-86048571D02*
X63617385Y-85962856D01*
X63617385Y-85962856D02*
X63445957Y-85919999D01*
X63445957Y-85919999D02*
X63145957Y-85919999D01*
X63145957Y-85919999D02*
X62974528Y-85962856D01*
X62974528Y-85962856D02*
X62888814Y-86048571D01*
X62888814Y-86048571D02*
X62845957Y-86134285D01*
X63745957Y-86905713D02*
X62845957Y-86905713D01*
X62845957Y-86905713D02*
X63745957Y-87419999D01*
X63745957Y-87419999D02*
X62845957Y-87419999D01*
X63703100Y-87805713D02*
X63745957Y-87934285D01*
X63745957Y-87934285D02*
X63745957Y-88148570D01*
X63745957Y-88148570D02*
X63703100Y-88234285D01*
X63703100Y-88234285D02*
X63660242Y-88277142D01*
X63660242Y-88277142D02*
X63574528Y-88319999D01*
X63574528Y-88319999D02*
X63488814Y-88319999D01*
X63488814Y-88319999D02*
X63403100Y-88277142D01*
X63403100Y-88277142D02*
X63360242Y-88234285D01*
X63360242Y-88234285D02*
X63317385Y-88148570D01*
X63317385Y-88148570D02*
X63274528Y-87977142D01*
X63274528Y-87977142D02*
X63231671Y-87891427D01*
X63231671Y-87891427D02*
X63188814Y-87848570D01*
X63188814Y-87848570D02*
X63103100Y-87805713D01*
X63103100Y-87805713D02*
X63017385Y-87805713D01*
X63017385Y-87805713D02*
X62931671Y-87848570D01*
X62931671Y-87848570D02*
X62888814Y-87891427D01*
X62888814Y-87891427D02*
X62845957Y-87977142D01*
X62845957Y-87977142D02*
X62845957Y-88191427D01*
X62845957Y-88191427D02*
X62888814Y-88319999D01*
D12*
X57669813Y-81531429D02*
X57669813Y-81245715D01*
X57669813Y-81245715D02*
X57069813Y-81245715D01*
X57726956Y-81588572D02*
X57726956Y-82045714D01*
X57355527Y-82188572D02*
X57355527Y-82388572D01*
X57669813Y-82474286D02*
X57669813Y-82188572D01*
X57669813Y-82188572D02*
X57069813Y-82188572D01*
X57069813Y-82188572D02*
X57069813Y-82474286D01*
X57669813Y-82731429D02*
X57069813Y-82731429D01*
X57069813Y-82731429D02*
X57669813Y-83074286D01*
X57669813Y-83074286D02*
X57069813Y-83074286D01*
D10*
X90571503Y-95577524D02*
X90761979Y-95577524D01*
X90761979Y-95577524D02*
X90857217Y-95625144D01*
X90857217Y-95625144D02*
X90904836Y-95672763D01*
X90904836Y-95672763D02*
X91000074Y-95815620D01*
X91000074Y-95815620D02*
X91047693Y-96006096D01*
X91047693Y-96006096D02*
X91047693Y-96387048D01*
X91047693Y-96387048D02*
X91000074Y-96482286D01*
X91000074Y-96482286D02*
X90952455Y-96529905D01*
X90952455Y-96529905D02*
X90857217Y-96577524D01*
X90857217Y-96577524D02*
X90666741Y-96577524D01*
X90666741Y-96577524D02*
X90571503Y-96529905D01*
X90571503Y-96529905D02*
X90523884Y-96482286D01*
X90523884Y-96482286D02*
X90476265Y-96387048D01*
X90476265Y-96387048D02*
X90476265Y-96148953D01*
X90476265Y-96148953D02*
X90523884Y-96053715D01*
X90523884Y-96053715D02*
X90571503Y-96006096D01*
X90571503Y-96006096D02*
X90666741Y-95958477D01*
X90666741Y-95958477D02*
X90857217Y-95958477D01*
X90857217Y-95958477D02*
X90952455Y-96006096D01*
X90952455Y-96006096D02*
X91000074Y-96053715D01*
X91000074Y-96053715D02*
X91047693Y-96148953D01*
X91666741Y-96577524D02*
X91761979Y-96577524D01*
X91761979Y-96577524D02*
X91857217Y-96529905D01*
X91857217Y-96529905D02*
X91904836Y-96482286D01*
X91904836Y-96482286D02*
X91952455Y-96387048D01*
X91952455Y-96387048D02*
X92000074Y-96196572D01*
X92000074Y-96196572D02*
X92000074Y-95958477D01*
X92000074Y-95958477D02*
X91952455Y-95768001D01*
X91952455Y-95768001D02*
X91904836Y-95672763D01*
X91904836Y-95672763D02*
X91857217Y-95625144D01*
X91857217Y-95625144D02*
X91761979Y-95577524D01*
X91761979Y-95577524D02*
X91666741Y-95577524D01*
X91666741Y-95577524D02*
X91571503Y-95625144D01*
X91571503Y-95625144D02*
X91523884Y-95672763D01*
X91523884Y-95672763D02*
X91476265Y-95768001D01*
X91476265Y-95768001D02*
X91428646Y-95958477D01*
X91428646Y-95958477D02*
X91428646Y-96196572D01*
X91428646Y-96196572D02*
X91476265Y-96387048D01*
X91476265Y-96387048D02*
X91523884Y-96482286D01*
X91523884Y-96482286D02*
X91571503Y-96529905D01*
X91571503Y-96529905D02*
X91666741Y-96577524D01*
X93619122Y-95577524D02*
X93619122Y-96577524D01*
X93619122Y-95625144D02*
X93523884Y-95577524D01*
X93523884Y-95577524D02*
X93333408Y-95577524D01*
X93333408Y-95577524D02*
X93238170Y-95625144D01*
X93238170Y-95625144D02*
X93190551Y-95672763D01*
X93190551Y-95672763D02*
X93142932Y-95768001D01*
X93142932Y-95768001D02*
X93142932Y-96053715D01*
X93142932Y-96053715D02*
X93190551Y-96148953D01*
X93190551Y-96148953D02*
X93238170Y-96196572D01*
X93238170Y-96196572D02*
X93333408Y-96244191D01*
X93333408Y-96244191D02*
X93523884Y-96244191D01*
X93523884Y-96244191D02*
X93619122Y-96196572D01*
X94476265Y-95625144D02*
X94381027Y-95577524D01*
X94381027Y-95577524D02*
X94190551Y-95577524D01*
X94190551Y-95577524D02*
X94095313Y-95625144D01*
X94095313Y-95625144D02*
X94047694Y-95720382D01*
X94047694Y-95720382D02*
X94047694Y-96101334D01*
X94047694Y-96101334D02*
X94095313Y-96196572D01*
X94095313Y-96196572D02*
X94190551Y-96244191D01*
X94190551Y-96244191D02*
X94381027Y-96244191D01*
X94381027Y-96244191D02*
X94476265Y-96196572D01*
X94476265Y-96196572D02*
X94523884Y-96101334D01*
X94523884Y-96101334D02*
X94523884Y-96006096D01*
X94523884Y-96006096D02*
X94047694Y-95910858D01*
X95381027Y-96244191D02*
X95381027Y-95434667D01*
X95381027Y-95434667D02*
X95333408Y-95339429D01*
X95333408Y-95339429D02*
X95285789Y-95291810D01*
X95285789Y-95291810D02*
X95190551Y-95244191D01*
X95190551Y-95244191D02*
X95047694Y-95244191D01*
X95047694Y-95244191D02*
X94952456Y-95291810D01*
X95381027Y-95625144D02*
X95285789Y-95577524D01*
X95285789Y-95577524D02*
X95095313Y-95577524D01*
X95095313Y-95577524D02*
X95000075Y-95625144D01*
X95000075Y-95625144D02*
X94952456Y-95672763D01*
X94952456Y-95672763D02*
X94904837Y-95768001D01*
X94904837Y-95768001D02*
X94904837Y-96053715D01*
X94904837Y-96053715D02*
X94952456Y-96148953D01*
X94952456Y-96148953D02*
X95000075Y-96196572D01*
X95000075Y-96196572D02*
X95095313Y-96244191D01*
X95095313Y-96244191D02*
X95285789Y-96244191D01*
X95285789Y-96244191D02*
X95381027Y-96196572D01*
X90523884Y-93967580D02*
X90523884Y-94634247D01*
X90523884Y-94539009D02*
X90571503Y-94586628D01*
X90571503Y-94586628D02*
X90666741Y-94634247D01*
X90666741Y-94634247D02*
X90809598Y-94634247D01*
X90809598Y-94634247D02*
X90904836Y-94586628D01*
X90904836Y-94586628D02*
X90952455Y-94491390D01*
X90952455Y-94491390D02*
X90952455Y-93967580D01*
X90952455Y-94491390D02*
X91000074Y-94586628D01*
X91000074Y-94586628D02*
X91095312Y-94634247D01*
X91095312Y-94634247D02*
X91238169Y-94634247D01*
X91238169Y-94634247D02*
X91333408Y-94586628D01*
X91333408Y-94586628D02*
X91381027Y-94491390D01*
X91381027Y-94491390D02*
X91381027Y-93967580D01*
X92285788Y-93967580D02*
X92285788Y-94491390D01*
X92285788Y-94491390D02*
X92238169Y-94586628D01*
X92238169Y-94586628D02*
X92142931Y-94634247D01*
X92142931Y-94634247D02*
X91952455Y-94634247D01*
X91952455Y-94634247D02*
X91857217Y-94586628D01*
X92285788Y-94015200D02*
X92190550Y-93967580D01*
X92190550Y-93967580D02*
X91952455Y-93967580D01*
X91952455Y-93967580D02*
X91857217Y-94015200D01*
X91857217Y-94015200D02*
X91809598Y-94110438D01*
X91809598Y-94110438D02*
X91809598Y-94205676D01*
X91809598Y-94205676D02*
X91857217Y-94300914D01*
X91857217Y-94300914D02*
X91952455Y-94348533D01*
X91952455Y-94348533D02*
X92190550Y-94348533D01*
X92190550Y-94348533D02*
X92285788Y-94396152D01*
X92904836Y-93967580D02*
X92809598Y-94015200D01*
X92809598Y-94015200D02*
X92761979Y-94110438D01*
X92761979Y-94110438D02*
X92761979Y-94967580D01*
X93666741Y-94015200D02*
X93571503Y-93967580D01*
X93571503Y-93967580D02*
X93381027Y-93967580D01*
X93381027Y-93967580D02*
X93285789Y-94015200D01*
X93285789Y-94015200D02*
X93238170Y-94110438D01*
X93238170Y-94110438D02*
X93238170Y-94491390D01*
X93238170Y-94491390D02*
X93285789Y-94586628D01*
X93285789Y-94586628D02*
X93381027Y-94634247D01*
X93381027Y-94634247D02*
X93571503Y-94634247D01*
X93571503Y-94634247D02*
X93666741Y-94586628D01*
X93666741Y-94586628D02*
X93714360Y-94491390D01*
X93714360Y-94491390D02*
X93714360Y-94396152D01*
X93714360Y-94396152D02*
X93238170Y-94300914D01*
X94904837Y-94634247D02*
X94904837Y-93634247D01*
X94904837Y-94586628D02*
X95000075Y-94634247D01*
X95000075Y-94634247D02*
X95190551Y-94634247D01*
X95190551Y-94634247D02*
X95285789Y-94586628D01*
X95285789Y-94586628D02*
X95333408Y-94539009D01*
X95333408Y-94539009D02*
X95381027Y-94443771D01*
X95381027Y-94443771D02*
X95381027Y-94158057D01*
X95381027Y-94158057D02*
X95333408Y-94062819D01*
X95333408Y-94062819D02*
X95285789Y-94015200D01*
X95285789Y-94015200D02*
X95190551Y-93967580D01*
X95190551Y-93967580D02*
X95000075Y-93967580D01*
X95000075Y-93967580D02*
X94904837Y-94015200D01*
X95809599Y-93967580D02*
X95809599Y-94634247D01*
X95809599Y-94967580D02*
X95761980Y-94919961D01*
X95761980Y-94919961D02*
X95809599Y-94872342D01*
X95809599Y-94872342D02*
X95857218Y-94919961D01*
X95857218Y-94919961D02*
X95809599Y-94967580D01*
X95809599Y-94967580D02*
X95809599Y-94872342D01*
X96285789Y-94634247D02*
X96285789Y-93967580D01*
X96285789Y-94539009D02*
X96333408Y-94586628D01*
X96333408Y-94586628D02*
X96428646Y-94634247D01*
X96428646Y-94634247D02*
X96571503Y-94634247D01*
X96571503Y-94634247D02*
X96666741Y-94586628D01*
X96666741Y-94586628D02*
X96714360Y-94491390D01*
X96714360Y-94491390D02*
X96714360Y-93967580D01*
X97142932Y-94015200D02*
X97238170Y-93967580D01*
X97238170Y-93967580D02*
X97428646Y-93967580D01*
X97428646Y-93967580D02*
X97523884Y-94015200D01*
X97523884Y-94015200D02*
X97571503Y-94110438D01*
X97571503Y-94110438D02*
X97571503Y-94158057D01*
X97571503Y-94158057D02*
X97523884Y-94253295D01*
X97523884Y-94253295D02*
X97428646Y-94300914D01*
X97428646Y-94300914D02*
X97285789Y-94300914D01*
X97285789Y-94300914D02*
X97190551Y-94348533D01*
X97190551Y-94348533D02*
X97142932Y-94443771D01*
X97142932Y-94443771D02*
X97142932Y-94491390D01*
X97142932Y-94491390D02*
X97190551Y-94586628D01*
X97190551Y-94586628D02*
X97285789Y-94634247D01*
X97285789Y-94634247D02*
X97428646Y-94634247D01*
X97428646Y-94634247D02*
X97523884Y-94586628D01*
D12*
X55469813Y-78560000D02*
X55184099Y-78360000D01*
X55469813Y-78217143D02*
X54869813Y-78217143D01*
X54869813Y-78217143D02*
X54869813Y-78445714D01*
X54869813Y-78445714D02*
X54898384Y-78502857D01*
X54898384Y-78502857D02*
X54926956Y-78531428D01*
X54926956Y-78531428D02*
X54984099Y-78560000D01*
X54984099Y-78560000D02*
X55069813Y-78560000D01*
X55069813Y-78560000D02*
X55126956Y-78531428D01*
X55126956Y-78531428D02*
X55155527Y-78502857D01*
X55155527Y-78502857D02*
X55184099Y-78445714D01*
X55184099Y-78445714D02*
X55184099Y-78217143D01*
X55469813Y-78817143D02*
X54869813Y-78817143D01*
X54869813Y-78817143D02*
X54869813Y-79045714D01*
X54869813Y-79045714D02*
X54898384Y-79102857D01*
X54898384Y-79102857D02*
X54926956Y-79131428D01*
X54926956Y-79131428D02*
X54984099Y-79160000D01*
X54984099Y-79160000D02*
X55069813Y-79160000D01*
X55069813Y-79160000D02*
X55126956Y-79131428D01*
X55126956Y-79131428D02*
X55155527Y-79102857D01*
X55155527Y-79102857D02*
X55184099Y-79045714D01*
X55184099Y-79045714D02*
X55184099Y-78817143D01*
X54869813Y-79360000D02*
X55469813Y-79502857D01*
X55469813Y-79502857D02*
X55041242Y-79617143D01*
X55041242Y-79617143D02*
X55469813Y-79731428D01*
X55469813Y-79731428D02*
X54869813Y-79874286D01*
X55469813Y-80102857D02*
X54869813Y-80102857D01*
X54869813Y-80102857D02*
X55298384Y-80302857D01*
X55298384Y-80302857D02*
X54869813Y-80502857D01*
X54869813Y-80502857D02*
X55469813Y-80502857D01*
D11*
X49007219Y-63639673D02*
X49816742Y-63639673D01*
X49816742Y-63639673D02*
X49911980Y-63687292D01*
X49911980Y-63687292D02*
X49959600Y-63734911D01*
X49959600Y-63734911D02*
X50007219Y-63830149D01*
X50007219Y-63830149D02*
X50007219Y-64020625D01*
X50007219Y-64020625D02*
X49959600Y-64115863D01*
X49959600Y-64115863D02*
X49911980Y-64163482D01*
X49911980Y-64163482D02*
X49816742Y-64211101D01*
X49816742Y-64211101D02*
X49007219Y-64211101D01*
X49959600Y-64639673D02*
X50007219Y-64782530D01*
X50007219Y-64782530D02*
X50007219Y-65020625D01*
X50007219Y-65020625D02*
X49959600Y-65115863D01*
X49959600Y-65115863D02*
X49911980Y-65163482D01*
X49911980Y-65163482D02*
X49816742Y-65211101D01*
X49816742Y-65211101D02*
X49721504Y-65211101D01*
X49721504Y-65211101D02*
X49626266Y-65163482D01*
X49626266Y-65163482D02*
X49578647Y-65115863D01*
X49578647Y-65115863D02*
X49531028Y-65020625D01*
X49531028Y-65020625D02*
X49483409Y-64830149D01*
X49483409Y-64830149D02*
X49435790Y-64734911D01*
X49435790Y-64734911D02*
X49388171Y-64687292D01*
X49388171Y-64687292D02*
X49292933Y-64639673D01*
X49292933Y-64639673D02*
X49197695Y-64639673D01*
X49197695Y-64639673D02*
X49102457Y-64687292D01*
X49102457Y-64687292D02*
X49054838Y-64734911D01*
X49054838Y-64734911D02*
X49007219Y-64830149D01*
X49007219Y-64830149D02*
X49007219Y-65068244D01*
X49007219Y-65068244D02*
X49054838Y-65211101D01*
X49483409Y-65973006D02*
X49531028Y-66115863D01*
X49531028Y-66115863D02*
X49578647Y-66163482D01*
X49578647Y-66163482D02*
X49673885Y-66211101D01*
X49673885Y-66211101D02*
X49816742Y-66211101D01*
X49816742Y-66211101D02*
X49911980Y-66163482D01*
X49911980Y-66163482D02*
X49959600Y-66115863D01*
X49959600Y-66115863D02*
X50007219Y-66020625D01*
X50007219Y-66020625D02*
X50007219Y-65639673D01*
X50007219Y-65639673D02*
X49007219Y-65639673D01*
X49007219Y-65639673D02*
X49007219Y-65973006D01*
X49007219Y-65973006D02*
X49054838Y-66068244D01*
X49054838Y-66068244D02*
X49102457Y-66115863D01*
X49102457Y-66115863D02*
X49197695Y-66163482D01*
X49197695Y-66163482D02*
X49292933Y-66163482D01*
X49292933Y-66163482D02*
X49388171Y-66115863D01*
X49388171Y-66115863D02*
X49435790Y-66068244D01*
X49435790Y-66068244D02*
X49483409Y-65973006D01*
X49483409Y-65973006D02*
X49483409Y-65639673D01*
D12*
X57669813Y-84288571D02*
X57669813Y-84002857D01*
X57669813Y-84002857D02*
X57069813Y-84002857D01*
X57726956Y-84345714D02*
X57726956Y-84802856D01*
X57669813Y-84945714D02*
X57069813Y-84945714D01*
X57641242Y-85202856D02*
X57669813Y-85288571D01*
X57669813Y-85288571D02*
X57669813Y-85431428D01*
X57669813Y-85431428D02*
X57641242Y-85488571D01*
X57641242Y-85488571D02*
X57612670Y-85517142D01*
X57612670Y-85517142D02*
X57555527Y-85545713D01*
X57555527Y-85545713D02*
X57498384Y-85545713D01*
X57498384Y-85545713D02*
X57441242Y-85517142D01*
X57441242Y-85517142D02*
X57412670Y-85488571D01*
X57412670Y-85488571D02*
X57384099Y-85431428D01*
X57384099Y-85431428D02*
X57355527Y-85317142D01*
X57355527Y-85317142D02*
X57326956Y-85259999D01*
X57326956Y-85259999D02*
X57298384Y-85231428D01*
X57298384Y-85231428D02*
X57241242Y-85202856D01*
X57241242Y-85202856D02*
X57184099Y-85202856D01*
X57184099Y-85202856D02*
X57126956Y-85231428D01*
X57126956Y-85231428D02*
X57098384Y-85259999D01*
X57098384Y-85259999D02*
X57069813Y-85317142D01*
X57069813Y-85317142D02*
X57069813Y-85459999D01*
X57069813Y-85459999D02*
X57098384Y-85545713D01*
D11*
X47970238Y-40447780D02*
X47970238Y-41447780D01*
X47970238Y-41447780D02*
X48351190Y-41447780D01*
X48351190Y-41447780D02*
X48446428Y-41400161D01*
X48446428Y-41400161D02*
X48494047Y-41352542D01*
X48494047Y-41352542D02*
X48541666Y-41257304D01*
X48541666Y-41257304D02*
X48541666Y-41114447D01*
X48541666Y-41114447D02*
X48494047Y-41019209D01*
X48494047Y-41019209D02*
X48446428Y-40971590D01*
X48446428Y-40971590D02*
X48351190Y-40923971D01*
X48351190Y-40923971D02*
X47970238Y-40923971D01*
X48875000Y-41447780D02*
X49113095Y-40447780D01*
X49113095Y-40447780D02*
X49303571Y-41162066D01*
X49303571Y-41162066D02*
X49494047Y-40447780D01*
X49494047Y-40447780D02*
X49732143Y-41447780D01*
X50113095Y-40447780D02*
X50113095Y-41447780D01*
X50113095Y-41447780D02*
X50446428Y-40733495D01*
X50446428Y-40733495D02*
X50779761Y-41447780D01*
X50779761Y-41447780D02*
X50779761Y-40447780D01*
X55496429Y-42109043D02*
X56105953Y-42109043D01*
X55801191Y-41804281D02*
X55801191Y-42413805D01*
X56867857Y-42604281D02*
X56486905Y-42604281D01*
X56486905Y-42604281D02*
X56448809Y-42223329D01*
X56448809Y-42223329D02*
X56486905Y-42261424D01*
X56486905Y-42261424D02*
X56563095Y-42299519D01*
X56563095Y-42299519D02*
X56753571Y-42299519D01*
X56753571Y-42299519D02*
X56829762Y-42261424D01*
X56829762Y-42261424D02*
X56867857Y-42223329D01*
X56867857Y-42223329D02*
X56905952Y-42147138D01*
X56905952Y-42147138D02*
X56905952Y-41956662D01*
X56905952Y-41956662D02*
X56867857Y-41880472D01*
X56867857Y-41880472D02*
X56829762Y-41842377D01*
X56829762Y-41842377D02*
X56753571Y-41804281D01*
X56753571Y-41804281D02*
X56563095Y-41804281D01*
X56563095Y-41804281D02*
X56486905Y-41842377D01*
X56486905Y-41842377D02*
X56448809Y-41880472D01*
X57134524Y-42604281D02*
X57401191Y-41804281D01*
X57401191Y-41804281D02*
X57667857Y-42604281D01*
X55725000Y-41316326D02*
X55877381Y-41316326D01*
X55877381Y-41316326D02*
X55953571Y-41278231D01*
X55953571Y-41278231D02*
X56029762Y-41202041D01*
X56029762Y-41202041D02*
X56067857Y-41049660D01*
X56067857Y-41049660D02*
X56067857Y-40782993D01*
X56067857Y-40782993D02*
X56029762Y-40630612D01*
X56029762Y-40630612D02*
X55953571Y-40554422D01*
X55953571Y-40554422D02*
X55877381Y-40516326D01*
X55877381Y-40516326D02*
X55725000Y-40516326D01*
X55725000Y-40516326D02*
X55648809Y-40554422D01*
X55648809Y-40554422D02*
X55572619Y-40630612D01*
X55572619Y-40630612D02*
X55534523Y-40782993D01*
X55534523Y-40782993D02*
X55534523Y-41049660D01*
X55534523Y-41049660D02*
X55572619Y-41202041D01*
X55572619Y-41202041D02*
X55648809Y-41278231D01*
X55648809Y-41278231D02*
X55725000Y-41316326D01*
X56410714Y-41316326D02*
X56410714Y-40668707D01*
X56410714Y-40668707D02*
X56448809Y-40592517D01*
X56448809Y-40592517D02*
X56486904Y-40554422D01*
X56486904Y-40554422D02*
X56563095Y-40516326D01*
X56563095Y-40516326D02*
X56715476Y-40516326D01*
X56715476Y-40516326D02*
X56791666Y-40554422D01*
X56791666Y-40554422D02*
X56829761Y-40592517D01*
X56829761Y-40592517D02*
X56867857Y-40668707D01*
X56867857Y-40668707D02*
X56867857Y-41316326D01*
X57134523Y-41316326D02*
X57591666Y-41316326D01*
X57363094Y-40516326D02*
X57363094Y-41316326D01*
X79041667Y-41964281D02*
X79041667Y-42764281D01*
X79041667Y-42764281D02*
X79346429Y-42764281D01*
X79346429Y-42764281D02*
X79422619Y-42726186D01*
X79422619Y-42726186D02*
X79460714Y-42688091D01*
X79460714Y-42688091D02*
X79498810Y-42611900D01*
X79498810Y-42611900D02*
X79498810Y-42497615D01*
X79498810Y-42497615D02*
X79460714Y-42421424D01*
X79460714Y-42421424D02*
X79422619Y-42383329D01*
X79422619Y-42383329D02*
X79346429Y-42345234D01*
X79346429Y-42345234D02*
X79041667Y-42345234D01*
X79994048Y-42764281D02*
X80146429Y-42764281D01*
X80146429Y-42764281D02*
X80222619Y-42726186D01*
X80222619Y-42726186D02*
X80298810Y-42649996D01*
X80298810Y-42649996D02*
X80336905Y-42497615D01*
X80336905Y-42497615D02*
X80336905Y-42230948D01*
X80336905Y-42230948D02*
X80298810Y-42078567D01*
X80298810Y-42078567D02*
X80222619Y-42002377D01*
X80222619Y-42002377D02*
X80146429Y-41964281D01*
X80146429Y-41964281D02*
X79994048Y-41964281D01*
X79994048Y-41964281D02*
X79917857Y-42002377D01*
X79917857Y-42002377D02*
X79841667Y-42078567D01*
X79841667Y-42078567D02*
X79803571Y-42230948D01*
X79803571Y-42230948D02*
X79803571Y-42497615D01*
X79803571Y-42497615D02*
X79841667Y-42649996D01*
X79841667Y-42649996D02*
X79917857Y-42726186D01*
X79917857Y-42726186D02*
X79994048Y-42764281D01*
X80641666Y-42002377D02*
X80755952Y-41964281D01*
X80755952Y-41964281D02*
X80946428Y-41964281D01*
X80946428Y-41964281D02*
X81022619Y-42002377D01*
X81022619Y-42002377D02*
X81060714Y-42040472D01*
X81060714Y-42040472D02*
X81098809Y-42116662D01*
X81098809Y-42116662D02*
X81098809Y-42192853D01*
X81098809Y-42192853D02*
X81060714Y-42269043D01*
X81060714Y-42269043D02*
X81022619Y-42307138D01*
X81022619Y-42307138D02*
X80946428Y-42345234D01*
X80946428Y-42345234D02*
X80794047Y-42383329D01*
X80794047Y-42383329D02*
X80717857Y-42421424D01*
X80717857Y-42421424D02*
X80679762Y-42459519D01*
X80679762Y-42459519D02*
X80641666Y-42535710D01*
X80641666Y-42535710D02*
X80641666Y-42611900D01*
X80641666Y-42611900D02*
X80679762Y-42688091D01*
X80679762Y-42688091D02*
X80717857Y-42726186D01*
X80717857Y-42726186D02*
X80794047Y-42764281D01*
X80794047Y-42764281D02*
X80984524Y-42764281D01*
X80984524Y-42764281D02*
X81098809Y-42726186D01*
X81441667Y-41964281D02*
X81441667Y-42764281D01*
X81708333Y-42764281D02*
X82165476Y-42764281D01*
X81936904Y-41964281D02*
X81936904Y-42764281D01*
X82432143Y-41964281D02*
X82432143Y-42764281D01*
X82965476Y-42764281D02*
X83117857Y-42764281D01*
X83117857Y-42764281D02*
X83194047Y-42726186D01*
X83194047Y-42726186D02*
X83270238Y-42649996D01*
X83270238Y-42649996D02*
X83308333Y-42497615D01*
X83308333Y-42497615D02*
X83308333Y-42230948D01*
X83308333Y-42230948D02*
X83270238Y-42078567D01*
X83270238Y-42078567D02*
X83194047Y-42002377D01*
X83194047Y-42002377D02*
X83117857Y-41964281D01*
X83117857Y-41964281D02*
X82965476Y-41964281D01*
X82965476Y-41964281D02*
X82889285Y-42002377D01*
X82889285Y-42002377D02*
X82813095Y-42078567D01*
X82813095Y-42078567D02*
X82774999Y-42230948D01*
X82774999Y-42230948D02*
X82774999Y-42497615D01*
X82774999Y-42497615D02*
X82813095Y-42649996D01*
X82813095Y-42649996D02*
X82889285Y-42726186D01*
X82889285Y-42726186D02*
X82965476Y-42764281D01*
X83651190Y-41964281D02*
X83651190Y-42764281D01*
X83651190Y-42764281D02*
X84108333Y-41964281D01*
X84108333Y-41964281D02*
X84108333Y-42764281D01*
X79365475Y-40714422D02*
X79479761Y-40676326D01*
X79479761Y-40676326D02*
X79670237Y-40676326D01*
X79670237Y-40676326D02*
X79746428Y-40714422D01*
X79746428Y-40714422D02*
X79784523Y-40752517D01*
X79784523Y-40752517D02*
X79822618Y-40828707D01*
X79822618Y-40828707D02*
X79822618Y-40904898D01*
X79822618Y-40904898D02*
X79784523Y-40981088D01*
X79784523Y-40981088D02*
X79746428Y-41019183D01*
X79746428Y-41019183D02*
X79670237Y-41057279D01*
X79670237Y-41057279D02*
X79517856Y-41095374D01*
X79517856Y-41095374D02*
X79441666Y-41133469D01*
X79441666Y-41133469D02*
X79403571Y-41171564D01*
X79403571Y-41171564D02*
X79365475Y-41247755D01*
X79365475Y-41247755D02*
X79365475Y-41323945D01*
X79365475Y-41323945D02*
X79403571Y-41400136D01*
X79403571Y-41400136D02*
X79441666Y-41438231D01*
X79441666Y-41438231D02*
X79517856Y-41476326D01*
X79517856Y-41476326D02*
X79708333Y-41476326D01*
X79708333Y-41476326D02*
X79822618Y-41438231D01*
X80165476Y-41095374D02*
X80432142Y-41095374D01*
X80546428Y-40676326D02*
X80165476Y-40676326D01*
X80165476Y-40676326D02*
X80165476Y-41476326D01*
X80165476Y-41476326D02*
X80546428Y-41476326D01*
X80889286Y-40676326D02*
X80889286Y-41476326D01*
X80889286Y-41476326D02*
X81346429Y-40676326D01*
X81346429Y-40676326D02*
X81346429Y-41476326D01*
X81689285Y-40714422D02*
X81803571Y-40676326D01*
X81803571Y-40676326D02*
X81994047Y-40676326D01*
X81994047Y-40676326D02*
X82070238Y-40714422D01*
X82070238Y-40714422D02*
X82108333Y-40752517D01*
X82108333Y-40752517D02*
X82146428Y-40828707D01*
X82146428Y-40828707D02*
X82146428Y-40904898D01*
X82146428Y-40904898D02*
X82108333Y-40981088D01*
X82108333Y-40981088D02*
X82070238Y-41019183D01*
X82070238Y-41019183D02*
X81994047Y-41057279D01*
X81994047Y-41057279D02*
X81841666Y-41095374D01*
X81841666Y-41095374D02*
X81765476Y-41133469D01*
X81765476Y-41133469D02*
X81727381Y-41171564D01*
X81727381Y-41171564D02*
X81689285Y-41247755D01*
X81689285Y-41247755D02*
X81689285Y-41323945D01*
X81689285Y-41323945D02*
X81727381Y-41400136D01*
X81727381Y-41400136D02*
X81765476Y-41438231D01*
X81765476Y-41438231D02*
X81841666Y-41476326D01*
X81841666Y-41476326D02*
X82032143Y-41476326D01*
X82032143Y-41476326D02*
X82146428Y-41438231D01*
X82641667Y-41476326D02*
X82794048Y-41476326D01*
X82794048Y-41476326D02*
X82870238Y-41438231D01*
X82870238Y-41438231D02*
X82946429Y-41362041D01*
X82946429Y-41362041D02*
X82984524Y-41209660D01*
X82984524Y-41209660D02*
X82984524Y-40942993D01*
X82984524Y-40942993D02*
X82946429Y-40790612D01*
X82946429Y-40790612D02*
X82870238Y-40714422D01*
X82870238Y-40714422D02*
X82794048Y-40676326D01*
X82794048Y-40676326D02*
X82641667Y-40676326D01*
X82641667Y-40676326D02*
X82565476Y-40714422D01*
X82565476Y-40714422D02*
X82489286Y-40790612D01*
X82489286Y-40790612D02*
X82451190Y-40942993D01*
X82451190Y-40942993D02*
X82451190Y-41209660D01*
X82451190Y-41209660D02*
X82489286Y-41362041D01*
X82489286Y-41362041D02*
X82565476Y-41438231D01*
X82565476Y-41438231D02*
X82641667Y-41476326D01*
X83784524Y-40676326D02*
X83517857Y-41057279D01*
X83327381Y-40676326D02*
X83327381Y-41476326D01*
X83327381Y-41476326D02*
X83632143Y-41476326D01*
X83632143Y-41476326D02*
X83708333Y-41438231D01*
X83708333Y-41438231D02*
X83746428Y-41400136D01*
X83746428Y-41400136D02*
X83784524Y-41323945D01*
X83784524Y-41323945D02*
X83784524Y-41209660D01*
X83784524Y-41209660D02*
X83746428Y-41133469D01*
X83746428Y-41133469D02*
X83708333Y-41095374D01*
X83708333Y-41095374D02*
X83632143Y-41057279D01*
X83632143Y-41057279D02*
X83327381Y-41057279D01*
X75115476Y-42239043D02*
X75725000Y-42239043D01*
X75420238Y-41934281D02*
X75420238Y-42543805D01*
X76524999Y-41934281D02*
X76067856Y-41934281D01*
X76296428Y-41934281D02*
X76296428Y-42734281D01*
X76296428Y-42734281D02*
X76220237Y-42619996D01*
X76220237Y-42619996D02*
X76144047Y-42543805D01*
X76144047Y-42543805D02*
X76067856Y-42505710D01*
X76829761Y-42658091D02*
X76867857Y-42696186D01*
X76867857Y-42696186D02*
X76944047Y-42734281D01*
X76944047Y-42734281D02*
X77134523Y-42734281D01*
X77134523Y-42734281D02*
X77210714Y-42696186D01*
X77210714Y-42696186D02*
X77248809Y-42658091D01*
X77248809Y-42658091D02*
X77286904Y-42581900D01*
X77286904Y-42581900D02*
X77286904Y-42505710D01*
X77286904Y-42505710D02*
X77248809Y-42391424D01*
X77248809Y-42391424D02*
X76791666Y-41934281D01*
X76791666Y-41934281D02*
X77286904Y-41934281D01*
X77515476Y-42734281D02*
X77782143Y-41934281D01*
X77782143Y-41934281D02*
X78048809Y-42734281D01*
X74982143Y-40646326D02*
X74982143Y-41446326D01*
X75363095Y-40646326D02*
X75363095Y-41446326D01*
X75363095Y-41446326D02*
X75820238Y-40646326D01*
X75820238Y-40646326D02*
X75820238Y-41446326D01*
X76201190Y-40646326D02*
X76201190Y-41446326D01*
X76201190Y-41446326D02*
X76505952Y-41446326D01*
X76505952Y-41446326D02*
X76582142Y-41408231D01*
X76582142Y-41408231D02*
X76620237Y-41370136D01*
X76620237Y-41370136D02*
X76658333Y-41293945D01*
X76658333Y-41293945D02*
X76658333Y-41179660D01*
X76658333Y-41179660D02*
X76620237Y-41103469D01*
X76620237Y-41103469D02*
X76582142Y-41065374D01*
X76582142Y-41065374D02*
X76505952Y-41027279D01*
X76505952Y-41027279D02*
X76201190Y-41027279D01*
X77001190Y-41446326D02*
X77001190Y-40798707D01*
X77001190Y-40798707D02*
X77039285Y-40722517D01*
X77039285Y-40722517D02*
X77077380Y-40684422D01*
X77077380Y-40684422D02*
X77153571Y-40646326D01*
X77153571Y-40646326D02*
X77305952Y-40646326D01*
X77305952Y-40646326D02*
X77382142Y-40684422D01*
X77382142Y-40684422D02*
X77420237Y-40722517D01*
X77420237Y-40722517D02*
X77458333Y-40798707D01*
X77458333Y-40798707D02*
X77458333Y-41446326D01*
X77724999Y-41446326D02*
X78182142Y-41446326D01*
X77953570Y-40646326D02*
X77953570Y-41446326D01*
X61316101Y-42070209D02*
X61239911Y-42108304D01*
X61239911Y-42108304D02*
X61125625Y-42108304D01*
X61125625Y-42108304D02*
X61011339Y-42070209D01*
X61011339Y-42070209D02*
X60935149Y-41994019D01*
X60935149Y-41994019D02*
X60897054Y-41917828D01*
X60897054Y-41917828D02*
X60858958Y-41765447D01*
X60858958Y-41765447D02*
X60858958Y-41651161D01*
X60858958Y-41651161D02*
X60897054Y-41498780D01*
X60897054Y-41498780D02*
X60935149Y-41422590D01*
X60935149Y-41422590D02*
X61011339Y-41346400D01*
X61011339Y-41346400D02*
X61125625Y-41308304D01*
X61125625Y-41308304D02*
X61201816Y-41308304D01*
X61201816Y-41308304D02*
X61316101Y-41346400D01*
X61316101Y-41346400D02*
X61354197Y-41384495D01*
X61354197Y-41384495D02*
X61354197Y-41651161D01*
X61354197Y-41651161D02*
X61201816Y-41651161D01*
X61697054Y-41308304D02*
X61697054Y-42108304D01*
X61697054Y-42108304D02*
X62154197Y-41308304D01*
X62154197Y-41308304D02*
X62154197Y-42108304D01*
X62535149Y-41308304D02*
X62535149Y-42108304D01*
X62535149Y-42108304D02*
X62725625Y-42108304D01*
X62725625Y-42108304D02*
X62839911Y-42070209D01*
X62839911Y-42070209D02*
X62916101Y-41994019D01*
X62916101Y-41994019D02*
X62954196Y-41917828D01*
X62954196Y-41917828D02*
X62992292Y-41765447D01*
X62992292Y-41765447D02*
X62992292Y-41651161D01*
X62992292Y-41651161D02*
X62954196Y-41498780D01*
X62954196Y-41498780D02*
X62916101Y-41422590D01*
X62916101Y-41422590D02*
X62839911Y-41346400D01*
X62839911Y-41346400D02*
X62725625Y-41308304D01*
X62725625Y-41308304D02*
X62535149Y-41308304D01*
X66166101Y-42070209D02*
X66089911Y-42108304D01*
X66089911Y-42108304D02*
X65975625Y-42108304D01*
X65975625Y-42108304D02*
X65861339Y-42070209D01*
X65861339Y-42070209D02*
X65785149Y-41994019D01*
X65785149Y-41994019D02*
X65747054Y-41917828D01*
X65747054Y-41917828D02*
X65708958Y-41765447D01*
X65708958Y-41765447D02*
X65708958Y-41651161D01*
X65708958Y-41651161D02*
X65747054Y-41498780D01*
X65747054Y-41498780D02*
X65785149Y-41422590D01*
X65785149Y-41422590D02*
X65861339Y-41346400D01*
X65861339Y-41346400D02*
X65975625Y-41308304D01*
X65975625Y-41308304D02*
X66051816Y-41308304D01*
X66051816Y-41308304D02*
X66166101Y-41346400D01*
X66166101Y-41346400D02*
X66204197Y-41384495D01*
X66204197Y-41384495D02*
X66204197Y-41651161D01*
X66204197Y-41651161D02*
X66051816Y-41651161D01*
X66547054Y-41308304D02*
X66547054Y-42108304D01*
X66547054Y-42108304D02*
X67004197Y-41308304D01*
X67004197Y-41308304D02*
X67004197Y-42108304D01*
X67385149Y-41308304D02*
X67385149Y-42108304D01*
X67385149Y-42108304D02*
X67575625Y-42108304D01*
X67575625Y-42108304D02*
X67689911Y-42070209D01*
X67689911Y-42070209D02*
X67766101Y-41994019D01*
X67766101Y-41994019D02*
X67804196Y-41917828D01*
X67804196Y-41917828D02*
X67842292Y-41765447D01*
X67842292Y-41765447D02*
X67842292Y-41651161D01*
X67842292Y-41651161D02*
X67804196Y-41498780D01*
X67804196Y-41498780D02*
X67766101Y-41422590D01*
X67766101Y-41422590D02*
X67689911Y-41346400D01*
X67689911Y-41346400D02*
X67575625Y-41308304D01*
X67575625Y-41308304D02*
X67385149Y-41308304D01*
X46332142Y-42527352D02*
X46598808Y-42527352D01*
X46713094Y-42108304D02*
X46332142Y-42108304D01*
X46332142Y-42108304D02*
X46332142Y-42908304D01*
X46332142Y-42908304D02*
X46713094Y-42908304D01*
X46979761Y-42908304D02*
X47513095Y-42108304D01*
X47513095Y-42908304D02*
X46979761Y-42108304D01*
X47703571Y-42908304D02*
X48160714Y-42908304D01*
X47932142Y-42108304D02*
X47932142Y-42908304D01*
X51322620Y-42108304D02*
X51055953Y-42489257D01*
X50865477Y-42108304D02*
X50865477Y-42908304D01*
X50865477Y-42908304D02*
X51170239Y-42908304D01*
X51170239Y-42908304D02*
X51246429Y-42870209D01*
X51246429Y-42870209D02*
X51284524Y-42832114D01*
X51284524Y-42832114D02*
X51322620Y-42755923D01*
X51322620Y-42755923D02*
X51322620Y-42641638D01*
X51322620Y-42641638D02*
X51284524Y-42565447D01*
X51284524Y-42565447D02*
X51246429Y-42527352D01*
X51246429Y-42527352D02*
X51170239Y-42489257D01*
X51170239Y-42489257D02*
X50865477Y-42489257D01*
X51665477Y-42527352D02*
X51932143Y-42527352D01*
X52046429Y-42108304D02*
X51665477Y-42108304D01*
X51665477Y-42108304D02*
X51665477Y-42908304D01*
X51665477Y-42908304D02*
X52046429Y-42908304D01*
X52275001Y-42908304D02*
X52732144Y-42908304D01*
X52503572Y-42108304D02*
X52503572Y-42908304D01*
X71116101Y-42070209D02*
X71039911Y-42108304D01*
X71039911Y-42108304D02*
X70925625Y-42108304D01*
X70925625Y-42108304D02*
X70811339Y-42070209D01*
X70811339Y-42070209D02*
X70735149Y-41994019D01*
X70735149Y-41994019D02*
X70697054Y-41917828D01*
X70697054Y-41917828D02*
X70658958Y-41765447D01*
X70658958Y-41765447D02*
X70658958Y-41651161D01*
X70658958Y-41651161D02*
X70697054Y-41498780D01*
X70697054Y-41498780D02*
X70735149Y-41422590D01*
X70735149Y-41422590D02*
X70811339Y-41346400D01*
X70811339Y-41346400D02*
X70925625Y-41308304D01*
X70925625Y-41308304D02*
X71001816Y-41308304D01*
X71001816Y-41308304D02*
X71116101Y-41346400D01*
X71116101Y-41346400D02*
X71154197Y-41384495D01*
X71154197Y-41384495D02*
X71154197Y-41651161D01*
X71154197Y-41651161D02*
X71001816Y-41651161D01*
X71497054Y-41308304D02*
X71497054Y-42108304D01*
X71497054Y-42108304D02*
X71954197Y-41308304D01*
X71954197Y-41308304D02*
X71954197Y-42108304D01*
X72335149Y-41308304D02*
X72335149Y-42108304D01*
X72335149Y-42108304D02*
X72525625Y-42108304D01*
X72525625Y-42108304D02*
X72639911Y-42070209D01*
X72639911Y-42070209D02*
X72716101Y-41994019D01*
X72716101Y-41994019D02*
X72754196Y-41917828D01*
X72754196Y-41917828D02*
X72792292Y-41765447D01*
X72792292Y-41765447D02*
X72792292Y-41651161D01*
X72792292Y-41651161D02*
X72754196Y-41498780D01*
X72754196Y-41498780D02*
X72716101Y-41422590D01*
X72716101Y-41422590D02*
X72639911Y-41346400D01*
X72639911Y-41346400D02*
X72525625Y-41308304D01*
X72525625Y-41308304D02*
X72335149Y-41308304D01*
D10*
X49338750Y-43290000D02*
X49338750Y-41730000D01*
X53975000Y-40170000D02*
X64332500Y-40175000D01*
X59178750Y-43290000D02*
X59178750Y-40187500D01*
X74175000Y-40180000D02*
X84560000Y-40180000D01*
X84560000Y-43290000D01*
X74175000Y-43290000D01*
X74175000Y-40180000D01*
X53975000Y-43290000D02*
X64332500Y-43290000D01*
X44702500Y-41730000D02*
X53975000Y-41730000D01*
X69253750Y-43290000D02*
X69253750Y-40200000D01*
X44702500Y-40170000D02*
X53975000Y-40170000D01*
X53975000Y-43290000D01*
X44702500Y-43290000D01*
X44702500Y-40170000D01*
X78625000Y-43250000D02*
X78625000Y-40210000D01*
X64332500Y-40175000D02*
X74175000Y-40175000D01*
X74175000Y-43290000D01*
X64332500Y-43290000D01*
X64332500Y-40175000D01*
X53975000Y-40200000D02*
X53975000Y-43290000D01*
M02*
