G04 #@! TF.GenerationSoftware,KiCad,Pcbnew,9.0.4*
G04 #@! TF.CreationDate,2025-10-29T14:56:39-04:00*
G04 #@! TF.ProjectId,ArduinoBoard,41726475-696e-46f4-926f-6172642e6b69,1*
G04 #@! TF.SameCoordinates,Original*
G04 #@! TF.FileFunction,Legend,Top*
G04 #@! TF.FilePolarity,Positive*
%FSLAX46Y46*%
G04 Gerber Fmt 4.6, Leading zero omitted, Abs format (unit mm)*
G04 Created by KiCad (PCBNEW 9.0.4) date 2025-10-29 14:56:39*
%MOMM*%
%LPD*%
G01*
G04 APERTURE LIST*
%ADD10C,0.200000*%
%ADD11C,0.100000*%
%ADD12C,0.150000*%
%ADD13C,0.120000*%
G04 APERTURE END LIST*
D10*
X48132142Y-42552352D02*
X47865476Y-42552352D01*
X47751190Y-42133304D02*
X48132142Y-42133304D01*
X48132142Y-42133304D02*
X48132142Y-42933304D01*
X48132142Y-42933304D02*
X47751190Y-42933304D01*
X47484523Y-42933304D02*
X46951189Y-42133304D01*
X46951189Y-42933304D02*
X47484523Y-42133304D01*
X46760713Y-42933304D02*
X46303570Y-42933304D01*
X46532142Y-42133304D02*
X46532142Y-42933304D01*
X69972219Y-115797143D02*
X69972219Y-115606667D01*
X69972219Y-115606667D02*
X70019838Y-115511429D01*
X70019838Y-115511429D02*
X70115076Y-115416191D01*
X70115076Y-115416191D02*
X70305552Y-115368572D01*
X70305552Y-115368572D02*
X70638885Y-115368572D01*
X70638885Y-115368572D02*
X70829361Y-115416191D01*
X70829361Y-115416191D02*
X70924600Y-115511429D01*
X70924600Y-115511429D02*
X70972219Y-115606667D01*
X70972219Y-115606667D02*
X70972219Y-115797143D01*
X70972219Y-115797143D02*
X70924600Y-115892381D01*
X70924600Y-115892381D02*
X70829361Y-115987619D01*
X70829361Y-115987619D02*
X70638885Y-116035238D01*
X70638885Y-116035238D02*
X70305552Y-116035238D01*
X70305552Y-116035238D02*
X70115076Y-115987619D01*
X70115076Y-115987619D02*
X70019838Y-115892381D01*
X70019838Y-115892381D02*
X69972219Y-115797143D01*
X70972219Y-114463810D02*
X70972219Y-114940000D01*
X70972219Y-114940000D02*
X69972219Y-114940000D01*
X70448409Y-114130476D02*
X70448409Y-113797143D01*
X70972219Y-113654286D02*
X70972219Y-114130476D01*
X70972219Y-114130476D02*
X69972219Y-114130476D01*
X69972219Y-114130476D02*
X69972219Y-113654286D01*
X70972219Y-113225714D02*
X69972219Y-113225714D01*
X69972219Y-113225714D02*
X69972219Y-112987619D01*
X69972219Y-112987619D02*
X70019838Y-112844762D01*
X70019838Y-112844762D02*
X70115076Y-112749524D01*
X70115076Y-112749524D02*
X70210314Y-112701905D01*
X70210314Y-112701905D02*
X70400790Y-112654286D01*
X70400790Y-112654286D02*
X70543647Y-112654286D01*
X70543647Y-112654286D02*
X70734123Y-112701905D01*
X70734123Y-112701905D02*
X70829361Y-112749524D01*
X70829361Y-112749524D02*
X70924600Y-112844762D01*
X70924600Y-112844762D02*
X70972219Y-112987619D01*
X70972219Y-112987619D02*
X70972219Y-113225714D01*
X70924600Y-111511428D02*
X70972219Y-111368571D01*
X70972219Y-111368571D02*
X70972219Y-111130476D01*
X70972219Y-111130476D02*
X70924600Y-111035238D01*
X70924600Y-111035238D02*
X70876980Y-110987619D01*
X70876980Y-110987619D02*
X70781742Y-110940000D01*
X70781742Y-110940000D02*
X70686504Y-110940000D01*
X70686504Y-110940000D02*
X70591266Y-110987619D01*
X70591266Y-110987619D02*
X70543647Y-111035238D01*
X70543647Y-111035238D02*
X70496028Y-111130476D01*
X70496028Y-111130476D02*
X70448409Y-111320952D01*
X70448409Y-111320952D02*
X70400790Y-111416190D01*
X70400790Y-111416190D02*
X70353171Y-111463809D01*
X70353171Y-111463809D02*
X70257933Y-111511428D01*
X70257933Y-111511428D02*
X70162695Y-111511428D01*
X70162695Y-111511428D02*
X70067457Y-111463809D01*
X70067457Y-111463809D02*
X70019838Y-111416190D01*
X70019838Y-111416190D02*
X69972219Y-111320952D01*
X69972219Y-111320952D02*
X69972219Y-111082857D01*
X69972219Y-111082857D02*
X70019838Y-110940000D01*
X70924600Y-110082857D02*
X70972219Y-110178095D01*
X70972219Y-110178095D02*
X70972219Y-110368571D01*
X70972219Y-110368571D02*
X70924600Y-110463809D01*
X70924600Y-110463809D02*
X70876980Y-110511428D01*
X70876980Y-110511428D02*
X70781742Y-110559047D01*
X70781742Y-110559047D02*
X70496028Y-110559047D01*
X70496028Y-110559047D02*
X70400790Y-110511428D01*
X70400790Y-110511428D02*
X70353171Y-110463809D01*
X70353171Y-110463809D02*
X70305552Y-110368571D01*
X70305552Y-110368571D02*
X70305552Y-110178095D01*
X70305552Y-110178095D02*
X70353171Y-110082857D01*
X70972219Y-109654285D02*
X70305552Y-109654285D01*
X70496028Y-109654285D02*
X70400790Y-109606666D01*
X70400790Y-109606666D02*
X70353171Y-109559047D01*
X70353171Y-109559047D02*
X70305552Y-109463809D01*
X70305552Y-109463809D02*
X70305552Y-109368571D01*
X70924600Y-108654285D02*
X70972219Y-108749523D01*
X70972219Y-108749523D02*
X70972219Y-108939999D01*
X70972219Y-108939999D02*
X70924600Y-109035237D01*
X70924600Y-109035237D02*
X70829361Y-109082856D01*
X70829361Y-109082856D02*
X70448409Y-109082856D01*
X70448409Y-109082856D02*
X70353171Y-109035237D01*
X70353171Y-109035237D02*
X70305552Y-108939999D01*
X70305552Y-108939999D02*
X70305552Y-108749523D01*
X70305552Y-108749523D02*
X70353171Y-108654285D01*
X70353171Y-108654285D02*
X70448409Y-108606666D01*
X70448409Y-108606666D02*
X70543647Y-108606666D01*
X70543647Y-108606666D02*
X70638885Y-109082856D01*
X70924600Y-107797142D02*
X70972219Y-107892380D01*
X70972219Y-107892380D02*
X70972219Y-108082856D01*
X70972219Y-108082856D02*
X70924600Y-108178094D01*
X70924600Y-108178094D02*
X70829361Y-108225713D01*
X70829361Y-108225713D02*
X70448409Y-108225713D01*
X70448409Y-108225713D02*
X70353171Y-108178094D01*
X70353171Y-108178094D02*
X70305552Y-108082856D01*
X70305552Y-108082856D02*
X70305552Y-107892380D01*
X70305552Y-107892380D02*
X70353171Y-107797142D01*
X70353171Y-107797142D02*
X70448409Y-107749523D01*
X70448409Y-107749523D02*
X70543647Y-107749523D01*
X70543647Y-107749523D02*
X70638885Y-108225713D01*
X70305552Y-107320951D02*
X70972219Y-107320951D01*
X70400790Y-107320951D02*
X70353171Y-107273332D01*
X70353171Y-107273332D02*
X70305552Y-107178094D01*
X70305552Y-107178094D02*
X70305552Y-107035237D01*
X70305552Y-107035237D02*
X70353171Y-106939999D01*
X70353171Y-106939999D02*
X70448409Y-106892380D01*
X70448409Y-106892380D02*
X70972219Y-106892380D01*
D11*
X89290104Y-93194000D02*
X109290104Y-93194000D01*
X109290104Y-125194000D01*
X89290104Y-125194000D01*
X89290104Y-93194000D01*
X89850000Y-52000000D02*
X101200000Y-52000000D01*
X101200000Y-73800000D01*
X89850000Y-73800000D01*
X89850000Y-52000000D01*
X56240104Y-97144000D02*
X86340104Y-97144000D01*
X86340104Y-125394000D01*
X56240104Y-125394000D01*
X56240104Y-97144000D01*
X78650000Y-43250000D02*
X78650000Y-40210000D01*
X44727500Y-40170000D02*
X54000000Y-40170000D01*
X54000000Y-43290000D01*
X44727500Y-43290000D01*
X44727500Y-40170000D01*
X44727500Y-41730000D02*
X54000000Y-41730000D01*
X69278750Y-43290000D02*
X69278750Y-40200000D01*
X64357500Y-40180000D02*
X74200000Y-40180000D01*
X74200000Y-43290000D01*
X64357500Y-43290000D01*
X64357500Y-40180000D01*
X59203750Y-43290000D02*
X59203750Y-40187500D01*
X54000000Y-40170000D02*
X64357500Y-40180000D01*
X49363750Y-43290000D02*
X49363750Y-41730000D01*
X74200000Y-40180000D02*
X84585000Y-40180000D01*
X84585000Y-43290000D01*
X74200000Y-43290000D01*
X74200000Y-40180000D01*
X54000000Y-43290000D02*
X64357500Y-43290000D01*
X92208533Y-65136934D02*
X92256152Y-64994077D01*
X92256152Y-64994077D02*
X92303771Y-64946458D01*
X92303771Y-64946458D02*
X92399009Y-64898839D01*
X92399009Y-64898839D02*
X92541866Y-64898839D01*
X92541866Y-64898839D02*
X92637104Y-64946458D01*
X92637104Y-64946458D02*
X92684724Y-64994077D01*
X92684724Y-64994077D02*
X92732343Y-65089315D01*
X92732343Y-65089315D02*
X92732343Y-65470267D01*
X92732343Y-65470267D02*
X91732343Y-65470267D01*
X91732343Y-65470267D02*
X91732343Y-65136934D01*
X91732343Y-65136934D02*
X91779962Y-65041696D01*
X91779962Y-65041696D02*
X91827581Y-64994077D01*
X91827581Y-64994077D02*
X91922819Y-64946458D01*
X91922819Y-64946458D02*
X92018057Y-64946458D01*
X92018057Y-64946458D02*
X92113295Y-64994077D01*
X92113295Y-64994077D02*
X92160914Y-65041696D01*
X92160914Y-65041696D02*
X92208533Y-65136934D01*
X92208533Y-65136934D02*
X92208533Y-65470267D01*
X92065676Y-64041696D02*
X92732343Y-64041696D01*
X92065676Y-64470267D02*
X92589485Y-64470267D01*
X92589485Y-64470267D02*
X92684724Y-64422648D01*
X92684724Y-64422648D02*
X92732343Y-64327410D01*
X92732343Y-64327410D02*
X92732343Y-64184553D01*
X92732343Y-64184553D02*
X92684724Y-64089315D01*
X92684724Y-64089315D02*
X92637104Y-64041696D01*
X92684724Y-63136934D02*
X92732343Y-63232172D01*
X92732343Y-63232172D02*
X92732343Y-63422648D01*
X92732343Y-63422648D02*
X92684724Y-63517886D01*
X92684724Y-63517886D02*
X92637104Y-63565505D01*
X92637104Y-63565505D02*
X92541866Y-63613124D01*
X92541866Y-63613124D02*
X92256152Y-63613124D01*
X92256152Y-63613124D02*
X92160914Y-63565505D01*
X92160914Y-63565505D02*
X92113295Y-63517886D01*
X92113295Y-63517886D02*
X92065676Y-63422648D01*
X92065676Y-63422648D02*
X92065676Y-63232172D01*
X92065676Y-63232172D02*
X92113295Y-63136934D01*
X92732343Y-62708362D02*
X91732343Y-62708362D01*
X92351390Y-62613124D02*
X92732343Y-62327410D01*
X92065676Y-62327410D02*
X92446628Y-62708362D01*
X92637104Y-60565505D02*
X92684724Y-60613124D01*
X92684724Y-60613124D02*
X92732343Y-60755981D01*
X92732343Y-60755981D02*
X92732343Y-60851219D01*
X92732343Y-60851219D02*
X92684724Y-60994076D01*
X92684724Y-60994076D02*
X92589485Y-61089314D01*
X92589485Y-61089314D02*
X92494247Y-61136933D01*
X92494247Y-61136933D02*
X92303771Y-61184552D01*
X92303771Y-61184552D02*
X92160914Y-61184552D01*
X92160914Y-61184552D02*
X91970438Y-61136933D01*
X91970438Y-61136933D02*
X91875200Y-61089314D01*
X91875200Y-61089314D02*
X91779962Y-60994076D01*
X91779962Y-60994076D02*
X91732343Y-60851219D01*
X91732343Y-60851219D02*
X91732343Y-60755981D01*
X91732343Y-60755981D02*
X91779962Y-60613124D01*
X91779962Y-60613124D02*
X91827581Y-60565505D01*
X92732343Y-59994076D02*
X92684724Y-60089314D01*
X92684724Y-60089314D02*
X92637104Y-60136933D01*
X92637104Y-60136933D02*
X92541866Y-60184552D01*
X92541866Y-60184552D02*
X92256152Y-60184552D01*
X92256152Y-60184552D02*
X92160914Y-60136933D01*
X92160914Y-60136933D02*
X92113295Y-60089314D01*
X92113295Y-60089314D02*
X92065676Y-59994076D01*
X92065676Y-59994076D02*
X92065676Y-59851219D01*
X92065676Y-59851219D02*
X92113295Y-59755981D01*
X92113295Y-59755981D02*
X92160914Y-59708362D01*
X92160914Y-59708362D02*
X92256152Y-59660743D01*
X92256152Y-59660743D02*
X92541866Y-59660743D01*
X92541866Y-59660743D02*
X92637104Y-59708362D01*
X92637104Y-59708362D02*
X92684724Y-59755981D01*
X92684724Y-59755981D02*
X92732343Y-59851219D01*
X92732343Y-59851219D02*
X92732343Y-59994076D01*
X92065676Y-59232171D02*
X92732343Y-59232171D01*
X92160914Y-59232171D02*
X92113295Y-59184552D01*
X92113295Y-59184552D02*
X92065676Y-59089314D01*
X92065676Y-59089314D02*
X92065676Y-58946457D01*
X92065676Y-58946457D02*
X92113295Y-58851219D01*
X92113295Y-58851219D02*
X92208533Y-58803600D01*
X92208533Y-58803600D02*
X92732343Y-58803600D01*
X92065676Y-58422647D02*
X92732343Y-58184552D01*
X92732343Y-58184552D02*
X92065676Y-57946457D01*
X92684724Y-57184552D02*
X92732343Y-57279790D01*
X92732343Y-57279790D02*
X92732343Y-57470266D01*
X92732343Y-57470266D02*
X92684724Y-57565504D01*
X92684724Y-57565504D02*
X92589485Y-57613123D01*
X92589485Y-57613123D02*
X92208533Y-57613123D01*
X92208533Y-57613123D02*
X92113295Y-57565504D01*
X92113295Y-57565504D02*
X92065676Y-57470266D01*
X92065676Y-57470266D02*
X92065676Y-57279790D01*
X92065676Y-57279790D02*
X92113295Y-57184552D01*
X92113295Y-57184552D02*
X92208533Y-57136933D01*
X92208533Y-57136933D02*
X92303771Y-57136933D01*
X92303771Y-57136933D02*
X92399009Y-57613123D01*
X92732343Y-56708361D02*
X92065676Y-56708361D01*
X92256152Y-56708361D02*
X92160914Y-56660742D01*
X92160914Y-56660742D02*
X92113295Y-56613123D01*
X92113295Y-56613123D02*
X92065676Y-56517885D01*
X92065676Y-56517885D02*
X92065676Y-56422647D01*
X92065676Y-56232170D02*
X92065676Y-55851218D01*
X91732343Y-56089313D02*
X92589485Y-56089313D01*
X92589485Y-56089313D02*
X92684724Y-56041694D01*
X92684724Y-56041694D02*
X92732343Y-55946456D01*
X92732343Y-55946456D02*
X92732343Y-55851218D01*
X92684724Y-55136932D02*
X92732343Y-55232170D01*
X92732343Y-55232170D02*
X92732343Y-55422646D01*
X92732343Y-55422646D02*
X92684724Y-55517884D01*
X92684724Y-55517884D02*
X92589485Y-55565503D01*
X92589485Y-55565503D02*
X92208533Y-55565503D01*
X92208533Y-55565503D02*
X92113295Y-55517884D01*
X92113295Y-55517884D02*
X92065676Y-55422646D01*
X92065676Y-55422646D02*
X92065676Y-55232170D01*
X92065676Y-55232170D02*
X92113295Y-55136932D01*
X92113295Y-55136932D02*
X92208533Y-55089313D01*
X92208533Y-55089313D02*
X92303771Y-55089313D01*
X92303771Y-55089313D02*
X92399009Y-55565503D01*
X92732343Y-54660741D02*
X92065676Y-54660741D01*
X92256152Y-54660741D02*
X92160914Y-54613122D01*
X92160914Y-54613122D02*
X92113295Y-54565503D01*
X92113295Y-54565503D02*
X92065676Y-54470265D01*
X92065676Y-54470265D02*
X92065676Y-54375027D01*
X94342287Y-59089313D02*
X94342287Y-58898837D01*
X94342287Y-58898837D02*
X94294668Y-58803599D01*
X94294668Y-58803599D02*
X94247048Y-58755980D01*
X94247048Y-58755980D02*
X94104191Y-58660742D01*
X94104191Y-58660742D02*
X93913715Y-58613123D01*
X93913715Y-58613123D02*
X93532763Y-58613123D01*
X93532763Y-58613123D02*
X93437525Y-58660742D01*
X93437525Y-58660742D02*
X93389906Y-58708361D01*
X93389906Y-58708361D02*
X93342287Y-58803599D01*
X93342287Y-58803599D02*
X93342287Y-58994075D01*
X93342287Y-58994075D02*
X93389906Y-59089313D01*
X93389906Y-59089313D02*
X93437525Y-59136932D01*
X93437525Y-59136932D02*
X93532763Y-59184551D01*
X93532763Y-59184551D02*
X93770858Y-59184551D01*
X93770858Y-59184551D02*
X93866096Y-59136932D01*
X93866096Y-59136932D02*
X93913715Y-59089313D01*
X93913715Y-59089313D02*
X93961334Y-58994075D01*
X93961334Y-58994075D02*
X93961334Y-58803599D01*
X93961334Y-58803599D02*
X93913715Y-58708361D01*
X93913715Y-58708361D02*
X93866096Y-58660742D01*
X93866096Y-58660742D02*
X93770858Y-58613123D01*
X93342287Y-58327408D02*
X94342287Y-57994075D01*
X94342287Y-57994075D02*
X93342287Y-57660742D01*
X93342287Y-56375027D02*
X93342287Y-56184551D01*
X93342287Y-56184551D02*
X93389906Y-56089313D01*
X93389906Y-56089313D02*
X93485144Y-55994075D01*
X93485144Y-55994075D02*
X93675620Y-55946456D01*
X93675620Y-55946456D02*
X94008953Y-55946456D01*
X94008953Y-55946456D02*
X94199429Y-55994075D01*
X94199429Y-55994075D02*
X94294668Y-56089313D01*
X94294668Y-56089313D02*
X94342287Y-56184551D01*
X94342287Y-56184551D02*
X94342287Y-56375027D01*
X94342287Y-56375027D02*
X94294668Y-56470265D01*
X94294668Y-56470265D02*
X94199429Y-56565503D01*
X94199429Y-56565503D02*
X94008953Y-56613122D01*
X94008953Y-56613122D02*
X93675620Y-56613122D01*
X93675620Y-56613122D02*
X93485144Y-56565503D01*
X93485144Y-56565503D02*
X93389906Y-56470265D01*
X93389906Y-56470265D02*
X93342287Y-56375027D01*
X93675620Y-55089313D02*
X94342287Y-55089313D01*
X93675620Y-55517884D02*
X94199429Y-55517884D01*
X94199429Y-55517884D02*
X94294668Y-55470265D01*
X94294668Y-55470265D02*
X94342287Y-55375027D01*
X94342287Y-55375027D02*
X94342287Y-55232170D01*
X94342287Y-55232170D02*
X94294668Y-55136932D01*
X94294668Y-55136932D02*
X94247048Y-55089313D01*
X93675620Y-54755979D02*
X93675620Y-54375027D01*
X93342287Y-54613122D02*
X94199429Y-54613122D01*
X94199429Y-54613122D02*
X94294668Y-54565503D01*
X94294668Y-54565503D02*
X94342287Y-54470265D01*
X94342287Y-54470265D02*
X94342287Y-54375027D01*
D10*
X72233898Y-42070209D02*
X72310088Y-42108304D01*
X72310088Y-42108304D02*
X72424374Y-42108304D01*
X72424374Y-42108304D02*
X72538660Y-42070209D01*
X72538660Y-42070209D02*
X72614850Y-41994019D01*
X72614850Y-41994019D02*
X72652945Y-41917828D01*
X72652945Y-41917828D02*
X72691041Y-41765447D01*
X72691041Y-41765447D02*
X72691041Y-41651161D01*
X72691041Y-41651161D02*
X72652945Y-41498780D01*
X72652945Y-41498780D02*
X72614850Y-41422590D01*
X72614850Y-41422590D02*
X72538660Y-41346400D01*
X72538660Y-41346400D02*
X72424374Y-41308304D01*
X72424374Y-41308304D02*
X72348183Y-41308304D01*
X72348183Y-41308304D02*
X72233898Y-41346400D01*
X72233898Y-41346400D02*
X72195802Y-41384495D01*
X72195802Y-41384495D02*
X72195802Y-41651161D01*
X72195802Y-41651161D02*
X72348183Y-41651161D01*
X71852945Y-41308304D02*
X71852945Y-42108304D01*
X71852945Y-42108304D02*
X71395802Y-41308304D01*
X71395802Y-41308304D02*
X71395802Y-42108304D01*
X71014850Y-41308304D02*
X71014850Y-42108304D01*
X71014850Y-42108304D02*
X70824374Y-42108304D01*
X70824374Y-42108304D02*
X70710088Y-42070209D01*
X70710088Y-42070209D02*
X70633898Y-41994019D01*
X70633898Y-41994019D02*
X70595803Y-41917828D01*
X70595803Y-41917828D02*
X70557707Y-41765447D01*
X70557707Y-41765447D02*
X70557707Y-41651161D01*
X70557707Y-41651161D02*
X70595803Y-41498780D01*
X70595803Y-41498780D02*
X70633898Y-41422590D01*
X70633898Y-41422590D02*
X70710088Y-41346400D01*
X70710088Y-41346400D02*
X70824374Y-41308304D01*
X70824374Y-41308304D02*
X71014850Y-41308304D01*
X62433898Y-42070209D02*
X62510088Y-42108304D01*
X62510088Y-42108304D02*
X62624374Y-42108304D01*
X62624374Y-42108304D02*
X62738660Y-42070209D01*
X62738660Y-42070209D02*
X62814850Y-41994019D01*
X62814850Y-41994019D02*
X62852945Y-41917828D01*
X62852945Y-41917828D02*
X62891041Y-41765447D01*
X62891041Y-41765447D02*
X62891041Y-41651161D01*
X62891041Y-41651161D02*
X62852945Y-41498780D01*
X62852945Y-41498780D02*
X62814850Y-41422590D01*
X62814850Y-41422590D02*
X62738660Y-41346400D01*
X62738660Y-41346400D02*
X62624374Y-41308304D01*
X62624374Y-41308304D02*
X62548183Y-41308304D01*
X62548183Y-41308304D02*
X62433898Y-41346400D01*
X62433898Y-41346400D02*
X62395802Y-41384495D01*
X62395802Y-41384495D02*
X62395802Y-41651161D01*
X62395802Y-41651161D02*
X62548183Y-41651161D01*
X62052945Y-41308304D02*
X62052945Y-42108304D01*
X62052945Y-42108304D02*
X61595802Y-41308304D01*
X61595802Y-41308304D02*
X61595802Y-42108304D01*
X61214850Y-41308304D02*
X61214850Y-42108304D01*
X61214850Y-42108304D02*
X61024374Y-42108304D01*
X61024374Y-42108304D02*
X60910088Y-42070209D01*
X60910088Y-42070209D02*
X60833898Y-41994019D01*
X60833898Y-41994019D02*
X60795803Y-41917828D01*
X60795803Y-41917828D02*
X60757707Y-41765447D01*
X60757707Y-41765447D02*
X60757707Y-41651161D01*
X60757707Y-41651161D02*
X60795803Y-41498780D01*
X60795803Y-41498780D02*
X60833898Y-41422590D01*
X60833898Y-41422590D02*
X60910088Y-41346400D01*
X60910088Y-41346400D02*
X61024374Y-41308304D01*
X61024374Y-41308304D02*
X61214850Y-41308304D01*
X52269047Y-42108304D02*
X52535714Y-42489257D01*
X52726190Y-42108304D02*
X52726190Y-42908304D01*
X52726190Y-42908304D02*
X52421428Y-42908304D01*
X52421428Y-42908304D02*
X52345238Y-42870209D01*
X52345238Y-42870209D02*
X52307143Y-42832114D01*
X52307143Y-42832114D02*
X52269047Y-42755923D01*
X52269047Y-42755923D02*
X52269047Y-42641638D01*
X52269047Y-42641638D02*
X52307143Y-42565447D01*
X52307143Y-42565447D02*
X52345238Y-42527352D01*
X52345238Y-42527352D02*
X52421428Y-42489257D01*
X52421428Y-42489257D02*
X52726190Y-42489257D01*
X51926190Y-42527352D02*
X51659524Y-42527352D01*
X51545238Y-42108304D02*
X51926190Y-42108304D01*
X51926190Y-42108304D02*
X51926190Y-42908304D01*
X51926190Y-42908304D02*
X51545238Y-42908304D01*
X51316666Y-42908304D02*
X50859523Y-42908304D01*
X51088095Y-42108304D02*
X51088095Y-42908304D01*
X67283898Y-42070209D02*
X67360088Y-42108304D01*
X67360088Y-42108304D02*
X67474374Y-42108304D01*
X67474374Y-42108304D02*
X67588660Y-42070209D01*
X67588660Y-42070209D02*
X67664850Y-41994019D01*
X67664850Y-41994019D02*
X67702945Y-41917828D01*
X67702945Y-41917828D02*
X67741041Y-41765447D01*
X67741041Y-41765447D02*
X67741041Y-41651161D01*
X67741041Y-41651161D02*
X67702945Y-41498780D01*
X67702945Y-41498780D02*
X67664850Y-41422590D01*
X67664850Y-41422590D02*
X67588660Y-41346400D01*
X67588660Y-41346400D02*
X67474374Y-41308304D01*
X67474374Y-41308304D02*
X67398183Y-41308304D01*
X67398183Y-41308304D02*
X67283898Y-41346400D01*
X67283898Y-41346400D02*
X67245802Y-41384495D01*
X67245802Y-41384495D02*
X67245802Y-41651161D01*
X67245802Y-41651161D02*
X67398183Y-41651161D01*
X66902945Y-41308304D02*
X66902945Y-42108304D01*
X66902945Y-42108304D02*
X66445802Y-41308304D01*
X66445802Y-41308304D02*
X66445802Y-42108304D01*
X66064850Y-41308304D02*
X66064850Y-42108304D01*
X66064850Y-42108304D02*
X65874374Y-42108304D01*
X65874374Y-42108304D02*
X65760088Y-42070209D01*
X65760088Y-42070209D02*
X65683898Y-41994019D01*
X65683898Y-41994019D02*
X65645803Y-41917828D01*
X65645803Y-41917828D02*
X65607707Y-41765447D01*
X65607707Y-41765447D02*
X65607707Y-41651161D01*
X65607707Y-41651161D02*
X65645803Y-41498780D01*
X65645803Y-41498780D02*
X65683898Y-41422590D01*
X65683898Y-41422590D02*
X65760088Y-41346400D01*
X65760088Y-41346400D02*
X65874374Y-41308304D01*
X65874374Y-41308304D02*
X66064850Y-41308304D01*
X84133332Y-41964281D02*
X84133332Y-42764281D01*
X84133332Y-42764281D02*
X83828570Y-42764281D01*
X83828570Y-42764281D02*
X83752380Y-42726186D01*
X83752380Y-42726186D02*
X83714285Y-42688091D01*
X83714285Y-42688091D02*
X83676189Y-42611900D01*
X83676189Y-42611900D02*
X83676189Y-42497615D01*
X83676189Y-42497615D02*
X83714285Y-42421424D01*
X83714285Y-42421424D02*
X83752380Y-42383329D01*
X83752380Y-42383329D02*
X83828570Y-42345234D01*
X83828570Y-42345234D02*
X84133332Y-42345234D01*
X83180951Y-42764281D02*
X83028570Y-42764281D01*
X83028570Y-42764281D02*
X82952380Y-42726186D01*
X82952380Y-42726186D02*
X82876189Y-42649996D01*
X82876189Y-42649996D02*
X82838094Y-42497615D01*
X82838094Y-42497615D02*
X82838094Y-42230948D01*
X82838094Y-42230948D02*
X82876189Y-42078567D01*
X82876189Y-42078567D02*
X82952380Y-42002377D01*
X82952380Y-42002377D02*
X83028570Y-41964281D01*
X83028570Y-41964281D02*
X83180951Y-41964281D01*
X83180951Y-41964281D02*
X83257142Y-42002377D01*
X83257142Y-42002377D02*
X83333332Y-42078567D01*
X83333332Y-42078567D02*
X83371428Y-42230948D01*
X83371428Y-42230948D02*
X83371428Y-42497615D01*
X83371428Y-42497615D02*
X83333332Y-42649996D01*
X83333332Y-42649996D02*
X83257142Y-42726186D01*
X83257142Y-42726186D02*
X83180951Y-42764281D01*
X82533333Y-42002377D02*
X82419047Y-41964281D01*
X82419047Y-41964281D02*
X82228571Y-41964281D01*
X82228571Y-41964281D02*
X82152380Y-42002377D01*
X82152380Y-42002377D02*
X82114285Y-42040472D01*
X82114285Y-42040472D02*
X82076190Y-42116662D01*
X82076190Y-42116662D02*
X82076190Y-42192853D01*
X82076190Y-42192853D02*
X82114285Y-42269043D01*
X82114285Y-42269043D02*
X82152380Y-42307138D01*
X82152380Y-42307138D02*
X82228571Y-42345234D01*
X82228571Y-42345234D02*
X82380952Y-42383329D01*
X82380952Y-42383329D02*
X82457142Y-42421424D01*
X82457142Y-42421424D02*
X82495237Y-42459519D01*
X82495237Y-42459519D02*
X82533333Y-42535710D01*
X82533333Y-42535710D02*
X82533333Y-42611900D01*
X82533333Y-42611900D02*
X82495237Y-42688091D01*
X82495237Y-42688091D02*
X82457142Y-42726186D01*
X82457142Y-42726186D02*
X82380952Y-42764281D01*
X82380952Y-42764281D02*
X82190475Y-42764281D01*
X82190475Y-42764281D02*
X82076190Y-42726186D01*
X81733332Y-41964281D02*
X81733332Y-42764281D01*
X81466666Y-42764281D02*
X81009523Y-42764281D01*
X81238095Y-41964281D02*
X81238095Y-42764281D01*
X80742856Y-41964281D02*
X80742856Y-42764281D01*
X80209523Y-42764281D02*
X80057142Y-42764281D01*
X80057142Y-42764281D02*
X79980952Y-42726186D01*
X79980952Y-42726186D02*
X79904761Y-42649996D01*
X79904761Y-42649996D02*
X79866666Y-42497615D01*
X79866666Y-42497615D02*
X79866666Y-42230948D01*
X79866666Y-42230948D02*
X79904761Y-42078567D01*
X79904761Y-42078567D02*
X79980952Y-42002377D01*
X79980952Y-42002377D02*
X80057142Y-41964281D01*
X80057142Y-41964281D02*
X80209523Y-41964281D01*
X80209523Y-41964281D02*
X80285714Y-42002377D01*
X80285714Y-42002377D02*
X80361904Y-42078567D01*
X80361904Y-42078567D02*
X80400000Y-42230948D01*
X80400000Y-42230948D02*
X80400000Y-42497615D01*
X80400000Y-42497615D02*
X80361904Y-42649996D01*
X80361904Y-42649996D02*
X80285714Y-42726186D01*
X80285714Y-42726186D02*
X80209523Y-42764281D01*
X79523809Y-41964281D02*
X79523809Y-42764281D01*
X79523809Y-42764281D02*
X79066666Y-41964281D01*
X79066666Y-41964281D02*
X79066666Y-42764281D01*
X83809524Y-40714422D02*
X83695238Y-40676326D01*
X83695238Y-40676326D02*
X83504762Y-40676326D01*
X83504762Y-40676326D02*
X83428571Y-40714422D01*
X83428571Y-40714422D02*
X83390476Y-40752517D01*
X83390476Y-40752517D02*
X83352381Y-40828707D01*
X83352381Y-40828707D02*
X83352381Y-40904898D01*
X83352381Y-40904898D02*
X83390476Y-40981088D01*
X83390476Y-40981088D02*
X83428571Y-41019183D01*
X83428571Y-41019183D02*
X83504762Y-41057279D01*
X83504762Y-41057279D02*
X83657143Y-41095374D01*
X83657143Y-41095374D02*
X83733333Y-41133469D01*
X83733333Y-41133469D02*
X83771428Y-41171564D01*
X83771428Y-41171564D02*
X83809524Y-41247755D01*
X83809524Y-41247755D02*
X83809524Y-41323945D01*
X83809524Y-41323945D02*
X83771428Y-41400136D01*
X83771428Y-41400136D02*
X83733333Y-41438231D01*
X83733333Y-41438231D02*
X83657143Y-41476326D01*
X83657143Y-41476326D02*
X83466666Y-41476326D01*
X83466666Y-41476326D02*
X83352381Y-41438231D01*
X83009523Y-41095374D02*
X82742857Y-41095374D01*
X82628571Y-40676326D02*
X83009523Y-40676326D01*
X83009523Y-40676326D02*
X83009523Y-41476326D01*
X83009523Y-41476326D02*
X82628571Y-41476326D01*
X82285713Y-40676326D02*
X82285713Y-41476326D01*
X82285713Y-41476326D02*
X81828570Y-40676326D01*
X81828570Y-40676326D02*
X81828570Y-41476326D01*
X81485714Y-40714422D02*
X81371428Y-40676326D01*
X81371428Y-40676326D02*
X81180952Y-40676326D01*
X81180952Y-40676326D02*
X81104761Y-40714422D01*
X81104761Y-40714422D02*
X81066666Y-40752517D01*
X81066666Y-40752517D02*
X81028571Y-40828707D01*
X81028571Y-40828707D02*
X81028571Y-40904898D01*
X81028571Y-40904898D02*
X81066666Y-40981088D01*
X81066666Y-40981088D02*
X81104761Y-41019183D01*
X81104761Y-41019183D02*
X81180952Y-41057279D01*
X81180952Y-41057279D02*
X81333333Y-41095374D01*
X81333333Y-41095374D02*
X81409523Y-41133469D01*
X81409523Y-41133469D02*
X81447618Y-41171564D01*
X81447618Y-41171564D02*
X81485714Y-41247755D01*
X81485714Y-41247755D02*
X81485714Y-41323945D01*
X81485714Y-41323945D02*
X81447618Y-41400136D01*
X81447618Y-41400136D02*
X81409523Y-41438231D01*
X81409523Y-41438231D02*
X81333333Y-41476326D01*
X81333333Y-41476326D02*
X81142856Y-41476326D01*
X81142856Y-41476326D02*
X81028571Y-41438231D01*
X80533332Y-41476326D02*
X80380951Y-41476326D01*
X80380951Y-41476326D02*
X80304761Y-41438231D01*
X80304761Y-41438231D02*
X80228570Y-41362041D01*
X80228570Y-41362041D02*
X80190475Y-41209660D01*
X80190475Y-41209660D02*
X80190475Y-40942993D01*
X80190475Y-40942993D02*
X80228570Y-40790612D01*
X80228570Y-40790612D02*
X80304761Y-40714422D01*
X80304761Y-40714422D02*
X80380951Y-40676326D01*
X80380951Y-40676326D02*
X80533332Y-40676326D01*
X80533332Y-40676326D02*
X80609523Y-40714422D01*
X80609523Y-40714422D02*
X80685713Y-40790612D01*
X80685713Y-40790612D02*
X80723809Y-40942993D01*
X80723809Y-40942993D02*
X80723809Y-41209660D01*
X80723809Y-41209660D02*
X80685713Y-41362041D01*
X80685713Y-41362041D02*
X80609523Y-41438231D01*
X80609523Y-41438231D02*
X80533332Y-41476326D01*
X79390475Y-40676326D02*
X79657142Y-41057279D01*
X79847618Y-40676326D02*
X79847618Y-41476326D01*
X79847618Y-41476326D02*
X79542856Y-41476326D01*
X79542856Y-41476326D02*
X79466666Y-41438231D01*
X79466666Y-41438231D02*
X79428571Y-41400136D01*
X79428571Y-41400136D02*
X79390475Y-41323945D01*
X79390475Y-41323945D02*
X79390475Y-41209660D01*
X79390475Y-41209660D02*
X79428571Y-41133469D01*
X79428571Y-41133469D02*
X79466666Y-41095374D01*
X79466666Y-41095374D02*
X79542856Y-41057279D01*
X79542856Y-41057279D02*
X79847618Y-41057279D01*
X50804761Y-40447780D02*
X50804761Y-41447780D01*
X50804761Y-41447780D02*
X50423809Y-41447780D01*
X50423809Y-41447780D02*
X50328571Y-41400161D01*
X50328571Y-41400161D02*
X50280952Y-41352542D01*
X50280952Y-41352542D02*
X50233333Y-41257304D01*
X50233333Y-41257304D02*
X50233333Y-41114447D01*
X50233333Y-41114447D02*
X50280952Y-41019209D01*
X50280952Y-41019209D02*
X50328571Y-40971590D01*
X50328571Y-40971590D02*
X50423809Y-40923971D01*
X50423809Y-40923971D02*
X50804761Y-40923971D01*
X49899999Y-41447780D02*
X49661904Y-40447780D01*
X49661904Y-40447780D02*
X49471428Y-41162066D01*
X49471428Y-41162066D02*
X49280952Y-40447780D01*
X49280952Y-40447780D02*
X49042857Y-41447780D01*
X48661904Y-40447780D02*
X48661904Y-41447780D01*
X48661904Y-41447780D02*
X48328571Y-40733495D01*
X48328571Y-40733495D02*
X47995238Y-41447780D01*
X47995238Y-41447780D02*
X47995238Y-40447780D01*
X57578570Y-42109043D02*
X56969047Y-42109043D01*
X57273808Y-41804281D02*
X57273808Y-42413805D01*
X56207142Y-42604281D02*
X56588094Y-42604281D01*
X56588094Y-42604281D02*
X56626190Y-42223329D01*
X56626190Y-42223329D02*
X56588094Y-42261424D01*
X56588094Y-42261424D02*
X56511904Y-42299519D01*
X56511904Y-42299519D02*
X56321428Y-42299519D01*
X56321428Y-42299519D02*
X56245237Y-42261424D01*
X56245237Y-42261424D02*
X56207142Y-42223329D01*
X56207142Y-42223329D02*
X56169047Y-42147138D01*
X56169047Y-42147138D02*
X56169047Y-41956662D01*
X56169047Y-41956662D02*
X56207142Y-41880472D01*
X56207142Y-41880472D02*
X56245237Y-41842377D01*
X56245237Y-41842377D02*
X56321428Y-41804281D01*
X56321428Y-41804281D02*
X56511904Y-41804281D01*
X56511904Y-41804281D02*
X56588094Y-41842377D01*
X56588094Y-41842377D02*
X56626190Y-41880472D01*
X55940475Y-42604281D02*
X55673808Y-41804281D01*
X55673808Y-41804281D02*
X55407142Y-42604281D01*
X57349999Y-41316326D02*
X57197618Y-41316326D01*
X57197618Y-41316326D02*
X57121428Y-41278231D01*
X57121428Y-41278231D02*
X57045237Y-41202041D01*
X57045237Y-41202041D02*
X57007142Y-41049660D01*
X57007142Y-41049660D02*
X57007142Y-40782993D01*
X57007142Y-40782993D02*
X57045237Y-40630612D01*
X57045237Y-40630612D02*
X57121428Y-40554422D01*
X57121428Y-40554422D02*
X57197618Y-40516326D01*
X57197618Y-40516326D02*
X57349999Y-40516326D01*
X57349999Y-40516326D02*
X57426190Y-40554422D01*
X57426190Y-40554422D02*
X57502380Y-40630612D01*
X57502380Y-40630612D02*
X57540476Y-40782993D01*
X57540476Y-40782993D02*
X57540476Y-41049660D01*
X57540476Y-41049660D02*
X57502380Y-41202041D01*
X57502380Y-41202041D02*
X57426190Y-41278231D01*
X57426190Y-41278231D02*
X57349999Y-41316326D01*
X56664285Y-41316326D02*
X56664285Y-40668707D01*
X56664285Y-40668707D02*
X56626190Y-40592517D01*
X56626190Y-40592517D02*
X56588095Y-40554422D01*
X56588095Y-40554422D02*
X56511904Y-40516326D01*
X56511904Y-40516326D02*
X56359523Y-40516326D01*
X56359523Y-40516326D02*
X56283333Y-40554422D01*
X56283333Y-40554422D02*
X56245238Y-40592517D01*
X56245238Y-40592517D02*
X56207142Y-40668707D01*
X56207142Y-40668707D02*
X56207142Y-41316326D01*
X55940476Y-41316326D02*
X55483333Y-41316326D01*
X55711905Y-40516326D02*
X55711905Y-41316326D01*
X77959523Y-42239043D02*
X77350000Y-42239043D01*
X77654761Y-41934281D02*
X77654761Y-42543805D01*
X76550000Y-41934281D02*
X77007143Y-41934281D01*
X76778571Y-41934281D02*
X76778571Y-42734281D01*
X76778571Y-42734281D02*
X76854762Y-42619996D01*
X76854762Y-42619996D02*
X76930952Y-42543805D01*
X76930952Y-42543805D02*
X77007143Y-42505710D01*
X76245238Y-42658091D02*
X76207142Y-42696186D01*
X76207142Y-42696186D02*
X76130952Y-42734281D01*
X76130952Y-42734281D02*
X75940476Y-42734281D01*
X75940476Y-42734281D02*
X75864285Y-42696186D01*
X75864285Y-42696186D02*
X75826190Y-42658091D01*
X75826190Y-42658091D02*
X75788095Y-42581900D01*
X75788095Y-42581900D02*
X75788095Y-42505710D01*
X75788095Y-42505710D02*
X75826190Y-42391424D01*
X75826190Y-42391424D02*
X76283333Y-41934281D01*
X76283333Y-41934281D02*
X75788095Y-41934281D01*
X75559523Y-42734281D02*
X75292856Y-41934281D01*
X75292856Y-41934281D02*
X75026190Y-42734281D01*
X78092856Y-40646326D02*
X78092856Y-41446326D01*
X77711904Y-40646326D02*
X77711904Y-41446326D01*
X77711904Y-41446326D02*
X77254761Y-40646326D01*
X77254761Y-40646326D02*
X77254761Y-41446326D01*
X76873809Y-40646326D02*
X76873809Y-41446326D01*
X76873809Y-41446326D02*
X76569047Y-41446326D01*
X76569047Y-41446326D02*
X76492857Y-41408231D01*
X76492857Y-41408231D02*
X76454762Y-41370136D01*
X76454762Y-41370136D02*
X76416666Y-41293945D01*
X76416666Y-41293945D02*
X76416666Y-41179660D01*
X76416666Y-41179660D02*
X76454762Y-41103469D01*
X76454762Y-41103469D02*
X76492857Y-41065374D01*
X76492857Y-41065374D02*
X76569047Y-41027279D01*
X76569047Y-41027279D02*
X76873809Y-41027279D01*
X76073809Y-41446326D02*
X76073809Y-40798707D01*
X76073809Y-40798707D02*
X76035714Y-40722517D01*
X76035714Y-40722517D02*
X75997619Y-40684422D01*
X75997619Y-40684422D02*
X75921428Y-40646326D01*
X75921428Y-40646326D02*
X75769047Y-40646326D01*
X75769047Y-40646326D02*
X75692857Y-40684422D01*
X75692857Y-40684422D02*
X75654762Y-40722517D01*
X75654762Y-40722517D02*
X75616666Y-40798707D01*
X75616666Y-40798707D02*
X75616666Y-41446326D01*
X75350000Y-41446326D02*
X74892857Y-41446326D01*
X75121429Y-40646326D02*
X75121429Y-41446326D01*
D12*
X71864819Y-95129523D02*
X72579104Y-95129523D01*
X72579104Y-95129523D02*
X72721961Y-95177142D01*
X72721961Y-95177142D02*
X72817200Y-95272380D01*
X72817200Y-95272380D02*
X72864819Y-95415237D01*
X72864819Y-95415237D02*
X72864819Y-95510475D01*
X72864819Y-94129523D02*
X72864819Y-94700951D01*
X72864819Y-94415237D02*
X71864819Y-94415237D01*
X71864819Y-94415237D02*
X72007676Y-94510475D01*
X72007676Y-94510475D02*
X72102914Y-94605713D01*
X72102914Y-94605713D02*
X72150533Y-94700951D01*
X71864819Y-93510475D02*
X71864819Y-93415237D01*
X71864819Y-93415237D02*
X71912438Y-93319999D01*
X71912438Y-93319999D02*
X71960057Y-93272380D01*
X71960057Y-93272380D02*
X72055295Y-93224761D01*
X72055295Y-93224761D02*
X72245771Y-93177142D01*
X72245771Y-93177142D02*
X72483866Y-93177142D01*
X72483866Y-93177142D02*
X72674342Y-93224761D01*
X72674342Y-93224761D02*
X72769580Y-93272380D01*
X72769580Y-93272380D02*
X72817200Y-93319999D01*
X72817200Y-93319999D02*
X72864819Y-93415237D01*
X72864819Y-93415237D02*
X72864819Y-93510475D01*
X72864819Y-93510475D02*
X72817200Y-93605713D01*
X72817200Y-93605713D02*
X72769580Y-93653332D01*
X72769580Y-93653332D02*
X72674342Y-93700951D01*
X72674342Y-93700951D02*
X72483866Y-93748570D01*
X72483866Y-93748570D02*
X72245771Y-93748570D01*
X72245771Y-93748570D02*
X72055295Y-93700951D01*
X72055295Y-93700951D02*
X71960057Y-93653332D01*
X71960057Y-93653332D02*
X71912438Y-93605713D01*
X71912438Y-93605713D02*
X71864819Y-93510475D01*
X58776666Y-45671819D02*
X58776666Y-46386104D01*
X58776666Y-46386104D02*
X58729047Y-46528961D01*
X58729047Y-46528961D02*
X58633809Y-46624200D01*
X58633809Y-46624200D02*
X58490952Y-46671819D01*
X58490952Y-46671819D02*
X58395714Y-46671819D01*
X59776666Y-46671819D02*
X59205238Y-46671819D01*
X59490952Y-46671819D02*
X59490952Y-45671819D01*
X59490952Y-45671819D02*
X59395714Y-45814676D01*
X59395714Y-45814676D02*
X59300476Y-45909914D01*
X59300476Y-45909914D02*
X59205238Y-45957533D01*
X88784819Y-72385833D02*
X89499104Y-72385833D01*
X89499104Y-72385833D02*
X89641961Y-72433452D01*
X89641961Y-72433452D02*
X89737200Y-72528690D01*
X89737200Y-72528690D02*
X89784819Y-72671547D01*
X89784819Y-72671547D02*
X89784819Y-72766785D01*
X88784819Y-71433452D02*
X88784819Y-71909642D01*
X88784819Y-71909642D02*
X89261009Y-71957261D01*
X89261009Y-71957261D02*
X89213390Y-71909642D01*
X89213390Y-71909642D02*
X89165771Y-71814404D01*
X89165771Y-71814404D02*
X89165771Y-71576309D01*
X89165771Y-71576309D02*
X89213390Y-71481071D01*
X89213390Y-71481071D02*
X89261009Y-71433452D01*
X89261009Y-71433452D02*
X89356247Y-71385833D01*
X89356247Y-71385833D02*
X89594342Y-71385833D01*
X89594342Y-71385833D02*
X89689580Y-71433452D01*
X89689580Y-71433452D02*
X89737200Y-71481071D01*
X89737200Y-71481071D02*
X89784819Y-71576309D01*
X89784819Y-71576309D02*
X89784819Y-71814404D01*
X89784819Y-71814404D02*
X89737200Y-71909642D01*
X89737200Y-71909642D02*
X89689580Y-71957261D01*
X48020268Y-88704819D02*
X48020268Y-89419104D01*
X48020268Y-89419104D02*
X47972649Y-89561961D01*
X47972649Y-89561961D02*
X47877411Y-89657200D01*
X47877411Y-89657200D02*
X47734554Y-89704819D01*
X47734554Y-89704819D02*
X47639316Y-89704819D01*
X49020268Y-89704819D02*
X48448840Y-89704819D01*
X48734554Y-89704819D02*
X48734554Y-88704819D01*
X48734554Y-88704819D02*
X48639316Y-88847676D01*
X48639316Y-88847676D02*
X48544078Y-88942914D01*
X48544078Y-88942914D02*
X48448840Y-88990533D01*
X49972649Y-89704819D02*
X49401221Y-89704819D01*
X49686935Y-89704819D02*
X49686935Y-88704819D01*
X49686935Y-88704819D02*
X49591697Y-88847676D01*
X49591697Y-88847676D02*
X49496459Y-88942914D01*
X49496459Y-88942914D02*
X49401221Y-88990533D01*
X79096666Y-45584819D02*
X79096666Y-46299104D01*
X79096666Y-46299104D02*
X79049047Y-46441961D01*
X79049047Y-46441961D02*
X78953809Y-46537200D01*
X78953809Y-46537200D02*
X78810952Y-46584819D01*
X78810952Y-46584819D02*
X78715714Y-46584819D01*
X80001428Y-45918152D02*
X80001428Y-46584819D01*
X79763333Y-45537200D02*
X79525238Y-46251485D01*
X79525238Y-46251485D02*
X80144285Y-46251485D01*
X84156666Y-104784819D02*
X84156666Y-105499104D01*
X84156666Y-105499104D02*
X84109047Y-105641961D01*
X84109047Y-105641961D02*
X84013809Y-105737200D01*
X84013809Y-105737200D02*
X83870952Y-105784819D01*
X83870952Y-105784819D02*
X83775714Y-105784819D01*
X84680476Y-105784819D02*
X84870952Y-105784819D01*
X84870952Y-105784819D02*
X84966190Y-105737200D01*
X84966190Y-105737200D02*
X85013809Y-105689580D01*
X85013809Y-105689580D02*
X85109047Y-105546723D01*
X85109047Y-105546723D02*
X85156666Y-105356247D01*
X85156666Y-105356247D02*
X85156666Y-104975295D01*
X85156666Y-104975295D02*
X85109047Y-104880057D01*
X85109047Y-104880057D02*
X85061428Y-104832438D01*
X85061428Y-104832438D02*
X84966190Y-104784819D01*
X84966190Y-104784819D02*
X84775714Y-104784819D01*
X84775714Y-104784819D02*
X84680476Y-104832438D01*
X84680476Y-104832438D02*
X84632857Y-104880057D01*
X84632857Y-104880057D02*
X84585238Y-104975295D01*
X84585238Y-104975295D02*
X84585238Y-105213390D01*
X84585238Y-105213390D02*
X84632857Y-105308628D01*
X84632857Y-105308628D02*
X84680476Y-105356247D01*
X84680476Y-105356247D02*
X84775714Y-105403866D01*
X84775714Y-105403866D02*
X84966190Y-105403866D01*
X84966190Y-105403866D02*
X85061428Y-105356247D01*
X85061428Y-105356247D02*
X85109047Y-105308628D01*
X85109047Y-105308628D02*
X85156666Y-105213390D01*
X48596666Y-45674819D02*
X48596666Y-46389104D01*
X48596666Y-46389104D02*
X48549047Y-46531961D01*
X48549047Y-46531961D02*
X48453809Y-46627200D01*
X48453809Y-46627200D02*
X48310952Y-46674819D01*
X48310952Y-46674819D02*
X48215714Y-46674819D01*
X48977619Y-45674819D02*
X49596666Y-45674819D01*
X49596666Y-45674819D02*
X49263333Y-46055771D01*
X49263333Y-46055771D02*
X49406190Y-46055771D01*
X49406190Y-46055771D02*
X49501428Y-46103390D01*
X49501428Y-46103390D02*
X49549047Y-46151009D01*
X49549047Y-46151009D02*
X49596666Y-46246247D01*
X49596666Y-46246247D02*
X49596666Y-46484342D01*
X49596666Y-46484342D02*
X49549047Y-46579580D01*
X49549047Y-46579580D02*
X49501428Y-46627200D01*
X49501428Y-46627200D02*
X49406190Y-46674819D01*
X49406190Y-46674819D02*
X49120476Y-46674819D01*
X49120476Y-46674819D02*
X49025238Y-46627200D01*
X49025238Y-46627200D02*
X48977619Y-46579580D01*
X107576666Y-56694819D02*
X107576666Y-57409104D01*
X107576666Y-57409104D02*
X107529047Y-57551961D01*
X107529047Y-57551961D02*
X107433809Y-57647200D01*
X107433809Y-57647200D02*
X107290952Y-57694819D01*
X107290952Y-57694819D02*
X107195714Y-57694819D01*
X107957619Y-56694819D02*
X108624285Y-56694819D01*
X108624285Y-56694819D02*
X108195714Y-57694819D01*
X68936666Y-45681819D02*
X68936666Y-46396104D01*
X68936666Y-46396104D02*
X68889047Y-46538961D01*
X68889047Y-46538961D02*
X68793809Y-46634200D01*
X68793809Y-46634200D02*
X68650952Y-46681819D01*
X68650952Y-46681819D02*
X68555714Y-46681819D01*
X69365238Y-45777057D02*
X69412857Y-45729438D01*
X69412857Y-45729438D02*
X69508095Y-45681819D01*
X69508095Y-45681819D02*
X69746190Y-45681819D01*
X69746190Y-45681819D02*
X69841428Y-45729438D01*
X69841428Y-45729438D02*
X69889047Y-45777057D01*
X69889047Y-45777057D02*
X69936666Y-45872295D01*
X69936666Y-45872295D02*
X69936666Y-45967533D01*
X69936666Y-45967533D02*
X69889047Y-46110390D01*
X69889047Y-46110390D02*
X69317619Y-46681819D01*
X69317619Y-46681819D02*
X69936666Y-46681819D01*
X75594507Y-84835523D02*
X76308792Y-84835523D01*
X76308792Y-84835523D02*
X76451649Y-84883142D01*
X76451649Y-84883142D02*
X76546888Y-84978380D01*
X76546888Y-84978380D02*
X76594507Y-85121237D01*
X76594507Y-85121237D02*
X76594507Y-85216475D01*
X76594507Y-83835523D02*
X76594507Y-84406951D01*
X76594507Y-84121237D02*
X75594507Y-84121237D01*
X75594507Y-84121237D02*
X75737364Y-84216475D01*
X75737364Y-84216475D02*
X75832602Y-84311713D01*
X75832602Y-84311713D02*
X75880221Y-84406951D01*
X75927840Y-82978380D02*
X76594507Y-82978380D01*
X75546888Y-83216475D02*
X76261173Y-83454570D01*
X76261173Y-83454570D02*
X76261173Y-82835523D01*
X59531904Y-66159104D02*
X60008094Y-66159104D01*
X59436666Y-66444819D02*
X59769999Y-65444819D01*
X59769999Y-65444819D02*
X60103332Y-66444819D01*
X60436666Y-66444819D02*
X60436666Y-65778152D01*
X60436666Y-65968628D02*
X60484285Y-65873390D01*
X60484285Y-65873390D02*
X60531904Y-65825771D01*
X60531904Y-65825771D02*
X60627142Y-65778152D01*
X60627142Y-65778152D02*
X60722380Y-65778152D01*
X61484285Y-66444819D02*
X61484285Y-65444819D01*
X61484285Y-66397200D02*
X61389047Y-66444819D01*
X61389047Y-66444819D02*
X61198571Y-66444819D01*
X61198571Y-66444819D02*
X61103333Y-66397200D01*
X61103333Y-66397200D02*
X61055714Y-66349580D01*
X61055714Y-66349580D02*
X61008095Y-66254342D01*
X61008095Y-66254342D02*
X61008095Y-65968628D01*
X61008095Y-65968628D02*
X61055714Y-65873390D01*
X61055714Y-65873390D02*
X61103333Y-65825771D01*
X61103333Y-65825771D02*
X61198571Y-65778152D01*
X61198571Y-65778152D02*
X61389047Y-65778152D01*
X61389047Y-65778152D02*
X61484285Y-65825771D01*
X62389047Y-65778152D02*
X62389047Y-66444819D01*
X61960476Y-65778152D02*
X61960476Y-66301961D01*
X61960476Y-66301961D02*
X62008095Y-66397200D01*
X62008095Y-66397200D02*
X62103333Y-66444819D01*
X62103333Y-66444819D02*
X62246190Y-66444819D01*
X62246190Y-66444819D02*
X62341428Y-66397200D01*
X62341428Y-66397200D02*
X62389047Y-66349580D01*
X62865238Y-66444819D02*
X62865238Y-65778152D01*
X62865238Y-65444819D02*
X62817619Y-65492438D01*
X62817619Y-65492438D02*
X62865238Y-65540057D01*
X62865238Y-65540057D02*
X62912857Y-65492438D01*
X62912857Y-65492438D02*
X62865238Y-65444819D01*
X62865238Y-65444819D02*
X62865238Y-65540057D01*
X63341428Y-65778152D02*
X63341428Y-66444819D01*
X63341428Y-65873390D02*
X63389047Y-65825771D01*
X63389047Y-65825771D02*
X63484285Y-65778152D01*
X63484285Y-65778152D02*
X63627142Y-65778152D01*
X63627142Y-65778152D02*
X63722380Y-65825771D01*
X63722380Y-65825771D02*
X63769999Y-65921009D01*
X63769999Y-65921009D02*
X63769999Y-66444819D01*
X64389047Y-66444819D02*
X64293809Y-66397200D01*
X64293809Y-66397200D02*
X64246190Y-66349580D01*
X64246190Y-66349580D02*
X64198571Y-66254342D01*
X64198571Y-66254342D02*
X64198571Y-65968628D01*
X64198571Y-65968628D02*
X64246190Y-65873390D01*
X64246190Y-65873390D02*
X64293809Y-65825771D01*
X64293809Y-65825771D02*
X64389047Y-65778152D01*
X64389047Y-65778152D02*
X64531904Y-65778152D01*
X64531904Y-65778152D02*
X64627142Y-65825771D01*
X64627142Y-65825771D02*
X64674761Y-65873390D01*
X64674761Y-65873390D02*
X64722380Y-65968628D01*
X64722380Y-65968628D02*
X64722380Y-66254342D01*
X64722380Y-66254342D02*
X64674761Y-66349580D01*
X64674761Y-66349580D02*
X64627142Y-66397200D01*
X64627142Y-66397200D02*
X64531904Y-66444819D01*
X64531904Y-66444819D02*
X64389047Y-66444819D01*
X64912857Y-66540057D02*
X65674761Y-66540057D01*
X65912857Y-66444819D02*
X65912857Y-65444819D01*
X65912857Y-65444819D02*
X66484285Y-66444819D01*
X66484285Y-66444819D02*
X66484285Y-65444819D01*
X67389047Y-66444819D02*
X67389047Y-65921009D01*
X67389047Y-65921009D02*
X67341428Y-65825771D01*
X67341428Y-65825771D02*
X67246190Y-65778152D01*
X67246190Y-65778152D02*
X67055714Y-65778152D01*
X67055714Y-65778152D02*
X66960476Y-65825771D01*
X67389047Y-66397200D02*
X67293809Y-66444819D01*
X67293809Y-66444819D02*
X67055714Y-66444819D01*
X67055714Y-66444819D02*
X66960476Y-66397200D01*
X66960476Y-66397200D02*
X66912857Y-66301961D01*
X66912857Y-66301961D02*
X66912857Y-66206723D01*
X66912857Y-66206723D02*
X66960476Y-66111485D01*
X66960476Y-66111485D02*
X67055714Y-66063866D01*
X67055714Y-66063866D02*
X67293809Y-66063866D01*
X67293809Y-66063866D02*
X67389047Y-66016247D01*
X67865238Y-65778152D02*
X67865238Y-66444819D01*
X67865238Y-65873390D02*
X67912857Y-65825771D01*
X67912857Y-65825771D02*
X68008095Y-65778152D01*
X68008095Y-65778152D02*
X68150952Y-65778152D01*
X68150952Y-65778152D02*
X68246190Y-65825771D01*
X68246190Y-65825771D02*
X68293809Y-65921009D01*
X68293809Y-65921009D02*
X68293809Y-66444819D01*
X68912857Y-66444819D02*
X68817619Y-66397200D01*
X68817619Y-66397200D02*
X68770000Y-66349580D01*
X68770000Y-66349580D02*
X68722381Y-66254342D01*
X68722381Y-66254342D02*
X68722381Y-65968628D01*
X68722381Y-65968628D02*
X68770000Y-65873390D01*
X68770000Y-65873390D02*
X68817619Y-65825771D01*
X68817619Y-65825771D02*
X68912857Y-65778152D01*
X68912857Y-65778152D02*
X69055714Y-65778152D01*
X69055714Y-65778152D02*
X69150952Y-65825771D01*
X69150952Y-65825771D02*
X69198571Y-65873390D01*
X69198571Y-65873390D02*
X69246190Y-65968628D01*
X69246190Y-65968628D02*
X69246190Y-66254342D01*
X69246190Y-66254342D02*
X69198571Y-66349580D01*
X69198571Y-66349580D02*
X69150952Y-66397200D01*
X69150952Y-66397200D02*
X69055714Y-66444819D01*
X69055714Y-66444819D02*
X68912857Y-66444819D01*
X69436667Y-66540057D02*
X70198571Y-66540057D01*
X70341429Y-65778152D02*
X70579524Y-66444819D01*
X70579524Y-66444819D02*
X70817619Y-65778152D01*
X71103334Y-65444819D02*
X71722381Y-65444819D01*
X71722381Y-65444819D02*
X71389048Y-65825771D01*
X71389048Y-65825771D02*
X71531905Y-65825771D01*
X71531905Y-65825771D02*
X71627143Y-65873390D01*
X71627143Y-65873390D02*
X71674762Y-65921009D01*
X71674762Y-65921009D02*
X71722381Y-66016247D01*
X71722381Y-66016247D02*
X71722381Y-66254342D01*
X71722381Y-66254342D02*
X71674762Y-66349580D01*
X71674762Y-66349580D02*
X71627143Y-66397200D01*
X71627143Y-66397200D02*
X71531905Y-66444819D01*
X71531905Y-66444819D02*
X71246191Y-66444819D01*
X71246191Y-66444819D02*
X71150953Y-66397200D01*
X71150953Y-66397200D02*
X71103334Y-66349580D01*
X72150953Y-66349580D02*
X72198572Y-66397200D01*
X72198572Y-66397200D02*
X72150953Y-66444819D01*
X72150953Y-66444819D02*
X72103334Y-66397200D01*
X72103334Y-66397200D02*
X72150953Y-66349580D01*
X72150953Y-66349580D02*
X72150953Y-66444819D01*
X72531905Y-66444819D02*
X73055714Y-65778152D01*
X72531905Y-65778152D02*
X73055714Y-66444819D01*
X65555714Y-63619104D02*
X66031904Y-63619104D01*
X65460476Y-63904819D02*
X65793809Y-62904819D01*
X65793809Y-62904819D02*
X66127142Y-63904819D01*
X66984285Y-63904819D02*
X66412857Y-63904819D01*
X66698571Y-63904819D02*
X66698571Y-62904819D01*
X66698571Y-62904819D02*
X66603333Y-63047676D01*
X66603333Y-63047676D02*
X66508095Y-63142914D01*
X66508095Y-63142914D02*
X66412857Y-63190533D01*
X49004819Y-66161904D02*
X49814342Y-66161904D01*
X49814342Y-66161904D02*
X49909580Y-66114285D01*
X49909580Y-66114285D02*
X49957200Y-66066666D01*
X49957200Y-66066666D02*
X50004819Y-65971428D01*
X50004819Y-65971428D02*
X50004819Y-65780952D01*
X50004819Y-65780952D02*
X49957200Y-65685714D01*
X49957200Y-65685714D02*
X49909580Y-65638095D01*
X49909580Y-65638095D02*
X49814342Y-65590476D01*
X49814342Y-65590476D02*
X49004819Y-65590476D01*
X49957200Y-65161904D02*
X50004819Y-65019047D01*
X50004819Y-65019047D02*
X50004819Y-64780952D01*
X50004819Y-64780952D02*
X49957200Y-64685714D01*
X49957200Y-64685714D02*
X49909580Y-64638095D01*
X49909580Y-64638095D02*
X49814342Y-64590476D01*
X49814342Y-64590476D02*
X49719104Y-64590476D01*
X49719104Y-64590476D02*
X49623866Y-64638095D01*
X49623866Y-64638095D02*
X49576247Y-64685714D01*
X49576247Y-64685714D02*
X49528628Y-64780952D01*
X49528628Y-64780952D02*
X49481009Y-64971428D01*
X49481009Y-64971428D02*
X49433390Y-65066666D01*
X49433390Y-65066666D02*
X49385771Y-65114285D01*
X49385771Y-65114285D02*
X49290533Y-65161904D01*
X49290533Y-65161904D02*
X49195295Y-65161904D01*
X49195295Y-65161904D02*
X49100057Y-65114285D01*
X49100057Y-65114285D02*
X49052438Y-65066666D01*
X49052438Y-65066666D02*
X49004819Y-64971428D01*
X49004819Y-64971428D02*
X49004819Y-64733333D01*
X49004819Y-64733333D02*
X49052438Y-64590476D01*
X49481009Y-63828571D02*
X49528628Y-63685714D01*
X49528628Y-63685714D02*
X49576247Y-63638095D01*
X49576247Y-63638095D02*
X49671485Y-63590476D01*
X49671485Y-63590476D02*
X49814342Y-63590476D01*
X49814342Y-63590476D02*
X49909580Y-63638095D01*
X49909580Y-63638095D02*
X49957200Y-63685714D01*
X49957200Y-63685714D02*
X50004819Y-63780952D01*
X50004819Y-63780952D02*
X50004819Y-64161904D01*
X50004819Y-64161904D02*
X49004819Y-64161904D01*
X49004819Y-64161904D02*
X49004819Y-63828571D01*
X49004819Y-63828571D02*
X49052438Y-63733333D01*
X49052438Y-63733333D02*
X49100057Y-63685714D01*
X49100057Y-63685714D02*
X49195295Y-63638095D01*
X49195295Y-63638095D02*
X49290533Y-63638095D01*
X49290533Y-63638095D02*
X49385771Y-63685714D01*
X49385771Y-63685714D02*
X49433390Y-63733333D01*
X49433390Y-63733333D02*
X49481009Y-63828571D01*
X49481009Y-63828571D02*
X49481009Y-64161904D01*
D13*
X88870000Y-95700000D02*
X88870000Y-92940000D01*
X76060000Y-95700000D02*
X88870000Y-95700000D01*
X76060000Y-95700000D02*
X76060000Y-92940000D01*
X76060000Y-92940000D02*
X88870000Y-92940000D01*
X74790000Y-95700000D02*
X73410000Y-95700000D01*
X73410000Y-95700000D02*
X73410000Y-94320000D01*
X54030000Y-47487000D02*
X54030000Y-55107000D01*
X54030000Y-55107000D02*
X64190000Y-55107000D01*
X64190000Y-47487000D02*
X54030000Y-47487000D01*
X64190000Y-53837000D02*
X54030000Y-53837000D01*
X64190000Y-55107000D02*
X64190000Y-47487000D01*
X90330000Y-73432500D02*
X90330000Y-72052500D01*
X91710000Y-73432500D02*
X90330000Y-73432500D01*
X92980000Y-70672500D02*
X100710000Y-70672500D01*
X92980000Y-73432500D02*
X92980000Y-70672500D01*
X92980000Y-73432500D02*
X100710000Y-73432500D01*
X100710000Y-73432500D02*
X100710000Y-70672500D01*
X46179792Y-88250000D02*
X46179792Y-77870000D01*
X48829792Y-85600000D02*
X48829792Y-88250000D01*
X48829792Y-88250000D02*
X46179792Y-88250000D01*
X51479792Y-77870000D02*
X46179792Y-77870000D01*
X51479792Y-85600000D02*
X48829792Y-85600000D01*
X51479792Y-85600000D02*
X51479792Y-77870000D01*
X51479792Y-86870000D02*
X51479792Y-88250000D01*
X51479792Y-88250000D02*
X50099792Y-88250000D01*
X74350000Y-47497000D02*
X74350000Y-55117000D01*
X74350000Y-55117000D02*
X84510000Y-55117000D01*
X84510000Y-47497000D02*
X74350000Y-47497000D01*
X84510000Y-53847000D02*
X74350000Y-53847000D01*
X84510000Y-55117000D02*
X84510000Y-47497000D01*
X83110000Y-106330000D02*
X84490000Y-106330000D01*
X83110000Y-107710000D02*
X83110000Y-106330000D01*
X83110000Y-108980000D02*
X83110000Y-116710000D01*
X83110000Y-108980000D02*
X85870000Y-108980000D01*
X83110000Y-116710000D02*
X85870000Y-116710000D01*
X85870000Y-108980000D02*
X85870000Y-116710000D01*
X43850000Y-47490000D02*
X43850000Y-55110000D01*
X43850000Y-55110000D02*
X54010000Y-55110000D01*
X54010000Y-47490000D02*
X43850000Y-47490000D01*
X54010000Y-53840000D02*
X43850000Y-53840000D01*
X54010000Y-55110000D02*
X54010000Y-47490000D01*
X106530000Y-58240000D02*
X107910000Y-58240000D01*
X106530000Y-59620000D02*
X106530000Y-58240000D01*
X106530000Y-60890000D02*
X106530000Y-73700000D01*
X106530000Y-60890000D02*
X109290000Y-60890000D01*
X106530000Y-73700000D02*
X109290000Y-73700000D01*
X109290000Y-60890000D02*
X109290000Y-73700000D01*
X64190000Y-47497000D02*
X64190000Y-55117000D01*
X64190000Y-55117000D02*
X74350000Y-55117000D01*
X74350000Y-47497000D02*
X64190000Y-47497000D01*
X74350000Y-53847000D02*
X64190000Y-53847000D01*
X74350000Y-55117000D02*
X74350000Y-47497000D01*
X67679688Y-76436000D02*
X67679688Y-91676000D01*
X67679688Y-76436000D02*
X75299688Y-76436000D01*
X67679688Y-91676000D02*
X75299688Y-91676000D01*
X68949688Y-76436000D02*
X68949688Y-91676000D01*
X75299688Y-76436000D02*
X75299688Y-91676000D01*
X43280000Y-60780000D02*
X53700000Y-60780000D01*
X43280000Y-68660000D02*
X43280000Y-60780000D01*
X45820000Y-55700000D02*
X45820000Y-60780000D01*
X45820000Y-73740000D02*
X45820000Y-68660000D01*
X45820000Y-73740000D02*
X89260000Y-73740000D01*
X48490000Y-58370000D02*
X48490000Y-55700000D01*
X48490000Y-71070000D02*
X48490000Y-73740000D01*
X53700000Y-60780000D02*
X53700000Y-68660000D01*
X53700000Y-68660000D02*
X43280000Y-68660000D01*
X84050000Y-55700000D02*
X45820000Y-55700000D01*
X84050000Y-58370000D02*
X48490000Y-58370000D01*
X84050000Y-58370000D02*
X84050000Y-55700000D01*
X84050000Y-58370000D02*
X86590000Y-58370000D01*
X86590000Y-58370000D02*
X86590000Y-55700000D01*
X86590000Y-71070000D02*
X48490000Y-71070000D01*
X86590000Y-71070000D02*
X86590000Y-73740000D01*
X89260000Y-55700000D02*
X86590000Y-55700000D01*
X89260000Y-73740000D02*
X89260000Y-55700000D01*
M02*
