G04 #@! TF.GenerationSoftware,KiCad,Pcbnew,9.0.7*
G04 #@! TF.CreationDate,2026-03-13T13:53:43-04:00*
G04 #@! TF.ProjectId,OLEDBoard,4f4c4544-426f-4617-9264-2e6b69636164,1*
G04 #@! TF.SameCoordinates,Original*
G04 #@! TF.FileFunction,Legend,Top*
G04 #@! TF.FilePolarity,Positive*
%FSLAX46Y46*%
G04 Gerber Fmt 4.6, Leading zero omitted, Abs format (unit mm)*
G04 Created by KiCad (PCBNEW 9.0.7) date 2026-03-13 13:53:43*
%MOMM*%
%LPD*%
G01*
G04 APERTURE LIST*
%ADD10C,0.100000*%
%ADD11C,0.200000*%
%ADD12C,0.150000*%
%ADD13C,0.120000*%
G04 APERTURE END LIST*
D10*
X146205104Y-77899000D02*
X163805104Y-77899000D01*
X163805104Y-109899000D01*
X146205104Y-109899000D01*
X146205104Y-77899000D01*
X113155104Y-81849000D02*
X143255104Y-81849000D01*
X143255104Y-110099000D01*
X113155104Y-110099000D01*
X113155104Y-81849000D01*
D11*
X156275208Y-95065000D02*
X156275208Y-92265000D01*
X154780208Y-93665000D02*
X157770208Y-93665000D01*
X126887219Y-100502143D02*
X126887219Y-100311667D01*
X126887219Y-100311667D02*
X126934838Y-100216429D01*
X126934838Y-100216429D02*
X127030076Y-100121191D01*
X127030076Y-100121191D02*
X127220552Y-100073572D01*
X127220552Y-100073572D02*
X127553885Y-100073572D01*
X127553885Y-100073572D02*
X127744361Y-100121191D01*
X127744361Y-100121191D02*
X127839600Y-100216429D01*
X127839600Y-100216429D02*
X127887219Y-100311667D01*
X127887219Y-100311667D02*
X127887219Y-100502143D01*
X127887219Y-100502143D02*
X127839600Y-100597381D01*
X127839600Y-100597381D02*
X127744361Y-100692619D01*
X127744361Y-100692619D02*
X127553885Y-100740238D01*
X127553885Y-100740238D02*
X127220552Y-100740238D01*
X127220552Y-100740238D02*
X127030076Y-100692619D01*
X127030076Y-100692619D02*
X126934838Y-100597381D01*
X126934838Y-100597381D02*
X126887219Y-100502143D01*
X127887219Y-99168810D02*
X127887219Y-99645000D01*
X127887219Y-99645000D02*
X126887219Y-99645000D01*
X127363409Y-98835476D02*
X127363409Y-98502143D01*
X127887219Y-98359286D02*
X127887219Y-98835476D01*
X127887219Y-98835476D02*
X126887219Y-98835476D01*
X126887219Y-98835476D02*
X126887219Y-98359286D01*
X127887219Y-97930714D02*
X126887219Y-97930714D01*
X126887219Y-97930714D02*
X126887219Y-97692619D01*
X126887219Y-97692619D02*
X126934838Y-97549762D01*
X126934838Y-97549762D02*
X127030076Y-97454524D01*
X127030076Y-97454524D02*
X127125314Y-97406905D01*
X127125314Y-97406905D02*
X127315790Y-97359286D01*
X127315790Y-97359286D02*
X127458647Y-97359286D01*
X127458647Y-97359286D02*
X127649123Y-97406905D01*
X127649123Y-97406905D02*
X127744361Y-97454524D01*
X127744361Y-97454524D02*
X127839600Y-97549762D01*
X127839600Y-97549762D02*
X127887219Y-97692619D01*
X127887219Y-97692619D02*
X127887219Y-97930714D01*
X127839600Y-96216428D02*
X127887219Y-96073571D01*
X127887219Y-96073571D02*
X127887219Y-95835476D01*
X127887219Y-95835476D02*
X127839600Y-95740238D01*
X127839600Y-95740238D02*
X127791980Y-95692619D01*
X127791980Y-95692619D02*
X127696742Y-95645000D01*
X127696742Y-95645000D02*
X127601504Y-95645000D01*
X127601504Y-95645000D02*
X127506266Y-95692619D01*
X127506266Y-95692619D02*
X127458647Y-95740238D01*
X127458647Y-95740238D02*
X127411028Y-95835476D01*
X127411028Y-95835476D02*
X127363409Y-96025952D01*
X127363409Y-96025952D02*
X127315790Y-96121190D01*
X127315790Y-96121190D02*
X127268171Y-96168809D01*
X127268171Y-96168809D02*
X127172933Y-96216428D01*
X127172933Y-96216428D02*
X127077695Y-96216428D01*
X127077695Y-96216428D02*
X126982457Y-96168809D01*
X126982457Y-96168809D02*
X126934838Y-96121190D01*
X126934838Y-96121190D02*
X126887219Y-96025952D01*
X126887219Y-96025952D02*
X126887219Y-95787857D01*
X126887219Y-95787857D02*
X126934838Y-95645000D01*
X127839600Y-94787857D02*
X127887219Y-94883095D01*
X127887219Y-94883095D02*
X127887219Y-95073571D01*
X127887219Y-95073571D02*
X127839600Y-95168809D01*
X127839600Y-95168809D02*
X127791980Y-95216428D01*
X127791980Y-95216428D02*
X127696742Y-95264047D01*
X127696742Y-95264047D02*
X127411028Y-95264047D01*
X127411028Y-95264047D02*
X127315790Y-95216428D01*
X127315790Y-95216428D02*
X127268171Y-95168809D01*
X127268171Y-95168809D02*
X127220552Y-95073571D01*
X127220552Y-95073571D02*
X127220552Y-94883095D01*
X127220552Y-94883095D02*
X127268171Y-94787857D01*
X127887219Y-94359285D02*
X127220552Y-94359285D01*
X127411028Y-94359285D02*
X127315790Y-94311666D01*
X127315790Y-94311666D02*
X127268171Y-94264047D01*
X127268171Y-94264047D02*
X127220552Y-94168809D01*
X127220552Y-94168809D02*
X127220552Y-94073571D01*
X127839600Y-93359285D02*
X127887219Y-93454523D01*
X127887219Y-93454523D02*
X127887219Y-93644999D01*
X127887219Y-93644999D02*
X127839600Y-93740237D01*
X127839600Y-93740237D02*
X127744361Y-93787856D01*
X127744361Y-93787856D02*
X127363409Y-93787856D01*
X127363409Y-93787856D02*
X127268171Y-93740237D01*
X127268171Y-93740237D02*
X127220552Y-93644999D01*
X127220552Y-93644999D02*
X127220552Y-93454523D01*
X127220552Y-93454523D02*
X127268171Y-93359285D01*
X127268171Y-93359285D02*
X127363409Y-93311666D01*
X127363409Y-93311666D02*
X127458647Y-93311666D01*
X127458647Y-93311666D02*
X127553885Y-93787856D01*
X127839600Y-92502142D02*
X127887219Y-92597380D01*
X127887219Y-92597380D02*
X127887219Y-92787856D01*
X127887219Y-92787856D02*
X127839600Y-92883094D01*
X127839600Y-92883094D02*
X127744361Y-92930713D01*
X127744361Y-92930713D02*
X127363409Y-92930713D01*
X127363409Y-92930713D02*
X127268171Y-92883094D01*
X127268171Y-92883094D02*
X127220552Y-92787856D01*
X127220552Y-92787856D02*
X127220552Y-92597380D01*
X127220552Y-92597380D02*
X127268171Y-92502142D01*
X127268171Y-92502142D02*
X127363409Y-92454523D01*
X127363409Y-92454523D02*
X127458647Y-92454523D01*
X127458647Y-92454523D02*
X127553885Y-92930713D01*
X127220552Y-92025951D02*
X127887219Y-92025951D01*
X127315790Y-92025951D02*
X127268171Y-91978332D01*
X127268171Y-91978332D02*
X127220552Y-91883094D01*
X127220552Y-91883094D02*
X127220552Y-91740237D01*
X127220552Y-91740237D02*
X127268171Y-91644999D01*
X127268171Y-91644999D02*
X127363409Y-91597380D01*
X127363409Y-91597380D02*
X127887219Y-91597380D01*
D12*
X141071666Y-89489819D02*
X141071666Y-90204104D01*
X141071666Y-90204104D02*
X141024047Y-90346961D01*
X141024047Y-90346961D02*
X140928809Y-90442200D01*
X140928809Y-90442200D02*
X140785952Y-90489819D01*
X140785952Y-90489819D02*
X140690714Y-90489819D01*
X141595476Y-90489819D02*
X141785952Y-90489819D01*
X141785952Y-90489819D02*
X141881190Y-90442200D01*
X141881190Y-90442200D02*
X141928809Y-90394580D01*
X141928809Y-90394580D02*
X142024047Y-90251723D01*
X142024047Y-90251723D02*
X142071666Y-90061247D01*
X142071666Y-90061247D02*
X142071666Y-89680295D01*
X142071666Y-89680295D02*
X142024047Y-89585057D01*
X142024047Y-89585057D02*
X141976428Y-89537438D01*
X141976428Y-89537438D02*
X141881190Y-89489819D01*
X141881190Y-89489819D02*
X141690714Y-89489819D01*
X141690714Y-89489819D02*
X141595476Y-89537438D01*
X141595476Y-89537438D02*
X141547857Y-89585057D01*
X141547857Y-89585057D02*
X141500238Y-89680295D01*
X141500238Y-89680295D02*
X141500238Y-89918390D01*
X141500238Y-89918390D02*
X141547857Y-90013628D01*
X141547857Y-90013628D02*
X141595476Y-90061247D01*
X141595476Y-90061247D02*
X141690714Y-90108866D01*
X141690714Y-90108866D02*
X141881190Y-90108866D01*
X141881190Y-90108866D02*
X141976428Y-90061247D01*
X141976428Y-90061247D02*
X142024047Y-90013628D01*
X142024047Y-90013628D02*
X142071666Y-89918390D01*
X128779819Y-79834523D02*
X129494104Y-79834523D01*
X129494104Y-79834523D02*
X129636961Y-79882142D01*
X129636961Y-79882142D02*
X129732200Y-79977380D01*
X129732200Y-79977380D02*
X129779819Y-80120237D01*
X129779819Y-80120237D02*
X129779819Y-80215475D01*
X129779819Y-78834523D02*
X129779819Y-79405951D01*
X129779819Y-79120237D02*
X128779819Y-79120237D01*
X128779819Y-79120237D02*
X128922676Y-79215475D01*
X128922676Y-79215475D02*
X129017914Y-79310713D01*
X129017914Y-79310713D02*
X129065533Y-79405951D01*
X128779819Y-78215475D02*
X128779819Y-78120237D01*
X128779819Y-78120237D02*
X128827438Y-78024999D01*
X128827438Y-78024999D02*
X128875057Y-77977380D01*
X128875057Y-77977380D02*
X128970295Y-77929761D01*
X128970295Y-77929761D02*
X129160771Y-77882142D01*
X129160771Y-77882142D02*
X129398866Y-77882142D01*
X129398866Y-77882142D02*
X129589342Y-77929761D01*
X129589342Y-77929761D02*
X129684580Y-77977380D01*
X129684580Y-77977380D02*
X129732200Y-78024999D01*
X129732200Y-78024999D02*
X129779819Y-78120237D01*
X129779819Y-78120237D02*
X129779819Y-78215475D01*
X129779819Y-78215475D02*
X129732200Y-78310713D01*
X129732200Y-78310713D02*
X129684580Y-78358332D01*
X129684580Y-78358332D02*
X129589342Y-78405951D01*
X129589342Y-78405951D02*
X129398866Y-78453570D01*
X129398866Y-78453570D02*
X129160771Y-78453570D01*
X129160771Y-78453570D02*
X128970295Y-78405951D01*
X128970295Y-78405951D02*
X128875057Y-78358332D01*
X128875057Y-78358332D02*
X128827438Y-78310713D01*
X128827438Y-78310713D02*
X128779819Y-78215475D01*
D13*
X140025000Y-91035000D02*
X141405000Y-91035000D01*
X140025000Y-92415000D02*
X140025000Y-91035000D01*
X140025000Y-93685000D02*
X140025000Y-101415000D01*
X140025000Y-93685000D02*
X142785000Y-93685000D01*
X140025000Y-101415000D02*
X142785000Y-101415000D01*
X142785000Y-93685000D02*
X142785000Y-101415000D01*
X130325000Y-80405000D02*
X130325000Y-79025000D01*
X131705000Y-80405000D02*
X130325000Y-80405000D01*
X132975000Y-77645000D02*
X145785000Y-77645000D01*
X132975000Y-80405000D02*
X132975000Y-77645000D01*
X132975000Y-80405000D02*
X145785000Y-80405000D01*
X145785000Y-80405000D02*
X145785000Y-77645000D01*
M02*
