G04 #@! TF.GenerationSoftware,KiCad,Pcbnew,9.0.7*
G04 #@! TF.CreationDate,2026-03-13T13:53:43-04:00*
G04 #@! TF.ProjectId,OLEDBoard,4f4c4544-426f-4617-9264-2e6b69636164,1*
G04 #@! TF.SameCoordinates,Original*
G04 #@! TF.FileFunction,Legend,Bot*
G04 #@! TF.FilePolarity,Positive*
%FSLAX46Y46*%
G04 Gerber Fmt 4.6, Leading zero omitted, Abs format (unit mm)*
G04 Created by KiCad (PCBNEW 9.0.7) date 2026-03-13 13:53:43*
%MOMM*%
%LPD*%
G01*
G04 APERTURE LIST*
%ADD10C,0.100000*%
G04 APERTURE END LIST*
D10*
X147486503Y-80282524D02*
X147676979Y-80282524D01*
X147676979Y-80282524D02*
X147772217Y-80330144D01*
X147772217Y-80330144D02*
X147819836Y-80377763D01*
X147819836Y-80377763D02*
X147915074Y-80520620D01*
X147915074Y-80520620D02*
X147962693Y-80711096D01*
X147962693Y-80711096D02*
X147962693Y-81092048D01*
X147962693Y-81092048D02*
X147915074Y-81187286D01*
X147915074Y-81187286D02*
X147867455Y-81234905D01*
X147867455Y-81234905D02*
X147772217Y-81282524D01*
X147772217Y-81282524D02*
X147581741Y-81282524D01*
X147581741Y-81282524D02*
X147486503Y-81234905D01*
X147486503Y-81234905D02*
X147438884Y-81187286D01*
X147438884Y-81187286D02*
X147391265Y-81092048D01*
X147391265Y-81092048D02*
X147391265Y-80853953D01*
X147391265Y-80853953D02*
X147438884Y-80758715D01*
X147438884Y-80758715D02*
X147486503Y-80711096D01*
X147486503Y-80711096D02*
X147581741Y-80663477D01*
X147581741Y-80663477D02*
X147772217Y-80663477D01*
X147772217Y-80663477D02*
X147867455Y-80711096D01*
X147867455Y-80711096D02*
X147915074Y-80758715D01*
X147915074Y-80758715D02*
X147962693Y-80853953D01*
X148581741Y-81282524D02*
X148676979Y-81282524D01*
X148676979Y-81282524D02*
X148772217Y-81234905D01*
X148772217Y-81234905D02*
X148819836Y-81187286D01*
X148819836Y-81187286D02*
X148867455Y-81092048D01*
X148867455Y-81092048D02*
X148915074Y-80901572D01*
X148915074Y-80901572D02*
X148915074Y-80663477D01*
X148915074Y-80663477D02*
X148867455Y-80473001D01*
X148867455Y-80473001D02*
X148819836Y-80377763D01*
X148819836Y-80377763D02*
X148772217Y-80330144D01*
X148772217Y-80330144D02*
X148676979Y-80282524D01*
X148676979Y-80282524D02*
X148581741Y-80282524D01*
X148581741Y-80282524D02*
X148486503Y-80330144D01*
X148486503Y-80330144D02*
X148438884Y-80377763D01*
X148438884Y-80377763D02*
X148391265Y-80473001D01*
X148391265Y-80473001D02*
X148343646Y-80663477D01*
X148343646Y-80663477D02*
X148343646Y-80901572D01*
X148343646Y-80901572D02*
X148391265Y-81092048D01*
X148391265Y-81092048D02*
X148438884Y-81187286D01*
X148438884Y-81187286D02*
X148486503Y-81234905D01*
X148486503Y-81234905D02*
X148581741Y-81282524D01*
X150534122Y-80282524D02*
X150534122Y-81282524D01*
X150534122Y-80330144D02*
X150438884Y-80282524D01*
X150438884Y-80282524D02*
X150248408Y-80282524D01*
X150248408Y-80282524D02*
X150153170Y-80330144D01*
X150153170Y-80330144D02*
X150105551Y-80377763D01*
X150105551Y-80377763D02*
X150057932Y-80473001D01*
X150057932Y-80473001D02*
X150057932Y-80758715D01*
X150057932Y-80758715D02*
X150105551Y-80853953D01*
X150105551Y-80853953D02*
X150153170Y-80901572D01*
X150153170Y-80901572D02*
X150248408Y-80949191D01*
X150248408Y-80949191D02*
X150438884Y-80949191D01*
X150438884Y-80949191D02*
X150534122Y-80901572D01*
X151391265Y-80330144D02*
X151296027Y-80282524D01*
X151296027Y-80282524D02*
X151105551Y-80282524D01*
X151105551Y-80282524D02*
X151010313Y-80330144D01*
X151010313Y-80330144D02*
X150962694Y-80425382D01*
X150962694Y-80425382D02*
X150962694Y-80806334D01*
X150962694Y-80806334D02*
X151010313Y-80901572D01*
X151010313Y-80901572D02*
X151105551Y-80949191D01*
X151105551Y-80949191D02*
X151296027Y-80949191D01*
X151296027Y-80949191D02*
X151391265Y-80901572D01*
X151391265Y-80901572D02*
X151438884Y-80806334D01*
X151438884Y-80806334D02*
X151438884Y-80711096D01*
X151438884Y-80711096D02*
X150962694Y-80615858D01*
X152296027Y-80949191D02*
X152296027Y-80139667D01*
X152296027Y-80139667D02*
X152248408Y-80044429D01*
X152248408Y-80044429D02*
X152200789Y-79996810D01*
X152200789Y-79996810D02*
X152105551Y-79949191D01*
X152105551Y-79949191D02*
X151962694Y-79949191D01*
X151962694Y-79949191D02*
X151867456Y-79996810D01*
X152296027Y-80330144D02*
X152200789Y-80282524D01*
X152200789Y-80282524D02*
X152010313Y-80282524D01*
X152010313Y-80282524D02*
X151915075Y-80330144D01*
X151915075Y-80330144D02*
X151867456Y-80377763D01*
X151867456Y-80377763D02*
X151819837Y-80473001D01*
X151819837Y-80473001D02*
X151819837Y-80758715D01*
X151819837Y-80758715D02*
X151867456Y-80853953D01*
X151867456Y-80853953D02*
X151915075Y-80901572D01*
X151915075Y-80901572D02*
X152010313Y-80949191D01*
X152010313Y-80949191D02*
X152200789Y-80949191D01*
X152200789Y-80949191D02*
X152296027Y-80901572D01*
X147438884Y-78672580D02*
X147438884Y-79339247D01*
X147438884Y-79244009D02*
X147486503Y-79291628D01*
X147486503Y-79291628D02*
X147581741Y-79339247D01*
X147581741Y-79339247D02*
X147724598Y-79339247D01*
X147724598Y-79339247D02*
X147819836Y-79291628D01*
X147819836Y-79291628D02*
X147867455Y-79196390D01*
X147867455Y-79196390D02*
X147867455Y-78672580D01*
X147867455Y-79196390D02*
X147915074Y-79291628D01*
X147915074Y-79291628D02*
X148010312Y-79339247D01*
X148010312Y-79339247D02*
X148153169Y-79339247D01*
X148153169Y-79339247D02*
X148248408Y-79291628D01*
X148248408Y-79291628D02*
X148296027Y-79196390D01*
X148296027Y-79196390D02*
X148296027Y-78672580D01*
X149200788Y-78672580D02*
X149200788Y-79196390D01*
X149200788Y-79196390D02*
X149153169Y-79291628D01*
X149153169Y-79291628D02*
X149057931Y-79339247D01*
X149057931Y-79339247D02*
X148867455Y-79339247D01*
X148867455Y-79339247D02*
X148772217Y-79291628D01*
X149200788Y-78720200D02*
X149105550Y-78672580D01*
X149105550Y-78672580D02*
X148867455Y-78672580D01*
X148867455Y-78672580D02*
X148772217Y-78720200D01*
X148772217Y-78720200D02*
X148724598Y-78815438D01*
X148724598Y-78815438D02*
X148724598Y-78910676D01*
X148724598Y-78910676D02*
X148772217Y-79005914D01*
X148772217Y-79005914D02*
X148867455Y-79053533D01*
X148867455Y-79053533D02*
X149105550Y-79053533D01*
X149105550Y-79053533D02*
X149200788Y-79101152D01*
X149819836Y-78672580D02*
X149724598Y-78720200D01*
X149724598Y-78720200D02*
X149676979Y-78815438D01*
X149676979Y-78815438D02*
X149676979Y-79672580D01*
X150581741Y-78720200D02*
X150486503Y-78672580D01*
X150486503Y-78672580D02*
X150296027Y-78672580D01*
X150296027Y-78672580D02*
X150200789Y-78720200D01*
X150200789Y-78720200D02*
X150153170Y-78815438D01*
X150153170Y-78815438D02*
X150153170Y-79196390D01*
X150153170Y-79196390D02*
X150200789Y-79291628D01*
X150200789Y-79291628D02*
X150296027Y-79339247D01*
X150296027Y-79339247D02*
X150486503Y-79339247D01*
X150486503Y-79339247D02*
X150581741Y-79291628D01*
X150581741Y-79291628D02*
X150629360Y-79196390D01*
X150629360Y-79196390D02*
X150629360Y-79101152D01*
X150629360Y-79101152D02*
X150153170Y-79005914D01*
X151819837Y-79339247D02*
X151819837Y-78339247D01*
X151819837Y-79291628D02*
X151915075Y-79339247D01*
X151915075Y-79339247D02*
X152105551Y-79339247D01*
X152105551Y-79339247D02*
X152200789Y-79291628D01*
X152200789Y-79291628D02*
X152248408Y-79244009D01*
X152248408Y-79244009D02*
X152296027Y-79148771D01*
X152296027Y-79148771D02*
X152296027Y-78863057D01*
X152296027Y-78863057D02*
X152248408Y-78767819D01*
X152248408Y-78767819D02*
X152200789Y-78720200D01*
X152200789Y-78720200D02*
X152105551Y-78672580D01*
X152105551Y-78672580D02*
X151915075Y-78672580D01*
X151915075Y-78672580D02*
X151819837Y-78720200D01*
X152724599Y-78672580D02*
X152724599Y-79339247D01*
X152724599Y-79672580D02*
X152676980Y-79624961D01*
X152676980Y-79624961D02*
X152724599Y-79577342D01*
X152724599Y-79577342D02*
X152772218Y-79624961D01*
X152772218Y-79624961D02*
X152724599Y-79672580D01*
X152724599Y-79672580D02*
X152724599Y-79577342D01*
X153200789Y-79339247D02*
X153200789Y-78672580D01*
X153200789Y-79244009D02*
X153248408Y-79291628D01*
X153248408Y-79291628D02*
X153343646Y-79339247D01*
X153343646Y-79339247D02*
X153486503Y-79339247D01*
X153486503Y-79339247D02*
X153581741Y-79291628D01*
X153581741Y-79291628D02*
X153629360Y-79196390D01*
X153629360Y-79196390D02*
X153629360Y-78672580D01*
X154057932Y-78720200D02*
X154153170Y-78672580D01*
X154153170Y-78672580D02*
X154343646Y-78672580D01*
X154343646Y-78672580D02*
X154438884Y-78720200D01*
X154438884Y-78720200D02*
X154486503Y-78815438D01*
X154486503Y-78815438D02*
X154486503Y-78863057D01*
X154486503Y-78863057D02*
X154438884Y-78958295D01*
X154438884Y-78958295D02*
X154343646Y-79005914D01*
X154343646Y-79005914D02*
X154200789Y-79005914D01*
X154200789Y-79005914D02*
X154105551Y-79053533D01*
X154105551Y-79053533D02*
X154057932Y-79148771D01*
X154057932Y-79148771D02*
X154057932Y-79196390D01*
X154057932Y-79196390D02*
X154105551Y-79291628D01*
X154105551Y-79291628D02*
X154200789Y-79339247D01*
X154200789Y-79339247D02*
X154343646Y-79339247D01*
X154343646Y-79339247D02*
X154438884Y-79291628D01*
M02*
